<?xml version="1.0" standalone="no"?>
<!DOCTYPE svg PUBLIC "-//W3C//DTD SVG 1.1//EN" "http://www.w3.org/Graphics/SVG/1.1/DTD/svg11.dtd" >
<svg xmlns="http://www.w3.org/2000/svg" xmlns:xlink="http://www.w3.org/1999/xlink" version="1.1">
<metadata></metadata>
<defs>
<font id="db_heaventmed" horiz-adv-x="0" >
<font-face units-per-em="2048" ascent="1638" descent="-410" />
<missing-glyph horiz-adv-x="508" />
<glyph unicode="&#x2b;&#x2d;" horiz-adv-x="1224" d="M77 0v188h1071v-188h-1071zM77 707v195h437v443h196v-443h438v-195h-437v-438h-194v438h-440z" />
<glyph unicode="&#x2e;&#x2e;&#x2e;" horiz-adv-x="2026" d="M191 -3v286h288v-286h-288zM864 -3v286h286v-286h-286zM1539 -3v286h289v-286h-289z" />
<glyph unicode="&#x3c;&#x3d;" horiz-adv-x="1303" d="M108 180h1082l3 -180h-1082zM108 745v163l1083 488v-193l-829 -378l829 -374v-191z" />
<glyph unicode="&#x3e;&#x3d;" horiz-adv-x="1303" d="M108 180h1082l3 -180h-1082zM108 260l3 191l826 374l-829 378l2 193l1081 -488l-1 -163z" />
<glyph unicode="&#xe4f;&#x22;" horiz-adv-x="1515" d="M107 610q0 89 22.5 171.5t65 153.5t102 130t131 100t155 64.5t173.5 23.5q88 0 169.5 -23.5t152.5 -64.5t129.5 -100t100 -130t64.5 -153q24 -83 24 -172t-23.5 -171.5t-65 -154t-100.5 -130t-130 -100t-153 -63.5q-83 -23 -171 -23q-90 0 -172 22.5t-154 64t-131 100 t-101 130t-65 154t-23 171.5zM283 616q0 -96 37.5 -181.5t101 -149t149.5 -101.5t184 -38q64 0 123 17.5t110.5 48t93.5 73t72 95t47 112.5t17 124t-16 124t-47 111t-73 93.5t-94 72.5t-111 46.5t-124 16.5q-99 0 -183.5 -36.5t-148 -99t-101 -147.5t-37.5 -181zM409 616 q0 69 27.5 130t74.5 107t109.5 74t132.5 28q69 0 129.5 -28t106.5 -74t73 -107t27 -130q0 -70 -26 -133t-72 -109t-107 -73t-131 -27t-132.5 27t-109.5 73t-74.5 109t-27.5 133zM495 1764h197l-25 -335h-153zM568 616q0 -39 14.5 -73.5t38.5 -59.5t59 -38q32 -14 73 -14 q38 0 70.5 13.5t56.5 38.5t37.5 59.5t12.5 73.5q0 38 -14 70t-37 57t-55.5 39t-68.5 14q-41 0 -75.5 -14t-59 -39t-38.5 -57t-14 -70zM821 1764h201l-23 -335h-155z" />
<glyph unicode="&#xe0e;&#xe3a;" horiz-adv-x="1341" d="M64 200h120v463q0 25 -4.5 50.5t-15.5 50t-30.5 46.5t-51.5 40q11 49 33 97.5t55.5 93.5t80.5 84t107.5 67.5t135.5 44.5t166 16q108 0 192.5 -20t147.5 -55.5t106.5 -84t70 -105.5t38 -120.5t11.5 -128.5v-1161h-239q-18 26 -41 51.5t-58 44.5t-83.5 31t-113.5 12 q-53 0 -99.5 -12t-90 -33.5t-82.5 -54.5q-39 -35 -77 -75l1 236q26 29 63.5 54t82.5 44t96.5 29t108.5 10q52 0 96 -7t79 -18t62 -24q27 -12 46 -24l1 917q0 53 -16 102.5t-53 90.5t-98 65.5t-151 26.5q-76 0 -132 -17t-95 -43t-61.5 -56t-28.5 -55q18 -17 34 -40t27 -50 t17 -58q5 -33 5 -65l5 -660h-365zM934 -670q0 35 13.5 65t36 53t53 36.5t65.5 13.5q34 0 63 -13.5t52 -36.5t36 -53q14 -30 14 -65q0 -34 -13 -64t-36.5 -52.5t-53.5 -35.5t-63 -13q-35 0 -65 13t-52.5 35.5t-36 52.5t-13.5 64z" />
<glyph unicode="&#xe0f;&#xe3a;" horiz-adv-x="1341" d="M64 200h120v463q0 25 -4.5 50.5t-15.5 50t-30.5 46.5t-51.5 40q11 49 33 97.5t55.5 93.5t80.5 84t107.5 67.5t135.5 44.5t166 16q108 0 192.5 -20t147.5 -55.5t106.5 -84t70 -105.5t38 -120.5t11.5 -128.5v-1161h-245q-4 20 -13.5 46t-25.5 47.5t-38 36.5t-54 15 q-29 0 -51 -15t-37.5 -36t-22 -46.5t-6.5 -47.5h-207q0 16 -4.5 41t-17.5 48t-35 41t-54 18q-27 0 -46 -14t-31 -35.5t-17.5 -47.5t-5.5 -51h-195q0 88 23 151.5t63.5 104t89.5 59.5t98 19q73 0 129.5 -29t92.5 -83q21 26 46.5 46t52.5 33t54.5 19t51.5 6q54 0 91.5 -16 t65.5 -40v911q0 53 -16 102.5t-53 90.5t-98 65.5t-151 26.5q-76 0 -132 -17t-95 -43t-61.5 -56t-28.5 -55q18 -17 34 -40t27 -50t17 -58q5 -33 5 -65l5 -660h-365zM934 -670q0 35 13.5 65t36 53t53 36.5t65.5 13.5q34 0 63 -13.5t52 -36.5t36 -53q14 -30 14 -65 q0 -34 -13 -64t-36.5 -52.5t-53.5 -35.5t-63 -13q-35 0 -65 13t-52.5 35.5t-36 52.5t-13.5 64z" />
<glyph unicode="&#xe0e;&#xe38;" horiz-adv-x="1341" d="M64 200h120v463q0 25 -4.5 50.5t-15.5 50t-30.5 46.5t-51.5 40q11 49 33 97.5t55.5 93.5t80.5 84t107.5 67.5t135.5 44.5t166 16q108 0 192.5 -20t147.5 -55.5t106.5 -84t70 -105.5t38 -120.5t11.5 -128.5v-1161h-239q-18 26 -41 51.5t-58 44.5t-83.5 31t-113.5 12 q-53 0 -99.5 -12t-90 -33.5t-82.5 -54.5q-39 -35 -77 -75l1 236q26 29 63.5 54t82.5 44t96.5 29t108.5 10q52 0 96 -7t79 -18t62 -24q27 -12 46 -24l1 917q0 53 -16 102.5t-53 90.5t-98 65.5t-151 26.5q-76 0 -132 -17t-95 -43t-61.5 -56t-28.5 -55q18 -17 34 -40t27 -50 t17 -58q5 -33 5 -65l5 -660h-365zM889 -499h337v-459h-230l3 270h-108z" />
<glyph unicode="&#xe0f;&#xe38;" horiz-adv-x="1341" d="M64 200h120v463q0 25 -4.5 50.5t-15.5 50t-30.5 46.5t-51.5 40q11 49 33 97.5t55.5 93.5t80.5 84t107.5 67.5t135.5 44.5t166 16q108 0 192.5 -20t147.5 -55.5t106.5 -84t70 -105.5t38 -120.5t11.5 -128.5v-1161h-245q-4 20 -13.5 46t-25.5 47.5t-38 36.5t-54 15 q-29 0 -51 -15t-37.5 -36t-22 -46.5t-6.5 -47.5h-207q0 16 -4.5 41t-17.5 48t-35 41t-54 18q-27 0 -46 -14t-31 -35.5t-17.5 -47.5t-5.5 -51h-195q0 88 23 151.5t63.5 104t89.5 59.5t98 19q73 0 129.5 -29t92.5 -83q21 26 46.5 46t52.5 33t54.5 19t51.5 6q54 0 91.5 -16 t65.5 -40v911q0 53 -16 102.5t-53 90.5t-98 65.5t-151 26.5q-76 0 -132 -17t-95 -43t-61.5 -56t-28.5 -55q18 -17 34 -40t27 -50t17 -58q5 -33 5 -65l5 -660h-365zM889 -499h337v-459h-230l3 270h-108z" />
<glyph unicode="&#xe0e;&#xe39;" horiz-adv-x="1341" d="M64 200h120v463q0 25 -4.5 50.5t-15.5 50t-30.5 46.5t-51.5 40q11 49 33 97.5t55.5 93.5t80.5 84t107.5 67.5t135.5 44.5t166 16q108 0 192.5 -20t147.5 -55.5t106.5 -84t70 -105.5t38 -120.5t11.5 -128.5v-1161h-239q-18 26 -41 51.5t-58 44.5t-83.5 31t-113.5 12 q-53 0 -99.5 -12t-90 -33.5t-82.5 -54.5q-39 -35 -77 -75l1 236q26 29 63.5 54t82.5 44t96.5 29t108.5 10q52 0 96 -7t79 -18t62 -24q27 -12 46 -24l1 917q0 53 -16 102.5t-53 90.5t-98 65.5t-151 26.5q-76 0 -132 -17t-95 -43t-61.5 -56t-28.5 -55q18 -17 34 -40t27 -50 t17 -58q5 -33 5 -65l5 -660h-365zM453 -499h341v-167q0 -58 25 -88.5t77 -30.5q50 0 76 29q27 32 24 90l1 167h229v-167q0 -64 -17.5 -121t-56 -99.5t-102 -67t-155.5 -24.5q-86 0 -148 21t-102.5 59t-60.5 91.5t-23 118.5h-107z" />
<glyph unicode="&#xe0f;&#xe39;" horiz-adv-x="1341" d="M64 200h120v463q0 25 -4.5 50.5t-15.5 50t-30.5 46.5t-51.5 40q11 49 33 97.5t55.5 93.5t80.5 84t107.5 67.5t135.5 44.5t166 16q108 0 192.5 -20t147.5 -55.5t106.5 -84t70 -105.5t38 -120.5t11.5 -128.5v-1161h-245q-4 20 -13.5 46t-25.5 47.5t-38 36.5t-54 15 q-29 0 -51 -15t-37.5 -36t-22 -46.5t-6.5 -47.5h-207q0 16 -4.5 41t-17.5 48t-35 41t-54 18q-27 0 -46 -14t-31 -35.5t-17.5 -47.5t-5.5 -51h-195q0 88 23 151.5t63.5 104t89.5 59.5t98 19q73 0 129.5 -29t92.5 -83q21 26 46.5 46t52.5 33t54.5 19t51.5 6q54 0 91.5 -16 t65.5 -40v911q0 53 -16 102.5t-53 90.5t-98 65.5t-151 26.5q-76 0 -132 -17t-95 -43t-61.5 -56t-28.5 -55q18 -17 34 -40t27 -50t17 -58q5 -33 5 -65l5 -660h-365zM453 -499h341v-167q0 -58 25 -88.5t77 -30.5q50 0 76 29q27 32 24 90l1 167h229v-167q0 -64 -17.5 -121 t-56 -99.5t-102 -67t-155.5 -24.5q-86 0 -148 21t-102.5 59t-60.5 91.5t-23 118.5h-107z" />
<glyph unicode=" "  horiz-adv-x="508" />
<glyph unicode="&#x09;" horiz-adv-x="508" />
<glyph unicode="&#xa0;" horiz-adv-x="508" />
<glyph unicode="!" horiz-adv-x="756" d="M234 0v272h289v-272h-289zM245 1023v405h265v-405l-54 -632h-155z" />
<glyph unicode="&#x22;" horiz-adv-x="893" d="M207 907v521h173v-521h-173zM511 907v521h175l-1 -521h-174z" />
<glyph unicode="#" horiz-adv-x="1198" d="M73 400l1 193h221l32 239h-201v191h229l58 405h197l-58 -405h194l57 405h199l-56 -405h177v-191h-202l-33 -239h175v-193h-206l-55 -400h-203l58 400h-188l-60 -400h-199l56 400h-193zM496 593h190l32 239h-188z" />
<glyph unicode="$" horiz-adv-x="1181" d="M48 479h243q2 -121 61.5 -195t158.5 -94v442q-99 26 -178 59t-133 78.5t-81.5 107.5t-27.5 149q0 91 33.5 166t90.5 130.5t133 90.5q75 35 163 44v137h177v-137q165 -26 265 -139q101 -112 139 -300h-239q-19 86 -59.5 140t-105.5 73v-406q49 -9 102.5 -26.5t101.5 -43 t92 -59t76 -76t50 -95.5q17 -53 17 -116q0 -92 -32 -168.5t-90.5 -134.5t-139 -93t-177.5 -42l1 -167h-178l3 170q-102 13 -184 51.5t-141 103t-95 152t-46 198.5zM343 1047q0 -41 11 -69.5t32 -47.5t52.5 -32t73.5 -23l2 366q-38 -9 -70 -25t-54 -40t-34.5 -56t-12.5 -73z M689 181q41 6 76 23.5t60.5 43.5t39.5 62.5t14 83.5q0 41 -14.5 71.5t-39.5 52.5t-60 38t-76 28v-403z" />
<glyph unicode="%" horiz-adv-x="2057" d="M196 1018q0 81 17.5 157t57.5 134t105.5 93t163.5 35q101 0 169 -34t108 -90.5t57 -132.5q17 -73 17 -158q0 -80 -19 -155.5t-61.5 -133.5t-109.5 -93.5t-161 -35.5q-93 0 -159 32.5t-106.5 88t-59.5 130.5t-19 163zM400 1022q0 -26 1.5 -55.5t7.5 -58.5t14.5 -54.5 t24.5 -45.5t38 -31.5t51 -11.5q47 0 76 25t45.5 63t20.5 83t4 86q0 26 -1.5 54t-5.5 56.5t-14.5 54t-26 46t-39.5 32t-56 11.5q-44 0 -71.5 -26.5t-42 -64t-20.5 -81.5t-6 -82zM456 -29l902 1486h236l-896 -1486h-242zM1165 397q0 83 17.5 160t59 135t109.5 92.5t167.5 34.5 t166 -33t105.5 -90t56 -132.5t17 -160.5q0 -82 -19.5 -156.5t-61.5 -132t-107 -92t-157 -34.5q-96 0 -163 32.5t-109.5 88t-61.5 129.5t-19 159zM1372 400q0 -25 1.5 -53.5t7.5 -56t15.5 -53t25 -45.5t38 -31.5t53.5 -11.5q46 0 74 24t43 61.5t20.5 82.5t5.5 86 q0 26 -1.5 55.5t-7.5 57t-14.5 54t-25 46t-38 31t-51.5 11.5q-32 0 -54.5 -11.5t-39.5 -31t-27 -46t-16 -55.5t-7.5 -58.5t-1.5 -55.5z" />
<glyph unicode="&#x26;" horiz-adv-x="1335" d="M70 383q0 84 25 148.5t68 114t102 89.5t126 78q-27 35 -53 71t-46 75.5t-32.5 82.5t-12.5 91q0 63 22.5 120t68 100t109.5 68q67 26 152 26q73 0 141.5 -20t121 -59t84.5 -97.5t32 -134.5q0 -63 -21 -117.5t-56 -101.5t-81 -85t-99 -67l208 -245q14 45 22 91q7 46 13 99 h219q-8 -47 -13.5 -84.5t-11.5 -67t-12.5 -56t-14.5 -50.5t-19 -49.5t-26 -55.5l313 -347h-298l-139 155q-36 -45 -83 -78t-101 -55.5t-112.5 -33.5t-116.5 -11q-105 0 -181 21.5t-129.5 57t-86 80.5t-51.5 90.5t-25 86t-6 70.5zM307 385q0 -48 21 -86.5t55.5 -65.5 t78.5 -42q46 -14 93 -14q86 0 154.5 35t118.5 99q-78 86 -155 178t-150 174q-44 -26 -83.5 -52.5t-68.5 -60t-46.5 -73t-17.5 -92.5zM474 1127q0 -25 9.5 -50.5t26 -51.5t37.5 -53q19 -29 43 -55q26 19 55.5 40t52.5 46t39 55q16 31 16 69q0 25 -11 47.5t-29 38.5 t-44.5 26.5t-58.5 10.5q-26 0 -50 -7.5t-43 -23t-31 -38t-12 -54.5z" />
<glyph unicode="'" horiz-adv-x="591" d="M207 907v521h173v-521h-173z" />
<glyph unicode="(" horiz-adv-x="585" d="M89 550q0 123 19.5 246.5t60.5 243t101 235t142 220.5h200q-75 -120 -127.5 -235t-85.5 -232t-48 -235t-14 -243q0 -125 14.5 -243.5t47.5 -234.5t85.5 -232.5t125.5 -236.5h-201q-72 111 -131 223.5t-101.5 229t-65 240t-22.5 254.5z" />
<glyph unicode=")" horiz-adv-x="585" d="M-28 1495h200q82 -105 142 -220.5t101 -235t61 -243.5t20 -246q0 -131 -24.5 -254.5t-67 -240t-102.5 -229t-131 -223.5h-197q73 120 124.5 236.5t84.5 232.5t48 235q17 119 17 243.5t-16 242.5t-49.5 235t-85.5 232t-125 235z" />
<glyph unicode="*" horiz-adv-x="770" d="M41 1140l52 151l211 -76l-2 216h162v-216l203 76l62 -151l-215 -74l131 -180l-134 -89l-126 181l-125 -181l-137 89l125 180z" />
<glyph unicode="+" horiz-adv-x="1255" d="M91 645h438v444h195v-444h441v-194h-439v-439h-195v439h-439z" />
<glyph unicode="," horiz-adv-x="591" d="M150 0v283h288v-235q0 -63 -17.5 -123.5t-52.5 -112t-89 -92.5t-129 -65v167q30 10 53 31t39 47t24 53t8 47h-124z" />
<glyph unicode="-" horiz-adv-x="967" d="M92 451v194h783l1 -194h-784z" />
<glyph unicode="." horiz-adv-x="591" d="M149 -3l1 286h288l-1 -286h-288z" />
<glyph unicode="/" horiz-adv-x="770" d="M-26 -29l585 1489h226l-594 -1489h-217z" />
<glyph unicode="0" horiz-adv-x="1135" d="M53 715q0 59 2.5 121t10.5 124.5t23.5 123.5t42 115t63.5 100.5t90.5 80t122 52.5t158.5 19t159 -19t121.5 -52.5t90.5 -80t63.5 -100.5t41 -115t24.5 -123.5t11 -124.5t2 -121q0 -81 -5 -168t-22.5 -169t-51 -155.5t-90.5 -127.5t-140.5 -86t-203.5 -32q-119 0 -203 32 t-141.5 86t-91.5 127.5t-50.5 155.5t-21.5 169t-5 168zM301 715q0 -49 1.5 -107.5t8.5 -117t24 -112.5t47 -96.5t75 -68t109 -25.5q65 0 110 25.5t74.5 68t45.5 96.5t24 112.5t9.5 117t1.5 107.5t-2.5 106.5t-11 116t-26 113t-47 97t-73 68t-105.5 25.5q-61 0 -105.5 -25.5 t-74.5 -68t-46 -97t-24.5 -113t-11.5 -117t-3 -105.5z" />
<glyph unicode="1" horiz-adv-x="1135" d="M139 942l3 211q77 5 144 16t119 38.5t88.5 79.5t54.5 139h210l1 -1426h-236l-2 1004q-71 -33 -164.5 -47t-217.5 -15z" />
<glyph unicode="2" horiz-adv-x="1135" d="M53 0q8 89 28.5 161.5t51.5 131.5t69.5 106.5t82 87.5t91 73.5t97.5 64.5q91 58 155 103.5t106.5 87.5t63 89t20.5 108q0 50 -19 91t-51.5 69.5t-76 43.5t-91.5 15q-68 0 -115 -29t-78 -77.5t-45 -110.5q-14 -63 -9 -127h-240q-7 79 5 152t40 134t72 110.5t101 85.5 t127 55t150 19q100 0 188 -28.5t152.5 -84t102.5 -136t38 -185.5q0 -67 -14.5 -123t-41 -103.5t-61.5 -87t-75 -71.5t-83.5 -60.5t-83.5 -53.5q-59 -35 -117.5 -71.5t-108 -74t-86 -76t-51.5 -76.5h713v-213h-1007z" />
<glyph unicode="3" horiz-adv-x="1135" d="M58 470h246q0 -67 16 -121t46.5 -91.5t78.5 -57.5t111 -20q62 0 113 16.5t87.5 46.5t55.5 74q20 42 20 98q0 57 -17.5 100t-51 70t-81 40.5t-105.5 13.5h-18.5t-13 -0.5t-16 -1t-27.5 -0.5v195h53q47 0 87.5 14t70 39.5t45.5 62.5q17 39 17 86q0 96 -54.5 147t-165.5 51 q-62 0 -104 -23t-68.5 -62.5t-38 -93.5t-11.5 -114h-245q3 112 33.5 205t89 159t144.5 103.5t200 37.5q101 0 186 -25.5t148.5 -76.5t99.5 -129q36 -77 36 -182q0 -44 -13 -85t-36.5 -76t-54 -64t-67.5 -51q121 -43 175 -128q54 -87 54 -209q0 -71 -19 -130.5t-51 -109.5 t-77 -88q-45 -40 -98 -67q-29 -16 -63.5 -25.5t-70 -15t-72 -7t-74.5 -1.5q-116 0 -208.5 30.5t-157.5 93.5t-99 155q-35 94 -35 217z" />
<glyph unicode="4" horiz-adv-x="1135" d="M39 299l2 209l653 918h211v-906h196v-221h-196v-299h-235v299h-631zM301 520h368v528z" />
<glyph unicode="5" horiz-adv-x="1135" d="M55 439h240q6 -54 26.5 -99t54 -79.5t80 -53.5t105.5 -19q55 0 104.5 18.5t86 56.5t57 93.5t20.5 131.5q0 61 -20.5 113t-57 89t-87.5 57.5t-112 20.5q-44 0 -82 -6t-70 -20.5t-59 -38.5t-50 -58h-208l130 781h790v-208h-597l-47 -310q25 15 54 28t60 22t61.5 14.5 t58.5 5.5q102 0 190.5 -32t154.5 -95t104 -157.5t38 -220.5q0 -96 -33.5 -184.5t-100 -156.5t-166.5 -109t-234 -41q-99 0 -186.5 29.5t-155 87t-107 143t-42.5 197.5z" />
<glyph unicode="6" horiz-adv-x="1135" d="M50 673q0 99 11.5 196.5t36.5 183.5t67 159t104 125.5t146 83t192 30.5q95 0 173 -25.5t133.5 -76.5t91 -127.5t46.5 -177.5h-239q-12 101 -67.5 146t-150.5 45q-58 0 -101 -21t-76.5 -55.5t-55.5 -78t-36.5 -90.5t-21.5 -92t-8 -80q29 33 65.5 58.5t79 44t87.5 28 t91 9.5q113 0 200 -38t147 -103t90.5 -153.5t30.5 -187.5q0 -56 -9.5 -114t-33.5 -113.5t-62.5 -105.5t-95.5 -87t-133 -58t-174 -21q-114 0 -198 30.5t-142 82.5t-95.5 121t-58 146.5t-27.5 158.5t-7 157zM318 464.5q0 -58.5 19 -109.5t53.5 -87.5t83.5 -58t113 -21.5 q61 0 109.5 21.5t80.5 58.5t49 87q15 51 15 106q0 59 -15.5 110t-46.5 89.5t-81 61.5t-114 23t-113 -22t-83.5 -60t-52 -89t-17.5 -109.5z" />
<glyph unicode="7" horiz-adv-x="1135" d="M72 1206v220h995v-182q-125 -123 -226 -272t-171.5 -311t-108.5 -330.5t-38 -330.5h-266q0 111 17.5 222t51 220.5t80.5 214t104.5 201.5t124 184.5t139.5 163.5h-702z" />
<glyph unicode="8" horiz-adv-x="1135" d="M41 431q0 115 57 205q57 88 160 141q-36 23 -62.5 55t-44 70t-26 79t-8.5 83q0 94 35 166t95 121t140 74.5t171 25.5q125 0 211.5 -33.5t140.5 -87.5t78 -123.5t24 -142.5q0 -46 -8 -88t-24 -77.5t-43 -65.5q-29 -30 -67 -53q51 -27 93.5 -62t71.5 -80t45 -97t16 -110 q0 -111 -42 -195t-113.5 -142.5t-166 -87.5t-199.5 -29q-111 0 -207 27.5t-169 84.5t-115.5 143t-42.5 199zM289 425q0 -57 22 -101t60.5 -74.5t90.5 -46t113 -15.5q59 0 108.5 17t86 49t57 76t20.5 98q0 48 -23.5 90.5t-61.5 73t-87.5 48t-103.5 17.5q-56 0 -107.5 -16 t-89.5 -46t-61.5 -74t-23.5 -96zM364 1056q0 -47 16.5 -83t46 -60.5t68 -36.5t80.5 -12q41 0 76 13.5t60 38t39.5 59.5t14.5 81q0 43 -14.5 77.5t-41 56.5t-63 33.5t-78.5 11.5q-38 0 -75 -11t-66.5 -33t-47 -55.5t-15.5 -79.5z" />
<glyph unicode="9" horiz-adv-x="1135" d="M50 952q0 55 10 113.5t34 114t63 104.5t96 86t132.5 59t172.5 22q86 0 154.5 -17.5t122 -49.5t93 -74.5t67 -93.5t45 -108.5t27.5 -117.5t14.5 -120t4.5 -117q0 -99 -11 -195.5t-36.5 -183t-67.5 -159.5t-103.5 -126.5t-146 -82.5t-192.5 -29q-97 0 -173.5 24.5 t-133 75.5t-91.5 127t-45 179h240q11 -101 67 -146q57 -46 150 -46q59 0 102 21.5t75.5 55.5t54.5 78.5t36.5 91.5t22.5 91q7 46 7 81q-29 -35 -65.5 -61t-79 -43.5t-87.5 -26.5t-89 -9q-114 0 -201.5 36.5t-147.5 102.5t-90.5 153.5t-30.5 189.5zM295 967q0 -59 16 -111 t47.5 -90.5t80.5 -61t113 -22.5t113.5 22t83.5 60.5t51.5 89.5t17.5 109.5t-18.5 109.5t-53 87.5t-84 57t-112.5 20.5q-61 0 -108.5 -22t-80.5 -58.5t-49.5 -86t-16.5 -104.5z" />
<glyph unicode=":" horiz-adv-x="591" d="M152 -4v287h286v-287h-286zM152 774v287h286v-287h-286z" />
<glyph unicode=";" horiz-adv-x="591" d="M150 0v283h288v-235q0 -63 -17.5 -123.5t-52.5 -112t-89 -92.5t-129 -65v167q30 10 53 31t39 47t24 53t8 47h-124zM150 1061h288v-287h-286z" />
<glyph unicode="&#x3c;" horiz-adv-x="1332" d="M120 639l1089 488v-200l-829 -374l829 -371v-197l-1088 485z" />
<glyph unicode="=" horiz-adv-x="1246" d="M93 251v188h1060v-188h-1060zM93 657v190h1060v-190h-1060z" />
<glyph unicode="&#x3e;" horiz-adv-x="1332" d="M121 -15v197l828 371l-828 374v200l1088 -488v-169z" />
<glyph unicode="?" horiz-adv-x="1201" d="M149 961q-3 116 30 215t97 169.5t155.5 110t205.5 39.5q102 0 186 -28.5t144.5 -83t94.5 -133.5q36 -79 36 -180q-2 -64 -20 -114.5t-47 -90.5t-63 -73t-66 -62q-29 -26 -56.5 -53t-49 -57t-34.5 -66.5t-13 -83.5l-1 -108h-240l2 126q2 61 20.5 110t46 89t60.5 74 q35 33 64 64q23 25 51 52.5t50.5 59.5t36.5 70t12 82q-6 44 -22 80.5t-43 63t-65 39.5t-86 13q-66 0 -112.5 -26.5t-77 -70t-44.5 -103.5q-13 -60 -13 -124h-239zM482 0v277h289v-277h-289z" />
<glyph unicode="@" horiz-adv-x="1697" d="M101 742q0 105 27.5 200.5t78 178.5t122 151t157.5 116.5t184 74.5t205 26q96 0 185.5 -21t168.5 -60.5t144 -95.5t112 -125t72.5 -150.5t25.5 -172.5q0 -84 -24.5 -154.5t-65 -125.5t-94 -97.5t-110.5 -70.5t-115.5 -39.5t-107.5 -8.5q-38 3 -73 22t-62 58 q-46 -35 -100 -60.5t-110 -25.5q-58 0 -107 22.5t-85 62t-56 93t-20 114.5t14.5 122.5t40.5 117t64 103.5t87 83t106.5 54t125.5 19q23 0 49.5 -5.5t52.5 -19t48 -37.5q22 -25 36 -60q3 9 7.5 20.5t9.5 25.5t9 27t8 23h153l-156 -517q-6 -20 -9 -41t-0.5 -39t13.5 -28 q12 -11 33 -11q41 0 86 27.5t83.5 77t64.5 115.5t26 145q0 118 -44 207t-116.5 149.5t-168 91t-199.5 30.5q-127 0 -235 -48t-187.5 -129.5t-124 -192.5t-44.5 -237q0 -83 21 -159.5t60 -142.5t94.5 -119t122.5 -92t143 -59.5t161 -20.5q67 0 129.5 6.5t121 25t111.5 52.5 q52 33 99 87h193q-64 -92 -138.5 -153t-158 -98.5t-174 -53t-186.5 -15.5q-111 0 -212 26.5t-188.5 74.5t-157.5 116t-121 152t-78 182t-27 206zM623 663q0 -32 10.5 -59t28.5 -47t43 -31.5t57 -11.5q35 0 67 17t60 44t50.5 63.5t39.5 74t25.5 77t8.5 74.5q0 27 -8.5 51.5 t-24 45t-37.5 33.5t-49 13q-41 0 -77.5 -16t-66.5 -42t-53.5 -61t-40.5 -73t-25 -77.5t-8 -74.5z" />
<glyph unicode="A" horiz-adv-x="1407" d="M0 0l558 1428h280l569 -1428h-289l-147 400h-556l-146 -400h-269zM505 619h380l-193 526z" />
<glyph unicode="B" horiz-adv-x="1407" d="M140 0v1428h613q65 0 127.5 -7.5t118 -25t103 -46.5t82 -71.5t53.5 -101t19 -134.5q0 -38 -12 -79.5t-35 -81t-59.5 -73.5t-88.5 -58q60 -13 110 -45.5t85.5 -79.5t55.5 -103t20 -116q0 -79 -28.5 -152t-89.5 -129t-154 -90.5t-226 -34.5h-694zM397 213h435q59 0 104 16 t75.5 43t47 61.5t16.5 72.5q0 60 -21.5 101t-58.5 65.5t-89 35.5t-112 11h-397v-406zM397 835h342q73 0 123 17t80 44.5t43.5 63.5t13.5 74q0 45 -17 78.5t-50 55.5t-78 33t-101 11h-356v-377z" />
<glyph unicode="C" horiz-adv-x="1483" d="M67 707q0 105 20.5 202t61.5 181t101 152t138.5 116.5t176.5 75t215 26.5q119 0 223 -30.5t185.5 -92t136.5 -154.5q56 -92 77 -215h-265q-17 73 -50.5 125t-81 86t-106 51t-122.5 17q-79 0 -143.5 -20.5t-114 -56.5t-86.5 -84.5t-61.5 -107t-36 -123.5t-11.5 -132 q0 -110 26.5 -207.5t82 -171.5t141.5 -117t206 -43q90 0 157 31.5t112.5 83t69.5 117.5q26 66 29 134h257q-15 -135 -62 -242t-125.5 -181t-189.5 -113.5t-251 -39.5q-180 0 -313.5 56t-221 154.5t-131.5 233t-44 289.5z" />
<glyph unicode="D" horiz-adv-x="1446" d="M140 0v1428h516q175 0 310 -42.5t228.5 -127t141.5 -211.5t48 -298q0 -180 -42.5 -320t-131.5 -235t-225 -144q-138 -50 -328 -50h-517zM397 213h275q23 0 54.5 3t68 10.5t75 22.5t76.5 40.5t71 63t58.5 89t39.5 120.5t14 158q0 117 -24.5 208t-78.5 154t-141 96 q-88 34 -210 34h-278v-999z" />
<glyph unicode="E" horiz-adv-x="1255" d="M140 0v1428h1053l-2 -216h-794v-365h704v-216h-704v-418h800v-213h-1057z" />
<glyph unicode="F" horiz-adv-x="1181" d="M142 0v1428h1001v-216h-743l-1 -365h636l-1 -216h-635v-631h-257z" />
<glyph unicode="G" horiz-adv-x="1514" d="M67 707q0 105 20.5 202t61.5 181t101 152t138.5 116.5t176.5 75t215 26.5q121 0 225.5 -30.5t185.5 -92t135 -154.5q55 -92 76 -215h-265q-14 73 -45.5 126.5t-78 87t-106.5 49.5t-130 16q-79 0 -143.5 -20.5t-114 -56.5t-86.5 -84.5t-61.5 -107t-36 -123.5t-11.5 -132 q0 -73 10.5 -142t32 -128.5t56.5 -108.5t85 -85t114 -55.5t147 -19.5q91 0 164 32t125 84.5t79.5 121.5t30.5 143h-435v216h673v-781h-180l-32 190q-38 -50 -87.5 -89.5t-105 -68t-115.5 -43.5t-117 -15q-175 0 -306.5 56t-219.5 154.5t-132 233t-44 289.5z" />
<glyph unicode="H" horiz-adv-x="1483" d="M140 0v1428h257v-581h686v581h257v-1428h-257v631h-686v-631h-257z" />
<glyph unicode="I" horiz-adv-x="579" d="M161 0v1428h257v-1428h-257z" />
<glyph unicode="J" horiz-adv-x="1055" d="M23 415v57h262v-60q0 -54 9.5 -96.5t30.5 -71.5t57 -44.5t91 -15.5q50 0 85 15.5t57 44t30.5 67.5t8.5 86l2 1031h258v-1040q0 -52 -9 -102.5t-29 -96.5t-54 -86t-83.5 -69.5t-117.5 -45.5q-69 -17 -157 -17q-219 0 -332 113q-109 109 -109 320v11z" />
<glyph unicode="K" horiz-adv-x="1410" d="M140 0l2 1428h257v-638l652 638h337l-620 -583l634 -845h-310l-502 672l-193 -184v-488h-257z" />
<glyph unicode="L" horiz-adv-x="1121" d="M140 0v1428h257v-1215h695l3 -213h-955z" />
<glyph unicode="M" horiz-adv-x="1775" d="M140 0v1428h320l428 -1162l406 1162h341v-1428h-258v1000l-378 -1000h-222l-380 1003v-1003h-257z" />
<glyph unicode="N" horiz-adv-x="1489" d="M140 0v1428h292l659 -1066v1066h258v-1428h-296l-656 1056v-1056h-257z" />
<glyph unicode="O" horiz-adv-x="1560" d="M57 712q0 98 19.5 192.5t60.5 177t101 151.5t139 119.5t179.5 79t220.5 28.5q121 0 221.5 -28.5t181 -79t140.5 -119.5t100 -151.5t59 -176t19 -193.5q0 -97 -19 -190t-59 -174.5t-100.5 -150.5t-141 -118.5t-180.5 -77t-221 -27.5q-120 0 -220.5 27.5t-180.5 77 t-139.5 118.5t-100 150.5t-60 174.5t-19.5 190zM314 712q0 -65 11 -129.5t35.5 -123.5t61 -108.5t88 -87.5t117.5 -59q68 -20 150 -20q84 0 150 20.5t118.5 58.5t89 87.5t60 108.5t35 124t11.5 129q0 66 -11.5 132t-35 125t-61 110t-89 87.5t-119 58.5t-149 22t-148.5 -22 t-118.5 -58.5t-88 -87.5t-61 -110t-35.5 -125t-11 -132z" />
<glyph unicode="P" horiz-adv-x="1347" d="M140 0v1428h653q119 0 210.5 -29.5t153 -84.5t93.5 -137t32 -186q0 -102 -32 -182t-93.5 -135t-153.5 -84t-212 -29h-394v-561h-257zM397 774h332h15q137 0 207 54q74 57 77 163q0 108 -76 164.5t-225 56.5h-330v-438z" />
<glyph unicode="Q" horiz-adv-x="1560" d="M57 712q0 98 19.5 192.5t60.5 177t101 151.5t139 119.5t179.5 79t220.5 28.5q121 0 221.5 -28.5t181 -79t140.5 -119.5t100 -151.5t59 -176t19 -193.5q0 -93 -17.5 -180.5t-52.5 -166.5t-89 -146t-124 -117l201 -239h-268l-126 146q-55 -18 -116.5 -26.5t-128.5 -8.5 q-120 0 -220.5 27.5t-180.5 77t-139.5 118.5t-100 150.5t-60 174.5t-19.5 190zM314 712q0 -65 11 -129.5t35.5 -123.5t61 -108.5t88 -87.5t117.5 -59q68 -20 150 -20q46 0 87 6l-187 219h278l111 -132q47 38 79.5 88t54 106t31.5 118t10 123q0 66 -11.5 132t-35 125t-61 110 t-89 87.5t-119 58.5t-149 22t-148.5 -22t-118.5 -58.5t-88 -87.5t-61 -110t-35.5 -124t-11 -133z" />
<glyph unicode="R" horiz-adv-x="1417" d="M140 0v1428h694q112 0 199.5 -26.5t148 -76.5t92 -122.5t31.5 -164.5q0 -80 -22.5 -143t-61 -109t-91.5 -74.5t-111 -42.5q41 -21 72.5 -44t54 -51t39.5 -63q18 -35 30 -79l68 -245q18 -64 42 -111t43 -76h-264q-16 26 -36.5 71.5t-41.5 115.5l-62 225q-11 33 -27.5 64.5 t-46 55.5t-73 38t-105.5 14h-315v-584h-257zM397 794h356q59 0 113 10.5t95 35t65 65.5q22 41 22 107q0 44 -13 81t-40.5 63.5t-71.5 41t-102 14.5h-424v-418z" />
<glyph unicode="S" horiz-adv-x="1330" d="M69 502h243q3 -90 37 -151.5t88 -98t121 -52.5t137 -16q58 0 116 9.5t104 33.5t73.5 65t27.5 102q-1 56 -26.5 94t-72.5 63.5t-109.5 43t-138.5 31.5q-65 12 -130 27.5t-124 36t-110.5 48.5t-89.5 70t-60 97.5t-22 131.5q0 73 21 131t59 105t90.5 82t114 58.5t130.5 34.5 q71 12 141 12q117 0 215 -33.5t169.5 -93.5t113.5 -145q42 -84 51 -189h-245q-5 55 -29 100.5t-65 77.5t-96 51t-126 19q-54 0 -105 -10.5t-91 -34.5t-65 -62.5t-25 -95.5q0 -47 28 -78.5t76 -53t112.5 -38t134.5 -29.5q67 -13 131 -29t123.5 -38t109 -53t86 -76.5 t57.5 -107t21 -142.5q0 -76 -24 -138t-65.5 -110.5t-97 -82t-120 -55.5t-133.5 -32t-138 -10q-131 0 -243.5 29t-197.5 93.5t-133 165t-49 243.5z" />
<glyph unicode="T" horiz-adv-x="1150" d="M15 1212v216h1121v-216h-434v-1212h-257v1212h-430z" />
<glyph unicode="U" horiz-adv-x="1495" d="M142 537v891h257v-891q0 -172 91 -262.5t269 -90.5q167 0 251 91q85 90 88 262v891h257v-891q0 -137 -41 -243.5t-118.5 -178t-187.5 -108.5q-112 -36 -252 -36q-146 0 -259.5 35t-192.5 105t-120.5 176.5t-41.5 249.5z" />
<glyph unicode="V" horiz-adv-x="1303" d="M-1 1428h280l374 -1118l376 1118h273l-514 -1428h-283z" />
<glyph unicode="W" horiz-adv-x="1884" d="M-1 1428h264l260 -1043l280 1043h277l284 -1048l262 1048h262l-390 -1428h-269l-287 1070l-303 -1070h-262z" />
<glyph unicode="X" horiz-adv-x="1315" d="M0 0l496 736l-471 692h311l321 -502l333 502h293l-477 -695l509 -733h-313l-348 523l-358 -523h-296z" />
<glyph unicode="Y" horiz-adv-x="1357" d="M-1 1428h299l387 -629l381 629h295l-549 -853v-575h-257v572z" />
<glyph unicode="Z" horiz-adv-x="1340" d="M70 0v196l847 1016h-777v216h1107v-200l-838 -1015h864v-213h-1203z" />
<glyph unicode="[" horiz-adv-x="562" d="M127 -397v1892h419v-194h-187v-1505h187l-1 -193h-418z" />
<glyph unicode="\" horiz-adv-x="770" d="M-15 1460h227l582 -1489h-220z" />
<glyph unicode="]" horiz-adv-x="562" d="M13 1301l2 194h416v-1892h-416l1 193h183v1505h-186z" />
<glyph unicode="^" horiz-adv-x="1246" d="M76 550l450 891h195l447 -891h-188l-358 711l-345 -711h-201z" />
<glyph unicode="_" horiz-adv-x="1055" d="M18 -137h1022v-171h-1022v171z" />
<glyph unicode="`" horiz-adv-x="579" d="M58 1495h278l181 -302h-187z" />
<glyph unicode="a" horiz-adv-x="1118" d="M55 280q0 59 17 106.5t47 85.5t69.5 66t86 49.5t97.5 34t102 19.5q44 6 87 8t81 2t67.5 -0.5t43.5 -2.5v64q0 38 -17.5 69t-46.5 52t-66.5 32t-76.5 11q-85 0 -137.5 -32t-69.5 -99h-246q9 90 50 154.5t105 106t147.5 61t176.5 19.5q50 0 102 -7t99.5 -24t88 -42.5 t70.5 -63.5t47 -89t18 -115v-538q0 -32 2.5 -58t7.5 -51t13 -48.5t17 -49.5h-243q-9 38 -14.5 68.5t-10.5 64.5q-38 -47 -79.5 -77t-86.5 -47.5t-90.5 -24.5t-92.5 -7q-70 0 -134 17.5t-115 55.5t-83.5 94.5t-32.5 135.5zM307 299q0 -30 13 -52t36.5 -35t54 -20.5t63.5 -7.5 q76 0 129 19t86.5 48t48.5 64t15 65v122q-21 2 -46 2q-17 0 -35 -1q-46 -2 -96 -10t-98.5 -23.5t-86.5 -39t-61 -56t-23 -75.5z" />
<glyph unicode="b" horiz-adv-x="1232" d="M114 0v1460h242v-499q29 35 64.5 62t75.5 43.5t83 25.5t84 9q86 0 157 -22t127 -60t97.5 -90.5t69.5 -115.5t42.5 -133t14.5 -143q0 -117 -30.5 -219t-92.5 -178t-156.5 -119.5t-222.5 -43.5q-41 0 -82 7t-80.5 23t-77.5 42.5t-73 64.5v-114h-242zM347 537 q0 -67 15.5 -129.5t50.5 -112.5t91.5 -80.5t136.5 -30.5q77 0 129.5 31.5t84 83t44 116.5t12.5 133q0 62 -15.5 123.5t-49.5 111t-88 79.5t-130 30q-53 0 -93 -14.5t-71.5 -40t-53.5 -59t-35.5 -73t-20.5 -82.5q-7 -45 -7 -86z" />
<glyph unicode="c" horiz-adv-x="1097" d="M57 517q0 121 32 225.5t95.5 180.5t160 119.5t224.5 43.5q101 0 185 -27t146 -77.5t99.5 -125.5t45.5 -171h-245q-15 93 -77 141q-63 47 -157 47q-70 0 -119.5 -29t-81.5 -79t-47.5 -114t-15.5 -134q0 -63 17 -122t50.5 -105t84.5 -74t115 -28q56 0 97 15.5t68.5 42 t42 63t17.5 78.5h251q-5 -73 -37.5 -147t-92 -132t-144.5 -94.5t-196 -36.5q-122 0 -218 38.5t-162.5 109.5t-101.5 171q-36 98 -36 221z" />
<glyph unicode="d" horiz-adv-x="1232" d="M61 537q0 73 15 143t42.5 133t69 115.5t98 90.5t127 60t156.5 22q41 0 84 -9t83.5 -25.5t75.5 -43.5t64 -62v499h242v-1460h-242v114q-35 -38 -73 -64.5t-77.5 -42.5t-80.5 -23t-81 -7q-129 0 -223 43.5t-156 119.5t-93 178t-31 219zM321 548q0 -68 12.5 -133t44 -116.5 t84 -83t129.5 -31.5q82 0 137.5 30.5t90.5 80.5t50.5 112.5t15.5 129.5q0 41 -6.5 85t-20.5 83.5t-36 73t-53.5 59t-72 40t-92.5 14.5q-75 0 -129.5 -30t-88.5 -79.5t-49.5 -111t-15.5 -123.5z" />
<glyph unicode="e" horiz-adv-x="1118" d="M55 534q0 126 38 227.5t107 173.5t165 111.5t213 39.5q91 0 165.5 -24.5t130 -68.5t96 -104t64 -130t33.5 -149q7 -53 7 -108q0 -27 -2 -54h-767q3 -54 22 -100.5t53.5 -82.5t87 -56.5t120.5 -20.5q88 0 145.5 34t81.5 106h239q-17 -84 -57.5 -150t-101 -110.5 t-139.5 -67.5t-173 -23q-135 0 -235 40.5t-165 115t-96 177.5q-32 102 -32 224zM307 639h506v8q0 41 -17 79q-19 42 -52.5 75t-79 52.5t-95.5 19.5q-52 0 -96.5 -17.5t-79 -48t-56.5 -73.5q-22 -42 -30 -95z" />
<glyph unicode="f" horiz-adv-x="684" d="M35 835v226h162v151v6q0 69 21 122q21 54 62 91.5t102.5 56.5t140.5 19q29 0 64 -6.5t67 -20.5v-221q-34 17 -65 23t-53 6q-47 0 -72.5 -19t-24.5 -66v-142h195v-226h-193v-835h-244v835h-162z" />
<glyph unicode="g" horiz-adv-x="1195" d="M55 526q0 61 10.5 126.5t34 127.5t61.5 117.5t94.5 97.5t132.5 66.5t176 24.5q81 0 153 -28q71 -30 131 -97v100h232v-972q0 -114 -30.5 -209t-94.5 -164t-162 -107t-232 -38q-97 0 -180 24.5t-145 70.5t-100 111q-37 65 -43 147h243q3 -41 25 -70t55.5 -47.5t74 -26.5 t81.5 -8q76 0 129.5 28t86.5 71.5t46.5 98.5t13.5 107v51q-32 -36 -67.5 -61t-72 -40t-74.5 -21t-79 -6q-126 0 -219.5 41t-156 112.5t-93.5 168t-31 204.5zM307 540q0 -61 12 -119.5t42 -106.5t80 -77.5t123 -29.5q77 0 131.5 28t90 73t52 103.5t16.5 121.5q0 39 -6.5 80 t-21 79t-36.5 71t-52.5 57t-70 38.5t-87.5 14.5q-75 0 -126 -27t-84 -73t-48 -106t-15 -127z" />
<glyph unicode="h" horiz-adv-x="1159" d="M114 0v1460h245l-1 -514q38 44 79.5 71.5t81.5 43.5t77.5 22t66.5 6q115 0 189 -30.5t117.5 -84t59.5 -125.5t16 -158v-691h-245v707q0 78 -44 122t-128 44q-67 0 -118.5 -22t-85 -60t-50 -87.5t-16.5 -104.5v-599h-244z" />
<glyph unicode="i" horiz-adv-x="513" d="M134 0v1061h246v-1061h-246zM134 1190v270h244v-270h-244z" />
<glyph unicode="j" horiz-adv-x="513" d="M-28 -200q21 -3 34.5 -3.5t25.5 -2t22 -1.5h20q18 0 30.5 5.5t19.5 19t10 33.5v50v1160h246v-1187q0 -78 -20.5 -136t-58 -94.5t-89.5 -53.5q-54 -18 -119 -18q-29 0 -61 2.5t-58 7.5zM131 1190v270h244v-270h-244z" />
<glyph unicode="k" horiz-adv-x="1118" d="M114 0v1460h244v-781l400 382h325l-429 -395l447 -666h-297l-332 496l-116 -105v-391h-242z" />
<glyph unicode="l" horiz-adv-x="512" d="M134 0v1460h244v-1460h-244z" />
<glyph unicode="m" horiz-adv-x="1757" d="M114 0v1061h233l3 -118q56 75 130.5 107.5t167.5 32.5q44 0 88 -8.5t82 -28.5t71.5 -52.5t59.5 -83.5q26 43 64 76t80.5 55t87.5 32t86 10q85 0 154.5 -19t119.5 -58t76.5 -101.5t26.5 -148.5v-756h-244v699q0 40 -8 72t-27 54t-52 33.5t-81 11.5q-55 0 -98 -15 t-73 -43.5t-46 -69.5q-13 -35 -13 -78v-16v-648h-246v682q0 41 -6.5 75t-24.5 59t-49 39.5t-77.5 14.5t-81.5 -11.5t-62 -30.5t-45.5 -42.5t-30 -48.5t-16 -48t-4.5 -41l-1 -648h-244z" />
<glyph unicode="n" horiz-adv-x="1159" d="M114 0v1061h235l-2 -135q27 35 58.5 64t70 49.5t85 32t102.5 11.5q111 0 184.5 -30.5t118 -83t63 -125.5t18.5 -159v-685h-244v704q0 79 -46 122.5t-132 43.5q-67 0 -117.5 -22t-83.5 -60t-49.5 -87.5t-16.5 -104.5v-596h-244z" />
<glyph unicode="o" horiz-adv-x="1192" d="M54 528.5q0 116.5 34.5 219t103 177.5t169 118t236.5 43q134 0 234 -43t169 -118t102 -177q34 -103 34 -219q0 -79 -14.5 -149t-45.5 -131.5t-76 -112t-105 -86t-134.5 -54.5t-163.5 -19q-134 0 -235.5 42t-170 116.5t-103 175.5t-34.5 217.5zM305 529q0 -85 22.5 -148 t62 -106t93.5 -65q51 -22 113 -22q58 0 110.5 22t91.5 65t61 107q23 62 23 147q0 81 -22 145.5t-61.5 108t-91 67t-110.5 23.5q-61 0 -113.5 -23.5t-93 -67t-63 -108t-22.5 -145.5z" />
<glyph unicode="p" horiz-adv-x="1232" d="M114 -397v1458h242v-115q35 38 73 65t77.5 44t80.5 24t82 7q128 0 222.5 -44.5t156.5 -121t92.5 -179t30.5 -218.5q0 -73 -14 -142.5t-41.5 -131.5t-69.5 -114.5t-98.5 -91.5t-127.5 -60t-157 -21q-41 0 -84 8t-83 25t-75.5 43t-64.5 61v-496h-242zM347 523 q0 -41 7 -83.5t20.5 -82t35.5 -74.5t53.5 -59.5t71.5 -39.5t93 -15q76 0 130 31t88 79t49.5 110t15.5 125q0 67 -13 132.5t-44 117t-83.5 82.5t-129.5 31q-82 0 -137.5 -29.5t-90.5 -79.5t-50.5 -114t-15.5 -131z" />
<glyph unicode="q" horiz-adv-x="1232" d="M61 523q0 116 31 218.5t93 179t156 121t223 44.5q40 0 81 -7t80.5 -24t77.5 -44t73 -65v115h242v-1458h-242v496q-29 -35 -64 -61t-75.5 -43t-83.5 -25t-84 -8q-86 0 -156.5 21t-127 60t-98 91.5t-69 114.5t-42.5 131.5t-15 142.5zM321 514q0 -63 15.5 -125t49.5 -110 t88.5 -79t129.5 -31q52 0 92.5 15t72 39.5t53.5 59.5t36 74.5t20.5 82t6.5 83.5q0 67 -15.5 131t-50.5 114t-91 79.5t-137 29.5q-77 0 -129.5 -31t-84 -82.5t-44 -117t-12.5 -132.5z" />
<glyph unicode="r" horiz-adv-x="719" d="M114 0v1061h233v-149q33 46 66.5 78.5t75.5 54t93.5 30t119.5 8.5v-239q-105 0 -172 -25.5t-106 -73t-52.5 -116t-13.5 -156.5v-473h-244z" />
<glyph unicode="s" horiz-adv-x="1046" d="M50 365h245q0 -53 22 -87t54 -55.5t71.5 -30t77.5 -8.5q44 0 84.5 5t71.5 18t49 35q20 22 20 56q0 32 -17.5 54.5t-48.5 38.5t-73 28.5t-91 22.5q-46 9 -96.5 22t-97.5 31.5t-88.5 42t-73 57t-49 75.5t-17.5 97.5t18.5 102.5t50.5 82t75 61.5t93 42.5t102.5 23t103.5 7 q92 -3 170 -24.5t135 -65t89 -107t32 -147.5h-245q-2 29 -13.5 54t-33.5 43.5t-51 30.5t-67 13q-13 1 -26 1q-27 0 -53 -4q-38 -6 -65.5 -19.5t-43.5 -33.5q-17 -21 -17 -47.5t19 -44t51.5 -31t74.5 -24.5t91 -23q103 -25 181 -52.5t130 -66.5t78.5 -93t26.5 -130 q0 -67 -20 -118t-52.5 -89t-78 -63.5t-99 -41t-110.5 -21.5q-58 -5 -118 -5q-61 0 -118.5 10t-110.5 30.5t-96.5 52t-75.5 74.5t-51 98.5t-19 122.5z" />
<glyph unicode="t" horiz-adv-x="665" d="M15 851v210h160v273h244v-273h194v-210h-194v-530q0 -30 3 -50t11 -31.5t24 -17.5t39 -9h16.5t27 1t34.5 1.5t39 3.5v-216q-14 -3 -34.5 -4.5t-45.5 -3t-51 -2t-51 -0.5q-62 0 -109.5 13.5t-79.5 46t-49.5 86.5t-17.5 133v579h-160z" />
<glyph unicode="u" horiz-adv-x="1165" d="M114 377v684h244v-705q0 -76 46.5 -119t129.5 -43q70 0 122 20.5t85.5 57t50.5 87t17 111.5v591h242v-1061h-236v121q-53 -68 -130.5 -106t-172.5 -38q-115 0 -191.5 29.5t-122.5 83t-65 127.5t-19 160z" />
<glyph unicode="v" horiz-adv-x="1087" d="M25 1061h273l254 -756l245 756h260l-387 -1061h-252z" />
<glyph unicode="w" horiz-adv-x="1601" d="M25 1061h276l195 -722l179 722h259l184 -722l196 722h260l-336 -1061h-254l-187 702l-169 -702h-263z" />
<glyph unicode="x" horiz-adv-x="1124" d="M15 0l391 556l-362 505h301l213 -321l214 321h303l-365 -490l400 -571h-303l-249 381l-250 -381h-293z" />
<glyph unicode="y" horiz-adv-x="1096" d="M19 1061h270l272 -756l257 756h257l-452 -1189q-32 -79 -64.5 -136t-72 -93t-88 -52.5t-109.5 -16.5q-32 0 -70 3t-79 17v234q41 -16 73 -21.5t56 -5.5q76 0 111 68l54 143z" />
<glyph unicode="z" horiz-adv-x="1102" d="M88 174l587 670h-547v217h884l-2 -165l-592 -680h589v-216h-916z" />
<glyph unicode="{" horiz-adv-x="705" d="M76 473v146q35 0 65.5 18.5t52.5 49.5t35 73.5t13 92.5v370q0 65 20.5 116t56.5 85.5t82.5 52.5t99.5 18h150l-1 -180h-84q-26 0 -45 -6.5t-30.5 -22.5t-16 -39.5t-4.5 -56.5v-368q0 -58 -16 -104t-41 -81t-52 -59q-25 -23 -46 -35q21 -9 47 -25t50.5 -48t40.5 -81 q17 -50 17 -120l-1 -368q3 -62 23 -91t74 -29h84l-2 -178h-149q-54 0 -100 16t-81 49.5t-55.5 84.5t-20.5 119l3 367q0 53 -13.5 97t-36.5 73.5t-53.5 46.5t-65.5 17z" />
<glyph unicode="|" horiz-adv-x="477" d="M137 -431v2037h205v-2037h-205z" />
<glyph unicode="}" horiz-adv-x="705" d="M55 -219h85q54 0 75 30q19 28 22 90l-2 368q0 70 17 119.5t41.5 81.5t51.5 49q26 15 46 24q-20 12 -46.5 35.5t-51 58.5t-41.5 81t-17 104l2 368q0 67 -22 96t-75 29h-85v180h149q53 0 99.5 -18t82.5 -52.5t57 -85.5t21 -116l-1 -370q0 -49 13 -92t35.5 -74t53.5 -49.5 t66 -18.5v-146q-35 0 -66 -17t-54 -46.5t-36.5 -73.5t-13.5 -97l3 -367q0 -68 -20.5 -119t-55.5 -84.5t-81.5 -49.5t-99.5 -16h-150z" />
<glyph unicode="~" horiz-adv-x="1189" d="M126 383q-3 84 18.5 148.5t59.5 106.5t86.5 64t100.5 22q47 0 85 -11.5t71.5 -29t63.5 -37.5t58.5 -37.5t57.5 -28.5t61 -11q56 0 76.5 39.5t18.5 115.5h180q3 -85 -19 -149t-58.5 -106.5t-86 -64t-99.5 -21.5t-88.5 11.5t-71.5 28t-62 36.5t-57 37.5t-57.5 28.5 t-63.5 11q-41 0 -68 -40t-25 -113h-181z" />
<glyph unicode="&#xa2;" horiz-adv-x="1127" d="M63 534q0 108 25.5 205.5t81 172.5t138.5 123t197 63l-3 193h161l3 -190q80 -9 150 -36.5t123.5 -76t87.5 -120t43 -164.5h-245q-6 42 -21.5 73.5t-35.5 53.5t-46.5 35t-58.5 19l3 -669q70 18 109.5 73.5t55.5 147.5h251q-38 -196 -138 -306.5t-278 -130.5v-219h-162 l1 219q-111 12 -194 55.5t-138.5 113.5t-83.5 163.5t-26 201.5zM308 534q-1 -54 10.5 -104t35.5 -93.5t61.5 -74.5t89.5 -46l-1 663q-56 -15 -94 -49t-60.5 -80t-32 -101.5t-9.5 -114.5z" />
<glyph unicode="&#xa3;" horiz-adv-x="1185" d="M72 -29l4 207q51 18 94 49t75 70.5t49 85.5q16 46 16 96q0 16 -1.5 35.5t-7.5 38t-14 36.5t-17 33h-182v152h93q-29 55 -49.5 121t-20.5 146q0 64 19 121t52 103t79 82.5t101.5 61.5t118 38t128.5 13q120 0 215.5 -35t161 -103.5t99 -172.5t33.5 -242h-239q-3 83 -20 148 t-49 109.5t-79.5 68.5t-111.5 24q-55 0 -102 -17t-81 -47.5t-53 -71.5t-19 -89q0 -36 6.5 -70.5t19 -66.5t27.5 -62t33 -59h338v-152h-258q9 -23 14 -52.5t6 -55.5q0 -44 -9.5 -83.5t-25.5 -75t-37.5 -67.5t-46.5 -60q19 6 35.5 7.5t37.5 1.5q46 0 92 -9.5t88.5 -21.5 t83.5 -21.5t82 -9.5q38 0 74.5 3.5t73 13t71.5 26t70 42.5v-213q-38 -24 -77 -37.5t-79 -21.5t-81 -10.5t-81 -2.5q-47 0 -102.5 9.5t-114 21.5t-114 22t-102.5 10q-41 0 -80 -3t-78 -11.5t-77.5 -22t-80.5 -30.5z" />
<glyph unicode="&#xa5;" horiz-adv-x="1204" d="M-4 1428h300l317 -631l299 631h294l-353 -660h169l1 -181h-270l-23 -44v-70h293l2 -184h-292v-289h-254l-2 289h-287v184h286v70l-23 44h-263v181h160z" />
<glyph unicode="&#xa9;" horiz-adv-x="1626" d="M47 721q0 105 27.5 203t77 181t120 152t155 118t182.5 76t200 27q103 0 200.5 -27t182 -76t153 -118t119 -152t77.5 -181t27 -203q0 -108 -27 -207t-77.5 -183t-119.5 -152t-153 -116t-181.5 -73t-200.5 -25q-105 0 -201.5 25t-181 73t-155 116t-120 152t-77 182.5 t-27.5 207.5zM223 721q0 -131 43.5 -243t120.5 -193.5t185 -127.5t235 -46q82 0 157.5 20.5t141 60t119.5 93.5t92 121.5t58.5 147.5t20.5 167q0 88 -20.5 167t-58.5 146t-90.5 121t-118.5 92t-141 58q-76 21 -158 21q-129 0 -235.5 -45.5t-184.5 -126.5t-122 -191t-44 -242 zM383 718q0 101 30.5 185t87.5 145.5t138 95.5t183 34q76 0 142.5 -22t117.5 -63.5t84.5 -104t42.5 -141.5h-161q-4 38 -24 71.5t-49 59.5t-67 41t-82 15q-64 0 -115 -23.5t-86 -66t-52.5 -99.5t-17.5 -124q0 -61 19 -119.5t54.5 -102t87.5 -71.5t116 -28q41 0 77.5 15.5 t64.5 40t45.5 57.5t22.5 68h164q-12 -71 -45.5 -132t-83 -104.5t-112.5 -68.5t-134 -25q-102 0 -185.5 35t-142 98t-89.5 148q-31 87 -31 186z" />
<glyph unicode="&#xab;" horiz-adv-x="938" d="M69 476v178l346 270v-206l-196 -156l196 -153v-209zM486 476v178l346 270v-206l-195 -156l195 -153v-209z" />
<glyph unicode="&#xad;" horiz-adv-x="967" d="M92 451v194h783l1 -194h-784z" />
<glyph unicode="&#xae;" horiz-adv-x="1617" d="M47 721q0 105 27.5 203t77 181t120 152t155 118t182.5 76t200 27q103 0 200.5 -27t182 -76t153 -118t119 -152t77.5 -181t27 -203q0 -108 -27 -207t-77.5 -183t-119.5 -152t-153 -116t-181.5 -73t-200.5 -25q-105 0 -201.5 25t-181 73t-155 116t-120 152t-77 182.5 t-27.5 207.5zM223 721q0 -131 43.5 -243t120.5 -193.5t185 -127.5t235 -46q82 0 157.5 20.5t141 60t119.5 93.5t92 121.5t58.5 147.5t20.5 167q0 88 -20.5 167t-58.5 146t-90.5 121t-118.5 92t-141 58q-76 21 -158 21q-129 0 -235.5 -45.5t-184.5 -126.5t-122 -191t-44 -242 zM499 318v812h387q64 0 113 -17.5t81.5 -49.5t49 -76t16.5 -96q0 -41 -12.5 -75.5t-33 -60.5t-49 -43t-61.5 -26q23 -10 40.5 -24t31 -31.5t22 -39.5t17.5 -46l41 -120q8 -23 16.5 -40t16.5 -28.5t14 -20.5q5 -9 11 -18h-190q-6 12 -11 23t-10 23.5t-11 27t-11 33.5l-49 124 q-14 38 -44 61.5t-67 23.5h-144v-316h-164zM663 766h195h-14q64 0 99 31.5t35 81.5q0 20 -5.5 40.5t-19 35t-32.5 25t-46 10.5h-212v-224z" />
<glyph unicode="&#xbb;" horiz-adv-x="938" d="M105 718v206l348 -270v-178l-346 -276v209l197 153zM523 718v206l347 -270v-178l-346 -276v209l197 153z" />
<glyph unicode="&#xbc;" horiz-adv-x="1703" d="M96 1261q46 3 86 12t72 26.5t55 48.5q21 30 33 78h153v-886h-177v596q-44 -21 -95 -29q-51 -6 -124 -9zM365 0l812 1426h190l-814 -1426h-188zM952 336l420 552h138l-2 -541h120l1 -162h-119v-185h-173l-1 185h-383zM1146 347h188l2 246z" />
<glyph unicode="&#xbd;" horiz-adv-x="1703" d="M96 1261q46 3 86 12t72 26.5t55 48.5q21 30 33 78h153v-886h-177v596q-44 -21 -95 -29q-51 -6 -124 -9zM304 0l811 1426h189l-813 -1426h-187zM978 0q6 88 28 149t57.5 106.5t81.5 76.5q46 30 96 59t89 54t65.5 50t41 52.5t14.5 65.5q0 54 -35 84t-93 30q-38 0 -64.5 -16 t-43 -44t-24.5 -63t-8 -73h-187q0 76 23 140.5t65.5 112t102.5 74.5t134 27q65 0 122.5 -19t100 -54t68 -85.5t25.5 -113.5q0 -67 -27 -119t-69.5 -93.5t-92 -73.5t-95.5 -58q-16 -9 -36.5 -20t-40.5 -25t-40.5 -31.5t-36.5 -37.5h427v-155h-648z" />
<glyph unicode="&#xbe;" horiz-adv-x="1703" d="M105 850h190q1 -43 9 -74t25.5 -50t45 -28.5t64.5 -9.5q30 0 57.5 8t50 22.5t36 36.5t14.5 49q0 36 -14 57.5t-35.5 34t-50 17t-58.5 4.5h-33v150h20q25 0 49 7.5t43 21.5t31 33t12 43.5t-11 43t-28 31t-39 18t-45 5.5q-35 0 -60 -11t-39.5 -31.5t-20.5 -49t-6 -63.5 h-184q6 73 28 131.5t60 99.5t93.5 62t128.5 21q66 0 122 -15t96 -47.5t63.5 -80.5t23.5 -114q0 -20 -6.5 -44t-19 -47t-32 -42.5t-47.5 -32.5q76 -29 109 -78t36 -118q0 -70 -29.5 -123t-77 -88t-109.5 -52.5t-126 -17.5q-70 0 -131.5 19.5t-106.5 59t-71.5 100t-26.5 142.5 zM482 0l812 1426h189l-813 -1426h-188zM981 336l421 552h137v-541h120v-162h-120v-185h-172v185h-383zM1177 347h187v249z" />
<glyph unicode="&#xd7;" horiz-adv-x="1046" d="M31 936l137 131l355 -379l359 379l139 -131l-367 -388l368 -387l-137 -132l-359 380l-357 -380l-137 132l362 387z" />
<glyph unicode="&#xf7;" horiz-adv-x="1216" d="M70 451v194h1072v-194h-1072zM453 146q0 32 13 60.5t33.5 50.5t48 35t56.5 13q33 0 60.5 -13t49.5 -35t34.5 -50.5t12.5 -60.5q0 -29 -12.5 -54.5t-33 -46t-48.5 -33t-57 -12.5q-30 0 -58.5 11.5t-50.5 31.5t-35 46t-13 57zM453 948q0 32 13 59.5t33.5 48.5t48 34.5 t56.5 13.5q33 0 60.5 -13.5t49.5 -34.5t35 -49.5t13 -58.5t-13 -58.5t-34 -48.5t-48.5 -32.5t-59.5 -12.5q-30 0 -58 12.5t-49 32.5t-34 48.5t-13 58.5z" />
<glyph unicode="&#xe01;" horiz-adv-x="1290" d="M32 850q12 49 33 97.5t55.5 93.5t80.5 84t106.5 67.5t135.5 44.5q77 16 167 16q108 0 192 -20t147.5 -55.5t107.5 -84t70 -105.5t38.5 -120.5t12.5 -128.5v-739h-248v759q0 53 -16 102.5t-54 90.5t-98.5 65.5t-151.5 26.5q-76 0 -133 -17t-96 -43t-61 -56t-28 -55 q18 -17 34.5 -40t29 -50t18.5 -58q6 -33 6 -65v-660h-246v663q0 25 -4 50.5t-16 50t-32 46.5q-18 22 -50 40z" />
<glyph unicode="&#xe02;" horiz-adv-x="1135" d="M26 1028v198h374l197 -957l197 957h254l-271 -1226h-362l-231 1028h-158z" />
<glyph unicode="&#xe03;" horiz-adv-x="1165" d="M44 1226h233q0 -23 4.5 -45t15 -38t26.5 -26t36.5 -10t36.5 8.5t27.5 24.5t18 38t6.5 48h240v-254q0 -35 -12 -65.5t-34 -59.5t-54 -61q-32 -30 -74 -71q-29 -29 -49.5 -53.5t-33.5 -49.5t-20 -51q-8 -27 -8 -59l3 -77q0 -57 14.5 -101t41.5 -74.5t64.5 -46t82.5 -15.5 q41 0 76.5 11t60.5 37.5t39 67.5q15 41 14 102v820h252v-838q0 -108 -36.5 -186.5t-97.5 -130t-141.5 -76t-168.5 -24.5q-90 0 -172 26t-144.5 78.5t-99 131.5t-38.5 181v57q0 50 2.5 88.5t9 69.5t17.5 55.5t29 48t43 46t60 49.5q17 11 36 26.5t36 32t30 37t19 44.5 q-20 -15 -51 -24.5t-63 -9.5q-20 0 -49.5 4.5t-60 17.5t-61 35t-54 57t-38 84.5t-14.5 119.5z" />
<glyph unicode="&#xe04;" horiz-adv-x="1303" d="M114 0v710q0 68 10 134.5t34 127t64.5 112.5t100.5 89t141 58.5t187 21.5q105 0 187 -21.5t142 -58.5t100 -89t64 -112.5t34 -127.5t12 -134v-710h-250v736q0 35 -5.5 70t-19.5 68.5t-36.5 63t-55 51t-75.5 33.5t-98 12q-56 0 -99 -12t-75 -33.5t-54 -51t-36 -63 t-20.5 -68.5t-6.5 -70v-165q34 48 71 81.5t81 55.5t98.5 31t124.5 9v-217q-108 0 -180 -27.5t-114.5 -81t-61.5 -129t-19 -170.5v-123h-245z" />
<glyph unicode="&#xe05;" horiz-adv-x="1315" d="M114 0v721q0 60 7 118.5t25 112.5t46 101.5t72 86t104 65.5t139 39l147 -161l143 161q82 -12 143.5 -38t106.5 -64t75 -86.5t48 -102.5t26 -113q7 -57 7 -119v-721h-250v745q0 32 -5 70t-16.5 73.5t-32 65.5t-49.5 45l-152 -158q-6 -6 -14.5 -12.5t-26.5 -6.5 q-16 0 -27 6q-11 7 -20 13l-159 158q-28 -15 -46 -44t-29 -64t-15.5 -73t-4.5 -73v-174q34 48 71 81.5t82.5 55.5t100 31t124.5 9l-1 -217q-108 0 -179.5 -27.5t-115.5 -81t-63 -129t-19 -170.5l3 -123h-245z" />
<glyph unicode="&#xe06;" horiz-adv-x="1300" d="M44 1226h233q0 -23 4.5 -45t15 -38t26.5 -26t36.5 -10t36.5 8.5t27.5 24.5t18 38t6.5 48h238v-251q0 -46 -14.5 -84t-39.5 -71t-57 -62t-67 -59q-31 -26 -50.5 -46.5t-31 -44t-16.5 -53.5q-4 -29 -4 -76q0 -56 22 -107.5t62.5 -92t99 -64.5t131.5 -24q48 0 88.5 15.5 t68 43t43 67t15.5 89.5v820h250v-798q0 -101 -20.5 -185t-72 -144t-134.5 -92.5t-209 -32.5q-115 0 -204.5 38t-151.5 119l-1 -131h-238v437q0 52 1.5 90.5t7 68.5t16 54.5t28 45.5t41 43t55.5 49q17 16 34.5 31.5t33 32.5t28 36.5t20.5 47.5q-23 -12 -48 -18.5t-51 -6.5 q-20 0 -49.5 4.5t-60 16t-61 33.5t-54 57t-38 84.5t-14.5 119.5z" />
<glyph unicode="&#xe07;" horiz-adv-x="965" d="M29 736h257l188 -508q9 -25 25 -37q15 -11 35 -11q32 0 52.5 17.5t22.5 41.5v795h-174v192h418v-949q0 -81 -25 -139.5t-69 -95t-102 -54t-126 -17.5q-67 0 -116 16t-85.5 46.5t-62 74.5t-45.5 96z" />
<glyph unicode="&#xe08;" horiz-adv-x="1184" d="M70 853q15 90 57 163t108.5 125.5t158 80.5t205.5 28q57 0 115 -9t113 -28t101.5 -51t81.5 -78.5t55 -111.5t18 -150q0 -47 -14.5 -110.5t-36.5 -134t-51 -147.5t-59.5 -152t-63 -146t-59.5 -132h-308l-198 543h-165v196h357l166 -482q26 64 57 138.5t55.5 147 t41.5 140.5q16 67 18 121q2 120 -60 180t-186 60q-100 0 -157 -45q-58 -44 -81 -146h-269z" />
<glyph unicode="&#xe09;" horiz-adv-x="1290" d="M82 832q9 83 44 158.5t101 134t166 93.5t238 35q108 0 191 -20.5t144.5 -57t101.5 -87t64 -109.5t34.5 -126.5t11.5 -134.5v-718h-236l-8 137q-65 -87 -158 -126.5t-220 -39.5q-128 0 -213.5 34t-136.5 97t-73 150.5t-22 192.5v240h245v-263q0 -50 17 -91.5t47 -71.5 t73 -46t95 -16q87 0 151 27t106.5 76t63 115.5t20.5 143.5v183q0 52 -15 104.5t-48.5 94.5t-92 67.5t-145.5 25.5q-79 0 -131.5 -18.5t-86 -48.5t-50.5 -65t-23 -70h-255z" />
<glyph unicode="&#xe0a;" horiz-adv-x="1153" d="M47 999l3 191q38 13 73 23t65.5 17.5t55.5 10.5t39 3q70 0 125.5 -16t95 -49.5t57 -85t8.5 -118.5q-5 -33 -17 -63t-31.5 -63t-47.5 -72q-29 -38 -64 -89q-19 -27 -28.5 -48.5t-14 -43t-5.5 -43.5q1 -22 -2 -48l2 -80q0 -57 16.5 -101t47.5 -74.5t71 -45.5q38 -16 85 -16 q44 0 82 11t66.5 37.5t44.5 67.5q14 41 14 102l3 82q0 68 -16 108.5t-45 60.5t-71.5 26t-94.5 8l-2 179q72 0 120 22t78 67t42 112q13 68 14 155h248q0 -67 -9.5 -134t-34 -125.5t-65.5 -105t-102 -76.5q43 -13 74 -33.5t51.5 -46t32 -54t17.5 -57t7.5 -56t1.5 -50.5 l-2 -100q0 -71 -16.5 -130t-48 -106t-74.5 -80.5t-94.5 -57t-107.5 -33.5t-114 -10q-91 0 -174 26t-148 78.5t-104.5 131.5t-39.5 181v100q0 46 3 81t8.5 63t15 50t23.5 43t31.5 43.5t42.5 50.5q18 23 31.5 41.5t24 35t17.5 33.5t10 38q3 17 -1.5 32.5t-14.5 26.5t-24 17 q-15 7 -33 7q-20 0 -39 -3t-42.5 -9.5t-52.5 -16t-67 -22.5z" />
<glyph unicode="&#xe0b;" horiz-adv-x="1227" d="M20 1226h234q0 -23 4.5 -45t14.5 -38t26 -26t36.5 -10t36.5 8.5t28 24.5t17.5 38t5.5 48h240v-254q0 -35 -9 -65.5t-26.5 -59t-45 -60t-65.5 -69.5q-29 -29 -45 -65.5t-23.5 -74.5t-9 -78t-1.5 -75q0 -57 17.5 -101t46.5 -74.5t70 -45.5q41 -16 85 -16t82 11t65.5 37.5 t43.5 67.5t16 102v79q0 64 -15 104t-43.5 63t-68 30t-86.5 9l-3 179q67 5 114 29t76 69t42.5 109.5t13.5 148.5h245q0 -67 -10.5 -134t-33.5 -125.5t-64 -105t-104 -76.5q66 -20 104 -56.5t56 -79t23 -85.5q3 -44 3 -79v-97q0 -71 -18 -130t-49 -106t-74 -80.5t-94.5 -57 t-108.5 -33.5t-115 -10q-60 0 -117.5 11.5t-108.5 35t-95 58.5t-76 81.5t-49.5 104.5t-17.5 126q0 73 1.5 131.5t14.5 107.5t40 93.5t78 89.5q10 11 24 25.5t27 33.5t25 38t18 38q-27 -18 -57.5 -27.5t-62.5 -9.5q-21 0 -50 4.5t-59.5 17.5t-61.5 35t-54 57t-38 84.5 t-15 119.5z" />
<glyph unicode="&#xe0c;" horiz-adv-x="1934" d="M32 850q12 49 34 97.5t54.5 93.5t78.5 84t103 67.5t128 44.5t155 16q103 0 184 -20t140.5 -55.5t100.5 -84t67.5 -105.5t37.5 -121t11 -131l1 -199q0 -76 17.5 -138.5t52.5 -109.5t86 -74t119 -27q39 0 70.5 11t53.5 37.5t33 67.5q12 41 12 102v820h248v-798 q0 -108 -19.5 -193.5t-65 -144t-120.5 -89t-188 -30.5q-52 0 -96.5 11.5t-84 33.5t-71.5 51t-57 64l-2 -131h-239v759q0 50 -14.5 101t-48 91t-90 65.5t-138.5 27.5q-67 0 -118 -14.5t-87.5 -39.5t-58.5 -55.5t-29 -61.5q45 -32 66 -89q19 -57 19 -127v-457h131v-200h-377 v660q0 26 -3.5 52.5t-14.5 51t-31 46.5q-18 22 -50 40z" />
<glyph unicode="&#xe0d;" horiz-adv-x="1934" d="M32 835q12 50 33 101t54.5 97.5t79 86t103 69.5t128.5 47t155 17q103 0 184 -20.5t140.5 -57t100.5 -87t67.5 -109.5t38 -126.5t11.5 -134.5l-3 -216q0 -63 12 -106t34.5 -69t54 -38t70.5 -12q67 0 118 28.5t86 77.5t53.5 115t18.5 141v587h250l-2 -998 q0 -137 -31.5 -247.5t-95 -187t-161 -117.5t-232.5 -41q-84 0 -161.5 22t-139 67t-103.5 114t-54 162h232q12 -41 35.5 -71.5t54 -51t65.5 -31t68 -10.5q81 0 135.5 28t87 72t45.5 98t11 106l2 79q-26 -32 -60 -62.5t-73 -52.5t-83 -36t-94 -14q-112 0 -187.5 31.5 t-120.5 91.5t-64 148q-19 87 -18 201l-1 216q0 52 -14.5 104t-48 93.5t-90 68t-139.5 26.5q-67 0 -118 -15t-87 -39.5t-57 -56.5t-30 -65q45 -32 66.5 -90t21.5 -131v-437h131v-200h-378v639q0 27 -4.5 54t-15.5 52.5t-31 48.5q-19 24 -50 41z" />
<glyph unicode="&#xe0e;" horiz-adv-x="1341" d="M64 0v200h120v463q0 25 -4.5 50.5t-15.5 50t-30.5 46.5t-51.5 40q11 49 33 97.5t55.5 93.5t80.5 84t107.5 67.5t135.5 44.5t166 16q108 0 192.5 -20t148 -55.5t106.5 -84t71 -105.5t39.5 -120.5t11.5 -128.5v-1161h-239q-18 26 -42.5 51.5t-59.5 44.5t-83.5 31t-113.5 12 q-53 0 -99.5 -12t-90 -33.5t-82.5 -54.5q-39 -35 -77 -75l1 236q26 29 63.5 54t82.5 44t96.5 29t108.5 10q52 0 96.5 -7t79.5 -18t63 -24q28 -12 47 -24v917q0 53 -16 102.5t-53.5 90.5t-99 65.5t-151.5 26.5q-76 0 -132 -17t-95 -43t-61.5 -56t-28.5 -55q18 -17 34 -40 t27 -50t17 -58q5 -33 5 -65v-660h-362z" />
<glyph unicode="&#xe0f;" horiz-adv-x="1341" d="M64 0v200h120v463q0 25 -4.5 50.5t-15.5 50t-30.5 46.5t-51.5 40q11 49 33 97.5t55.5 93.5t80.5 84t107.5 67.5t135.5 44.5t166 16q108 0 192.5 -20t148 -55.5t106.5 -84t71 -105.5t39.5 -120.5t11.5 -128.5v-1161h-245q-4 20 -14.5 46t-27 47.5t-38.5 36.5t-54 15 q-29 0 -51 -15t-37.5 -36t-22 -46.5t-6.5 -47.5h-207q0 16 -4.5 41t-17.5 48t-35 41t-54 18q-27 0 -46 -14t-31 -35.5t-17.5 -47.5t-5.5 -51h-195q0 88 23 151.5t63.5 104t89.5 59.5t98 19q73 0 129.5 -29t92.5 -83q21 26 46.5 46t52.5 33t54.5 19t51.5 6q54 0 92.5 -16 t66.5 -40v911q0 53 -16 102.5t-53.5 90.5t-99 65.5t-151.5 26.5q-76 0 -132 -17t-95 -43t-61.5 -56t-28.5 -55q18 -17 34 -40t27 -50t17 -58q5 -33 5 -65v-660h-362z" />
<glyph unicode="&#xe10;" horiz-adv-x="1178" d="M61 841q15 90 59 166t112.5 130t160.5 85q95 31 209 31q52 0 103 -7.5t98 -22.5q25 5 44 17.5t31.5 30t18 38t5.5 40.5h265q0 -35 -9.5 -73t-28.5 -73t-50 -63q-31 -27 -75 -45q40 -47 60.5 -115t18.5 -158q0 -47 -13 -109t-35.5 -133.5t-52 -148t-60.5 -152t-63.5 -147 t-59.5 -132.5h-308l-199 548h-164v191h357l166 -479q28 64 58 137t54.5 145.5t41.5 140.5q16 67 18 121q2 120 -60 180t-186 60q-100 0 -162 -52t-85 -151h-269zM133 -431q-3 60 6.5 105.5t28.5 77.5t45 54t53 34.5t53.5 17.5t46.5 5q47 0 84.5 -16t60.5 -44q35 33 70 46.5 t61 13.5q35 0 61.5 -9.5t51.5 -30.5v84h248v-338h-241q-6 53 -27 79q-23 26 -60 26q-18 0 -31 -8t-22 -22.5t-13.5 -33.5t-2.5 -41h-142q0 21 -5 40.5t-14.5 34t-24 22.5t-32.5 8q-19 0 -32 -8.5t-21 -23t-12.5 -33.5t-4.5 -40h-185z" />
<glyph unicode="&#xe11;" horiz-adv-x="1300" d="M44 1226h233q0 -24 4.5 -46t15 -38t26.5 -25.5t36 -9.5q41 0 64.5 32t24.5 87h238l-1 -87q46 33 91 56t84 36t74 19t62 6q61 0 97.5 -19t57 -54t28 -85t8.5 -111v-987h-248l-2 908q0 23 -0.5 44.5t-4 36.5t-9.5 24t-16 9q-46 0 -140.5 -79.5t-236.5 -243.5 q-25 -29 -44 -51.5t-33.5 -41.5t-24 -38t-16 -40t-9.5 -46.5t-3 -59.5v-422h-245v397q0 47 0.5 82t4.5 63.5t12.5 52.5t23 49t36.5 51t54 61q38 41 66 69t47 48.5t29 37t13 34.5q-12 -6 -26.5 -12.5t-30.5 -11t-33 -9t-30 -4.5q-20 0 -49.5 4.5t-60 16t-60.5 33.5t-54 57 t-38.5 86t-14.5 121z" />
<glyph unicode="&#xe12;" horiz-adv-x="1985" d="M111 0v756q0 59 6 113.5t22 104t43.5 93t70.5 78.5t102.5 59.5t139.5 36.5l150 -155l140 155q82 -12 142.5 -35t104 -57.5t72 -78.5t45 -94t22.5 -105.5t6 -114.5v-219q0 -76 18 -138.5t53 -109.5t86 -74q50 -27 117 -27q41 0 73 11t53.5 37.5t32.5 67.5t11 102v820h251 l-2 -798q0 -108 -19.5 -193.5t-65 -144t-121.5 -89t-186 -30.5q-53 0 -98.5 11.5t-84 33.5t-70.5 51q-31 29 -57 64v-131h-239v780q0 32 -3 65.5t-12 64t-25.5 54.5t-46.5 38l-156 -149q-3 -5 -14.5 -11.5t-26 -6.5t-27.5 5q-14 7 -19 13l-158 151q-25 -14 -41 -39.5 t-25.5 -56.5t-14 -63.5t-4.5 -64.5l2 -450q41 53 91 109.5t97 113.5h-88v186h357v-171l-470 -568h-234z" />
<glyph unicode="&#xe13;" horiz-adv-x="1934" d="M32 850q12 49 34 97.5t54.5 93.5t78.5 84t103 67.5t128 44.5t155 16q103 0 184 -20t140.5 -55.5t100.5 -84t67.5 -105.5t36.5 -121t10 -131v-330q0 -61 12.5 -102t35 -67.5t54 -37.5t70.5 -11q68 0 119 27t86 74t52 110q18 62 18 138l1 689h249v-1226h-238l-6 131 q-26 -35 -58.5 -64t-72 -51t-83.5 -34q-46 -11 -96 -11q-112 0 -187.5 30.5t-120.5 89t-63.5 143t-18.5 194.5l-1 331q0 50 -14.5 101t-48 91t-90 65.5t-138.5 27.5q-67 0 -117 -14t-86.5 -38.5t-58.5 -55.5t-31 -63q45 -32 65 -89t20 -127l3 -457h131v-200h-377v660 q0 26 -4 52.5t-16 51t-32 46.5q-18 22 -50 40z" />
<glyph unicode="&#xe14;" horiz-adv-x="1315" d="M114 0v733q0 66 10 129.5t34 121.5t64.5 107t101 85t143 56.5t190.5 20.5q107 0 189.5 -20.5t142 -56.5t100.5 -85t66.5 -107t36.5 -121.5t11 -129.5v-733h-248l-2 756q0 50 -12 102t-46 93.5t-90.5 67t-147.5 25.5t-149 -25.5t-91.5 -67t-47 -93.5t-13.5 -102v-436 l208 233h-97v189h371v-174l-491 -568h-233z" />
<glyph unicode="&#xe15;" horiz-adv-x="1324" d="M114 0v739q0 86 17.5 168.5t62 151t121 116.5t196.5 66l152 -152l140 152q123 -16 201.5 -63.5t125.5 -116t64.5 -152t17.5 -170.5v-739h-245v759q0 31 -7.5 66.5t-20.5 69.5t-33.5 63t-48.5 44l-153 -149q-8 -6 -17.5 -12t-23.5 -6q-16 0 -29 5q-12 7 -18 13l-158 151 q-30 -14 -50 -42t-31.5 -61.5t-16 -70.5t-4.5 -71v-436l208 230h-97v186h374v-171l-494 -568h-233z" />
<glyph unicode="&#xe16;" horiz-adv-x="1267" d="M32 850q12 49 32.5 97.5t52.5 93.5t77 84t104.5 67.5t133.5 44.5q76 16 167 16q108 0 191 -20t144.5 -55.5t103.5 -84t68.5 -105.5t36.5 -120.5t10 -128.5v-739h-245v759q0 53 -14.5 102.5t-50.5 90.5t-96.5 65.5t-149.5 26.5q-76 0 -130.5 -17t-91 -43t-57 -57 t-26.5 -54q23 -15 39 -38t27 -50t16.5 -58.5t5.5 -66.5v-460h131v-200h-377v663q0 25 -4 50.5t-16 50t-32 46.5q-18 22 -50 40z" />
<glyph unicode="&#xe17;" horiz-adv-x="1290" d="M114 0v1226h239v-149q65 88 158 133.5t220 45.5q129 0 215 -35t138 -98t72.5 -150.5t20.5 -192.5l1 -780h-245v804q0 50 -17 91.5t-46.5 71t-72 45.5t-95.5 16q-87 0 -150.5 -27t-106 -76t-63 -114.5t-20.5 -144.5v-666h-248z" />
<glyph unicode="&#xe18;" horiz-adv-x="1224" d="M111 359v257h245v-257q0 -49 23.5 -83t60 -54.5t81.5 -30t89 -9.5q41 0 86.5 7.5t83.5 27.5t62.5 54t24.5 88q0 28 -4.5 49t-16 38.5t-34 33.5t-59 32.5t-88.5 32.5q-52 19 -125 39q-58 18 -113 35.5t-103 37.5t-88 46.5t-68 59.5t-42.5 73.5t-13.5 93.5q2 56 22.5 101.5 t53 81t77.5 61.5t96 43t105 25t109 8q110 0 203.5 -22t161 -71.5t107 -127t39.5 -185.5h-248q0 55 -18 93t-51 63t-78.5 36t-103.5 11q-47 0 -88 -6.5t-72 -20t-49.5 -35t-18.5 -51.5q0 -20 17.5 -39t45.5 -35t63 -29t69 -23.5t64 -17.5t51 -13q70 -19 131 -38t111 -42.5 t89.5 -53.5t65.5 -69.5t39 -92t13 -122.5q0 -68 -19 -123t-54 -98t-81.5 -73.5t-103.5 -50.5t-120 -28.5t-128 -8.5q-67 0 -129.5 8.5t-117.5 29t-102 51t-80.5 73t-52.5 98t-19 122.5z" />
<glyph unicode="&#xe19;" horiz-adv-x="1290" d="M111 445v781h245v-804q0 -50 17 -91.5t47 -71.5t73 -46t95 -16q87 0 151 27t106.5 76t63 115.5t20.5 143.5v667h249v-1226h-239l-5 149q-64 -88 -157.5 -133t-220.5 -45q-128 0 -213.5 34t-136.5 97t-73 150.5t-22 192.5z" />
<glyph unicode="&#xe1a;" horiz-adv-x="1290" d="M112 517v709h247v-733q0 -52 14 -106t47 -98t87.5 -71t137.5 -27q84 0 138.5 27t87.5 71t46.5 98t13.5 106v733h247v-715q0 -69 -10 -135t-34 -126t-63.5 -111t-98 -87.5t-139 -57t-187 -20.5t-188 20.5t-140 58.5t-98 89t-63.5 112t-34.5 128.5t-10.5 134.5z" />
<glyph unicode="&#xe1b;" horiz-adv-x="1290" d="M111 517l3 709h245v-733q0 -52 13 -106t46 -98t88 -71t138 -27t138 27t87.5 71t46 98t13.5 106v1268h248v-1250q0 -69 -10.5 -135t-33.5 -126t-62.5 -111t-99 -87.5t-140.5 -57t-186 -20.5q-106 0 -187 20.5t-141 58.5t-99.5 89t-63 112t-33.5 128.5t-10 134.5z" />
<glyph unicode="&#xe1c;" horiz-adv-x="1384" d="M111 347l1 879h408l-3 -201h-161v-640q0 -55 7.5 -93t20 -63t32 -36t44.5 -11q39 0 61 20.5t31.5 56.5t11.5 84t2 102v194h246v-194q0 -55 3 -102.5t14.5 -83.5t34.5 -56q21 -21 62 -21q24 0 42.5 11t31.5 36t19 63t6 93v841h245v-879q0 -96 -22 -166t-62.5 -115.5 t-97.5 -67t-129 -21.5q-87 0 -158 36.5t-112 103.5q-35 -73 -97.5 -106.5t-159.5 -33.5q-73 0 -132 21.5t-100.5 67t-65 115.5t-23.5 166z" />
<glyph unicode="&#xe1d;" horiz-adv-x="1384" d="M111 347l3 879h406l-3 -201h-161v-640q0 -55 7.5 -93t20 -63t32 -36t44.5 -11q39 0 61 20.5t31.5 56.5t11.5 84t2 102v194h246v-194q0 -55 3 -102.5t14.5 -83.5t34.5 -56q21 -21 62 -21q24 0 43 11t31.5 36t18.5 63t6 93v1376h245v-1414q0 -96 -22 -166t-62.5 -115.5 t-97.5 -67t-129 -21.5q-87 0 -158 36.5t-112 103.5q-35 -73 -97.5 -106.5t-159.5 -33.5q-73 0 -132 21.5t-100.5 67t-65 115.5t-23.5 166z" />
<glyph unicode="&#xe1e;" horiz-adv-x="1623" d="M35 1226h272l178 -879l190 879h273l191 -870l176 870h269l-311 -1226h-269l-200 870l-185 -870h-272z" />
<glyph unicode="&#xe1f;" horiz-adv-x="1623" d="M35 1226h272l178 -879l190 879h273l191 -870l266 1405h268l-400 -1761h-269l-200 870l-185 -870h-272z" />
<glyph unicode="&#xe20;" horiz-adv-x="1341" d="M64 0v200h120v463q0 25 -4.5 50.5t-15.5 50t-30.5 46.5t-51.5 40q11 49 33 97.5t55.5 93.5t80.5 84t107.5 67.5t135.5 44.5t166 16q108 0 192.5 -20t148 -55.5t106.5 -84t71 -105.5t39.5 -120.5t11.5 -128.5v-739h-248v759q0 53 -16 102.5t-54 90.5t-99.5 65.5 t-151.5 26.5q-76 0 -132 -17t-95 -43t-61.5 -56t-28.5 -55q18 -17 34 -40t27.5 -50t18.5 -58q6 -33 5 -65v-660h-364z" />
<glyph unicode="&#xe21;" horiz-adv-x="1290" d="M114 0v1226h248l-3 -667q0 -77 22 -143.5t64.5 -115.5t106.5 -76t150 -27q53 0 96 16t72 46t45 71t16 92v804h246v-781q0 -105 -21.5 -192.5t-73 -150.5t-138 -97t-214.5 -34q-126 0 -218 45t-159 133v-149h-239z" />
<glyph unicode="&#xe22;" horiz-adv-x="1258" d="M91 385q0 47 6.5 89.5t22.5 77.5t42 63q26 27 67 48q-44 25 -70 56t-40.5 66.5t-20 71t-5.5 67.5q0 60 16.5 105.5t42.5 79t62 56t74.5 36.5t79.5 19.5t77 5.5h186l-2 -210h-134q-18 0 -42.5 -2t-48.5 -13t-40.5 -33t-16.5 -60q0 -41 13.5 -67t35.5 -41.5t51 -22t63 -9.5 h118v-206h-120q-35 -1 -65 -8.5t-51 -25t-32 -49.5q-10 -32 -10 -85q0 -55 22 -94.5t60 -66.5t87 -40t103 -13q58 0 109.5 15t88.5 50t58 90.5t20 137.5v753h245v-795q0 -113 -41.5 -199t-112.5 -144.5t-165.5 -87.5t-201.5 -29q-67 0 -132 10t-124 33.5t-109 57t-87 80.5 t-58 105t-21 128z" />
<glyph unicode="&#xe23;" horiz-adv-x="1087" d="M60 423h247q0 -62 20 -108t52.5 -75.5t73 -44t81.5 -14.5q43 0 83 7.5t70.5 25t49.5 49.5t19 84q-1 34 -20 62.5t-50.5 51t-74 39.5t-88.5 30q-47 12 -97.5 24t-96.5 31t-87.5 44t-72 61.5t-48 84.5t-17.5 111q0 69 18 123t51 95t76 69.5t93.5 46t103.5 24.5t106 6 q93 -3 172 -28t136 -74.5t89 -122.5t32 -169h-248q-2 33 -10 67.5t-26 62t-49.5 45t-81.5 19.5q-61 3 -101 -9.5t-63.5 -33t-32 -49t-8.5 -59.5q0 -29 18 -52.5t51 -42.5t76 -33.5t90 -25.5q102 -28 181 -61.5t133 -77.5t81 -100t27 -132q0 -78 -18.5 -137t-51.5 -103.5 t-77.5 -74.5t-95.5 -48t-108 -26t-115 -8q-64 0 -125.5 11t-117 34t-102 59t-80.5 85.5t-51.5 114t-15.5 142.5z" />
<glyph unicode="&#xe24;" horiz-adv-x="1267" d="M32 850q12 49 32.5 97.5t52.5 93.5t77 84t104.5 67.5t133.5 44.5q76 16 167 16q108 0 191 -20t144.5 -55.5t103.5 -84t68.5 -105.5t36.5 -120.5t10 -128.5v-1136h-245v1156q0 53 -14.5 102.5t-50.5 90.5t-96.5 65.5t-149.5 26.5q-76 0 -130.5 -17t-91 -43t-57 -57 t-26.5 -54q23 -15 39 -38t27 -50t16.5 -58.5t5.5 -66.5v-460h131v-200h-377v663q0 25 -4 50.5t-16 50t-32 46.5q-18 22 -50 40z" />
<glyph unicode="&#xe25;" horiz-adv-x="1261" d="M77 326q0 100 36 171.5t98.5 121.5t145 77.5t174 41.5t186.5 15.5t182 -3.5v114q0 59 -21.5 95.5t-57 54.5t-79 24t-87.5 6q-58 0 -108 -11.5t-86.5 -38.5t-58 -72.5t-26.5 -111.5h-251q3 82 23.5 147t57 113t87 83t110 55.5t127 31t138.5 10.5q57 0 115 -7.5t111 -23.5 t100 -43t81 -67t54 -95.5t20 -128.5v-885h-249v562q-23 3 -61 4.5t-82.5 0t-93.5 -6.5t-97 -16t-91 -28t-76 -41.5t-52 -58t-18 -77.5q0 -47 20 -77.5t51.5 -49.5t71.5 -27t81 -8q33 0 69 5.5t74 14.5v-194q-51 -13 -95.5 -21t-94.5 -8q-86 0 -164 19t-136.5 60.5 t-93.5 108.5t-34 164z" />
<glyph unicode="&#xe26;" horiz-adv-x="1341" d="M64 0v200h120v463q0 25 -4.5 50.5t-15.5 50t-30.5 46.5t-51.5 40q11 49 33 97.5t55.5 93.5t80.5 84t107.5 67.5t135.5 44.5t166 16q108 0 192.5 -20t147.5 -55.5t106.5 -84t70.5 -105.5t39.5 -120.5t12.5 -128.5v-1136h-248v1156q0 53 -16.5 102.5t-54 90.5t-99 65.5 t-151.5 26.5q-76 0 -132 -17t-95 -43t-61.5 -56t-28.5 -55q18 -17 34 -40t27.5 -50t18.5 -58q6 -33 5 -65v-660h-364z" />
<glyph unicode="&#xe27;" horiz-adv-x="1147" d="M79 791q3 103 39.5 189t97.5 147t147.5 95t191.5 34q131 0 229 -47t161.5 -131t95 -202t31.5 -262.5t-31 -263t-95 -202.5t-161 -129q-99 -45 -230 -45q-105 0 -191.5 33.5t-147.5 95t-96 146t-40 188.5h248q5 -68 23 -116.5t48 -79.5t69.5 -46t84.5 -15q62 0 110 25.5 t82.5 79.5t53.5 135.5t19 192.5t-19 194.5t-53 136.5t-82 79q-48 27 -109 27q-47 0 -86.5 -15.5t-68.5 -46t-48 -80.5t-25 -117h-248z" />
<glyph unicode="&#xe28;" horiz-adv-x="1303" d="M114 0v710q0 68 10 134.5t34 127t64.5 112.5t100.5 89t141 58.5t187 21.5q70 0 129 -10q58 -8 105 -25q25 1 44 13.5t31 30.5t19 41t8 46h263q0 -35 -10.5 -76t-31 -78t-52.5 -67t-76 -48q30 -38 50 -81.5t33.5 -91t20 -98t6.5 -99.5v-710h-248v736q0 35 -6.5 70 t-20 68.5t-36.5 63t-55.5 51t-75.5 33.5t-98 12q-84 0 -140 -27t-90.5 -70t-49 -96.5t-14.5 -104.5v-165q34 48 71 81.5t81.5 55.5t99.5 31t125 9v-217q-108 0 -179.5 -27.5t-115.5 -81t-61.5 -129t-17.5 -170.5v-123h-245z" />
<glyph unicode="&#xe29;" horiz-adv-x="1290" d="M112 496v730h244v-750q0 -53 12 -104.5t42.5 -94t86 -69t145.5 -26.5q91 0 146.5 26.5t86 69t41.5 94t11 104.5v95h-355v285h234v-88h123v458h248v-458h111l-2 -197h-109v-75q0 -65 -9 -130t-31.5 -123t-61 -107.5t-97 -85t-141 -56t-192.5 -20.5q-111 0 -193.5 20.5 t-141.5 56t-97.5 85t-61.5 107.5t-31 123t-8 130z" />
<glyph unicode="&#xe2a;" horiz-adv-x="1261" d="M77 326q0 100 36 171.5t98.5 121.5t145 77.5t174 41.5t186.5 15.5t182 -3.5v114q0 59 -21.5 95.5t-56 54.5t-77.5 24t-87 6q-58 0 -108 -11t-87 -38t-59.5 -71.5t-25.5 -110.5h-251q2 82 23.5 147t58.5 113t87 83t109.5 55.5t127.5 31t140 10.5q54 0 109 -8 q57 -7 107 -22q26 3 46.5 15t33.5 29.5t20 38.5q8 23 11 43h262q0 -34 -9.5 -73t-29.5 -75.5t-53 -66.5t-77 -45q23 -41 39.5 -92t16.5 -112v-885h-249v562q-23 3 -61 4.5t-82.5 0t-93.5 -6.5t-97 -16t-91 -28t-76 -41.5t-52 -58t-18 -77.5q0 -47 20 -77.5t51.5 -49.5 t71.5 -27t81 -8q33 0 69 5.5t74 14.5v-194q-51 -13 -95.5 -21t-94.5 -8q-86 0 -164 19t-136.5 60.5t-93.5 108.5t-34 164z" />
<glyph unicode="&#xe2b;" horiz-adv-x="1264" d="M114 0v1226h242v-430l502 430h358l-273 -230q64 -27 104.5 -69t63 -97.5t31 -124t8.5 -146.5v-559h-245v584q0 44 -7 85t-24.5 76t-45.5 59.5t-67 33.5l-402 -345v-493h-245z" />
<glyph unicode="&#xe2c;" horiz-adv-x="1623" d="M29 1226h275l150 -900l207 708h254l218 -711q12 61 23.5 118.5t22.5 114.5l22 114t22 115q11 46 13 77.5t2 58.5q0 32 -7.5 56.5t-25 41t-46.5 25.5t-70 9l2 173q58 3 104.5 15t81 34.5t55 58t26.5 87.5h280q-9 -65 -29.5 -115t-50 -86.5t-68.5 -60t-83 -35.5 q33 -28 52 -63.5t26 -75t5 -82.5q-1 -43 -12 -87l-202 -816h-272l-221 704l-209 -704h-272z" />
<glyph unicode="&#xe2d;" horiz-adv-x="1243" d="M70 610v20.5v30.5v38h552v-194h-299q3 -73 26 -133t62.5 -102t93 -66t117.5 -24q70 0 127 28.5t96.5 83.5t61.5 135.5t22 182.5q0 211 -76 322.5t-231 111.5q-58 0 -108 -14t-88 -42.5t-62 -69.5q-22 -41 -31 -93h-260q20 98 62.5 177.5t110.5 135.5t160.5 87t215.5 31 q102 0 183 -23t143 -64.5t106 -100t71.5 -130t41 -154.5t13.5 -174q0 -84 -13.5 -164.5t-41 -152t-71.5 -130t-106 -101t-143 -65.5t-180 -23q-102 0 -182.5 23t-142.5 65t-106 101t-71.5 129t-40 151t-12.5 167z" />
<glyph unicode="&#xe2e;" horiz-adv-x="1243" d="M70 613v86h552l3 -191h-299q2 -73 25 -133.5t61 -103.5t92 -66t118 -23q70 0 127 28.5t96.5 84t61.5 136t22 182.5q0 209 -76 320t-231 111q-115 0 -189 -56.5t-100 -162.5h-260q20 98 62.5 178t109.5 137t160.5 88t214.5 31q59 0 113 -9t101 -27q23 3 41.5 13.5t30 28 t17.5 39.5t7 45h267q0 -35 -10 -71.5t-30.5 -71t-50 -63t-69.5 -45.5q35 -44 61 -99.5t43.5 -116.5t27.5 -130q11 -69 11 -139q0 -84 -13.5 -164.5t-41 -152t-71.5 -130t-106 -101t-143 -65.5t-180 -23q-102 0 -182.5 23t-142 65t-105 101t-71.5 129t-41 151t-13 167z" />
<glyph unicode="&#xe2f;" horiz-adv-x="1267" d="M85 876q0 66 17.5 117.5t47.5 90.5t70.5 66t86.5 43.5t95 24.5q51 8 97 8h197l-1 -207h-197q-82 0 -119 -35.5t-39 -110.5q0 -35 11 -71t39 -63.5t75 -45t120 -17.5q158 0 240.5 57.5t82.5 180.5v312h245v-1226h-245v571q-58 -50 -139 -74t-176 -24q-126 0 -221 28 t-159 81t-96 127.5t-32 166.5z" />
<glyph unicode="&#xe30;" horiz-adv-x="738" d="M111 191v279h226v-90h295v-189h-521zM111 799v281h228v-90h292v-191h-520z" />
<glyph unicode="&#xe31;" d="M-769 1413v295h226v-105h584l3 -190h-813z" />
<glyph unicode="&#xe32;" horiz-adv-x="1043" d="M32 822q0 70 17.5 128.5t48 106t74 84t93.5 60.5t105.5 36.5t114.5 12.5q95 0 176.5 -26.5t140.5 -79t94 -132.5q33 -81 33 -190l1 -822h-245l-2 780q2 131 -50 192.5t-148 61.5q-85 0 -137.5 -52.5t-58.5 -159.5h-257z" />
<glyph unicode="&#xe33;" horiz-adv-x="1043" d="M-493 1624q0 48 17.5 90t48 73.5t72 50.5t89.5 19q47 0 89.5 -19t74.5 -50.5t51.5 -73.5t19.5 -90q0 -49 -19 -91t-51 -73.5t-75 -50.5t-89.5 -19t-88.5 19t-73 50.5t-48.5 73.5t-17.5 91zM-345 1624q0 -18 7 -32.5t17.5 -26.5t25.5 -19t31 -7q17 0 32.5 7t27 19 t17.5 26.5t6 32.5q0 17 -6.5 31.5t-17.5 26.5t-27 19t-32 7q-18 0 -32.5 -7t-25.5 -19t-17.5 -26.5t-5.5 -31.5zM32 822q0 70 17.5 128.5t48 106t74 84t93.5 60.5t105.5 36.5t114.5 12.5q95 0 176.5 -26.5t141.5 -79t94 -133t33 -189.5v-822h-245v780q1 131 -51.5 192.5 t-148.5 61.5q-85 0 -137.5 -52.5t-58.5 -159.5h-257z" />
<glyph unicode="&#xe34;" d="M-1184 1410l98 196h972v-196h-1070z" />
<glyph unicode="&#xe35;" d="M-1184 1410l98 196h739v172h232l1 -368h-1070z" />
<glyph unicode="&#xe36;" d="M-1184 1410l98 196h572l-1 20q0 44 16.5 83.5t45 68.5t67.5 47t82.5 18t83 -18t69.5 -47t46.5 -68.5t16.5 -83.5q0 -45 -16 -83.5t-45 -68t-68 -47t-82 -17.5h-885zM-378 1626q0 -14 6.5 -28.5t16.5 -24t24 -15.5t28.5 -6t29.5 6t25 15.5t16.5 24t6.5 28.5q0 35 -23.5 57 t-53.5 22q-15 0 -29.5 -5.5t-24.5 -16.5t-16 -25t-6 -32z" />
<glyph unicode="&#xe37;" d="M-1184 1410l98 196h423l-3 172h222l2 -172h106v172h221l1 -368h-1070z" />
<glyph unicode="&#xe38;" d="M-450 -330l3 190h336v-459h-231v269h-108z" />
<glyph unicode="&#xe39;" d="M-888 -330l3 190h342l-2 -168q0 -58 24.5 -89t76.5 -31q50 0 76 31t26 89l2 168h229v-168q0 -64 -17.5 -120.5t-57 -98.5t-102 -67t-153.5 -25q-88 0 -150 20.5t-102 59t-61 92.5q-23 53 -26 117h-108z" />
<glyph unicode="&#xe3a;" d="M-418 -269q0 35 13.5 65t36 53t52.5 36t65 13q33 0 64 -13t53.5 -36t35.5 -53t12 -65q0 -33 -12.5 -63t-34.5 -52.5t-52 -36t-63 -13.5q-35 0 -66 13.5t-54 36t-36.5 52.5t-13.5 63z" />
<glyph unicode="&#xe3e;" />
<glyph unicode="&#xe3f;" horiz-adv-x="1389" d="M131 0v1428h444v140h228v-143q88 -4 169.5 -22.5t146 -58t102.5 -107.5q40 -68 40 -173t-37.5 -178.5t-118.5 -124.5q53 -22 93 -56.5t68 -77.5t41.5 -94t13.5 -110q0 -52 -13 -104t-40 -99.5t-66.5 -87t-92 -69t-116.5 -46.5t-140 -17h-50v-149h-228v149h-444zM385 1212 l2 -372h188v372h-190zM387 213h188v409h-188v-409zM803 213h20q59 0 104 14.5t76 44t47 69t16 91.5q0 56 -22 92.5t-60 57.5t-84.5 30.5t-96.5 9.5v-409zM803 842q107 12 154 57.5t47 126.5q0 59 -13 95.5t-39 56t-64 25.5t-85 9v-370z" />
<glyph unicode="&#xe40;" horiz-adv-x="522" d="M137 0v1226h248v-1226h-248z" />
<glyph unicode="&#xe41;" horiz-adv-x="935" d="M137 0v1226h248v-1226h-248zM550 0v1226h249v-1226h-249z" />
<glyph unicode="&#xe42;" horiz-adv-x="621" d="M-9 1591l45 187h599l111 -195h-384q29 -35 43.5 -77.5t14.5 -87.5v-1218h129l1 -200h-373v1410q0 43 -15.5 77t-40.5 57t-58.5 35t-71.5 12z" />
<glyph unicode="&#xe43;" horiz-adv-x="621" d="M-70 1454q0 97 29 168.5t77.5 118t112 70t131.5 23.5q62 0 119 -14.5t101.5 -45.5t71.5 -80q27 -47 27 -117q-2 -38 -14.5 -67.5t-32 -55t-43.5 -49.5t-46 -53q-16 -19 -25 -43t-13.5 -50.5t-4.5 -52.5v-50v-956h129l1 -200h-373l-2 1156q-1 50 3 89.5t16 73.5t33 65.5 t56 66.5q9 9 23.5 22t29 28.5t25.5 31.5q13 16 13 31q0 13 -6 26t-16 24.5t-27.5 17.5t-45.5 6q-29 0 -52 -13t-37.5 -36.5t-21.5 -58.5t-7 -76h-231z" />
<glyph unicode="&#xe44;" horiz-adv-x="621" d="M-150 1583l109 195h599l48 -187q-38 0 -72.5 -12t-59 -35t-39.5 -56.5t-15 -77.5v-1210h129l1 -200h-373v1418q1 43 14 87q10 43 40 78h-381z" />
<glyph unicode="&#xe45;" horiz-adv-x="1043" d="M32 822q0 70 17.5 128.5t48 106t74 84t93.5 60.5t105.5 36.5t114.5 12.5q95 0 176 -26.5t140.5 -79t93.5 -133.5q34 -82 32 -190v-1218h-245v1177q1 131 -50 192.5t-147 61.5q-85 0 -137.5 -52.5t-58.5 -159.5h-257z" />
<glyph unicode="&#xe46;" horiz-adv-x="1195" d="M79 771q0 90 16 167.5t58.5 138t115.5 103.5q73 42 189 61l129 -134l115 131q85 -7 147 -30.5t103.5 -59t67 -82.5t39 -99.5t17.5 -111t4 -119.5v-1130h-249v1153q0 24 -1 48.5t-2.5 49.5t-5.5 48.5t-11.5 42.5t-20.5 32t-31 19l-128 -138q-9 -7 -20.5 -12t-23.5 -5 q-16 0 -27 5t-17 12l-133 135q-49 -32 -69.5 -90.5t-14.5 -131.5q0 -26 5 -52.5t19.5 -47t38 -33.5t58.5 -13h49l2 -216h-51q-73 0 -140.5 20.5t-118.5 64t-80 111.5q-29 67 -29 163z" />
<glyph unicode="&#xe47;" d="M-1058 1695q0 75 26 127.5t70.5 87.5t104.5 51t124 16h593v-177h-572q-44 0 -69.5 -11t-39 -27t-17 -34t-3.5 -33q0 -9 3 -22.5t10 -27t21 -22t38 -8.5q38 0 57.5 24.5t17.5 74.5h168q-5 -99 70 -99q41 0 52 26q13 26 7 73h181q10 -79 -3 -133t-43 -87.5t-74 -49 t-93 -15.5q-32 0 -60 8t-50 23t-39.5 32.5t-28.5 37.5q-12 -20 -32.5 -37.5t-45.5 -32.5t-54 -23t-61 -8q-76 0 -125 25.5t-79 64.5t-42 85.5t-12 90.5z" />
<glyph unicode="&#xe48;" d="M-346 2275h228l1 -358h-228z" />
<glyph unicode="&#xe49;" d="M-680 2278h303l3 -181q59 0 105.5 14.5t78.5 39t48 57.5q16 32 16 70h212q0 -70 -28.5 -136t-89 -117t-151.5 -81.5t-214 -30.5h-168v184h-112z" />
<glyph unicode="&#xe4a;" d="M-721 1913q-6 81 8.5 141t42.5 99.5t66 58.5t78.5 19t75.5 -20.5t62 -55.5q22 35 60.5 55.5t80.5 20.5q57 0 102.5 -32t62.5 -100q12 15 22 34t17.5 41.5t12 48t5.5 49.5h194q0 -37 -8.5 -75.5t-25.5 -76.5t-39.5 -72.5t-49.5 -62t-58 -46.5q-30 -21 -62 -26h-157 q0 16 -1.5 39t-5.5 44.5t-14.5 36.5t-29.5 15q-13 0 -21.5 -6.5t-14.5 -16.5t-8 -24.5t-2 -29.5h-117q0 32 -11 54.5t-32 22.5q-17 0 -26.5 -13.5t-14.5 -35t-7 -44.5q-1 -25 -1 -42h-184z" />
<glyph unicode="&#xe4b;" d="M-514 2066l3 177h169v148h222v-148h173l-2 -177h-174l3 -153h-222l-1 153h-171z" />
<glyph unicode="&#xe4c;" d="M-505 1772q-2 85 28 151.5t88.5 113t140.5 72.5t187 26v-184q-110 0 -169 -42.5t-56 -136.5h-219z" />
<glyph unicode="&#xe4d;" d="M-493 1624q0 48 17.5 90t48 73.5t72 50.5t89.5 19q47 0 89.5 -19t74.5 -50.5t51.5 -73.5t19.5 -90q0 -49 -19 -91t-51 -73.5t-75 -50.5t-89.5 -19t-88.5 19t-73 50.5t-48.5 73.5t-17.5 91zM-345 1624q0 -18 7 -32.5t17.5 -26.5t25.5 -19t31 -7q17 0 32.5 7t27 19 t17.5 26.5t6 32.5q0 17 -6.5 31.5t-17.5 26.5t-27 19t-32 7q-18 0 -32.5 -7t-25.5 -19t-17.5 -26.5t-5.5 -31.5z" />
<glyph unicode="&#xe4e;" d="M-564 1413q0 59 13.5 112t39.5 96t67 75.5t98 46.5q9 43 34.5 78.5t68 62t103 40t140.5 13.5l1 -188q-49 0 -80.5 -7.5t-48.5 -23.5t-23.5 -37.5t-6.5 -51.5l3 -49h-61q-40 0 -64 -12t-38.5 -33.5t-19 -52.5t-4.5 -69h-222z" />
<glyph unicode="&#xe4f;" horiz-adv-x="1515" d="M107 610q0 89 22.5 171.5t65 153.5t102 130t131 100t155 64.5t173.5 23.5q88 0 169.5 -23.5t152.5 -64.5t129.5 -100t100 -130t64.5 -153q24 -83 24 -172t-23.5 -171.5t-65 -154t-100.5 -130t-130 -100t-153 -63.5q-83 -23 -171 -23q-90 0 -172 22.5t-154 64t-131 100 t-101 130t-65 154t-23 171.5zM283 616q0 -96 37.5 -181.5t101 -149t149.5 -101.5t184 -38q64 0 123 17.5t110.5 48t93.5 73t72 95t47 112.5t17 124t-16 124t-47 111t-73 93.5t-94 72.5t-111 46.5t-124 16.5q-99 0 -183.5 -36.5t-148 -99t-101 -147.5t-37.5 -181zM409 616 q0 69 27.5 130t74.5 107t109.5 74t132.5 28q69 0 129.5 -28t106.5 -74t73 -107t27 -130q0 -70 -26 -133t-72 -109t-107 -73t-131 -27t-132.5 27t-109.5 73t-74.5 109t-27.5 133zM568 616q0 -39 14.5 -73.5t38.5 -59.5t59 -38q32 -14 73 -14q38 0 70.5 13.5t56.5 38.5 t37.5 59.5t12.5 73.5q0 38 -14 70t-37 57t-55.5 39t-68.5 14q-41 0 -75.5 -14t-59 -39t-38.5 -57t-14 -70z" />
<glyph unicode="&#xe50;" horiz-adv-x="1330" d="M86 534q0 132 39.5 235t113 172t182 105.5t242.5 36.5t242 -36.5t182.5 -105.5t115.5 -172t41 -235q0 -150 -47 -256t-125 -173t-182.5 -97.5t-223.5 -30.5q-79 0 -153.5 13t-138.5 42t-117 73t-91.5 106.5t-59.5 143t-20 179.5zM330 523q0 -75 24 -137t67 -108.5 t104.5 -72t138.5 -25.5q76 0 138 25.5t105 72t67.5 108.5t24.5 137q0 96 -27 164t-72.5 111t-106 62t-127.5 19t-128.5 -19t-107.5 -62t-73 -111t-27 -164z" />
<glyph unicode="&#xe51;" horiz-adv-x="1321" d="M7 161l194 159q38 -43 82 -70.5t93 -45t102 -24t109 -6.5q86 0 160 25.5t126.5 75t83 122.5t30.5 168q0 72 -22 131.5t-63 103.5t-103 67q-60 24 -145 24q-69 0 -125.5 -16.5t-97 -44t-63 -63.5t-22.5 -73q0 -36 15.5 -68.5t53.5 -56t97.5 -33.5t150.5 1v-178 q-47 -12 -84 -14q-36 -3 -68 -3q-85 0 -161.5 23t-132.5 67.5t-90 107t-31 136.5q0 73 22 132t60 105t90.5 79t114 53.5t129.5 30.5q69 10 136 10q123 0 229.5 -29t186 -90.5t125.5 -160t48 -238.5q0 -131 -44.5 -240t-127 -186.5t-202.5 -119.5t-270 -42q-69 0 -141 4 t-148 22.5t-151 54.5q-74 35 -146 100z" />
<glyph unicode="&#xe52;" horiz-adv-x="1509" d="M-9 1025l40 207q70 0 127 -19t98.5 -59.5t63.5 -100.5t22 -145l1 -441q0 -57 27 -107t81 -86.5t136 -58t190 -21.5q102 0 175.5 20t121 52t71 74.5t23.5 87.5v296q0 32 -8 55.5t-22 41t-33 29t-42 17.5l-161 -143l-160 134q-18 -1 -34 -9t-28.5 -24t-20.5 -40 q-8 -23 -8 -55l3 -67q0 -29 1.5 -60t9 -55t23.5 -39.5t45 -15.5h92l-2 -191h-113q-71 0 -120.5 18.5t-81.5 47.5t-51 66.5t-28 76.5t-11.5 78t-4.5 68l-1 58q0 69 26 129.5t74.5 109.5t116.5 82q66 33 151 44l122 -102l105 102q85 -4 158 -31t128 -71.5t85 -103.5 q29 -59 29 -129v-281q0 -84 -20 -152t-57.5 -121.5t-89.5 -92t-114.5 -64t-134 -37.5t-144.5 -12h-120q-150 0 -267.5 35t-198 101t-121.5 159.5t-41 207.5l2 385q-2 80 -28 116t-82 36z" />
<glyph unicode="&#xe53;" horiz-adv-x="1353" d="M93 485l2 80q-2 126 27.5 218t85.5 154t137 97t184 46l147 -125l156 125q111 -5 190.5 -41.5t132 -92t78.5 -128.5t26 -152v-666h-246v666q0 35 -13 68.5t-33.5 58.5t-47.5 41q-28 16 -55 19l-189 -157l-184 157q-25 -6 -52 -22t-49 -49.5t-36.5 -85t-14.5 -128.5v-80 q0 -34 0.5 -68.5t4 -67t11 -61t21.5 -49t36 -33t54 -12.5q10 0 27 1t38 2t46.5 4t53.5 9l-3 -204q-18 -6 -47 -10.5t-62.5 -7.5t-66 -4.5t-55.5 1.5q-76 9 -128.5 37.5t-86 68.5t-51 90t-26.5 101t-10.5 102.5t-1.5 97.5z" />
<glyph unicode="&#xe54;" horiz-adv-x="1353" d="M93 584q0 123 41 212t117 148.5t184 88t242 28.5h206q41 0 67.5 12.5t41.5 34.5t21 52q6 31 6 66h251q0 -43 -6.5 -87.5t-22.5 -86.5t-43 -78.5t-69.5 -63.5t-101 -42t-136.5 -15h-235q-73 0 -131.5 -16t-100 -45.5t-63.5 -74t-22 -101.5v-140q0 -57 16 -106.5t51 -85.5 t89 -56.5t127 -20.5h15q-33 32 -54.5 76t-23.5 97q0 17 3 42.5t14.5 54t34.5 57t63.5 51t102 37.5t149.5 15v-206q-47 0 -73.5 -8t-38.5 -19t-14.5 -23.5t-2.5 -21.5q0 -31 12.5 -58t33 -48.5t45 -33.5t48.5 -12h331l3 -207h-671q-100 0 -176.5 20.5t-132.5 55.5t-94 81.5 t-60 99.5t-32 106q-11 55 -9 104z" />
<glyph unicode="&#xe55;" horiz-adv-x="1353" d="M93 473v117q0 102 28 178.5t78.5 131.5t119.5 90t151 57q-1 6 -2 16q-1 12 -2 20q0 44 18 85t49 70t71.5 47.5t87.5 18.5q50 0 92 -18.5t73 -47.5t47 -70t16 -85q0 -7 1 -11v-3v-2q29 6 47.5 21.5t30 36t16.5 45.5q4 27 4 56h251q0 -43 -6.5 -88.5t-22 -86.5t-43 -76.5 t-70 -62.5t-101 -41.5t-136.5 -14.5h-224q-73 0 -133.5 -13.5t-103.5 -42t-67 -73t-26 -108.5l3 -140q0 -56 16 -105.5t50.5 -86.5t88.5 -58.5t127 -21.5h15q-33 32 -54.5 76t-23.5 97q0 17 3 42.5t14.5 54t34.5 57t63.5 51t102 37.5t149.5 15v-206q-47 0 -73.5 -8 t-38.5 -19t-14.5 -23.5t-2.5 -21.5q0 -31 12.5 -58t33 -48.5t45 -33.5t48.5 -12h331l3 -207h-671q-100 0 -176 20.5t-132.5 57t-94 83t-60 99t-33 106.5t-10.5 107zM619 1083q0 -35 20.5 -57t52.5 -22q37 0 56.5 22t19.5 57q1 35 -19 55.5t-57 20.5q-32 0 -52 -20.5 t-21 -55.5z" />
<glyph unicode="&#xe56;" horiz-adv-x="1372" d="M26 1067l196 114l120 -191q32 14 73 30.5t88 28t103.5 20t120.5 11.5q108 3 191.5 -16t146 -53t105 -83t68.5 -106.5t38 -122.5t12 -131v-75q0 -68 -17 -133t-50 -123.5t-83 -105t-116.5 -80t-149 -51.5t-181.5 -15q-110 3 -200.5 29.5t-155.5 74t-100.5 114t-35.5 147.5 q0 78 26 134t74 92t116 52.5t153 16.5h101l3 -187h-94q-41 0 -67 -9.5t-41.5 -24.5t-20.5 -37t-5 -45q0 -31 19 -58t52.5 -47.5t81.5 -32t107 -13.5q64 -1 124.5 18t106.5 57t74.5 94t28.5 131l-1 71q0 79 -19 138t-58.5 97t-96 55.5t-127.5 17.5q-57 -1 -114.5 -10.5 t-116 -30t-120 -52.5t-128.5 -78z" />
<glyph unicode="&#xe57;" horiz-adv-x="1606" d="M96 482v80q0 120 29.5 210.5t85 154.5t137 101.5t185.5 48.5l115 -116l113 116q119 -14 199 -58t126.5 -110.5t65.5 -153t17 -184.5l2 -83q-2 -25 -4 -56.5t-6.5 -63.5t-10 -65t-14.5 -61q26 21 46.5 52.5t33.5 69.5t19.5 79.5t6.5 79.5l-1 385q0 82 23.5 142.5t64 100 t97.5 59t127 19.5l35 -207q-27 0 -47 -8t-31.5 -26.5t-17.5 -47.5t-6 -70v-327q0 -111 -29 -206t-91 -167t-156.5 -118t-223.5 -61l-186 129q50 48 76 92.5t39.5 87t16 87.5t2.5 95v89q0 64 -11 111.5t-28.5 81t-40 54t-48.5 29.5l-158 -159l-160 165q-24 -6 -49.5 -25 t-46.5 -54t-35.5 -86t-13.5 -123l-1 -77v-54.5t4 -61t12 -60t23 -52.5t37.5 -36.5t54.5 -13.5q6 0 19 1t31.5 2.5t38 3.5t40.5 5l5 -207q-16 -5 -40 -10t-51.5 -8t-57.5 -3q-32 0 -58 6q-73 15 -122.5 44t-83 68.5t-54 86t-29.5 95t-12 96.5t-3 92z" />
<glyph unicode="&#xe58;" horiz-adv-x="1350" d="M99 584q0 111 34.5 199.5t101.5 150.5t167 94.5t233 32.5h279q41 0 65.5 12.5t41 34.5t21.5 52q6 31 6 66h248q0 -42 -5.5 -87t-21.5 -87t-42.5 -80t-69 -65.5t-100 -43.5t-134.5 -16h-307q-70 0 -122 -20t-84.5 -52.5t-48.5 -73.5t-16 -85l2 -222q0 -33 11 -64.5t31 -57 t44 -43.5q24 -16 49 -22l198 158l196 -158q26 0 49.5 9.5t41 29.5t28.5 53q12 34 12 84q0 20 -3.5 42t-14.5 40t-30 32t-48 17q-10 3 -31 3h-42l2 190h89q70 -3 121.5 -19t87.5 -39.5t58 -54t33.5 -66t15.5 -72.5q5 -37 5 -73q0 -98 -25 -172t-76 -124.5t-130 -76 t-187 -25.5l-149 120l-152 -120q-105 6 -186 41t-135.5 90.5t-82.5 127t-25 150.5z" />
<glyph unicode="&#xe59;" horiz-adv-x="1375" d="M95 479v86q0 127 20.5 223.5t68 160.5t124.5 97.5t191 33.5q21 0 46.5 -0.5t52.5 -2.5t53 -8t50 -16q20 -15 41 -31q20 -15 39 -41l82 77q9 9 22 15.5t33 6.5h72q39 0 62.5 9t36 28t15.5 46q6 28 6 63h245q0 -43 -6 -86.5t-19 -83.5t-36.5 -73.5t-62 -58.5t-95 -39.5 t-132.5 -14.5h-17q-9 0 -20.5 -6.5t-23.5 -16t-23.5 -22.5t-23.5 -23l395 -802h-257l-351 721q-35 73 -80 111t-107 38q-33 0 -61.5 -14t-50.5 -48t-33.5 -92t-11.5 -145v-110q0 -26 3 -56t9.5 -58.5t17.5 -55.5t27 -46.5t39 -32t54 -12.5q16 0 44 2t58 8l34 -201 q-18 -5 -42.5 -8.5t-53 -6.5t-58.5 -4.5t-53 1.5q-75 9 -128 34.5t-88.5 63.5t-57 85.5t-32 98.5t-14 103.5t-3.5 102.5z" />
<glyph unicode="&#xe5a;" horiz-adv-x="1683" d="M85 876q0 66 17.5 117.5t47.5 90.5t70.5 66t86.5 43.5t95 24.5q51 8 97 8h196v-207h-197q-82 0 -119 -35.5t-39 -110.5q0 -35 11 -71t39 -63.5t75 -45t120 -17.5q158 0 240.5 57.5t82.5 180.5v312h245v-1226h-245v571q-58 -50 -139 -74t-176 -24q-126 0 -221 28t-159 81 t-96 127.5t-32 166.5zM1324 1226h246v-1226h-244z" />
<glyph unicode="&#xe5b;" horiz-adv-x="2628" d="M118 637q0 68 15.5 139t46 137.5t76 124t105 101.5t132.5 68.5t160 24.5q81 0 147.5 -19.5t117.5 -54t89 -81t62.5 -102t35 -117t12.5 -122.5l-229 -3q0 128 -55 194t-157 72q-74 0 -132.5 -29.5t-98 -80.5t-60.5 -119.5t-21 -147.5q0 -73 28 -142.5t78 -122.5t120 -85.5 t155 -32.5q81 0 147 26.5t115 73t83 112.5t56 142t32 162t12 175l159 89q34 -35 64.5 -73t57.5 -74.5t50 -70.5q24 -35 41 -62q19 26 42.5 61t48.5 71t49 71t46 62q20 -32 44 -67.5t47 -71.5t43 -68.5t36 -60.5l92 128h393l155 -239h-470q-21 -26 -42.5 -60t-45 -73 t-47 -82.5t-46.5 -86.5q-45 95 -87 169t-80 136q-39 -59 -86.5 -158t-94.5 -236q-44 127 -87.5 224t-87.5 161q-12 -89 -41.5 -170t-74.5 -149.5t-101.5 -124t-124.5 -94.5t-145.5 -60t-160.5 -21q-99 0 -184 25.5t-153.5 70t-121 106t-87.5 131.5t-53.5 147.5t-18.5 156.5z " />
<glyph unicode="&#x2000;" horiz-adv-x="1195" />
<glyph unicode="&#x2001;" horiz-adv-x="2391" />
<glyph unicode="&#x2002;" horiz-adv-x="1195" />
<glyph unicode="&#x2003;" horiz-adv-x="2391" />
<glyph unicode="&#x2004;" horiz-adv-x="797" />
<glyph unicode="&#x2005;" horiz-adv-x="597" />
<glyph unicode="&#x2006;" horiz-adv-x="398" />
<glyph unicode="&#x2007;" horiz-adv-x="398" />
<glyph unicode="&#x2008;" horiz-adv-x="298" />
<glyph unicode="&#x2009;" horiz-adv-x="478" />
<glyph unicode="&#x200a;" horiz-adv-x="132" />
<glyph unicode="&#x200b;" />
<glyph unicode="&#x2010;" horiz-adv-x="967" d="M92 451v194h783l1 -194h-784z" />
<glyph unicode="&#x2011;" horiz-adv-x="967" d="M92 451v194h783l1 -194h-784z" />
<glyph unicode="&#x2012;" horiz-adv-x="967" d="M92 451v194h783l1 -194h-784z" />
<glyph unicode="&#x2013;" horiz-adv-x="1203" d="M0 456v229h1203v-229h-1203z" />
<glyph unicode="&#x2014;" horiz-adv-x="1495" d="M-1 685h1496v-229h-1495z" />
<glyph unicode="&#x2018;" horiz-adv-x="597" d="M158 905v263q0 69 16 129.5t50 105.5t87 72t124 27v-141q-32 0 -54.5 -15.5t-37.5 -41t-22 -57.5t-7 -66h121v-276h-277z" />
<glyph unicode="&#x2019;" horiz-adv-x="597" d="M159 885v140q32 0 55 16t37.5 41t21.5 58q7 34 7 66h-121v274h279v-261q0 -70 -17 -130.5t-51 -106t-86.5 -71.5t-124.5 -26z" />
<glyph unicode="&#x201c;" horiz-adv-x="932" d="M136 905v263q0 69 16.5 129.5t50.5 105.5t86.5 72t125.5 27v-141q-32 0 -55.5 -15.5t-38 -41t-22 -57.5t-7.5 -66h123v-276h-279zM517 905v263q0 69 16 129.5t50.5 105.5t87 72t123.5 27v-141q-32 0 -54.5 -15.5t-37 -41t-22 -57.5t-7.5 -66h121v-276h-277z" />
<glyph unicode="&#x201d;" horiz-adv-x="932" d="M136 885v140q32 0 54.5 16t37 41t22.5 58q7 34 7 66h-121v274h279v-261q0 -70 -17 -130.5t-51.5 -106t-87 -71.5t-123.5 -26zM517 885v140q32 0 54 16t36.5 41t21.5 58q8 34 8 66h-120v274h277v-261q0 -70 -16 -130.5t-51 -106t-87.5 -71.5t-122.5 -26z" />
<glyph unicode="&#x2022;" horiz-adv-x="795" d="M55 628q0 64 26.5 122.5t72.5 103t108 71.5t131 27q70 0 132.5 -27t109.5 -71.5t74 -103t27 -122.5q0 -69 -26.5 -129t-73 -104.5t-109.5 -70t-133 -25.5t-131.5 25.5t-108 70t-73 104.5t-26.5 129z" />
<glyph unicode="&#x202f;" horiz-adv-x="478" />
<glyph unicode="&#x205f;" horiz-adv-x="597" />
<glyph unicode="&#x20ac;" horiz-adv-x="1623" d="M44 774v176h195q30 111 88 205.5t143 161.5t198 105q112 38 252 38q121 0 225.5 -30.5t185.5 -92t135 -154.5q55 -92 76 -215h-263q-15 73 -47 126.5t-78 87t-106.5 49.5t-130.5 16q-83 0 -149.5 -23.5t-118.5 -63t-88.5 -93.5t-58.5 -117h427v-176h-462q-1 -12 -2 -25 t-1 -26q0 -18 1.5 -36t1.5 -36h462v-175h-427q24 -64 61 -118t89 -92t118.5 -60t149.5 -22q87 0 153 27.5t112 76t71.5 114t31.5 141.5h257q-16 -134 -63.5 -240.5t-127 -179.5t-191.5 -111t-258 -38q-141 0 -253.5 36.5t-196.5 103t-139.5 159t-81.5 203.5h-187v175h160v56 v67h-163z" />
<glyph unicode="&#x2122;" horiz-adv-x="2008" d="M102 1428h713v-158h-263l-2 -709h-185l3 709h-264zM936 561l1 867h251l234 -574l226 574h254l-1 -867h-190v579l-231 -579h-122l-237 579v-579h-185z" />
<glyph unicode="&#x25cc;" horiz-adv-x="1363" d="M314 590l115 55q-3 -26 -4.5 -55t6.5 -59zM415 333l46 115q18 -25 35.5 -45t43.5 -35zM435 847l120 -43q-32 -16 -56 -34q-23 -17 -35 -40zM622 835l58 117l53 -114q-29 6 -60 4.5t-51 -7.5zM625 333q13 -3 25.5 -6t25 -2t25.5 3t29 8l-51 -114zM815 807l131 40l-51 -120 q-18 25 -39 44.5t-41 35.5zM816 365q26 15 45 34t35 40l33 -109zM933 534q9 25 8 52t-8 56l112 -55z" />
<glyph unicode="&#x25fc;" horiz-adv-x="1061" d="M0 0v1063h1063v-1063h-1063z" />
<glyph unicode="&#xf700;" horiz-adv-x="1178" d="M61 841q15 90 59 166t112.5 130t160.5 85q95 31 209 31q52 0 103 -7.5t98 -22.5q25 5 44 17.5t31.5 30t18 38t5.5 40.5h265q0 -35 -9.5 -73t-28.5 -73t-50 -63q-31 -27 -75 -45q40 -47 60.5 -115t18.5 -158q0 -47 -13 -109t-35.5 -133.5t-52 -148t-60.5 -152t-63.5 -147 t-59.5 -132.5h-308l-199 548h-164v191h357l166 -479q28 64 58 137t54.5 145.5t41.5 140.5q16 67 18 121q2 120 -60 180t-186 60q-100 0 -162 -52t-85 -151h-269z" />
<glyph unicode="&#xf701;" d="M-1329 1410l97 196h756v-196h-853z" />
<glyph unicode="&#xf702;" d="M-1329 1410l97 196h522v172h234v-368h-853z" />
<glyph unicode="&#xf703;" d="M-1329 1410l100 196h344l-1 20q0 44 16.5 83.5t46 68.5t67.5 47t84 18q44 0 83.5 -18t69.5 -47t46.5 -68.5t16.5 -83.5q0 -45 -16 -83.5t-45 -68t-68.5 -47t-84.5 -17.5h-659zM-749 1626q0 -14 6.5 -28.5t17.5 -24t25 -15.5t30 -6q14 0 29 6t25 15.5t16.5 24t6.5 28.5 q0 35 -23 57t-54 22q-15 0 -30 -5.5t-25.5 -16.5t-17 -25t-6.5 -32z" />
<glyph unicode="&#xf704;" d="M-1329 1410l100 196h201l-3 172h222l2 -172h111l-2 172h222v-368h-853z" />
<glyph unicode="&#xf705;" d="M-777 1784h240l1 -377h-238z" />
<glyph unicode="&#xf706;" d="M-1121 1597v178h295v-178q58 0 100.5 14.5t68.5 39.5t39.5 57t13.5 67h216q0 -70 -26.5 -134t-82.5 -113.5t-143 -79.5t-208 -30h-174l1 179h-100z" />
<glyph unicode="&#xf707;" d="M-1238 1421q-4 83 11 144t41.5 102t63 61.5t74.5 20.5q46 0 81.5 -20.5t52.5 -56.5q10 14 25.5 28t34.5 25t40 17.5t42 6.5q26 0 50 -9.5t45 -27.5t38 -44.5t26 -61.5q11 13 18.5 31.5t12 40t5.5 44.5q2 21 2 45h185q0 -63 -16.5 -121t-46 -104.5t-69 -78.5t-88.5 -42 h-143q0 24 -1.5 50.5t-6.5 48.5t-14.5 36t-24.5 14q-12 0 -20.5 -8.5t-14.5 -22t-10 -32.5q-3 -21 -3 -41h-124q0 20 -3 40t-7.5 33.5t-13 22t-20.5 8.5q-16 0 -25.5 -14t-15.5 -36t-7.5 -48.5t-2.5 -50.5h-171z" />
<glyph unicode="&#xf708;" d="M-1025 1740h171l1 149h225l-1 -149h171v-176h-170v-154h-225v154h-169z" />
<glyph unicode="&#xf709;" d="M-955 1413q0 85 30.5 152t89 114t142 71.5t188.5 24.5v-184q-111 0 -169.5 -42t-58.5 -136h-222z" />
<glyph unicode="&#xf70a;" d="M-358 1784h238l3 -377h-236z" />
<glyph unicode="&#xf70b;" d="M-812 1600v181h308v-181q59 0 105 14.5t76.5 39.5t45.5 58q16 31 16 69h217q0 -70 -29 -135.5t-89.5 -116.5t-152 -81t-214.5 -30h-178v182h-105z" />
<glyph unicode="&#xf70c;" d="M-964 1419q-4 83 11.5 144.5t44.5 102.5t67 60.5t79 19.5q48 0 85.5 -20.5t53.5 -55.5q11 15 27 28t36 24.5t42 17.5t42 6q26 0 52.5 -8.5t50 -27t41 -45.5t27.5 -62q12 13 20 32t12 40.5t5.5 44.5t1.5 45h193q0 -63 -17.5 -121t-48 -104t-71.5 -79q-41 -30 -91 -42h-149 q0 25 -3 50.5t-8.5 47.5t-16 36.5t-24.5 14.5q-12 0 -22 -8.5t-17 -22t-10.5 -32.5t-3.5 -41h-128q0 21 -3 40.5t-9 33t-14.5 22t-20.5 8.5q-18 0 -28 -14.5t-16.5 -36.5t-8.5 -48.5t-4 -49.5h-177z" />
<glyph unicode="&#xf70d;" d="M-521 1567v182h174v152h227v-152h175v-182h-175v-157h-225v157h-176z" />
<glyph unicode="&#xf70e;" d="M-507 1413q0 85 31 152t88.5 114t140.5 72q81 24 186 24l1 -184q-111 0 -169 -42q-60 -42 -60 -136h-218z" />
<glyph unicode="&#xf70f;" horiz-adv-x="1934" d="M32 835q12 50 33 101t54.5 97.5t79 86t103 69.5t128.5 47t155 17q103 0 184 -20.5t140.5 -57t100.5 -87t67.5 -109.5t38 -126.5t11.5 -134.5v-293q0 -59 17.5 -105t48 -76.5t71.5 -46t88 -15.5q44 0 83.5 14t70 44t48 76t17.5 109v801h248v-823q0 -73 -18 -134.5 t-50.5 -109.5t-76 -83t-95.5 -58.5t-110.5 -35t-116.5 -11.5q-93 0 -179.5 27.5t-152 81.5t-105 136t-39.5 187v339q0 52 -14.5 104t-48 93.5t-90 68t-139.5 26.5q-67 0 -118 -15t-87 -39.5t-57 -56.5t-30 -65q45 -32 66.5 -90t21.5 -131v-437h131v-200h-377v639q0 27 -4 54 t-16 52.5t-32 48.5q-19 24 -50 41z" />
<glyph unicode="&#xf710;" d="M-896 1413v295h226l-2 -105h789v-190h-1013z" />
<glyph unicode="&#xf711;" d="M-939 1624q0 48 18.5 90t49 73.5t73 50.5t91.5 19q47 0 89.5 -19t74.5 -50.5t51 -73.5t19 -90q0 -49 -19 -91t-51 -73.5t-74.5 -50.5t-89.5 -19q-48 0 -90.5 19t-73.5 50.5t-49.5 73.5t-18.5 91zM-788 1624q0 -18 5.5 -32.5t17.5 -26.5t27 -19q14 -7 31 -7q18 0 33.5 7 t27 19t18 26.5t6.5 32.5q0 17 -7.5 31.5t-19 26.5t-26 19t-32.5 7q-17 0 -31.5 -7t-26.5 -19t-17.5 -26.5t-5.5 -31.5z" />
<glyph unicode="&#xf712;" d="M-1250 1692q0 75 25 127.5t67.5 87.5t98.5 51t117 16h557v-174h-541q-41 0 -65.5 -11t-36.5 -27t-14.5 -35t-2.5 -35q0 -9 1.5 -22.5t8.5 -27t20 -22t37 -8.5q73 0 70 102h158q-3 -53 14.5 -77.5t49.5 -24.5q20 0 32.5 7t19 20.5t7.5 32.5t-1 42h172q8 -79 -4.5 -133 t-41 -87.5t-69.5 -49t-87 -15.5q-31 0 -57.5 8t-47.5 23t-36.5 32.5t-23.5 37.5q-12 -20 -31 -37.5t-44 -32.5t-53.5 -23t-57.5 -8q-70 0 -116 25t-73.5 63.5t-39.5 84.5t-12 90z" />
<glyph unicode="&#xf713;" d="M-704 1917v358h225l3 -358h-228z" />
<glyph unicode="&#xf714;" d="M-1037 2278h308l3 -181q59 0 105.5 14.5t78 39t47.5 57.5q16 32 15 70h211q0 -70 -27.5 -136t-87.5 -117t-151 -82q-93 -30 -215 -30h-170v184h-114z" />
<glyph unicode="&#xf715;" d="M-1063 1913q-6 81 8 141t42.5 99.5t65.5 58.5q39 19 80 19t75 -21q33 -20 59 -55q22 35 60.5 55.5t82.5 20.5q57 0 101.5 -32t65.5 -100q11 15 21.5 34t17.5 41.5t11.5 48t4.5 49.5h193q0 -37 -9 -75.5t-25 -76.5t-38.5 -72.5t-49.5 -62t-58 -46.5q-30 -21 -63 -26h-154 q0 16 -2.5 39t-7.5 44.5t-15 36.5t-28 15q-13 0 -22 -6.5t-14 -16.5t-8 -24.5t-3 -29.5h-116q0 32 -10.5 54.5t-32.5 22.5q-17 0 -26.5 -13.5t-15.5 -35t-7 -44.5q-2 -25 -2 -42h-181z" />
<glyph unicode="&#xf716;" d="M-877 2066l1 177h174l1 148h218l1 -148h171l-1 -177h-170l2 -153h-222l-2 153h-173z" />
<glyph unicode="&#xf717;" d="M-701 1772q-1 85 29 151.5t88 113t140 72.5t186 26l1 -184q-111 0 -168 -42.5t-55 -136.5h-221z" />
<glyph unicode="&#xf718;" d="M-450 -499h339l-3 -459h-231l3 270h-106z" />
<glyph unicode="&#xf719;" d="M-889 -499h340v-167q0 -58 26 -89q24 -30 76 -30q50 0 76 29q26 32 26 90v167h231v-167q0 -64 -17.5 -121t-57 -99.5t-103 -67t-155.5 -24.5q-86 0 -148 21t-103 59t-60 91q-19 54 -22 119h-108z" />
<glyph unicode="&#xf71a;" d="M-418 -639q0 35 14 64.5t36.5 52.5t53.5 36t66 13q33 0 63 -13t52 -36t35 -52.5t13 -64.5q0 -34 -13 -64t-35.5 -52.5t-52.5 -35.5t-65 -13t-64.5 13t-52.5 35.5t-36.5 52.5t-13.5 64z" />
<glyph unicode="&#xf71d;" horiz-adv-x="1623" d="M29 1226h275l150 -900l207 708h254l218 -711q12 61 23.5 118.5t22.5 114.5l22 114t22 115q11 46 13 77.5t2 58.5q0 32 -7.5 56.5t-25 41t-46.5 25.5t-70 9l2 173q58 3 104.5 15t81 34.5t55 58t26.5 87.5h280q-9 -65 -29.5 -115t-50 -86.5t-68.5 -60t-83 -35.5 q33 -28 52 -63.5t26 -75t5 -82.5q-1 -43 -12 -87l-202 -816h-272l-221 704l-209 -704h-272z" />
<glyph d="M-981 1413q0 59 11.5 112t38.5 96t68.5 75.5t100.5 46.5q10 43 35.5 78.5t68 62t102.5 40t141 13.5l2 -188q-50 0 -81.5 -7.5t-49 -23.5t-23 -37.5t-5.5 -51.5v-49h-59q-39 0 -64.5 -12t-40 -33.5t-20 -52.5t-5.5 -69h-220z" />
<glyph horiz-adv-x="1043" d="M-940 1624q0 48 18 90t49.5 73.5t74 50.5t90.5 19q47 0 90 -19t75 -50.5t51 -73.5t19 -90q0 -49 -19 -91t-51 -73.5t-74.5 -50.5t-89.5 -19q-48 0 -91 19t-73.5 50.5t-49.5 73.5t-19 91zM-790 1624q0 -18 6.5 -32.5t18.5 -26.5t26.5 -19t31.5 -7q18 0 32.5 7t26 19 t19 26.5t7.5 32.5q0 17 -7.5 31.5t-19 26.5t-26 19t-32.5 7q-17 0 -31.5 -7t-26.5 -19t-18.5 -26.5t-6.5 -31.5zM32 822q0 70 17.5 128.5t48 106t74 84t93.5 60.5t105.5 36.5t114.5 12.5q95 0 176 -26.5t140.5 -79t93.5 -133t34 -189.5v-822h-246v780q0 131 -51 192.5 t-147 61.5q-85 0 -137.5 -52.5t-58.5 -159.5h-257z" />
<glyph horiz-adv-x="1043" d="M-940 1624q0 48 18 90t49.5 73.5t74 50.5t90.5 19q47 0 90 -19t75 -50.5t51 -73.5t19 -90q0 -49 -19 -91t-51 -73.5t-74.5 -50.5t-89.5 -19q-48 0 -91 19t-73.5 50.5t-49.5 73.5t-19 91zM-790 1624q0 -18 6.5 -32.5t18.5 -26.5t26.5 -19t31.5 -7q18 0 32.5 7t26 19 t19 26.5t7.5 32.5q0 17 -7.5 31.5t-19 26.5t-26 19t-32.5 7q-17 0 -31.5 -7t-26.5 -19t-18.5 -26.5t-6.5 -31.5zM32 822q0 70 17.5 128.5t48 106t74 84t93.5 60.5t105.5 36.5t114.5 12.5q95 0 176 -26.5t140.5 -79t93.5 -133t34 -189.5v-822h-246v780q0 131 -51 192.5 t-147 61.5q-85 0 -137.5 -52.5t-58.5 -159.5h-257z" />
<glyph d="M-1004 1410l99 196h791v-196h-890z" />
<glyph d="M-1004 1410l99 196h560l-2 172h232l1 -368h-890z" />
<glyph d="M-1004 1410l99 196h391l-1 20q0 44 16.5 83.5t45 68.5t67.5 47t82.5 18t83 -18t69.5 -47t46.5 -68.5t16.5 -83.5q0 -45 -16 -83.5t-45 -68t-68 -47t-82 -17.5h-705zM-378 1626q0 -14 6.5 -28.5t16.5 -24t24 -15.5t28.5 -6t29.5 6t25 15.5t16.5 24t6.5 28.5q0 35 -23.5 57 t-53.5 22q-15 0 -29.5 -5.5t-24.5 -16.5t-16 -25t-6 -32z" />
<glyph d="M-1004 1410l99 196h242l-3 172h222l2 -172h106v172h221l1 -368h-890z" />
<glyph d="M-1580 1410l97 196h1058v-196h-1155z" />
<glyph d="M-1580 1410l97 196h826l-3 172h234l1 -368h-1155z" />
<glyph d="M-1580 1410l100 196h654v20q0 44 16.5 83.5t45 68.5t68 47t83.5 18t84 -18t68.5 -47t45.5 -68q15 -40 15 -84q0 -45 -15.5 -83.5t-44 -68t-67.5 -47t-83 -17.5h-970zM-689 1626q0 -32 22.5 -53t56.5 -21q32 0 52.5 21t20.5 53q0 35 -20.5 57t-52.5 22q-18 0 -32.5 -5.5 t-24.5 -16.5t-16 -25t-6 -32z" />
<glyph d="M-1580 1410l100 196h502v172h220l2 -172h111l-3 172h222l1 -368h-1155z" />
<glyph d="M-654 2275h225l3 -358h-227z" />
<glyph d="M-1007 2278h308l3 -181q58 0 104 14.5t77.5 39t47.5 57.5q16 32 16 70h212q0 -70 -29.5 -136t-89.5 -117t-150.5 -81.5t-212.5 -30.5h-170v184h-113z" />
<glyph d="M-1004 1913q-6 81 8.5 141t42 99.5t65.5 58.5t79 19t76 -20.5t60 -55.5q22 35 61 55q37 21 81 21q57 0 102 -32t64 -100q12 15 22 34t17.5 41.5t11.5 48t4 49.5h195q0 -37 -9 -75.5t-25.5 -76.5t-38.5 -72.5t-50 -62t-58 -46.5q-31 -21 -63 -26h-155q0 16 -1.5 39 t-6.5 44.5t-15 36.5q-12 15 -29 15q-14 0 -22 -6.5t-13.5 -16.5t-8.5 -24.5t-3 -29.5h-117q0 32 -10 54.5t-31 22.5q-17 0 -27.5 -13.5t-15.5 -35t-7 -44.5q-1 -25 -1 -42h-182z" />
<glyph d="M-823 2066v177h173l2 148h217l-1 -148h175l-3 -177h-172l4 -153h-220l-3 153h-172z" />
<glyph d="M-1507 1410l100 196h1293v-196h-1393z" />
<glyph d="M-1507 1410l100 196h1062l-2 172h232l1 -368h-1393z" />
<glyph d="M-1507 1410l100 196h893l-1 20q0 44 16.5 83.5t45 68.5t67.5 47t82.5 18t83 -18t69.5 -47t46.5 -68.5t16.5 -83.5q0 -45 -16 -83.5t-45 -68t-68 -47t-82 -17.5h-1208zM-378 1626q0 -14 6.5 -28.5t16.5 -24t24 -15.5t28.5 -6t29.5 6t25 15.5t16.5 24t6.5 28.5 q0 35 -23.5 57t-53.5 22q-15 0 -29.5 -5.5t-24.5 -16.5t-16 -25t-6 -32z" />
<glyph d="M-1507 1410l100 196h744l-3 172h222l2 -172h106v172h221l1 -368h-1393z" />
<glyph d="M-345 1767v359h228l-1 -359h-227z" />
<glyph d="M-680 1946l1 183h305v-183q59 2 105.5 16.5t78.5 39t49.5 57t17.5 70.5h211q0 -70 -29.5 -136t-90 -117t-151 -81.5t-213.5 -30.5h-170v182h-114z" />
<glyph d="M-812 1764q-6 81 9 141t42.5 99.5t65.5 58.5t79 19t76 -20.5t61 -55.5q22 35 60.5 55.5t81.5 20.5q57 0 102 -32t63 -99q11 14 21.5 33t17.5 41.5t11.5 48t6.5 49.5h194q0 -37 -9 -75.5t-25.5 -76.5t-39.5 -72.5t-50 -62t-57 -46.5q-31 -20 -63 -26h-156q0 16 -1.5 39 t-6 44.5t-14.5 36.5t-29 15q-13 0 -22 -6.5t-15 -16.5t-8 -24.5t-2 -29.5h-117q0 32 -11 54.5t-31 22.5q-18 0 -27.5 -13.5t-14.5 -35t-6 -44.5q-2 -25 -2 -42h-184z" />
<glyph d="M-514 2094h171l1 149h222l-3 -149h174l2 -177h-173v-153h-222v153h-169z" />
<glyph d="M-734 1797l1 358h228l-3 -358h-226z" />
<glyph d="M-1066 1977v181h308v-181q59 1 106.5 15t79.5 39t49 58q16 31 16 69h209q0 -70 -29 -136t-89 -117t-151 -81q-93 -30 -216 -30h-169v183h-114z" />
<glyph d="M-1126 1794q-6 82 8 141t42.5 98.5t66 58.5t79.5 19q41 0 75 -20.5t61 -53.5q22 35 60.5 54.5t82.5 19.5q57 0 101.5 -32t63.5 -99q12 14 22 33t17.5 42.5t11.5 48.5q6 25 6 50h192q0 -37 -8.5 -76.5t-24.5 -76.5t-39.5 -71.5t-49.5 -62t-57 -46.5t-63 -27h-156 q0 16 -2 39.5t-6.5 44t-15 36.5t-27.5 16q-13 0 -22.5 -6.5t-15 -17.5t-7.5 -25q-2 -15 -2 -30h-117q0 32 -11 56q-12 23 -33 23q-17 0 -26 -14.5t-14.5 -35t-7 -44t-1.5 -42.5h-183z" />
<glyph d="M-908 2123h172l3 149h221l-2 -149h169l3 -177h-169l-1 -152h-221v152h-174z" />
<glyph d="M-695 -330l3 190h337l-1 -459h-231v269h-108z" />
<glyph d="M-969 -330l1 190h340v-168q-1 -58 24 -89q23 -31 75 -31q50 0 76.5 31t27.5 89l2 168h230l-1 -168q-2 -64 -19.5 -120.5t-56 -98.5t-101.5 -67t-155 -25q-87 0 -148.5 20.5t-102.5 59t-61 92t-25 117.5h-106z" />
<glyph d="M-689 -269q0 35 13 65t35.5 53t52.5 36t65 13q34 0 64 -13t52.5 -36t35.5 -53t13 -65q0 -33 -12.5 -63t-34 -52.5t-52.5 -36t-63 -13.5q-35 0 -65.5 13.5t-54 36t-36.5 52.5t-13 63z" />
<glyph d="M-666 -330l3 190h339l-3 -459h-231v269h-108z" />
<glyph d="M-1120 -330l2 190h341v-168q-1 -58 23 -89t77 -31q49 0 75.5 31t26.5 89l3 168h229l-2 -168q0 -64 -17.5 -120.5t-56 -98.5t-102 -67t-154.5 -25q-86 0 -148 20.5t-103 59t-62 92.5q-22 53 -25 117h-107z" />
<glyph d="M-642 -269q0 35 13 65t36.5 53t53 36t65.5 13q33 0 63.5 -13t52.5 -36t35 -53t13 -65q0 -33 -13 -63t-35 -52.5t-51 -36t-64 -13.5t-65.5 13.5t-53.5 36t-36.5 52.5t-13.5 63z" />
<glyph d="M-929 1413v295h228l-1 -105h939v-190h-1166z" />
<glyph d="M-715 1917v358h226l1 -358h-227z" />
<glyph d="M-1028 2278h307l3 -181q58 0 105 14.5t79 39t48 57.5q16 32 13 70h213q0 -70 -28.5 -136t-88.5 -117t-151 -81.5t-214 -30.5h-169v184h-114z" />
<glyph d="M-972 1913q-6 81 8.5 141t42 99.5t65.5 58.5t79 19t76 -20.5t62 -55.5q21 35 60 55.5t81 20.5q57 0 102.5 -32t62.5 -100q12 15 22 34t17.5 41.5t12 48t5.5 49.5h194q0 -37 -8.5 -75.5t-25.5 -76.5t-39.5 -72.5t-49.5 -62t-58 -46.5q-30 -21 -63 -26h-156q0 16 -1.5 39 t-5.5 44.5t-14.5 36.5t-29.5 15q-13 0 -22 -6.5t-14.5 -16.5t-8 -24.5t-2.5 -29.5h-116q0 32 -11 54.5t-32 22.5q-17 0 -26.5 -13.5t-14.5 -35t-7 -44.5q-1 -25 -1 -42h-184z" />
<glyph d="M-888 2066l3 177h173v148h219l2 -148h170v-177h-172l2 -153h-221l-2 153h-174z" />
<glyph d="M-683 -330l3 190h335v-459h-230v269h-108z" />
<glyph d="M-975 -330l3 190h341l-1 -168q0 -58 24 -89t77 -31q49 0 75.5 31t26.5 89l1 168h229v-168q0 -64 -17.5 -120.5t-56.5 -98.5t-102 -67t-154 -25q-87 0 -149 20.5t-102.5 59t-61.5 92.5q-22 53 -25 117h-108z" />
<glyph d="M-673 -269q0 35 13 65t35.5 53t53.5 36t66 13q33 0 63 -13t52 -36t35 -53t13 -65q0 -33 -12 -63t-34 -52.5t-52 -36t-64 -13.5q-35 0 -65.5 13.5t-53 36t-36.5 52.5t-14 63z" />
</font>
</defs>
</svg>
