<?xml version="1.0" standalone="no"?>
<!DOCTYPE svg PUBLIC "-//W3C//DTD SVG 1.1//EN" "http://www.w3.org/Graphics/SVG/1.1/DTD/svg11.dtd" >
<svg xmlns="http://www.w3.org/2000/svg" xmlns:xlink="http://www.w3.org/1999/xlink" version="1.1">
<metadata></metadata>
<defs>
<font id="db_heaventthin" horiz-adv-x="0" >
<font-face units-per-em="2048" ascent="1638" descent="-410" />
<missing-glyph horiz-adv-x="508" />
<glyph unicode="&#x2b;&#x2d;" horiz-adv-x="1224" d="M108 20v88h1010v-88h-1010zM108 721v85h458v455h88v-455h464v-85h-464v-461h-88v461h-458z" />
<glyph unicode="&#x2e;&#x2e;&#x2e;" horiz-adv-x="2042" d="M264 0v172h149v-172h-149zM948 0v172h148v-172h-148zM1626 0v172h149v-172h-149z" />
<glyph unicode="&#x3c;&#x3d;" horiz-adv-x="1224" d="M99 12v87h1025v-87h-1025zM99 736v105l1025 464v-98l-925 -419l925 -420v-94z" />
<glyph unicode="&#x3e;&#x3d;" horiz-adv-x="1224" d="M99 12v87h1025v-87h-1025zM102 274v94l924 420l-924 419v98l1025 -464v-105z" />
<glyph unicode="&#xe4f;&#x22;" horiz-adv-x="1480" d="M126 613.5q0 84.5 21.5 162t61 145t95 124t124 96t146 61t162.5 21.5t162 -21.5t145 -61t124 -96t95.5 -124t61.5 -145t22 -162t-22 -162t-61.5 -146t-95.5 -124t-124 -95t-145 -61.5t-162 -22t-162.5 22t-146 61.5t-124 95t-95 124t-61 146t-21.5 162zM209 613 q0 -73 19 -140t53 -125.5t82.5 -106.5t107 -82.5t125.5 -53.5t140 -19t140 19t125.5 53.5t106.5 82.5t81.5 106.5t52.5 125.5t19 140t-19 140.5t-52.5 125.5t-81.5 106.5t-106.5 82t-125.5 52.5t-140 19t-140 -19t-125.5 -52.5t-107 -82t-82.5 -106.5t-53 -125.5t-19 -140.5 zM407 613q0 67 25.5 127t71 105.5t105.5 71t127 25.5t127 -25.5t105 -71t70.5 -105.5t25.5 -127t-25.5 -127t-70.5 -105t-105 -70.5t-127 -25.5t-127 25.5t-105.5 70.5t-71 105t-25.5 127zM491 613q0 -49 19 -94.5t52.5 -79t78.5 -52.5t95 -19q49 0 94 19t78.5 52.5t53 79 t19.5 94.5q0 50 -19.5 94.5t-53 78t-78.5 53t-94 19.5q-50 0 -95 -19.5t-78.5 -53t-52.5 -78t-19 -94.5zM564 1714h90l-6 -302h-79zM826 1714h94l-6 -302h-82z" />
<glyph unicode="&#xe0e;&#xe3a;" horiz-adv-x="1281" d="M63 0v73h144v578q0 44 -4 77t-16 60t-33 50q-23 23 -55 48q29 86 79.5 153.5t117 113.5t148.5 70t175 24q99 0 173.5 -19t130 -54t92 -83.5t58.5 -104.5t32 -119.5t10 -127.5v-1136h-70q-81 70 -166 105t-169 35q-94 0 -190.5 -44t-189.5 -128v93q93 78 186.5 114.5 t193.5 36.5q84 0 166.5 -24.5t155.5 -82.5v1042q0 52 -8 102t-26 97t-49 86.5t-77 68.5t-108.5 46.5t-144.5 17.5q-67 0 -121 -12.5t-99.5 -35t-79 -50.5t-58 -57t-39.5 -58t-23 -50q26 -22 45 -47.5t28.5 -56t13 -68t3.5 -82.5v-651h-226zM971 -602q0 18 7.5 35t19.5 29 t29.5 19.5t35 7.5t35 -7.5t29.5 -19.5t19 -29t7 -35t-7 -35t-19 -28.5t-28 -19.5q-19 -7 -36 -7q-19 0 -36 7.5t-29 19t-19.5 28.5t-7.5 35z" />
<glyph unicode="&#xe0f;&#xe3a;" horiz-adv-x="1281" d="M63 0v73h144v578q0 44 -4 76t-16 59t-33 51q-23 21 -55 48q29 87 79.5 154.5t117 113.5t148.5 70t175 24q99 0 173.5 -19t130 -54t92 -83.5t58.5 -104.5t32 -119.5t10 -127.5v-1136h-87q-12 28 -30 53.5t-42.5 46.5t-56.5 33.5t-70 12.5q-26 0 -55 -10.5t-55.5 -29.5 t-48.5 -46.5t-35 -59.5h-66q-8 33 -26.5 60t-42.5 46t-52 29.5t-57 10.5q-35 0 -64 -11t-52.5 -30.5t-38 -46t-20.5 -58.5h-82q8 48 32 88t59 69.5t77.5 47t88.5 17.5q76 0 130 -32t85 -88q38 53 94 86.5t129 33.5q62 0 114.5 -25.5t88.5 -66.5v1017q0 50 -8 101t-26 97 t-49 86.5t-77 69.5t-108.5 46.5t-144.5 17.5q-67 0 -121 -13t-99.5 -35t-79 -50t-58 -57.5t-39.5 -58t-23 -49.5q26 -22 45 -47.5t28.5 -56t13 -68t3.5 -82.5v-651h-226zM971 -602q0 18 7.5 35t19.5 29t29.5 19.5t35 7.5t35 -7.5t29.5 -19.5t19 -29t7 -35t-7 -35t-19 -28.5 t-28 -19.5q-19 -7 -36 -7q-19 0 -36 7.5t-29 19t-19.5 28.5t-7.5 35z" />
<glyph unicode="&#xe0e;&#xe38;" horiz-adv-x="1281" d="M63 0v73h144v578q0 44 -4 77t-16 60t-33 50q-23 23 -55 48q29 86 79.5 153.5t117 113.5t148.5 70t175 24q99 0 173.5 -19t130 -54t92 -83.5t58.5 -104.5t32 -119.5t10 -127.5v-1136h-70q-81 70 -166 105t-169 35q-94 0 -190.5 -44t-189.5 -128v93q93 78 186.5 114.5 t193.5 36.5q84 0 166.5 -24.5t155.5 -82.5v1042q0 52 -8 102t-26 97t-49 86.5t-77 68.5t-108.5 46.5t-144.5 17.5q-67 0 -121 -12.5t-99.5 -35t-79 -50.5t-58 -57t-39.5 -58t-23 -50q26 -22 45 -47.5t28.5 -56t13 -68t3.5 -82.5v-651h-226zM926 -511h189v-339h-83v260h-106 v79z" />
<glyph unicode="&#xe0f;&#xe38;" horiz-adv-x="1281" d="M63 0v73h144v578q0 44 -4 76t-16 59t-33 51q-23 21 -55 48q29 87 79.5 154.5t117 113.5t148.5 70t175 24q99 0 173.5 -19t130 -54t92 -83.5t58.5 -104.5t32 -119.5t10 -127.5v-1136h-87q-12 28 -30 53.5t-42.5 46.5t-56.5 33.5t-70 12.5q-26 0 -55 -10.5t-55.5 -29.5 t-48.5 -46.5t-35 -59.5h-66q-8 33 -26.5 60t-42.5 46t-52 29.5t-57 10.5q-35 0 -64 -11t-52.5 -30.5t-38 -46t-20.5 -58.5h-82q8 48 32 88t59 69.5t77.5 47t88.5 17.5q76 0 130 -32t85 -88q38 53 94 86.5t129 33.5q62 0 114.5 -25.5t88.5 -66.5v1017q0 50 -8 101t-26 97 t-49 86.5t-77 69.5t-108.5 46.5t-144.5 17.5q-67 0 -121 -13t-99.5 -35t-79 -50t-58 -57.5t-39.5 -58t-23 -49.5q26 -22 45 -47.5t28.5 -56t13 -68t3.5 -82.5v-651h-226zM926 -511h189v-339h-83v260h-106v79z" />
<glyph unicode="&#xe0e;&#xe39;" horiz-adv-x="1281" d="M63 0v73h144v578q0 44 -4 77t-16 60t-33 50q-23 23 -55 48q29 86 79.5 153.5t117 113.5t148.5 70t175 24q99 0 173.5 -19t130 -54t92 -83.5t58.5 -104.5t32 -119.5t10 -127.5v-1136h-70q-81 70 -166 105t-169 35q-94 0 -190.5 -44t-189.5 -128v93q93 78 186.5 114.5 t193.5 36.5q84 0 166.5 -24.5t155.5 -82.5v1042q0 52 -8 102t-26 97t-49 86.5t-77 68.5t-108.5 46.5t-144.5 17.5q-67 0 -121 -12.5t-99.5 -35t-79 -50.5t-58 -57t-39.5 -58t-23 -50q26 -22 45 -47.5t28.5 -56t13 -68t3.5 -82.5v-651h-226zM461 -511h193v-131q0 -44 13 -76 t38.5 -51t61.5 -28.5t80 -9.5q42 0 76.5 9.5t58.5 29.5t37 52.5t13 78.5v126h83v-126q0 -49 -14.5 -93.5t-46 -78t-83 -53.5t-124.5 -20q-64 0 -115.5 15.5t-86.5 45.5t-52.5 74.5t-17.5 104.5v54h-114v77z" />
<glyph unicode="&#xe0f;&#xe39;" horiz-adv-x="1281" d="M63 0v73h144v578q0 44 -4 76t-16 59t-33 51q-23 21 -55 48q29 87 79.5 154.5t117 113.5t148.5 70t175 24q99 0 173.5 -19t130 -54t92 -83.5t58.5 -104.5t32 -119.5t10 -127.5v-1136h-87q-12 28 -30 53.5t-42.5 46.5t-56.5 33.5t-70 12.5q-26 0 -55 -10.5t-55.5 -29.5 t-48.5 -46.5t-35 -59.5h-66q-8 33 -26.5 60t-42.5 46t-52 29.5t-57 10.5q-35 0 -64 -11t-52.5 -30.5t-38 -46t-20.5 -58.5h-82q8 48 32 88t59 69.5t77.5 47t88.5 17.5q76 0 130 -32t85 -88q38 53 94 86.5t129 33.5q62 0 114.5 -25.5t88.5 -66.5v1017q0 50 -8 101t-26 97 t-49 86.5t-77 69.5t-108.5 46.5t-144.5 17.5q-67 0 -121 -13t-99.5 -35t-79 -50t-58 -57.5t-39.5 -58t-23 -49.5q26 -22 45 -47.5t28.5 -56t13 -68t3.5 -82.5v-651h-226zM461 -511h193v-131q0 -44 13 -76t38.5 -51t61.5 -28.5t80 -9.5q42 0 76.5 9.5t58.5 29.5t37 52.5 t13 78.5v126h83v-126q0 -49 -14.5 -93.5t-46 -78t-83 -53.5t-124.5 -20q-64 0 -115.5 15.5t-86.5 45.5t-52.5 74.5t-17.5 104.5v54h-114v77z" />
<glyph unicode=" "  horiz-adv-x="508" />
<glyph unicode="&#x09;" horiz-adv-x="508" />
<glyph unicode="&#xa0;" horiz-adv-x="508" />
<glyph unicode="!" horiz-adv-x="582" d="M231 0v169h122v-169h-122zM245 899v529h92v-529l-25 -537h-48z" />
<glyph unicode="&#x22;" horiz-adv-x="756" d="M199 987v441h87v-441h-87zM467 987v441h88v-441h-88z" />
<glyph unicode="#" horiz-adv-x="1135" d="M82 461v79h235l45 336h-225v79h234l64 470h89l-66 -470h304l64 470h85l-66 -470h219v-79h-229l-47 -336h216v-79h-226l-63 -461h-80l61 461h-305l-61 -461h-85l62 461h-225zM403 540h304l45 336h-302z" />
<glyph unicode="$" horiz-adv-x="1284" d="M105 441h88q6 -105 39.5 -176.5t87.5 -117t124 -69t152 -28.5v646q-51 11 -104 24t-102.5 30.5t-93 44t-76.5 63t-52 87.5t-19 118q0 32 8 73t27.5 84t52 84t82 73.5t118 54.5t159.5 25v158h89v-161q86 -9 162 -39.5t135.5 -81.5t99 -124t50.5 -167h-92 q-12 73 -43.5 132.5t-78 101t-106.5 66.5t-127 33v-610q58 -12 118 -26.5t115.5 -35t104.5 -49.5t84 -68.5t56 -92.5q21 -52 21 -122q0 -24 -5 -61.5t-21 -81.5t-48.5 -89.5t-87.5 -82t-138.5 -61t-198.5 -27.5v-169h-89v173q-107 6 -196.5 36t-154.5 88.5t-102.5 143 t-37.5 201.5zM239 1063q0 -59 20.5 -101t65 -74t112.5 -57q67 -25 159 -46v593q-72 -4 -137 -24.5t-113 -59t-77.5 -95.5t-29.5 -136zM685 47h3q41 0 87 7t91 22.5t86 40.5t73 60.5t51 82.5t19 108q0 55 -17.5 96t-46.5 71.5t-70 52.5t-86.5 38t-93.5 28t-96 21v-628z" />
<glyph unicode="%" horiz-adv-x="1814" d="M149 1054q0 79 18 147.5t57 118t99 79t144 29.5q85 0 144 -29.5t97 -79t55 -118t17 -147.5q0 -80 -17 -148t-55 -119t-97 -79t-144 -28q-84 0 -144 28t-99 79t-57 119.5t-18 147.5zM237 1051.5q0 -52.5 10 -105t36.5 -95t71.5 -70.5t112 -28t110 28t69.5 70.5t37.5 95.5 q11 52 11 104.5t-11 106.5t-37.5 97t-69.5 70t-110 27t-112 -27t-71.5 -70t-36.5 -97t-10 -106.5zM429 0l849 1428h94l-843 -1428h-100zM1047 368q0 80 17.5 148t55.5 118.5t98.5 79t145 28.5t144.5 -28.5t97 -79t54 -119t17 -147.5t-17 -147.5t-54 -119t-97 -79 t-144.5 -28.5t-145 28.5t-98.5 79t-56 118.5q-17 69 -17 148zM1133 365q0 -50 11 -104t37 -97.5t70.5 -71.5t112 -28t111 28t70 71.5t36.5 97.5t10 104q0 53 -10 106t-36.5 97t-70 71.5t-111 27.5t-112 -27.5t-70.5 -71.5t-37 -97t-11 -106z" />
<glyph unicode="&#x26;" horiz-adv-x="1246" d="M102 352q0 71 33.5 134t85.5 117t116 99q66 46 127 82q-41 53 -74.5 100t-58 91t-39.5 88t-15 89q0 63 24.5 114t66 87.5t95.5 56t118 19.5q61 0 116.5 -19.5t96.5 -56t64.5 -87.5t23.5 -114q0 -61 -25 -116t-64.5 -104t-92 -92t-107.5 -81q44 -52 87.5 -103.5 t87.5 -101.5t87.5 -101t87.5 -104q16 35 27 68t17 65.5t9 65.5t4 65h86q-3 -30 -6 -70.5t-12.5 -84t-24.5 -90.5t-41 -94q26 -32 53.5 -67t57 -70.5t57 -70.5t53.5 -66h-109l-164 204q-45 -52 -94.5 -94.5t-103.5 -73t-112.5 -48t-119.5 -17.5q-91 0 -167.5 26t-132 76 t-87 120t-31.5 159zM188 349q0 -73 27 -129t72.5 -94t105.5 -57t127 -19q46 0 97.5 18t101 49.5t94.5 72.5t81 84l-377 447q-35 -20 -74 -45.5t-75.5 -54t-69 -60t-56.5 -66t-39 -71t-15 -75.5zM365 1152q0 -32 11 -65t33.5 -72.5t55.5 -85.5q31 -47 75 -106q43 30 89 66.5 t82.5 78t60.5 87.5t24 97q0 47 -18.5 84t-47.5 62.5t-68.5 39.5t-80.5 14q-42 0 -81.5 -13t-69.5 -39.5t-47.5 -63.5t-17.5 -84z" />
<glyph unicode="'" horiz-adv-x="567" d="M242 987v441h89v-441h-89z" />
<glyph unicode="(" horiz-adv-x="493" d="M120 543q0 118 16 243t48 248.5t80 241.5t113 225h81q-67 -120 -113.5 -242t-76 -247.5t-43 -254.5t-13.5 -262q0 -108 18 -222.5t50 -230t76 -228t100 -214.5h-79q-67 117 -115.5 231.5t-80.5 231.5t-47 236q-14 119 -14 244z" />
<glyph unicode=")" horiz-adv-x="493" d="M35 1501h82q65 -107 112.5 -225t80 -241.5t48.5 -247.5t16 -244q0 -125 -14.5 -244t-47 -236t-80.5 -232q-48 -114 -115 -231h-79q54 102 98.5 214.5t76.5 228t50.5 230.5t18.5 222q0 134 -14 262.5t-43 254t-76 247.5t-114 242z" />
<glyph unicode="*" horiz-adv-x="716" d="M64 1203l25 67l235 -76v246h73v-246l237 76l20 -64l-242 -80l156 -200l-60 -47l-152 203l-155 -203l-58 47l155 206z" />
<glyph unicode="+" horiz-adv-x="1224" d="M108 476v82h461v458h85v-458h464v-82h-464v-464h-85v464h-461z" />
<glyph unicode="," horiz-adv-x="567" d="M228 0v149h143v-159q0 -47 -4.5 -88.5t-20.5 -78t-45 -62.5q-27 -27 -73 -43v83q26 12 40.5 34t21 49.5t7.5 57.5t1 58h-70z" />
<glyph unicode="-" horiz-adv-x="756" d="M105 476v82h546v-82h-546z" />
<glyph unicode="." horiz-adv-x="567" d="M210 -1v173h149v-173h-149z" />
<glyph unicode="/" horiz-adv-x="678" d="M-12 -29l605 1489h87l-603 -1489h-89z" />
<glyph unicode="0" horiz-adv-x="1135" d="M70 712.5q0 84.5 9 172t29 171t56 156.5t91 127t132 85.5t181 31.5t181 -31.5t132.5 -85.5t90.5 -127t55.5 -156.5t29.5 -171t9 -172.5q0 -84 -9 -173t-29.5 -171.5t-55.5 -155t-90.5 -127t-132.5 -86t-181 -31.5t-181 31.5t-132 86t-91 127t-56 155t-29 170.5 q-9 90 -9 174.5zM158 712q0 -67 5 -143t21 -150t44.5 -142t73.5 -120t111 -82.5t155 -30.5t154 30.5t110 82.5t73.5 120t44 142t20.5 150t5 143q0 68 -5 143.5t-20.5 149.5t-44 142t-73.5 119.5t-110 82.5t-154 31t-155 -31t-111 -82.5t-73.5 -119.5t-44.5 -142t-21 -149.5 t-5 -143.5z" />
<glyph unicode="1" horiz-adv-x="1135" d="M219 1077v82q50 3 96 7.5t86 14.5t75 27.5t62 47t47 70.5q19 43 31 102h69v-1428h-86v1191q-31 -32 -70.5 -52.5t-87 -33.5t-103.5 -19q-55 -6 -119 -9z" />
<glyph unicode="2" horiz-adv-x="1135" d="M79 0q6 70 27 130t53 111t73.5 94t88.5 82t98 72.5t101 66.5q41 28 87.5 60t90.5 68.5t83.5 77.5t70 88.5t48 99.5t17.5 110q0 77 -28 137t-76 100t-113 61q-63 20 -136 20q-94 0 -162 -32t-112.5 -87.5t-67.5 -128.5t-28 -158h-82q3 107 32.5 195.5t85.5 152.5t141 99 t195 35q94 0 173.5 -25.5t138.5 -74.5t92.5 -123.5t33.5 -170.5q0 -88 -29 -163t-78 -138.5t-112.5 -117.5t-133.5 -98q-89 -58 -165.5 -110t-136.5 -105.5t-102.5 -111t-59.5 -128.5h823v-88h-931z" />
<glyph unicode="3" horiz-adv-x="1135" d="M72 423h83q-3 -90 24 -161t79 -120t127 -75t168 -26q78 0 151 22t130 64t90.5 106.5t33.5 149.5q0 84 -28.5 148.5t-79 106t-119 62.5t-146.5 21h-100v73h100q56 -1 112 15t103 51t76 90q29 54 29 133t-27.5 136t-75 92t-111 50.5t-135.5 15.5q-84 0 -149 -28.5t-112 -78 t-74 -117t-34 -146.5h-83q8 97 41 178.5t90 141t137.5 93t183.5 33.5q91 0 169 -21.5t136.5 -65t92.5 -113.5t34 -170q0 -41 -7 -84.5t-28.5 -86.5t-60.5 -82.5t-104 -71.5q68 -19 116 -57t79.5 -89t45.5 -109q15 -59 15 -118q0 -103 -39.5 -181t-106.5 -131.5t-155.5 -80.5 t-186.5 -27q-109 0 -199.5 29t-155 86t-98.5 143.5t-31 199.5z" />
<glyph unicode="4" horiz-adv-x="1135" d="M73 342v70l710 1016h80v-1010h203v-76h-203v-342h-86v342h-704zM175 418h602v861z" />
<glyph unicode="5" horiz-adv-x="1135" d="M79 374h85q11 -79 44 -140.5t83.5 -105t114.5 -66.5t137 -23q92 0 167 31.5t129.5 86.5t83.5 128.5t29 158.5q0 87 -28.5 164t-80.5 133t-124 88t-160 32q-52 0 -104 -10t-99.5 -31t-87.5 -52.5t-71 -75.5h-73l121 736h719v-82h-647l-80 -505q40 32 84 51t87 29t82 13 t69 3q102 0 190.5 -36.5t152 -102t99.5 -156t36 -198.5q0 -105 -38 -192.5t-105.5 -152t-158 -99.5t-192.5 -35q-93 0 -173.5 27.5t-142 80.5t-99.5 128q-40 76 -49 173z" />
<glyph unicode="6" horiz-adv-x="1135" d="M76 692q0 39 3 92.5t11.5 115t24.5 127t42.5 128.5t63.5 118.5t89 97.5t120.5 66t156.5 24q86 0 157 -21t125 -64.5t92 -108t55 -150.5h-87q-15 61 -44 111t-71.5 85t-99.5 54t-127 19q-83 0 -147.5 -30t-112 -82t-78.5 -121.5t-50 -148t-27 -162.5q-8 -83 -8 -165 q37 75 87.5 123t108.5 76.5t116 40.5t114 12q105 0 192 -35.5t148 -98t94.5 -148.5t33.5 -191q0 -104 -35.5 -192.5t-100 -152.5t-152.5 -100.5t-193 -36.5q-89 0 -162 24.5t-129.5 70t-98 110.5t-67.5 145q-22 78 -33 172t-11 196zM190 448q0 -44 10 -90t32 -90.5t54 -83 t74.5 -67.5t96.5 -46.5t120 -17.5q84 0 156.5 30.5t125 84.5t83 125.5t30.5 154.5q0 82 -26 155.5t-74.5 127.5t-120 86.5t-161.5 32.5q-86 0 -160 -32.5t-127 -86.5t-83 -127t-30 -156z" />
<glyph unicode="7" horiz-adv-x="1135" d="M105 1346v82h918v-88q-33 -36 -76 -86.5t-90.5 -113.5t-97 -137t-97 -159t-90 -181.5t-74.5 -203t-52 -221.5t-23 -238h-93q6 175 42.5 342.5t108 333t180 332t257.5 338.5h-813z" />
<glyph unicode="8" horiz-adv-x="1135" d="M70 388q0 59 17 116t51 105.5t88 89t127 67.5q-58 28 -99.5 63t-67 77t-38 88.5t-12.5 97.5q0 91 35.5 157t94 111t136.5 67.5t163 22.5q86 0 164 -22.5t137.5 -67.5t95 -111t35.5 -157q0 -51 -11 -98.5t-35.5 -90t-65.5 -77.5q-41 -38 -102 -64q70 -23 122.5 -59.5 t87.5 -85.5t52.5 -106.5t17.5 -122.5q0 -70 -17.5 -129.5t-51 -106.5t-79.5 -83.5t-101 -60t-117.5 -35t-128.5 -11.5q-99 0 -189.5 26.5t-159.5 80.5t-109 134t-40 185zM155 388q0 -84 34 -150t92 -110.5t131.5 -67t155.5 -22.5q79 0 152.5 21t130.5 65t92 110.5t35 153.5 q0 85 -36.5 149.5t-95 106.5t-131.5 62.5t-147 20.5q-53 0 -103 -8.5t-95.5 -27t-85 -46t-68.5 -65.5t-45 -85.5t-16 -106.5zM222 1092q0 -55 15.5 -98.5t41.5 -76t61 -56t74 -37.5t78 -19.5t76 -5.5q61 0 121.5 16.5t110.5 51.5t80.5 90.5t30.5 134.5q0 64 -25.5 116.5 t-71.5 89t-109.5 56.5t-139.5 20q-73 0 -136.5 -19t-109 -55t-71.5 -88.5t-26 -119.5z" />
<glyph unicode="9" horiz-adv-x="1135" d="M77 971q0 104 36 192t100 153t152.5 101.5t193.5 36.5q89 0 162 -24.5t130 -70t98 -110.5q41 -63 67 -145q24 -76 34 -171t10 -197q0 -40 -3 -93t-11.5 -115t-25 -127t-42.5 -128t-63.5 -118.5t-89 -97.5t-120 -67t-156.5 -25q-86 0 -157 22t-125 65t-92 108t-55 150h87 q15 -62 44 -111.5t71.5 -84.5t99.5 -54t127 -19q83 0 147.5 30.5t112 81.5t78.5 121.5t50 148.5t27 162t8 165q-38 -74 -88 -123t-108 -76.5t-117 -39.5q-60 -12 -113 -12q-107 0 -193 35t-147 98t-95 149t-34 190zM164 978q0 -82 26 -155t74 -127.5t120 -86t162 -31.5 q86 0 160 31.5t127 86t83 127.5t30 155q0 44 -10 90.5t-32 90.5t-54 83.5t-74.5 68.5t-96.5 46.5t-120 17.5q-85 0 -157 -30.5t-124.5 -84.5t-83.5 -126q-30 -74 -30 -156z" />
<glyph unicode=":" horiz-adv-x="567" d="M210 -1v173h149v-173h-149zM210 835v172h149v-172h-149z" />
<glyph unicode=";" horiz-adv-x="567" d="M223 835v172h149v-172h-149zM228 0v149h143v-159q0 -47 -4.5 -88.5t-20.5 -78t-45 -62.5q-27 -27 -73 -43v83q26 12 40.5 34t21 49.5t7.5 57.5t1 58h-70z" />
<glyph unicode="&#x3c;" horiz-adv-x="1224" d="M99 466v106l1025 465v-100l-925 -417l925 -421v-95z" />
<glyph unicode="=" horiz-adv-x="1224" d="M105 302v83h1016v-83h-1016zM105 645v85h1016v-85h-1016z" />
<glyph unicode="&#x3e;" horiz-adv-x="1224" d="M102 4v95l923 421l-923 417v100l1025 -465v-106z" />
<glyph unicode="?" horiz-adv-x="1127" d="M158 1013q4 102 35.5 184t88.5 140.5t137 90t185 31.5q82 0 155 -24.5t127 -70.5t85 -113.5t31 -152.5q0 -53 -16.5 -98t-42.5 -84.5t-61 -76t-70 -71.5q-64 -61 -100 -111t-53.5 -99.5t-21 -103.5t-3.5 -124h-92q0 89 13.5 160t40.5 129t66 108.5t86 98.5q26 27 55 57.5 t52.5 64t39 70t15.5 74.5q0 67 -23 120.5t-64.5 90.5t-99 56t-124.5 19q-85 0 -149.5 -26t-108 -74.5t-67 -115.5t-27.5 -149h-89zM526 0v169h122v-169h-122z" />
<glyph unicode="@" horiz-adv-x="1632" d="M105 707q0 109 25 204.5t71.5 176.5t114 144.5t149 108.5t178 68t204.5 23q153 0 278.5 -43.5t215.5 -123t138 -190t48 -244.5q0 -70 -17.5 -139.5t-48 -131t-73.5 -114t-93 -91t-104.5 -60.5t-110.5 -22q-58 0 -93 31.5t-44 101.5q-58 -67 -124 -98.5t-134 -31.5 q-62 0 -113.5 21t-89 59t-58.5 87.5t-21 106.5q0 65 18 132t49.5 129t75.5 116t96.5 95t109.5 64.5t118 23.5q35 0 69.5 -10.5t64.5 -31.5t53 -52.5t41 -75.5q12 32 25 66t25 66h87l-193 -552q-10 -29 -15 -58.5t-1.5 -55t17.5 -41.5t43 -16q46 0 89 20.5t82 56t73 83 t58 102.5t38 113.5t14 115.5q0 121 -48.5 217t-129.5 162t-188 101t-224 35q-98 0 -185 -22.5t-160 -64.5t-130.5 -101t-97.5 -131t-62 -156q-21 -86 -21 -176q0 -102 24 -189t68 -157t105.5 -123.5t134.5 -88.5t156 -52.5t171 -17.5q70 0 144.5 17.5t144.5 49.5t132 78 q62 48 110 103h88q-53 -77 -123 -138.5t-150.5 -104t-168 -65t-177.5 -22.5q-162 0 -300 49t-237.5 141t-155 224t-55.5 299zM488 561q0 -46 14.5 -84t41.5 -66t62.5 -43.5t78.5 -15.5q48 0 93 22.5t84.5 61t72.5 89t56.5 103t36.5 105t13 98.5q0 35 -13 71.5t-36 65 t-55 46.5t-67 18q-52 0 -102 -21t-92 -57.5t-77 -84.5t-60 -101t-38 -106q-13 -55 -13 -101z" />
<glyph unicode="A" horiz-adv-x="1284" d="M26 0l592 1428h71l570 -1428h-103l-179 461h-662l-185 -461h-104zM345 534h603l-297 757z" />
<glyph unicode="B" horiz-adv-x="1363" d="M177 0v1428h579q88 0 168 -19t141.5 -59t99 -105t37.5 -156q0 -49 -9.5 -98t-35 -93t-69 -81t-110.5 -65q82 -21 135.5 -57.5t84.5 -83.5t44.5 -102t13.5 -113q0 -38 -6 -81t-25 -88t-52.5 -85.5t-89 -72t-136 -50.5t-191.5 -19h-579zM269 82h487q53 0 104 5.5t96.5 19 t84 36.5t67 58.5t44 83.5t15.5 114q0 77 -27 134.5t-80 96.5t-128.5 57t-175.5 18h-487v-623zM269 785h487q91 0 158 23t112.5 61.5t67 90.5t21.5 109q0 73 -26 125.5t-74 86.5t-115.5 49.5t-146.5 15.5h-484v-561z" />
<glyph unicode="C" horiz-adv-x="1438" d="M108 712q0 98 17.5 192.5t54 177t91.5 151.5t128 119t164 78.5t202 28.5q93 0 183 -27t164.5 -82t128 -136t76.5 -189h-91q-24 86 -68.5 152.5t-104.5 111t-133 67t-155 22.5q-101 0 -182 -25.5t-143.5 -71.5t-108 -109.5t-74.5 -137t-43 -155.5t-14 -167 q0 -78 15.5 -158.5t45.5 -155t76 -138t108.5 -111t143 -73.5t176.5 -26q102 0 185.5 35t144.5 97t100.5 148t54.5 188h87q-17 -133 -64 -235t-120.5 -172t-170.5 -106.5t-217 -36.5q-111 0 -202 28.5t-164 79t-128 119t-91.5 151.5t-54 176.5t-17.5 189.5z" />
<glyph unicode="D" horiz-adv-x="1398" d="M177 0v1428h474q158 -4 278.5 -50t200.5 -135.5t120.5 -220.5t40.5 -309.5t-40.5 -309.5t-120.5 -220.5t-200 -134.5q-121 -45 -279 -48h-474zM269 82h382q117 0 217 33.5t173.5 108t116.5 194.5q42 119 42 294q0 117 -20.5 209t-55.5 162t-86 120t-112.5 81t-131.5 46 t-146 15h-379v-1263z" />
<glyph unicode="E" horiz-adv-x="1210" d="M177 0v1428h947v-83h-855v-560h785v-81h-785v-622h864v-82h-956z" />
<glyph unicode="F" horiz-adv-x="1093" d="M177 0v1428h865v-83h-773v-560h677v-81h-677v-704h-92z" />
<glyph unicode="G" horiz-adv-x="1512" d="M108 712q0 98 17.5 192.5t54 177t91.5 151.5t128 119t164 78.5t202 28.5q105 0 198 -28.5t168 -84t128.5 -139t79.5 -192.5h-92q-13 67 -52 132.5t-99.5 117.5t-143 82.5t-187.5 30.5q-99 0 -179.5 -25.5t-143 -71.5t-108 -109.5t-76 -137t-44.5 -155.5t-14 -167 q0 -86 16 -168.5t47.5 -156t79 -135.5t111 -107.5t141 -70t170.5 -24.5q82 0 152 22.5t127 62.5t99.5 95.5t71.5 118.5t45 132q16 68 16 138h-477v79h565v-698h-88v280q-50 -93 -111 -153t-127 -95t-135 -50q-71 -14 -138 -14q-111 0 -202 28.5t-164 79t-128 119 t-91.5 151.5t-54 176.5t-17.5 189.5z" />
<glyph unicode="H" horiz-adv-x="1446" d="M177 0v1428h92v-629h911v629h90v-1428h-90v715h-911v-715h-92z" />
<glyph unicode="I" horiz-adv-x="456" d="M182 0v1428h92v-1428h-92z" />
<glyph unicode="J" horiz-adv-x="1019" d="M73 426h88q0 -32 2.5 -71.5t13 -81.5t31 -81.5t53 -71t81.5 -50.5t119 -19q82 0 137 24t89 69.5t48.5 111t14.5 148.5v1022h94v-1022q0 -105 -20.5 -186t-67 -135t-122 -81.5t-186.5 -27.5t-183 38t-115 100.5t-60 144.5t-17 169z" />
<glyph unicode="K" horiz-adv-x="1324" d="M177 0v1428h92v-825l864 825h114l-615 -590l662 -838h-108l-614 781l-303 -290v-491h-92z" />
<glyph unicode="L" horiz-adv-x="1096" d="M177 0v1428h92v-1348h792v-80h-884z" />
<glyph unicode="M" horiz-adv-x="1716" d="M177 0v1428h124l557 -1297l558 1297h124v-1428h-92v1296l-560 -1296h-59l-560 1296v-1296h-92z" />
<glyph unicode="N" horiz-adv-x="1446" d="M177 0v1428h133l868 -1323v1323h92v-1428h-120l-881 1333v-1333h-92z" />
<glyph unicode="O" horiz-adv-x="1512" d="M99 712q0 98 18.5 192.5t54 177t91 151.5t128.5 119t163.5 78.5t201.5 28.5t201.5 -28.5t164.5 -78.5t128.5 -119t91 -151.5t54 -176t17.5 -193.5q0 -97 -17.5 -190t-54 -176t-91 -151.5t-128.5 -119t-164.5 -79t-201.5 -28.5t-201.5 28.5t-163.5 79t-128.5 119 t-91 151.5t-54 176t-18.5 190zM191 712q0 -84 15.5 -166t46 -156.5t77.5 -136.5t109.5 -108t141.5 -70.5t175 -24.5q97 0 175.5 24.5t141.5 70.5t109.5 108t77.5 136.5t47 156.5t16 166t-16 166.5t-47 156t-77.5 137t-109.5 109.5t-141.5 71.5t-175 25.5t-176 -25.5 t-142.5 -71.5t-109 -109.5t-76.5 -137t-46 -156t-15.5 -166.5z" />
<glyph unicode="P" horiz-adv-x="1284" d="M177 0v1428h611q92 0 167.5 -28t128.5 -79t82.5 -125.5t29.5 -170.5t-29.5 -170.5t-82.5 -126t-127.5 -79t-168.5 -27.5h-519v-622h-92zM269 701h487q79 0 143.5 19.5t111 60t71.5 101.5t25 143q0 85 -25 145.5t-71.5 100t-111 57.5t-143.5 18h-487v-645z" />
<glyph unicode="Q" horiz-adv-x="1512" d="M99 712q0 98 18.5 192.5t54 177t91 151.5t128.5 119t163.5 78.5t201.5 28.5t201.5 -28.5t164.5 -78.5t128.5 -119t91 -151.5t54 -176t17.5 -193.5q0 -94 -16.5 -184.5t-51 -172t-86.5 -150t-120 -119.5l204 -223h-117l-162 178q-65 -35 -141 -54t-167 -19 q-111 0 -201.5 28.5t-163.5 79t-128.5 119t-91 151.5t-54 176t-18.5 190zM191 712.5q0 -84.5 15.5 -166.5t46 -156.5t77.5 -136.5t109.5 -108t141.5 -70.5t175 -24.5q73 0 135 14q61 15 113 41l-277 304h117l236 -259q62 47 107 109t75 135t45 154q16 80 16 164t-16 166.5 t-47 156t-77.5 137t-109.5 109.5t-141.5 71.5t-175 25.5t-176 -25.5t-142.5 -71.5t-109 -109.5t-76.5 -137t-46 -155.5t-15.5 -166.5z" />
<glyph unicode="R" horiz-adv-x="1353" d="M177 0v1428h604q105 0 188.5 -25.5t141 -73t88 -114.5t30.5 -152q0 -35 -5.5 -74t-19 -77.5t-35 -75t-57 -68.5t-82 -59t-110.5 -45q41 -22 71.5 -49t52.5 -56.5t38 -64.5q16 -36 28 -71l78 -230q12 -38 23.5 -66t22 -50.5t22 -40.5t23.5 -36h-102q-12 16 -23.5 38.5 t-22 47t-18.5 47.5q-9 25 -15 42l-77 231q-15 42 -40.5 85t-65 77t-92 55.5t-119.5 21.5h-435v-645h-92zM269 724h499q76 0 143 20.5t116.5 60t79 98t29.5 131.5t-22 131t-67 99t-112 62q-65 20 -155 20h-511v-622z" />
<glyph unicode="S" horiz-adv-x="1284" d="M111 461h88q0 -74 19 -133t51 -106t76.5 -79t97 -53t110 -30.5t117.5 -9.5q44 0 93 6.5t96.5 21.5t90.5 40t75 60t51 82t19 108q0 48 -14.5 86t-38 68t-55.5 52t-68 38t-73 27q-37 9 -72 18l-289 73q-60 13 -116.5 37t-100 63.5t-70 96.5t-26.5 136q0 35 7.5 77.5t28 86 t54 86t86 74.5t125.5 52t171 20q96 0 184.5 -27t157 -80t112.5 -130t55 -178h-92q-11 82 -49 144t-94.5 103.5t-127 62.5t-146.5 21q-79 0 -148.5 -20.5t-122 -59.5t-83 -97.5t-30.5 -134.5q0 -59 19.5 -100.5t53 -71.5t77.5 -49t94 -30l317 -79q73 -18 138.5 -45.5t116 -70 t79.5 -103.5t29 -143q0 -24 -5 -63t-22.5 -83.5t-51 -90t-93 -82.5t-146.5 -61q-89 -23 -212 -23q-117 0 -216 30.5t-172 92.5t-114 155t-41 215z" />
<glyph unicode="T" horiz-adv-x="1141" d="M42 1349v79h1059v-79h-485v-1349h-93v1349h-481z" />
<glyph unicode="U" horiz-adv-x="1398" d="M162 512v914h92v-868v-9q0 -132 30 -225q31 -96 89.5 -156t141 -87.5t184.5 -27.5q103 0 185.5 27.5t140.5 87.5t90 156q30 96 30 234v868h93v-914q0 -110 -30 -208t-95 -172t-167 -117.5t-247 -43.5q-146 0 -247.5 43.5t-165.5 117.5t-94 172.5t-30 207.5z" />
<glyph unicode="V" horiz-adv-x="1264" d="M53 1428h99l477 -1317h3l479 1317h98l-532 -1428h-93z" />
<glyph unicode="W" horiz-adv-x="1868" d="M55 1428h97l356 -1337h3l359 1337h142l360 -1337h3l345 1337h96l-374 -1428h-137l-362 1332h-3l-362 -1332h-143z" />
<glyph unicode="X" horiz-adv-x="1184" d="M38 0l498 730l-473 698h109l421 -616l419 616h106l-473 -698l497 -730h-110l-442 651l-444 -651h-108z" />
<glyph unicode="Y" horiz-adv-x="1270" d="M48 1428h110l479 -755l481 755h104l-542 -838v-590h-90v590z" />
<glyph unicode="Z" horiz-adv-x="1172" d="M45 0v64l930 1291h-864v73h977v-64l-930 -1294h930v-70h-1043z" />
<glyph unicode="[" horiz-adv-x="493" d="M174 -391v1883h292v-83h-200v-1719h200v-81h-292z" />
<glyph unicode="\" horiz-adv-x="678" d="M0 1460h89l602 -1489h-87z" />
<glyph unicode="]" horiz-adv-x="493" d="M28 -310h200v1719h-200v83h292v-1883h-292v81z" />
<glyph unicode="^" horiz-adv-x="1224" d="M102 540l467 885h85l467 -885h-90l-421 786l-410 -786h-98z" />
<glyph unicode="_" horiz-adv-x="1019" d="M0 -152h1019v-90h-1019v90z" />
<glyph unicode="`" horiz-adv-x="522" d="M127 1475h115l176 -246h-71z" />
<glyph unicode="a" horiz-adv-x="1058" d="M99 270q0 64 20 115.5t54 90t81.5 64.5t102.5 44.5t114.5 28.5t119.5 14.5t117 4.5t110 -3v132q0 128 -70.5 193t-221.5 65q-56 0 -110 -13t-98 -45t-73 -86t-38 -133h-81q8 93 44 159.5t90.5 109t124.5 61.5q71 20 146 20q73 0 138 -16t115.5 -54t80 -102t29.5 -162 v-551q0 -26 2.5 -55t7 -58.5t10.5 -54t12 -39.5h-85q-3 9 -6.5 25t-7.5 38t-6 47q-2 27 -3 54q-38 -59 -86.5 -95.5t-101 -57t-105 -27.5t-97.5 -7q-70 0 -130.5 17.5t-104.5 53t-69 91t-25 131.5zM178 274q0 -61 22 -104t57.5 -70t80.5 -38.5t90 -11.5q76 0 146.5 23 t124.5 68.5t86.5 112.5t32.5 156v149q-53 3 -113 3h-19q-70 0 -141.5 -8.5t-137 -27t-117 -52t-81.5 -82.5q-31 -47 -31 -118z" />
<glyph unicode="b" horiz-adv-x="1181" d="M159 0v1460h78v-588q32 61 74 102.5t92.5 68t106.5 38t115 11.5q76 0 137 -21t110 -58.5t85 -89t60 -113.5t35.5 -132.5t11.5 -144.5q0 -111 -24.5 -212t-78 -177.5t-136.5 -121.5t-200 -45q-53 0 -105.5 10t-102 36.5t-95.5 71.5q-45 45 -85 117v-212h-78zM237 533 q0 -59 10.5 -118t33.5 -113t55.5 -100t76 -80t96.5 -53t116 -19q66 0 117.5 19t92.5 52.5t69.5 78.5t46.5 99t27 113.5t9 120.5t-10 120t-29 113.5t-50 101t-71 80t-90.5 52.5t-111.5 19q-69 0 -124.5 -19t-98.5 -52.5t-74.5 -80t-51.5 -101t-29.5 -114t-9.5 -119.5z" />
<glyph unicode="c" horiz-adv-x="1093" d="M117 529q0 74 13 145t39.5 133.5t65.5 113.5t91 88.5t116 58.5q66 21 142 21q73 0 135 -20.5t112.5 -61t86 -100.5t54.5 -142h-80q-15 60 -44.5 107.5t-70 79.5t-89.5 48t-104 16q-93 0 -166 -39.5t-123 -106.5t-75.5 -156t-25.5 -185q0 -94 25.5 -180t74 -152.5 t120.5 -105.5q74 -38 167 -38q56 0 107.5 20t94.5 58t73 92q30 51 40 119h82q-13 -82 -48 -148.5t-87 -114t-119 -73.5t-143 -26q-117 0 -204.5 43.5t-145 118t-86 175.5t-28.5 212z" />
<glyph unicode="d" horiz-adv-x="1181" d="M117 533q0 73 11.5 144t35 133t60 113.5t85.5 89t111 58.5t136 21q59 0 115 -11.5t105.5 -38t92.5 -69t76 -101.5v588h77v-1460h-76v212q-41 -72 -87 -117t-95.5 -71.5t-101.5 -36.5t-106 -10q-79 0 -141 20.5t-111.5 57.5t-84.5 89t-57.5 113t-33.5 131t-11 145z M194 533q0 -61 9 -120.5t27 -113.5t47.5 -99t68.5 -78.5t92 -52.5t118 -19q63 0 115.5 19t96.5 53t76.5 80t55.5 100t34.5 113t11.5 118q0 61 -10 120t-30.5 113.5t-52 101t-74.5 80t-98.5 52.5t-124.5 19q-61 0 -111.5 -19t-91.5 -52.5t-70 -80t-49.5 -101t-30 -113.5 t-9.5 -120z" />
<glyph unicode="e" horiz-adv-x="1118" d="M117 508q0 70 11.5 140t35 134.5t58.5 120t84.5 97t112.5 65.5t140 24q73 0 132 -23.5t106 -62.5t82 -93t59 -117t37 -132q12 -71 15 -141h-793q0 -59 8 -116.5t26.5 -111t47 -98.5t67.5 -77t92.5 -51t120.5 -19q66 0 119 17.5t95 52.5t72.5 83t50.5 110h79 q-23 -79 -59.5 -142t-87.5 -106t-118.5 -65.5t-150.5 -22.5q-117 0 -200 41.5t-137 114.5t-79.5 170t-25.5 208zM199 596h706q-9 83 -36.5 158t-73 133t-106 92t-130.5 34q-74 0 -135.5 -32.5t-108 -89t-76 -132.5t-40.5 -163z" />
<glyph unicode="f" horiz-adv-x="556" d="M45 993v73h180v111q0 64 10 118t35 93.5t70 61.5t116 22q14 0 36 -1q22 -2 48 -5v-63q-23 3 -39 3.5t-31 0.5q-58 0 -91.5 -17.5t-50.5 -48.5t-21 -74q-6 -44 -6 -96v-105h210v-73h-210v-993h-76v993h-180z" />
<glyph unicode="g" horiz-adv-x="1156" d="M117 561q0 108 27.5 204t84 168.5t139 115t191.5 42.5q45 0 95 -10.5t98 -36t92 -68t77 -104.5v192h75v-982q-2 -116 -24.5 -209t-74.5 -158t-134.5 -101t-203.5 -36q-64 0 -129 15.5t-119 48t-93.5 85.5t-56.5 127h77q16 -58 50.5 -98.5t79 -64.5t94 -34t97.5 -10 q184 0 273 109.5t89 325.5v156q-35 -64 -78 -107t-90.5 -70t-97 -38t-96.5 -11q-117 0 -200 43.5t-137 119.5t-79.5 175.5t-25.5 210.5zM194 546q0 -90 22 -173.5t66.5 -147.5t114 -103t162.5 -39q57 0 106 17.5t89 49t71 75.5t52.5 95t32.5 109q11 56 11 117q0 58 -10 116 t-30.5 110.5t-50.5 97t-71 78t-90.5 52.5t-109.5 19q-63 0 -114.5 -18t-92 -50.5t-71 -77t-49.5 -97t-28.5 -111t-9.5 -119.5z" />
<glyph unicode="h" horiz-adv-x="1112" d="M159 0v1460h78v-596q33 65 77.5 105.5t93 65.5t98 35t93.5 10q102 0 170 -27.5t108.5 -79.5t58 -125.5t17.5 -164.5v-683h-77v686q0 73 -14.5 133.5t-47.5 104t-85 66.5t-127 23q-73 0 -138 -30t-114 -83t-80 -125q-31 -74 -33 -159v-616h-78z" />
<glyph unicode="i" horiz-adv-x="430" d="M174 1296v164h83v-164h-83zM177 0h77v1064h-77v-1064z" />
<glyph unicode="j" horiz-adv-x="430" d="M-9 -337v-66q15 -1 27 -3q14 -1 26 -1q55 0 94.5 18t66 52.5t38 82t11.5 105.5v1215h-77v-1213q0 -41 -5.5 -75t-20 -58.5t-41.5 -39t-69 -17.5q-12 0 -23.5 -1t-26.5 1zM174 1296v164h83v-164h-83z" />
<glyph unicode="k" horiz-adv-x="1055" d="M159 0v1460h78v-952l616 558h121l-454 -409l484 -657h-96l-447 607l-224 -198v-409h-78z" />
<glyph unicode="l" horiz-adv-x="427" d="M174 -12v1472h77v-1472h-77z" />
<glyph unicode="m" horiz-adv-x="1689" d="M159 0v1066h78v-167q30 59 70 95.5t84 57t89.5 29t84.5 8.5q44 0 88.5 -11t84.5 -36.5t71.5 -68t48.5 -106.5q25 69 64 112t85 68t93.5 33.5t86.5 8.5q163 0 253 -90.5t90 -268.5v-730h-76v733q0 140 -69.5 213t-197.5 73q-85 0 -142.5 -35t-94 -93.5t-52.5 -133.5 q-16 -77 -16 -155v-602h-78v721q0 62 -14.5 116.5t-44.5 94.5t-75 63.5t-108 23.5q-80 0 -141.5 -33.5t-102.5 -92.5t-61 -137.5t-20 -168.5v-587h-78z" />
<glyph unicode="n" horiz-adv-x="1162" d="M159 0v1066h78v-196q23 47 59.5 86.5t84 68.5t105 46.5t121.5 17.5q91 0 164 -26t125 -76t80 -122q28 -74 28 -167v-698h-77v692q0 85 -25.5 146t-69.5 100t-102 57t-123 18q-84 0 -153 -34t-117.5 -92t-74.5 -133q-25 -77 -25 -158v-596h-78z" />
<glyph unicode="o" horiz-adv-x="1135" d="M102 529q0 74 14 145t41 133.5t66.5 113.5t90.5 88.5t114.5 58.5t139.5 21t139.5 -21t114.5 -58.5t91 -88.5t67 -113.5t40.5 -133t13.5 -145.5q0 -113 -31 -213t-90 -176.5t-146 -121t-199 -44.5t-199 44.5t-146 121t-90 177.5t-31 212zM181 528.5q0 -64.5 11.5 -124 t35 -113t57 -99t76 -78t95 -50t112.5 -17.5t111.5 17.5t94 50t75.5 78t56.5 99t34.5 113.5q12 59 12 124q0 62 -11.5 122.5t-35 115t-56.5 99.5t-75.5 77t-94 51t-111.5 19t-112 -19t-95 -51t-76.5 -77t-56 -99.5t-35 -114t-12.5 -124z" />
<glyph unicode="p" horiz-adv-x="1181" d="M159 -406v1472h78v-213q40 71 85.5 117t95 72.5t102 36t105.5 9.5q117 0 200 -45.5t136.5 -122t78 -177.5t24.5 -212q0 -74 -11.5 -144t-35.5 -132t-60 -114t-85 -89t-110 -57.5t-137 -20.5q-59 0 -115.5 11.5t-106.5 37t-92 67t-74 103.5v-599h-78zM237 531 q0 -61 9.5 -121t29.5 -114t51.5 -100t74.5 -79.5t98.5 -53t124.5 -19.5q61 0 111.5 19.5t90.5 53t71 79.5t50 100t29 114t10 121q0 62 -9 121t-27 113t-46.5 100t-69.5 79.5t-92.5 52.5t-117.5 19q-63 0 -116 -19.5t-96.5 -54t-76 -81t-55.5 -100.5t-33.5 -112.5 t-10.5 -117.5z" />
<glyph unicode="q" horiz-adv-x="1181" d="M117 531q0 73 11 143.5t33.5 132.5t57.5 113.5t84.5 88t112.5 58t140 21.5q53 0 105.5 -9.5t102 -36t95.5 -72.5t87 -117v211h76v-1470h-76v599q-32 -62 -75 -103.5t-93.5 -67t-106 -37t-115.5 -11.5q-76 0 -137 20.5t-110 57.5t-85.5 89t-60 114t-35 132t-11.5 144z M194 531q0 -61 9.5 -121t30 -114t49.5 -100t70 -79.5t91.5 -53t111.5 -19.5q69 0 124.5 19.5t98.5 53t74.5 79.5t52 100t30.5 114t10 121q0 59 -11.5 117.5t-34.5 112.5t-55.5 100.5t-76.5 81t-96.5 54t-115.5 19.5q-65 0 -118 -19t-92 -52.5t-68.5 -79.5t-47.5 -100 t-27 -113t-9 -121z" />
<glyph unicode="r" horiz-adv-x="662" d="M159 0v1066h75v-221q33 59 77.5 103.5t95 73.5t105 43.5t107.5 14.5v-73q-82 0 -152 -35.5t-121 -95.5t-80 -136.5t-29 -159.5v-580h-78z" />
<glyph unicode="s" horiz-adv-x="984" d="M96 330h79q6 -73 36.5 -126.5t76 -88.5t101 -51.5t113.5 -16.5q27 0 59 4t65.5 16t66.5 29.5t58.5 42.5t40.5 57t15 74q0 38 -9.5 66.5t-27 49.5t-40.5 36.5t-51 27t-58 22.5q-31 10 -60 19l-138 43q-55 18 -104.5 40t-86 54t-57 76t-20.5 105q0 49 13.5 90t39.5 73 t59.5 54t73 36.5t81 22t83.5 7.5q64 0 124 -18t108 -55.5t81 -93.5q35 -58 46 -134h-79q-8 62 -36.5 105.5t-67.5 70.5t-85.5 40.5t-93.5 14.5q-26 0 -56.5 -4.5t-60.5 -14.5t-58.5 -26t-50.5 -39.5t-35 -54t-13 -68.5q0 -40 13 -70t34 -52.5t48 -38.5t53.5 -27t52.5 -19 q27 -6 44 -12l131 -41q62 -19 113.5 -41.5t89 -54t58 -74.5t20.5 -103q0 -82 -34.5 -140.5t-90 -95.5t-125 -53t-139.5 -16q-76 0 -147.5 21.5t-126 66.5t-89 111t-37.5 154z" />
<glyph unicode="t" horiz-adv-x="573" d="M36 993v71h180v270h76v-270h216v-71h-216v-777q0 -38 5 -67t17.5 -48t36 -28t59.5 -9h20t30 1.5t29 3t19 4.5v-72q-7 -2 -21 -3t-28.5 -2.5t-28.5 -2t-23 -0.5q-52 0 -89.5 11t-59 37t-32 68.5t-10.5 106.5v777h-180z" />
<glyph unicode="u" horiz-adv-x="1162" d="M158 366v698h77v-693q0 -85 26.5 -145.5t71 -100t101.5 -58.5t121 -19q90 0 159 34.5t116 93t71.5 134t24.5 157.5v597h78v-1064h-78v184q-27 -45 -63.5 -83t-83 -66t-103.5 -43t-121 -15q-88 0 -161 24.5t-125.5 74.5t-81.5 123t-29 167z" />
<glyph unicode="v" horiz-adv-x="944" d="M47 1066h86l343 -952l336 952h84l-386 -1066h-72z" />
<glyph unicode="w" horiz-adv-x="1503" d="M53 1066h84l286 -949l288 949h82l290 -949l284 949h84l-330 -1066h-81l-291 943l-285 -943h-81z" />
<glyph unicode="x" horiz-adv-x="984" d="M64 0l380 549l-352 517h92l307 -447l306 447h92l-353 -514l384 -552h-97l-332 482l-333 -482h-94z" />
<glyph unicode="y" horiz-adv-x="944" d="M47 1064h84l354 -972l333 972h81l-429 -1230q-20 -56 -41.5 -97t-50 -68.5t-68.5 -42t-95 -14.5h-72v70h72q46 0 77.5 16t56.5 51t47 93.5t51 141.5z" />
<glyph unicode="z" horiz-adv-x="950" d="M70 0v53l680 943h-633v70h739v-54l-682 -942h702v-70h-806z" />
<glyph unicode="{" horiz-adv-x="678" d="M190 508v79q44 9 72.5 41t44.5 78.5t22.5 105t6.5 118.5v331q0 50 7 92.5t25.5 73t50 46.5t77.5 16h84v-83h-84q-16 0 -28 -6.5t-21.5 -22.5t-15 -44t-5.5 -72v-373q0 -59 -6.5 -110.5t-21.5 -96t-38.5 -80t-55.5 -56.5q62 -41 93.5 -129.5t28.5 -208.5v-369 q0 -44 5.5 -71t15 -43t21.5 -23.5t28 -7.5h84v-81h-84q-46 0 -77.5 16t-50 46.5t-25.5 71.5t-7 92v328q0 59 -6.5 117.5t-22.5 105t-44.5 78.5t-72.5 41z" />
<glyph unicode="|" horiz-adv-x="454" d="M182 -29v1489h90v-1489h-90z" />
<glyph unicode="}" horiz-adv-x="678" d="M102 -307h83q16 0 29.5 7.5t22 23.5t13 44t4.5 70v369q-3 121 29 208t94 130q-31 23 -53.5 57.5t-38.5 79t-24 96.5q-7 51 -7 110v373q0 43 -4.5 71.5t-13 44.5t-22 22.5t-29.5 6.5h-83v83h83q47 0 78.5 -16t49.5 -46.5t26 -72.5q8 -43 8 -93v-331q0 -61 6 -119 t22 -104.5t45 -78.5q30 -32 73 -41v-79q-43 -9 -72.5 -41t-45.5 -78.5t-22 -104.5q-6 -59 -6 -118v-328q0 -50 -8 -91.5t-26 -72t-49.5 -46.5t-78.5 -16h-83v81z" />
<glyph unicode="~" horiz-adv-x="1217" d="M158 432q6 70 30 117t56.5 74.5t69 39.5t67.5 12q41 0 80.5 -13.5t78 -32.5t76.5 -41.5t74.5 -41.5t70.5 -31q36 -13 68 -13q59 0 97 38t48 120h86q-6 -56 -26.5 -99.5t-52 -74t-70.5 -47.5q-38 -16 -82 -16t-83 12.5t-77 31t-74.5 40.5t-71.5 39.5t-71 30.5 q-37 13 -72 13q-18 0 -41.5 -7.5t-43 -25t-33.5 -47.5q-14 -31 -14 -78h-90z" />
<glyph unicode="&#xa2;" horiz-adv-x="1135" d="M134 528.5q0 105.5 29.5 201.5t82.5 170.5t131.5 124.5t175.5 64v149h78v-144q64 -6 121 -31.5t103.5 -66.5t81.5 -99.5t53 -132.5h-83q-15 55 -40.5 99.5t-60.5 76.5t-79 52.5t-96 25.5v-968q49 5 96 28.5t85 61t64 89t35 116.5h85q-13 -81 -44.5 -146.5t-78.5 -114 t-108 -76.5t-134 -34v-187h-78v187q-102 11 -180 60t-130.5 123.5t-80.5 170t-28 201zM215 529q0 -90 21 -171t63.5 -146t106 -108t147.5 -54v963q-83 -11 -146.5 -55t-106.5 -109.5t-64 -149t-21 -170.5z" />
<glyph unicode="&#xa3;" horiz-adv-x="1135" d="M67 -18v101q53 27 95 66t70.5 88t44 107.5t14.5 125.5q0 44 -7.5 88.5t-22.5 92.5h-194v79h152q-41 73 -66 152t-25 166q0 70 18 128t48.5 102.5t73 78t92 54.5t105 31.5t113.5 10.5q105 0 189 -30t142 -87t90 -140t32 -192h-91q-1 85 -25 153.5t-69.5 115.5t-112.5 71.5 t-155 24.5q-67 0 -132 -17.5t-115.5 -55t-79.5 -99t-29 -149.5q0 -44 8 -84t22 -79.5t31.5 -78t37.5 -76.5h384v-79h-350q13 -51 19 -97t9 -87q1 -58 -8.5 -109t-28.5 -93.5t-47.5 -80.5t-63.5 -70q34 9 69 11.5t70 2.5q70 0 127 -10t109.5 -21.5t103.5 -20.5t109 -6 q120 6 211 64v-93q-48 -29 -97 -41.5t-103 -14.5q-62 -1 -120 8.5t-119 20.5t-123.5 20.5t-135.5 9.5q-62 0 -127.5 -13t-141.5 -49z" />
<glyph unicode="&#xa5;" horiz-adv-x="1318" d="M73 1428h108l479 -755l483 755h104l-470 -727h245v-82h-299q-6 -9 -9.5 -14.5t-8.5 -14.5v-152h317v-82h-317v-356h-92v356h-317v82h317v152q-6 9 -10 14.5t-10 14.5h-297v82h243z" />
<glyph unicode="&#xa9;" horiz-adv-x="1632" d="M51 730q0 108 27 206.5t75 184t117.5 154t155 118t184 76t206.5 26.5t208 -26.5t185 -76t153.5 -118t118 -154t76 -184t26.5 -206.5t-26.5 -207.5t-76 -184t-118 -154t-153.5 -118t-184 -75t-209 -26.5q-108 0 -206.5 26.5t-184 75t-155 118t-117.5 154t-75 184 t-27 207.5zM136 730q0 -96 23 -184.5t66.5 -165t104.5 -140t137 -109t163.5 -70.5t185.5 -25q96 0 184.5 25t164.5 70.5t139 109t106 140t67 165t24 184.5q0 95 -24 183.5t-67 165t-106 140t-139 108.5t-164.5 70t-184.5 25t-184.5 -25t-164.5 -70t-137 -108.5t-104.5 -140 t-66.5 -166t-23 -182.5zM458 718q0 89 23.5 169.5t69 142t114 97t157.5 35.5q55 0 105.5 -17.5t90 -52.5t69.5 -86q28 -51 46 -121h-88q-23 93 -81.5 144t-141.5 51q-70 0 -122 -30.5t-87 -80t-52.5 -115.5t-17.5 -136t17.5 -133.5t52 -112.5t86 -78t120.5 -29q41 0 77.5 16 t66.5 45.5t51 71.5q20 42 28 95h94q-10 -70 -38 -128.5t-69.5 -98.5t-95 -62t-114.5 -22q-90 0 -158 35t-113.5 94t-67.5 139q-22 81 -22 168z" />
<glyph unicode="&#xab;" horiz-adv-x="870" d="M131 502v123l254 231v-114l-192 -180l192 -179v-125zM461 502v123l253 231v-114l-191 -180l191 -179v-125z" />
<glyph unicode="&#xad;" horiz-adv-x="756" d="M105 476v82h546v-82h-546z" />
<glyph unicode="&#xae;" horiz-adv-x="1632" d="M51 730q0 108 27 206.5t75 184t117.5 154t155 118t184 76t206.5 26.5t208 -26.5t185 -76t153.5 -118t118 -154t76 -184t26.5 -206.5t-26.5 -207.5t-76 -184t-118 -154t-153.5 -118t-184 -75t-209 -26.5q-108 0 -206.5 26.5t-184 75t-155 118t-117.5 154t-75 184 t-27 207.5zM136 730q0 -96 23 -184.5t66.5 -165t104.5 -140t137 -109t163.5 -70.5t185.5 -25q96 0 184.5 25t164.5 70.5t139 109t106 140t67 165t24 184.5q0 95 -24 183.5t-67 165t-106 140t-139 108.5t-164.5 70t-184.5 25t-184.5 -25t-164.5 -70t-137 -108.5t-104.5 -140 t-66.5 -166t-23 -182.5zM550 299v860h329q144 0 209 -58.5t65 -176.5q0 -52 -17.5 -92.5t-45 -67.5t-62.5 -40.5t-70 -16.5q22 -6 43 -19t38.5 -32t32 -45.5t23.5 -58.5l35 -146q9 -29 23.5 -55.5t36.5 -51.5h-99q-16 18 -28.5 43.5t-18.5 42.5l-38 149q-23 76 -75 115.5 t-129 39.5h-163v-390h-89zM639 765h202q50 0 91.5 7.5t71.5 26.5t46 49.5t16 75.5q0 48 -14.5 79t-39.5 48.5t-58.5 24.5t-74.5 7h-240v-318z" />
<glyph unicode="&#xbb;" horiz-adv-x="870" d="M155 263v120l191 179l-191 180v116l254 -233v-123zM485 263v120l190 179l-190 180v116l254 -233v-123z" />
<glyph unicode="&#xbc;" horiz-adv-x="1703" d="M111 1194v70q44 3 86 8.5t77.5 20.5t60 45.5t36.5 85.5h61v-814h-76v634q-20 -15 -48.5 -25t-60 -14.5t-66.5 -6.5q-35 -4 -70 -4zM381 0l872 1424h93l-869 -1424h-96zM972 199v58l416 631h65v-619h128v-70h-128v-199h-75v199h-406zM1064 269h314v479z" />
<glyph unicode="&#xbd;" horiz-adv-x="1703" d="M111 1194v70q44 3 86 8.5t77.5 20.5t60 45.5t36.5 85.5h61v-814h-76v634q-20 -15 -48.5 -25t-60 -14.5t-66.5 -6.5q-35 -4 -70 -4zM295 0l872 1424h93l-869 -1424h-96zM1034 0q6 58 27 108t56.5 93.5t85.5 86t114 83.5q32 22 67 49.5t64.5 61t47.5 74.5q19 43 19 92 q0 44 -14.5 77.5t-40 57t-60.5 35.5q-33 11 -74 11q-50 0 -86.5 -20.5t-61.5 -54t-37 -78.5q-11 -45 -14 -92h-76q3 67 22 124t54 98.5t84.5 65.5t117.5 24q55 0 103 -16t84 -48t57 -78q21 -44 21 -106q0 -52 -17.5 -99.5t-46.5 -88t-67 -74.5q-38 -36 -79 -62 q-44 -29 -84.5 -58t-73 -58.5t-56.5 -62.5q-22 -33 -37 -69h464v-76h-563z" />
<glyph unicode="&#xbe;" horiz-adv-x="1703" d="M140 797h75q1 -52 17 -96t44.5 -74.5t68.5 -47.5t92 -17q43 0 85 12.5t73 38t50 62.5t19 87t-16.5 86.5t-46 61t-67.5 36.5t-83 12h-51v67h51q29 -2 62 7.5t59.5 30t42.5 53t16 78.5t-14.5 77t-41 51.5t-61.5 29.5t-75 9q-46 0 -82 -17.5t-62 -48.5t-41 -71.5t-20 -89.5 h-73q5 62 25.5 116.5t55.5 94t85 63t112 23.5q56 0 103.5 -14.5t84 -43t57.5 -73t21 -106.5q0 -25 -5 -52t-18 -51.5t-36.5 -49.5t-58.5 -45q36 -15 64.5 -40t47.5 -56t29.5 -67t10.5 -71q0 -66 -25 -116t-66 -83.5t-95 -51.5t-114 -18q-64 0 -118.5 20.5t-93.5 60 t-61.5 96.5t-25.5 127zM492 0l872 1424h93l-869 -1424h-96zM1002 199v58l417 631h64v-619h129v-70h-129v-199h-74v199h-407zM1095 269h314v479z" />
<glyph unicode="&#xd7;" horiz-adv-x="1013" d="M82 161l359 359l-359 359l64 66l359 -360l359 360l67 -66l-360 -359l360 -362l-64 -65l-359 363l-362 -363z" />
<glyph unicode="&#xf7;" horiz-adv-x="1224" d="M105 476v82h1013v-82h-1013zM517 158q0 22 7 40t20.5 31t31 20.5t38 7.5t38 -7.5t30.5 -21t20.5 -32t7.5 -38.5q0 -19 -7.5 -36t-20.5 -31t-30.5 -22t-35.5 -8q-22 0 -40 7.5t-31.5 20.5t-20.5 30.5t-7 38.5zM517 876q0 22 7 40t20.5 31.5t31 20.5t38 7t38 -7t30.5 -21 t20.5 -32.5t7.5 -38.5q0 -19 -7.5 -36t-20.5 -30.5t-30.5 -21.5t-35.5 -8q-22 0 -40 7t-31.5 20.5t-20.5 31t-7 37.5z" />
<glyph unicode="&#xe01;" horiz-adv-x="1258" d="M76 889q29 86 78.5 153.5t116 113.5t148.5 70t175 24q100 0 175 -19t129.5 -54t92 -83.5t59.5 -104.5t31.5 -119.5t9.5 -127.5v-742h-84v753q0 50 -7 101t-26 97t-49.5 86t-76.5 69.5t-109 47t-145 17.5q-67 0 -121.5 -13t-98.5 -35t-77.5 -50t-58.5 -57.5t-41 -58 t-22 -49.5q26 -22 44 -47.5t28 -56t14.5 -68t4.5 -82.5v-654h-85v654q0 44 -4.5 77t-16 60t-32 50t-52.5 48z" />
<glyph unicode="&#xe02;" horiz-adv-x="1016" d="M54 1150v76h229l257 -1042l260 1042h85l-307 -1226h-74l-288 1150h-162z" />
<glyph unicode="&#xe03;" horiz-adv-x="1124" d="M88 1226h84q5 -32 17 -58t33.5 -46.5t49.5 -30.5q29 -11 61 -11t59 11t49.5 31t38.5 46t24 58h89v-184q0 -52 -14.5 -96t-39.5 -82t-58 -73q-31 -35 -69 -70q-32 -29 -58 -54t-42.5 -53.5t-25.5 -64t-9 -85.5v-87q0 -89 22 -151t63 -101.5t96 -57.5q56 -17 120 -17 q61 0 114.5 14.5t93.5 52.5t64 103q23 66 23 165v841h83v-864q0 -105 -27.5 -179.5t-78 -121t-119.5 -67.5q-68 -20 -153 -20q-87 0 -157.5 23t-120.5 71.5t-77 121.5t-27 172v53q0 74 5.5 122t21 84t42.5 66.5t68 70.5q35 32 68.5 64t57.5 66.5t38 72.5t14 84v40 q-31 -35 -75.5 -58t-102.5 -23q-53 0 -95 17t-73.5 47t-51.5 70q-20 42 -25 88z" />
<glyph unicode="&#xe04;" horiz-adv-x="1287" d="M168 0v736q0 67 9.5 131t30.5 121t57 106t88.5 84t125.5 55t166 20q95 0 167.5 -20t125 -55t88 -84t57 -106t30 -121t8.5 -131v-736h-83v736q0 55 -6.5 109t-24 103t-47 90.5t-73 72.5t-103.5 48.5t-139 17.5t-138.5 -17.5t-103.5 -48.5t-73 -72.5t-46.5 -90.5t-25 -103 t-7.5 -109v-299q28 58 71 104t97.5 77.5t119.5 48t136 19.5v-76q-72 0 -131 -19t-106 -51.5t-82 -78t-58.5 -97.5t-35 -109.5t-11.5 -114.5v-140h-83z" />
<glyph unicode="&#xe05;" horiz-adv-x="1303" d="M168 0v785q0 82 12.5 156.5t46 135t91.5 103.5q56 43 146 62l187 -191l178 191q91 -19 151 -62.5t94 -104t48 -135t14 -155.5v-785h-83v785q0 50 -6.5 105.5t-28 108t-61 94t-103.5 62.5l-201 -212l-209 213q-44 -11 -74.5 -34.5t-52.5 -54t-35 -66.5t-19.5 -73t-9 -73.5 t-2.5 -69.5v-343q34 69 83.5 115.5t107 75t117.5 41t116 12.5v-76q-109 0 -187.5 -40.5t-131 -108t-79 -151.5t-26.5 -170v-140h-83z" />
<glyph unicode="&#xe06;" horiz-adv-x="1249" d="M55 1226h88q16 -68 56 -107t106 -39q32 0 60.5 10.5t52 30t41 46.5t26.5 59h89v-184q0 -49 -14 -94.5t-39 -85t-57 -74.5t-70 -67q-35 -29 -59.5 -54t-41 -54t-25 -65t-8.5 -84q6 -87 40 -164.5t91 -135t132.5 -91.5t161.5 -34q79 0 138 23.5t98.5 68t58.5 107.5t19 142 v846h83v-843q0 -97 -24 -174.5t-74 -131.5t-124.5 -83t-174.5 -29q-66 0 -127.5 11.5t-114.5 40t-99 73t-84 107.5v-197h-83v415q0 49 3.5 87t9.5 68t17.5 54t26 46t35 43t46.5 45q37 32 70 64t56 66.5t37.5 72.5t14.5 84v44q-29 -41 -75.5 -63t-112.5 -22q-54 0 -95 16.5 t-71.5 45.5t-51 70t-32.5 90z" />
<glyph unicode="&#xe07;" horiz-adv-x="902" d="M76 675h88l160 -455q29 -83 74.5 -124t106.5 -41q48 0 76.5 18t44.5 46t20.5 64t4.5 74v893h-195v76h280v-978q0 -83 -20 -136.5t-52 -82.5t-73.5 -39t-85.5 -10q-51 0 -91 13.5t-71 40.5t-55 67q-25 39 -43 92z" />
<glyph unicode="&#xe08;" horiz-adv-x="1096" d="M99 964q21 61 59 115t95 92t131 60t166 22q111 0 191.5 -32.5t131.5 -88t75 -128.5t24 -157q0 -47 -13 -104t-36.5 -123.5t-54.5 -140t-68.5 -152.5t-79 -161.5t-83.5 -165.5h-82l-234 596h-156v76h213l222 -567q53 107 104.5 214t92.5 205t66.5 181t25.5 142 q0 73 -21 133t-63.5 104.5t-105 68.5t-149.5 24q-61 0 -118 -13.5t-104.5 -39.5t-82.5 -66q-35 -42 -55 -94h-91z" />
<glyph unicode="&#xe09;" horiz-adv-x="1276" d="M155 967q14 58 48.5 109t90.5 89.5t137 61.5t191 23q99 0 173.5 -20t128.5 -54t89 -82.5t57 -104.5t31 -119.5t9 -127.5v-742h-85v193q-35 -65 -83 -108.5t-105 -70t-118.5 -38t-116.5 -11.5q-111 0 -193 32t-135.5 90.5t-79.5 139.5q-26 83 -26 179v266h83v-266 q0 -86 23.5 -154t68.5 -115.5t110 -72.5q67 -25 149 -25q105 0 183.5 37.5t132.5 101.5t80.5 150.5t26.5 185.5v254q0 51 -7.5 101.5t-25.5 95.5t-48 83t-75.5 66.5t-106 44t-140.5 15.5q-89 0 -155.5 -16t-112.5 -45.5t-73 -67.5t-36 -78h-90z" />
<glyph unicode="&#xe0a;" horiz-adv-x="1081" d="M96 1118v85q40 23 83.5 33.5t74.5 10.5q209 0 209 -196q0 -32 -9 -61t-23.5 -55.5t-33.5 -52.5t-39 -53q-24 -29 -46.5 -61t-40.5 -68t-29 -76t-11 -87v-169q0 -88 27.5 -147.5t73 -97.5t102.5 -54t114 -16q35 0 70.5 5.5t70 20t64.5 39t51.5 60t35 84t13.5 112.5v125 q0 70 -9 120t-27 82t-43.5 49.5t-59.5 26t-74.5 10t-89.5 1.5h-48v76h48q91 6 156.5 28t108 65t59.5 109.5t8 159.5h85q0 -30 -1.5 -66t-6 -71t-15.5 -70.5t-32 -68t-53.5 -61t-81.5 -48.5q41 -15 68.5 -39.5t45 -56t26.5 -66.5t13 -68.5t5 -63.5t1 -51v-125 q0 -99 -28.5 -173.5t-79.5 -123.5t-122.5 -73t-157.5 -24q-91 0 -164.5 25.5t-126.5 75.5t-82 123t-29 170v166q1 57 15 104.5t35.5 88.5t47 76.5t48.5 66.5q18 23 34.5 45t29 44t20 44t7.5 45q0 38 -12 61.5t-29.5 38t-41 19t-46.5 4.5q-20 0 -40.5 -4.5t-42 -13t-40.5 -19 t-35 -19.5z" />
<glyph unicode="&#xe0b;" horiz-adv-x="1081" d="M26 1226h78q8 -30 22 -56.5t33 -44.5t44 -28.5t57 -10.5t58.5 10.5t46.5 28t35 43.5t26 58h88v-184q0 -49 -13 -91.5t-33.5 -79t-47 -68.5t-52.5 -61q-25 -28 -49 -58t-44.5 -64.5t-32 -73t-11.5 -82.5v-96q0 -88 27.5 -147.5t73 -97.5t102.5 -54t114 -16q35 0 70.5 5.5 t70 20t64.5 38t51.5 60t35 85t13.5 112.5v125q0 70 -9 120t-27 82t-43.5 49.5t-59.5 26t-74.5 10t-89.5 1.5h-48v76h48q44 0 88.5 9t83.5 25t70 38t48 50q26 39 34 100q8 62 8 140h85q0 -32 -1.5 -67t-6 -70t-15.5 -70.5t-32 -68.5t-53.5 -61t-81.5 -48q41 -15 68.5 -39.5 t45 -57t26.5 -66.5t13 -67.5t5 -63.5t1 -51v-125q0 -99 -28.5 -173.5t-79.5 -123.5t-122.5 -73t-157.5 -24q-91 0 -164.5 25.5t-126.5 75.5t-82 123t-29 170v93q0 57 14.5 103t37 86.5t51 74.5t58.5 66q24 27 47 54.5t40.5 56.5t28.5 61.5t11 70.5v49q-31 -35 -75 -54 t-99 -19q-50 0 -88 17t-67 45.5t-49 68t-30 82.5z" />
<glyph unicode="&#xe0c;" horiz-adv-x="1940" d="M76 879q20 67 59 132.5t99.5 118.5t145.5 85q87 32 198 32q99 0 173 -20t126.5 -54t87 -82.5t53.5 -104.5t26 -119.5t7 -127.5v-243q0 -49 10.5 -101.5t31 -103t49.5 -94.5t68.5 -76.5t87.5 -51.5t107 -19q143 0 214.5 85t71.5 271v820h81v-823q0 -216 -89 -322.5 t-278 -106.5q-60 0 -112.5 15t-97.5 43.5t-81.5 68t-62.5 89.5v-190h-82v739q0 52 -5.5 104.5t-22.5 101t-45.5 89.5t-71.5 70t-103.5 46.5t-142.5 17.5q-87 0 -155 -25t-118.5 -64t-82.5 -86t-50 -91q28 -19 46.5 -46.5t28.5 -60.5t14.5 -69.5t4.5 -74.5v-575h143v-76h-227 v651q0 41 -2 73t-13 57.5t-32 48.5t-59 49z" />
<glyph unicode="&#xe0d;" horiz-adv-x="1940" d="M76 879q20 67 59 132.5t99.5 118.5t145.5 85q87 32 198 32q99 0 173 -20t126.5 -54t87 -82.5t53.5 -104.5t26 -119.5t7 -127.5v-243q0 -169 68.5 -256.5t217.5 -87.5q60 0 109 18t88.5 51t68.5 77t48 95.5t29.5 108t10.5 111.5v613h81v-1013q0 -109 -29 -200.5t-86 -157 t-141.5 -102t-197.5 -36.5q-67 0 -127.5 17.5t-110 51t-86 87.5t-55.5 127h84q17 -60 49 -100t73 -64t86 -33.5t87 -9.5q72 0 127.5 16t98 45t71.5 70t46.5 87.5t26.5 98t9 103.5v91q-27 -59 -65 -102t-84.5 -71.5t-100.5 -41.5t-113 -13q-102 0 -172 31.5t-112.5 87.5 t-61.5 132t-19 166v246q0 52 -5.5 104.5t-22.5 101t-45.5 89.5t-71.5 70t-103.5 46.5t-142.5 17.5q-87 0 -155 -25t-118.5 -64t-82.5 -86t-50 -91q28 -19 46.5 -46.5t28.5 -60.5t14.5 -69.5t4.5 -74.5v-575h143v-76h-227v651q0 41 -2 73t-13 57.5t-32 48.5t-59 49z" />
<glyph unicode="&#xe0e;" horiz-adv-x="1281" d="M63 0v73h144v578q0 44 -4 77t-16 60t-33 50q-23 23 -55 48q29 86 79.5 153.5t117 113.5t148.5 70t175 24q99 0 173.5 -19t130 -54t92 -83.5t58.5 -104.5t32 -119.5t10 -127.5v-1136h-70q-81 70 -166 105t-169 35q-94 0 -190.5 -44t-189.5 -128v93q93 78 186.5 114.5 t193.5 36.5q84 0 166.5 -24.5t155.5 -82.5v1042q0 52 -8 102t-26 97t-49 86.5t-77 68.5t-108.5 46.5t-144.5 17.5q-67 0 -121 -12.5t-99.5 -35t-79 -50.5t-58 -57t-39.5 -58t-23 -50q26 -22 45 -47.5t28.5 -56t13 -68t3.5 -82.5v-651h-226z" />
<glyph unicode="&#xe0f;" horiz-adv-x="1281" d="M63 0v73h144v578q0 44 -4 76t-16 59t-33 51q-23 21 -55 48q29 87 79.5 154.5t117 113.5t148.5 70t175 24q99 0 173.5 -19t130 -54t92 -83.5t58.5 -104.5t32 -119.5t10 -127.5v-1136h-87q-12 28 -30 53.5t-42.5 46.5t-56.5 33.5t-70 12.5q-26 0 -55 -10.5t-55.5 -29.5 t-48.5 -46.5t-35 -59.5h-66q-8 33 -26.5 60t-42.5 46t-52 29.5t-57 10.5q-35 0 -64 -11t-52.5 -30.5t-38 -46t-20.5 -58.5h-82q8 48 32 88t59 69.5t77.5 47t88.5 17.5q76 0 130 -32t85 -88q38 53 94 86.5t129 33.5q62 0 114.5 -25.5t88.5 -66.5v1017q0 50 -8 101t-26 97 t-49 86.5t-77 69.5t-108.5 46.5t-144.5 17.5q-67 0 -121 -13t-99.5 -35t-79 -50t-58 -57.5t-39.5 -58t-23 -49.5q26 -22 45 -47.5t28.5 -56t13 -68t3.5 -82.5v-651h-226z" />
<glyph unicode="&#xe10;" horiz-adv-x="1106" d="M121 964q21 61 58 115t94 92t131.5 60t166.5 22q47 0 87 -6t76 -18q41 3 74 16.5t58.5 33.5t41 43.5t21.5 49.5h90q-3 -20 -14 -46.5t-31.5 -54t-53 -52.5t-80.5 -41q40 -26 68.5 -62t47.5 -78t28 -89.5t9 -98.5q0 -70 -28 -164.5t-74.5 -204.5t-108 -232.5 t-125.5 -248.5h-82l-233 596h-157v76h214l223 -567q35 70 70 142.5t67 141.5t60 135t48.5 124.5t31.5 108.5q12 52 12 90q0 73 -22 133t-64 104.5t-105 68.5t-149 24q-61 0 -118 -13.5t-104.5 -39.5t-83.5 -66q-36 -42 -55 -94h-89zM143 -388q3 42 19 83t45.5 72.5t68 51 t86.5 19.5q58 0 103.5 -28.5t74.5 -70.5q29 45 76 72t102 27q44 0 77.5 -14t62.5 -40v99h78v-271h-75q-3 30 -13.5 57t-30.5 47.5t-44.5 32.5t-54 12t-55 -12t-43.5 -32.5t-30 -47.5t-15 -57h-67q-3 29 -16 56t-33.5 48t-45.5 33t-51 12q-29 0 -54 -12t-44 -32.5 t-30.5 -47.5t-13.5 -57h-77z" />
<glyph unicode="&#xe11;" horiz-adv-x="1258" d="M85 1226h79q8 -30 21.5 -55.5t32.5 -44.5t43.5 -29.5t56.5 -10.5q65 0 105.5 38t61.5 102h87v-229q82 75 143.5 123t106.5 75.5t76.5 38t54.5 10.5q76 0 107 -52t31 -164v-1028h-84v1028q0 26 -1.5 51t-7 44t-16 30.5t-29.5 11.5q-20 0 -53 -16.5t-72.5 -45t-84 -66.5 t-88 -79t-85.5 -83q-41 -40 -74 -78q-40 -44 -72.5 -79t-57 -67t-42 -62.5t-29.5 -64t-16.5 -73t-4.5 -89.5v-362h-83v356q0 44 2.5 79t9.5 66.5t18 60t29.5 59t44.5 65.5t61 76q24 26 47 52.5t43.5 54t33.5 58.5t13 72v87q-30 -35 -74.5 -55.5t-100.5 -20.5q-49 0 -87 17.5 t-67.5 47t-48.5 69t-30 82.5z" />
<glyph unicode="&#xe12;" horiz-adv-x="2014" d="M168 0v762q0 79 11 155t42.5 141.5t88.5 113.5q55 49 148 70l190 -185q44 47 90.5 93.5t90.5 91.5q65 -14 113 -40.5t81 -62t53 -79.5t31 -92t15.5 -100.5t4.5 -105.5v-274q0 -53 10.5 -106.5t29.5 -102t48.5 -91t69 -73t89.5 -48t109 -17.5q70 0 123.5 23t88.5 70 t52 112.5t17 150.5v820h84v-823q0 -104 -21.5 -183.5t-66 -135t-114 -83t-163.5 -27.5q-52 0 -104 12.5t-98.5 38.5t-85.5 66t-68 93v-184h-83v785q0 65 -8 123.5t-29 108t-58 85.5q-37 34 -93 54q-50 -49 -104 -103l-104 -104l-213 207q-54 -17 -89.5 -53.5t-56 -85 t-29.5 -108t-9 -124.5v-659l400 464h-172v76h286v-62l-523 -604h-74z" />
<glyph unicode="&#xe13;" horiz-adv-x="1940" d="M76 882q20 68 59 133t99.5 116.5t145.5 83.5q87 32 198 32q99 0 173 -20t126.5 -54t87 -81t53.5 -104t26 -119.5t7 -126.5v-327q0 -94 19 -163.5t55 -114t88 -65.5q54 -22 121 -22q60 0 109 17.5t88.5 48.5t69.5 74.5t49.5 91.5t30 102t10.5 107v735h81v-1226h-81v187 q-30 -54 -69 -93.5t-86 -66.5t-98 -40t-104 -13q-94 0 -163.5 29t-113.5 84.5t-66 137.5t-22 187v330q0 52 -5.5 104.5t-22.5 101t-45.5 89t-71.5 70t-103.5 47t-142.5 17.5q-87 0 -155 -25t-118.5 -64.5t-82.5 -86t-50 -90.5q28 -19 46.5 -46.5t28.5 -60.5t14.5 -69.5 t4.5 -74.5v-578h143v-76h-227v654q0 41 -2 73t-13 57.5t-32 48.5t-59 49z" />
<glyph unicode="&#xe14;" horiz-adv-x="1297" d="M168 0v733q0 67 9.5 132.5t31.5 122.5t58.5 105.5t89.5 83.5t125.5 54t165.5 19q94 0 167 -19t126 -54t89.5 -83.5t58.5 -105.5t32 -121q9 -67 9 -134v-733h-83v733q0 55 -6.5 110t-24 104t-46 90.5t-73 72t-106 47.5t-143.5 17t-143 -17t-105 -47.5t-73 -72t-46 -90.5 t-23.5 -104t-6.5 -110v-607l400 464h-178v76h292v-60l-523 -606h-74z" />
<glyph unicode="&#xe15;" horiz-adv-x="1318" d="M168 0v762q0 82 12.5 159.5t46.5 141.5t93.5 111t149.5 68l190 -185l181 185q101 -29 161.5 -76.5t94 -110t43.5 -137t10 -156.5v-762h-81v765q0 69 -8 129.5t-31 110t-62 88.5q-39 37 -104 63l-204 -207l-213 209q-102 -35 -149 -135t-47 -261v-636l400 464h-178v76h292 v-60l-523 -606h-74z" />
<glyph unicode="&#xe16;" horiz-adv-x="1258" d="M76 886q29 86 78.5 153.5t116 113.5t148.5 70t175 24q100 0 175 -19t129.5 -54t92 -83.5t59.5 -104.5t31.5 -119.5t9.5 -127.5v-739h-84v750q0 50 -7 101t-26 97t-49.5 86.5t-76.5 69.5t-108.5 46.5t-145.5 17.5q-67 0 -121.5 -13t-100 -36t-79 -51t-58.5 -58t-39.5 -57 t-20.5 -48q26 -22 44 -47.5t28 -56t14.5 -68t4.5 -82.5v-575h143v-76h-228v651q0 44 -4.5 77t-16 60t-32 50t-52.5 48z" />
<glyph unicode="&#xe17;" horiz-adv-x="1270" d="M168 0v1226h83v-235q47 82 104 132.5t116.5 78t117.5 38t107 10.5q116 0 193.5 -31.5t125.5 -88.5t68.5 -136.5t20.5 -175.5v-818h-85v818q0 93 -20.5 160t-61.5 111t-100.5 64.5t-140.5 20.5q-64 0 -121.5 -17.5t-107 -49.5t-90 -77.5t-69 -99.5t-43 -114t-14.5 -124 v-692h-83z" />
<glyph unicode="&#xe18;" horiz-adv-x="1156" d="M149 320v209h85v-209q0 -54 14.5 -96t40 -72.5t60 -51.5t73.5 -34t80 -19t82 -6q36 0 76.5 5t80 16.5t76 31.5t64 51.5t43.5 74.5t16 100q0 60 -16 102t-59.5 77t-119.5 67q-73 33 -193 71q-47 14 -95 31t-92.5 37.5t-84 46t-68 56t-46 68.5t-17.5 85q0 48 17.5 88 t47.5 72t68.5 57t84 41t91.5 23.5t90 7.5q84 0 156.5 -16t129.5 -52.5t95 -92t52 -131.5h-86q-15 64 -50.5 105t-82.5 65.5t-102.5 35t-111.5 10.5q-62 0 -118 -16t-100 -44t-70 -66t-26 -84q0 -43 16 -75t43 -56t62.5 -43t73.5 -33.5t76 -26.5t70 -23q53 -19 105.5 -36 t102 -36t93.5 -44.5t76 -62.5t51 -87.5t19 -120.5q0 -97 -35 -164t-95.5 -110t-140 -62t-167.5 -19t-167.5 19t-138.5 62t-94 111t-35 163z" />
<glyph unicode="&#xe19;" horiz-adv-x="1270" d="M168 412v814h83v-814q0 -94 20.5 -161t61.5 -111.5t100.5 -65.5t140.5 -21q64 0 121.5 17.5t107.5 50t90.5 78t68.5 99.5t42.5 114.5t14.5 124.5v689h85v-1226h-85v238q-35 -61 -81.5 -110t-103.5 -82.5t-123.5 -51t-136.5 -17.5q-116 0 -193 31t-124.5 89t-68 138 t-20.5 177z" />
<glyph unicode="&#xe1a;" horiz-adv-x="1273" d="M168 493v733h83v-735q0 -52 6 -103.5t22 -100.5t43.5 -90.5t71 -73.5t103 -50t140.5 -18q80 0 140.5 18t103 50t70 73.5t43.5 90.5t22 100.5t6 103.5v735h85v-733q0 -65 -9 -128.5t-28.5 -120.5t-54 -106t-86.5 -84t-124 -54.5t-168 -19.5q-97 0 -169 19.5t-124 54.5 t-86.5 84t-54 106t-27.5 120.5t-8 128.5z" />
<glyph unicode="&#xe1b;" horiz-adv-x="1273" d="M168 493v733h83v-735q0 -52 6 -103.5t22 -100.5t43.5 -90.5t71 -73.5t103 -50t140.5 -18q80 0 140.5 18t103 50t70 73.5t43.5 90.5t22 100.5t6 103.5v1273h85v-1271q0 -65 -9 -128.5t-28.5 -120.5t-54 -106t-86.5 -84t-124 -54.5t-168 -19.5q-97 0 -169 19.5t-124 54.5 t-86.5 84t-54 106t-27.5 120.5t-8 128.5z" />
<glyph unicode="&#xe1c;" horiz-adv-x="1357" d="M168 350v876h250v-76h-167v-800q0 -84 14.5 -142t39.5 -92t57 -47.5t69 -13.5q49 0 88 22t65 64.5t39.5 101t13.5 131.5v185h84v-185q0 -73 13.5 -131.5t39.5 -101t67 -64.5t95 -22q44 0 76.5 20t53 58.5t31 92.5t10.5 124v876h83v-876q0 -102 -18.5 -173.5t-52 -115 t-80 -62.5t-100.5 -19q-28 0 -63 5.5t-71.5 23t-68.5 52.5t-57 91q-23 -61 -54.5 -95.5t-65 -52t-68.5 -21t-63 -3.5q-59 0 -106.5 19t-82.5 62.5t-53 114.5q-18 72 -18 174z" />
<glyph unicode="&#xe1d;" horiz-adv-x="1357" d="M168 350v876h250v-76h-167v-800q0 -84 14.5 -142t39.5 -92t57 -47.5t69 -13.5q49 0 88 22t65 64.5t39.5 101t13.5 131.5v185h84v-185q0 -73 13.5 -131.5t39.5 -101t67 -64.5t95 -22q44 0 76.5 20t53 58.5t31 92.5t10.5 124v1414h83v-1414q0 -102 -18.5 -173.5t-52 -115 t-80 -62.5t-100.5 -19q-28 0 -63 5.5t-71.5 23t-68.5 52.5t-57 91q-23 -61 -54.5 -95.5t-65 -52t-68.5 -21t-63 -3.5q-59 0 -106.5 19t-82.5 62.5t-53 114.5q-18 72 -18 174z" />
<glyph unicode="&#xe1e;" horiz-adv-x="1530" d="M86 1226h86l257 -1045l298 1045h67l300 -1048l261 1048h90l-321 -1226h-58l-304 1066l-306 -1066h-57z" />
<glyph unicode="&#xe1f;" horiz-adv-x="1530" d="M86 1226h86l257 -1045l298 1045h67l300 -1048l397 1586h89l-456 -1764h-58l-304 1066l-306 -1066h-57z" />
<glyph unicode="&#xe20;" horiz-adv-x="1281" d="M63 0v73h144v578q0 44 -4 77t-16 60t-33 50q-23 23 -55 48q29 86 79.5 153.5t117 113.5t148.5 70t175 24q99 0 173.5 -19t130 -54t92 -83.5t58.5 -104.5t32 -119.5t10 -127.5v-739h-83v750q0 50 -8 101t-26 97t-49 86.5t-77 69.5t-108.5 46.5t-144.5 17.5q-67 0 -121 -13 t-99.5 -35t-79 -50t-58 -57.5t-39.5 -58t-23 -49.5q26 -22 45 -47.5t28.5 -56t13 -68t3.5 -82.5v-651h-226z" />
<glyph unicode="&#xe21;" horiz-adv-x="1270" d="M168 0v1226h83v-689q0 -96 33.5 -183.5t93 -155t141 -106.5t177.5 -39q158 0 240.5 90.5t82.5 279.5v803h85v-803q0 -99 -20.5 -180.5t-68.5 -141.5t-125.5 -92t-193.5 -32q-32 0 -69 4t-76.5 16t-80.5 32.5t-80.5 49.5t-74.5 69t-64 93v-241h-83z" />
<glyph unicode="&#xe22;" horiz-adv-x="1222" d="M128 359q0 35 8.5 79t29.5 89t59 84q38 37 99 64q-47 20 -83.5 52t-61 68.5t-38 77.5t-13.5 82q0 49 19 99t55.5 88t92 61t127.5 23h127v-76h-127q-53 -2 -93 -19.5t-66 -45.5t-39.5 -63t-11.5 -70q0 -41 19.5 -82t54.5 -73t84 -55q48 -24 109 -31h70v-74h-70 q-56 -3 -104.5 -20.5t-84.5 -51.5t-55.5 -85t-19.5 -121q0 -54 15 -98.5t43 -79t66 -60t81 -41.5t90.5 -23t93.5 -7q82 0 150.5 20.5t117 65.5t76 116.5t27.5 173.5v800h79v-800q0 -131 -35.5 -217t-98 -138.5t-144 -74.5t-172.5 -22q-96 0 -183.5 24.5t-152 73 t-102.5 120.5q-38 74 -38 167z" />
<glyph unicode="&#xe23;" horiz-adv-x="1030" d="M79 380h85q5 -82 37.5 -143.5t80.5 -102.5t108 -60t121 -19q26 0 62 6t71.5 18t70.5 32t62 48.5t44 66t17 84.5q0 64 -23.5 105t-60.5 68t-84.5 43.5t-94.5 34.5l-149 51q-60 20 -111.5 45.5t-90.5 62t-61.5 86.5t-22.5 118q0 59 16 105t44 81.5t64.5 61t79.5 41.5t89 24 t90 8q68 0 130 -20.5t112 -62t85 -105.5t46 -152h-83q-9 69 -37 118t-69 81t-89.5 46.5t-97.5 16.5q-27 0 -60.5 -5.5t-67 -17t-64 -30.5t-55.5 -45.5t-39.5 -60.5t-14.5 -78t14.5 -78t36.5 -60t50.5 -44t57 -30.5t56.5 -21.5q27 -10 46 -16l140 -46q68 -22 122.5 -47.5 t94 -60.5t61.5 -85t22 -117q0 -63 -17 -113t-47 -89t-69 -66.5t-85 -46t-96.5 -26.5t-100.5 -8q-82 0 -157.5 25.5t-134 76.5t-95.5 127q-36 76 -39 176z" />
<glyph unicode="&#xe24;" horiz-adv-x="1258" d="M76 886q29 86 78.5 153.5t116 113.5t148.5 70t175 24q100 0 175 -19t129.5 -54t92 -83.5t59.5 -104.5t31.5 -119.5t9.5 -127.5v-1136h-84v1147q0 50 -7 101t-26 97t-49.5 86.5t-76.5 69.5t-108.5 46.5t-145.5 17.5q-67 0 -121.5 -13t-100 -36t-79 -51t-58.5 -58 t-39.5 -57t-20.5 -48q26 -22 44 -47.5t28 -56t14.5 -68t4.5 -82.5v-575h143v-76h-228v651q0 44 -4.5 77t-16 60t-32 50t-52.5 48z" />
<glyph unicode="&#xe25;" horiz-adv-x="1216" d="M105 308q0 89 28.5 155t79 113t117.5 77t144.5 47t162 23.5t169.5 5t161 -7.5v193q0 54 -15.5 94t-41 69.5t-60.5 48.5t-73 29t-77.5 14.5t-77.5 4.5q-63 0 -123.5 -11t-111.5 -39t-88.5 -75t-53.5 -120h-83q18 90 61 152t105.5 99.5t141.5 53.5t167 16q49 0 98 -6.5 t95 -22t85.5 -41t69.5 -63t46.5 -87.5t16.5 -116v-914h-81v642q-38 3 -77.5 6t-82.5 3q-70 2 -143.5 -2.5t-142 -18.5t-130 -37.5t-107 -61.5t-71 -92t-25.5 -125q0 -67 24.5 -114t65 -77t94.5 -44q54 -15 113 -15h37t61 3v-70q-27 -4 -57 -6q-33 -3 -53 -3 q-71 0 -137.5 20.5t-118 60t-82 99.5t-30.5 140z" />
<glyph unicode="&#xe26;" horiz-adv-x="1281" d="M63 0v73h144v578q0 44 -4 77t-16 60t-33 50q-23 23 -55 48q29 86 79.5 153.5t117 113.5t148.5 70t175 24q99 0 173.5 -19t130 -54t92 -83.5t58.5 -104.5t32 -119.5t10 -127.5v-1136h-83v1147q0 50 -8 101t-26 97t-49 86.5t-77 69.5t-108.5 46.5t-144.5 17.5 q-67 0 -121 -13t-99.5 -35t-79 -50t-58 -57.5t-39.5 -58t-23 -49.5q26 -22 45 -47.5t28.5 -56t13 -68t3.5 -82.5v-651h-226z" />
<glyph unicode="&#xe27;" horiz-adv-x="1074" d="M96 336h86q17 -79 51 -134.5t78.5 -89t95.5 -48t101 -14.5q76 0 143 33.5t117.5 103.5t79 178t28.5 254q0 150 -27.5 256t-77.5 173t-117 98t-146 31q-51 0 -103 -17.5t-95.5 -54t-77 -90t-50.5 -124.5h-86q15 78 51.5 145.5t90.5 115.5t122.5 76t147.5 28 q117 0 202.5 -45.5t140 -127t81.5 -200t27 -264.5t-27 -265t-83 -203.5t-141.5 -130.5t-199.5 -46q-82 0 -151 25.5t-122.5 73t-88.5 113.5q-35 68 -50 150z" />
<glyph unicode="&#xe28;" horiz-adv-x="1287" d="M168 0v736q0 67 9.5 131t30.5 121t57 106t88.5 84t125.5 55t166 20q124 0 212 -35q41 3 74 15t58.5 32t43.5 44.5t27 54.5h88q-6 -21 -19.5 -48.5t-36.5 -57t-57 -54.5q-33 -24 -80 -39q47 -36 79 -83.5t51.5 -103t27.5 -117t8 -125.5v-736h-83v736q0 55 -6.5 109 t-24 103t-47 90.5t-73 72.5t-103.5 48.5t-139 17.5t-138.5 -17.5t-103.5 -48.5t-73 -72.5t-46.5 -90.5t-25 -103t-7.5 -109v-299q32 68 82 116.5t107.5 77.5t118 42t116.5 13v-76q-72 0 -131 -19t-106 -52.5t-82 -78t-58.5 -96.5t-34.5 -109q-12 -56 -12 -115v-140h-83z" />
<glyph unicode="&#xe29;" horiz-adv-x="1281" d="M168 493v733h83v-735q0 -52 6.5 -103.5t22.5 -100.5t44.5 -90.5t71.5 -73.5t103 -50q59 -18 140 -18t141.5 18t103.5 50t71.5 73.5t44.5 90.5t22.5 100.5t6.5 103.5v157h-373v219h80v-143h293v502h84v-502h119v-76h-119v-155q0 -65 -9 -128.5t-29.5 -120.5t-54 -106 t-86 -84t-125.5 -54.5t-170 -19.5q-96 0 -168 19.5t-124 54.5t-87 84t-55.5 106t-28.5 120.5t-8 128.5z" />
<glyph unicode="&#xe2a;" horiz-adv-x="1216" d="M105 308q0 89 28.5 155t79 113t117.5 77t144.5 47t162 23.5t169.5 5t161 -7.5v193q0 54 -15.5 94t-41 69.5t-60.5 48.5t-73 29t-77.5 14.5t-77.5 4.5q-63 0 -123.5 -11t-111.5 -39t-88.5 -75t-53.5 -120h-83q18 90 61 152t105.5 99.5t141.5 53.5t167 16q51 0 104 -9 t103 -26q44 4 79.5 18t62.5 34.5t45 45.5q17 24 26 51h88q-9 -24 -22 -52.5t-38 -56t-61.5 -52.5t-86.5 -41q50 -39 80.5 -99.5t30.5 -148.5v-914h-81v642q-38 3 -77.5 6t-82.5 3q-70 2 -143.5 -2.5t-142 -18.5t-130 -37.5t-107 -61.5t-71 -92t-25.5 -125q0 -67 24.5 -114 t65 -77t94.5 -44q54 -15 113 -15h37t61 3v-70q-27 -4 -57 -6q-33 -3 -53 -3q-71 0 -137.5 20.5t-118 60t-82 99.5t-30.5 140z" />
<glyph unicode="&#xe2b;" horiz-adv-x="1235" d="M168 0v1226h83v-601l742 601h127l-297 -240q76 -33 124.5 -81t74.5 -105.5t35.5 -122t9.5 -131.5v-546h-83v546q0 70 -11 131.5t-38 110.5t-70.5 84.5t-111.5 58.5l-502 -411v-520h-83z" />
<glyph unicode="&#xe2c;" horiz-adv-x="1503" d="M77 1226h87l271 -1068l286 893h73l288 -895l184 694q6 27 12.5 63t6.5 71q0 32 -7.5 62.5t-28 55.5t-55.5 39.5t-87 14.5v70q60 0 110 19t88 50t63 71.5t35 84.5h83q-10 -42 -29.5 -83.5t-46.5 -77.5t-62 -64q-34 -29 -72 -43q39 -24 65 -75t26 -130q0 -28 -4.5 -59 t-12.5 -66q-2 -8 -7.5 -30.5t-14 -54.5t-20.5 -74.5t-24 -90t-26 -98.5t-29 -102q-49 -181 -108 -403h-73l-289 912l-290 -912h-73z" />
<glyph unicode="&#xe2d;" horiz-adv-x="1213" d="M114 663h426v-76h-343q3 -129 32 -230t82.5 -170.5t127.5 -106.5q75 -38 165 -38q94 0 169 37.5t128.5 109.5t82.5 179.5t29 247.5t-27.5 246.5t-80 178.5t-130 107t-173.5 35q-62 0 -120.5 -17t-108 -48.5t-87.5 -76.5t-61 -104h-88q29 70 71.5 128.5t101 101.5 t131.5 67.5t161 24.5q137 0 230.5 -49t153 -135.5t86 -204t26.5 -254.5q0 -85 -12.5 -166.5t-38 -153t-65 -132t-95 -103.5t-125.5 -68t-158 -25q-132 0 -226.5 53t-153.5 147.5t-85 220.5q-27 128 -25 274z" />
<glyph unicode="&#xe2e;" horiz-adv-x="1213" d="M114 663h426v-76h-343q3 -129 32 -229.5t82.5 -170.5t127.5 -107q75 -36 165 -36q94 0 169 36.5t128.5 108.5t82.5 179.5t29 249.5q0 143 -28.5 248.5t-81.5 176t-130 105.5q-75 36 -171 36q-62 0 -119.5 -17t-107 -49t-88.5 -77t-62 -102h-88q29 70 71.5 128.5 t101 101.5t131.5 66.5t161 23.5q64 0 117 -12q52 -12 99 -32q40 3 75.5 16t61.5 32.5t43.5 44.5t23.5 53h85q-3 -21 -16.5 -50t-38 -57.5t-61 -53.5t-86.5 -38q53 -41 88.5 -98t59 -127t34.5 -150t11 -169q0 -87 -12.5 -168.5t-38 -153t-65 -132t-95 -103.5t-125.5 -68 t-158 -25q-131 0 -224.5 52.5t-153.5 144.5t-87 220q-28 126 -25 278z" />
<glyph unicode="&#xe2f;" horiz-adv-x="1222" d="M114 917q0 60 14.5 106t41 80t60 57.5t73 38t80 21t81.5 6.5h113v-76h-113q-52 0 -100.5 -11.5t-85.5 -39t-59 -73t-22 -112.5q0 -61 20 -116t62 -96.5t111.5 -66.5t168.5 -25q82 0 157 23t132 67.5t90.5 110t33.5 153.5v262h82v-1226h-82v727q-41 -61 -93.5 -99 t-109.5 -58.5t-111 -28t-99 -7.5q-111 0 -193.5 28t-138.5 78.5t-84.5 121t-28.5 155.5z" />
<glyph unicode="&#xe30;" horiz-adv-x="662" d="M146 225v198h79v-125h309v-73h-388zM146 867v203h79v-125h309v-78h-388z" />
<glyph unicode="&#xe31;" d="M-708 1466v229h83v-152h619v-77h-702z" />
<glyph unicode="&#xe32;" horiz-adv-x="1016" d="M83 958q15 70 53 124t90.5 89t115.5 52q64 18 128 18q82 0 150.5 -23.5t119.5 -70t80.5 -119t29.5 -170.5v-858h-85v864q0 76 -22 133t-62 94.5t-94 55.5q-53 18 -117 18q-52 0 -102 -12.5t-90.5 -38t-70 -65t-39.5 -91.5h-85z" />
<glyph unicode="&#xe33;" horiz-adv-x="1016" d="M-380 1629q0 35 12.5 66t34.5 53.5t53 34.5q29 13 67 13q35 0 65.5 -12.5t54 -35t36 -53.5t12.5 -66q0 -38 -12.5 -68.5t-36 -52.5t-53.5 -33q-31 -12 -66 -12q-38 0 -68 11.5t-52 33.5t-34.5 52.5t-12.5 68.5zM-308 1629q0 -43 26 -70q25 -26 69 -26q20 0 37.5 7.5 t31 19.5t20.5 30.5t7 39t-7 38t-20.5 30.5t-31 20.5t-38 7.5t-38 -7.5t-30.5 -20.5t-19.5 -30.5t-6.5 -38.5zM83 958q15 70 53 124t90.5 89t115.5 52q64 18 128 18q82 0 150.5 -23.5t119.5 -70t80.5 -119t29.5 -170.5v-858h-85v864q0 76 -22 133t-62 94.5t-94 55.5 q-53 18 -117 18q-52 0 -102 -12.5t-90.5 -38t-70 -65t-39.5 -91.5h-85z" />
<glyph unicode="&#xe34;" d="M-1101 1466l38 77h895v-77h-933z" />
<glyph unicode="&#xe35;" d="M-1101 1466l38 77h812v189h83v-266h-933z" />
<glyph unicode="&#xe36;" d="M-1101 1466l38 77h612q-10 15 -16 29t-9.5 27t-4.5 24q-1 9 -1 18q0 37 13 69.5t36.5 56t55.5 37.5t67 14q38 0 70.5 -14t55.5 -37.5t36.5 -55.5t13.5 -70q0 -36 -13.5 -67.5t-36.5 -55.5t-55.5 -38t-70.5 -14h-791zM-406 1641q0 -44 26.5 -70t69.5 -26q21 0 38.5 7 t30.5 20.5t20.5 31t7.5 37.5t-7.5 38t-20.5 31t-30.5 20t-38 7t-38.5 -7t-30.5 -20t-20 -31t-7.5 -38z" />
<glyph unicode="&#xe37;" d="M-1101 1466l38 77h558v189h83v-189h171v189h83v-266h-933z" />
<glyph unicode="&#xe38;" d="M-359 -190h191v-339h-83v260h-108v79z" />
<glyph unicode="&#xe39;" d="M-822 -190h194v-130q0 -44 13 -75t38 -51.5t61 -29.5t79 -9t78 9t58.5 29.5t36.5 53t13 79.5v124h83v-124q0 -50 -14 -94.5t-46 -78t-83 -52.5t-126 -19q-64 0 -114.5 14.5t-85.5 44.5t-53 74.5t-18 104.5v54h-114v76z" />
<glyph unicode="&#xe3a;" d="M-321 -263q0 18 7 35.5t20.5 30t29.5 19.5t36 7q18 0 34 -7t28.5 -19.5t19 -30t6.5 -35.5q0 -19 -6.5 -35.5t-19 -28.5t-28.5 -19t-34 -7q-19 0 -35.5 7t-30 19t-20.5 28.5t-7 35.5z" />
<glyph unicode="&#xe3e;" />
<glyph unicode="&#xe3f;" horiz-adv-x="1363" d="M177 0v1426h436v110h89v-110h54q88 0 168 -18t141.5 -58t99 -105t37.5 -156q0 -51 -8 -99t-33 -91t-67.5 -81t-112.5 -70q77 -21 130 -57.5t85 -82.5t46 -100.5t14 -111.5q0 -38 -6 -81t-25 -88t-52.5 -85.5t-89 -72t-136 -50.5t-191.5 -19h-54v-120h-89v120h-436z M269 82h344v623h-344v-623zM269 785h344v561h-344v-561zM702 82h54q53 0 104 5.5t96.5 19t84 36.5t67 58.5t44 83.5t15.5 114q0 77 -27 134.5t-80 96.5t-128.5 57t-175.5 18h-54v-623zM702 785h54q91 0 158 23t112.5 61.5t67 90.5t21.5 109q0 73 -26 125.5t-74 86.5 t-115.5 49.5t-146.5 15.5h-51v-561z" />
<glyph unicode="&#xe40;" horiz-adv-x="496" d="M210 0v1226h76v-1226h-76z" />
<glyph unicode="&#xe41;" horiz-adv-x="785" d="M168 0v1226h77v-1226h-77zM540 0v1226h79v-1226h-79z" />
<glyph unicode="&#xe42;" horiz-adv-x="553" d="M55 1676l22 50h494l31 -72h-383q26 -25 44.5 -57.5t29.5 -67.5t16 -69.5t5 -60.5v-1322h134v-77h-217v1393q0 57 -13.5 103t-36 81t-54.5 59.5t-72 39.5z" />
<glyph unicode="&#xe43;" horiz-adv-x="553" d="M-26 1534q11 66 37.5 111.5t63.5 73t82.5 39.5t93.5 12q53 0 98 -10.5t78.5 -34t52.5 -60.5q19 -36 19 -88q0 -18 -3 -37t-11.5 -40.5t-23 -46t-38.5 -53.5q-30 -41 -50.5 -71.5t-33.5 -60.5t-19 -63q-6 -34 -6 -78v-1050h134v-77h-217v1113q0 49 5.5 88t19 74.5t35 72 t56.5 78.5q33 41 52.5 77t19.5 74q0 58 -40 90t-128 32q-35 0 -67 -8.5t-60 -27.5t-47 -51t-27 -78h-76z" />
<glyph unicode="&#xe44;" horiz-adv-x="553" d="M-58 1654l26 72h499l21 -50q-40 -15 -71.5 -39.5t-54.5 -59.5t-35.5 -80.5t-12.5 -103.5v-1316h134v-77h-217v1399q0 26 5 59.5t16 68.5t29 68.5t45 58.5h-384z" />
<glyph unicode="&#xe45;" horiz-adv-x="1016" d="M83 958q15 70 53 124t90.5 89t115.5 52q64 18 128 18q82 0 150.5 -23.5t119.5 -70t80.5 -119t29.5 -170.5v-1255h-85v1261q0 76 -22 133t-62 94.5t-94 55.5q-53 18 -117 18q-52 0 -102 -12.5t-90.5 -38t-70 -65t-39.5 -91.5h-85z" />
<glyph unicode="&#xe46;" horiz-adv-x="1141" d="M108 844q-3 68 11.5 132t48 116.5t88 91.5t132.5 58l173 -163l160 165q63 -9 107.5 -29.5t73.5 -52.5t47 -71.5t26.5 -86t11.5 -96.5t3 -101v-1204h-83v1232q0 29 -1 61.5t-5.5 66.5t-14.5 66t-27.5 59t-44 46t-65.5 28l-190 -190l-194 187q-91 -33 -134 -112.5 t-43 -199.5q0 -44 15.5 -82.5t44.5 -68.5t70 -47.5t91 -17.5h64v-73h-64q-64 0 -118 20.5t-93.5 57t-63.5 89.5q-23 55 -26 119z" />
<glyph unicode="&#xe47;" d="M-965 1675q0 58 21 99.5t58.5 68.5t86.5 39.5t101 12.5h572v-71h-569q-53 0 -88.5 -11t-58 -31.5t-33 -47.5t-10.5 -59q0 -28 8 -54.5t25 -47t42 -33.5t57 -13q23 0 48 10.5t45.5 27t35.5 40.5q17 24 22 51h68q5 -25 18.5 -48.5t32.5 -41t42 -28.5t53 -11q24 0 44 10.5 t35.5 27t23.5 40.5q9 21 11 51h75q-2 -43 -15.5 -78.5t-38 -62t-59 -41.5t-76.5 -15q-30 0 -56 8t-49.5 21.5t-43 33.5t-32.5 43q-15 -23 -34.5 -43t-44 -33.5t-52 -21.5t-56.5 -8q-51 0 -90 18t-65 48.5t-40 69.5t-14 80z" />
<glyph unicode="&#xe48;" d="M-248 1926v263h80v-263h-80z" />
<glyph unicode="&#xe49;" d="M-604 2105v70h185v-175h51q83 0 142.5 16t98.5 42.5t62.5 57t32.5 59.5h79q-15 -48 -45.5 -92.5t-80 -79.5t-122.5 -56t-170 -21h-125v179h-108z" />
<glyph unicode="&#xe4a;" d="M-673 1926q3 48 17.5 87.5t37 67t50.5 42t57 14.5q88 0 133 -83q12 24 27 40t32.5 25.5t36 13.5t34.5 4q23 0 46.5 -7t44 -24.5t36.5 -44t22 -67.5q33 3 65.5 22t57 45.5t40 57t18.5 56.5h73q-8 -55 -33.5 -101t-62 -79t-81 -51t-89.5 -18h-50q-3 26 -8.5 51t-16 44.5 t-26.5 31t-39 11.5q-21 0 -37 -11.5t-27.5 -30.5t-17.5 -44t-9 -52h-70q-3 26 -11 51.5t-20.5 44.5t-28.5 30.5t-33 11.5q-21 0 -37.5 -11.5t-27.5 -30.5t-18.5 -44t-7.5 -52h-77z" />
<glyph unicode="&#xe4b;" d="M-429 2082v73h181v152h80v-152h188v-73h-188v-156h-80v156h-181z" />
<glyph unicode="&#xe4c;" d="M-345 1777q30 111 116.5 171t228.5 74v-74q-50 -6 -93 -18t-76.5 -32t-56 -51t-32.5 -70h-87z" />
<glyph unicode="&#xe4d;" d="M-380 1629q0 35 12.5 66t34.5 53.5t53 34.5q29 13 67 13q35 0 65.5 -12.5t54 -35t36 -53.5t12.5 -66q0 -38 -12.5 -68.5t-36 -52.5t-53.5 -33q-31 -12 -66 -12q-38 0 -68 11.5t-52 33.5t-34.5 52.5t-12.5 68.5zM-308 1629q0 -43 26 -70q25 -26 69 -26q20 0 37.5 7.5 t31 19.5t20.5 30.5t7 39t-7 38t-20.5 30.5t-31 20.5t-38 7.5t-38 -7.5t-30.5 -20.5t-19.5 -30.5t-6.5 -38.5z" />
<glyph unicode="&#xe4e;" d="M-432 1469q6 41 16 80t30.5 73t55 57t88.5 35q5 37 25.5 69.5t51.5 57.5t73 39.5t95 14.5v-79q-39 0 -70.5 -13t-53.5 -35t-35 -53.5t-16 -69.5q-47 -3 -77.5 -16t-49.5 -35.5t-29 -54.5q-8 -32 -14 -70h-90z" />
<glyph unicode="&#xe4f;" horiz-adv-x="1470" d="M126 613.5q0 84.5 21.5 162t61 145t95 124t124 96t146 61t162.5 21.5t162 -21.5t145 -61t124 -96t95.5 -124t61.5 -145t22 -162t-22 -162t-61.5 -146t-95.5 -124t-124 -95t-145 -61.5t-162 -22t-162.5 22t-146 61.5t-124 95t-95 124t-61 146t-21.5 162zM209 613 q0 -73 19 -140t53 -125.5t82.5 -106.5t107 -82.5t125.5 -53.5t140 -19t140 19t125.5 53.5t106.5 82.5t81.5 106.5t52.5 125.5t19 140t-19 140.5t-52.5 125.5t-81.5 106.5t-106.5 82t-125.5 52.5t-140 19t-140 -19t-125.5 -52.5t-107 -82t-82.5 -106.5t-53 -125.5t-19 -140.5 zM407 613q0 67 25.5 127t71 105.5t105.5 71t127 25.5t127 -25.5t105 -71t70.5 -105.5t25.5 -127t-25.5 -127t-70.5 -105t-105 -70.5t-127 -25.5t-127 25.5t-105.5 70.5t-71 105t-25.5 127zM491 613q0 -49 19 -94.5t52.5 -79t78.5 -52.5t95 -19q49 0 94 19t78.5 52.5t53 79 t19.5 94.5q0 50 -19.5 94.5t-53 78t-78.5 53t-94 19.5q-50 0 -95 -19.5t-78.5 -53t-52.5 -78t-19 -94.5z" />
<glyph unicode="&#xe50;" horiz-adv-x="1295" d="M123 523q0 119 30.5 220t94 175.5t163 115.5t237.5 41q137 0 238 -41t164.5 -115.5t93.5 -175.5t30 -220q0 -139 -41 -240.5t-112.5 -167t-168 -98.5t-204.5 -33t-203.5 33t-167 98.5t-113 167.5t-41.5 240zM203 523q0 -108 33 -194.5t91 -146t140 -92t181 -32.5 q100 0 181.5 32.5t141.5 92t92 146t32 194.5q0 92 -17.5 164t-49.5 124.5t-74.5 89t-92 60t-103.5 33t-110 9.5q-54 0 -108 -9.5t-103 -33t-92 -60t-74.5 -89t-49.5 -124t-18 -164.5z" />
<glyph unicode="&#xe51;" horiz-adv-x="1335" d="M128 88l52 64q90 -56 197.5 -79t224.5 -23q118 0 213.5 35t163.5 102t105 163.5t37 218.5q0 120 -33.5 203.5t-93.5 136.5t-143 77t-185 24q-98 0 -174.5 -21.5t-130 -59.5t-82 -92t-28.5 -119q0 -52 19 -96t60 -74.5t106 -46.5q66 -16 157 -16v-79q-97 0 -175 19.5 t-132.5 58.5t-84.5 97t-30 137q0 97 40 165.5t107 113.5t157.5 65.5t190.5 20.5q128 0 227.5 -28.5t168 -90.5t104.5 -158t36 -234q0 -131 -39 -240.5t-114 -188.5t-187 -122.5t-260 -43.5q-40 0 -94.5 2.5t-117.5 14.5t-130 34t-132 60z" />
<glyph unicode="&#xe52;" horiz-adv-x="1497" d="M66 1177l7 76q38 -12 70 -34t54.5 -57t35 -81.5t12.5 -108.5v-519q0 -85 33.5 -158t102.5 -125.5t171 -82t239 -29.5q132 0 224.5 34.5t150 90.5t84.5 126q26 71 26 141v338q0 44 -14 77t-40 57t-63 42q-38 20 -84 32q-40 -38 -83 -79t-84 -79l-172 156q-31 -11 -64 -31 t-59 -48.5t-43.5 -68.5t-17.5 -93v-93q0 -38 7 -80.5t27.5 -78t58.5 -58.5t100 -23v-78q-65 0 -110 16t-74.5 42t-47 60.5t-26 70t-11.5 69.5t-3 63v87q0 62 20.5 115t57 96t88.5 73q53 29 119 43l150 -134q35 34 71.5 67.5t71.5 66.5q67 -8 123.5 -31.5t98 -60.5t65 -87 t23.5 -110v-335q0 -73 -19 -136.5t-53.5 -115.5t-82 -93t-103 -68.5t-118.5 -42.5q-62 -15 -129 -15h-111q-138 0 -246.5 35.5t-184 97.5t-113.5 148q-39 87 -39 190v519q0 50 -7.5 85t-20.5 58.5t-30.5 38t-37.5 23.5z" />
<glyph unicode="&#xe53;" horiz-adv-x="1366" d="M140 476v120q0 124 23.5 211t68 143.5t110.5 86.5q67 30 151 40l177 -172l188 172q90 -10 154.5 -41.5t107 -81t62.5 -114.5t20 -142v-698h-84v698q0 66 -18 118.5t-49.5 89.5t-75.5 58.5t-93 25.5l-212 -196l-200 196q-20 -3 -46.5 -10.5t-53.5 -23.5t-53 -42t-47.5 -68 t-33 -102.5t-11.5 -144.5v-120q0 -45 2 -93.5t10 -94.5t22.5 -87.5t39.5 -73t61.5 -49t87.5 -17.5h86v-76h-86q-73 0 -124 23.5t-85.5 61.5t-53.5 87.5t-29 104.5t-13 109.5t-3 101.5z" />
<glyph unicode="&#xe54;" horiz-adv-x="1353" d="M140 456v178q0 121 33.5 203.5t98.5 133.5t159.5 73t216.5 22h243q55 0 97.5 13t71.5 36.5t46.5 57t23.5 77.5h82q-6 -50 -24.5 -97.5t-55.5 -83t-96 -57.5q-61 -22 -145 -22h-243q-111 0 -191 -20t-132 -63t-76 -111.5t-24 -164.5v-175q0 -84 23.5 -153t70 -120.5 t113.5 -79t155 -27.5h197q-82 55 -116 121t-34 142q0 25 7 57.5t30.5 64.5t66 58.5t112.5 41.5v-78q-44 -11 -72 -28t-42.5 -36.5t-19.5 -41t-5 -38.5q0 -41 14 -76t37 -64.5t51 -52.5t56.5 -38.5t54 -23.5t43.5 -8h246v-76h-626q-88 0 -155.5 20.5t-117.5 54t-82.5 79 t-53 96.5t-29.5 103.5t-9 102.5z" />
<glyph unicode="&#xe55;" horiz-adv-x="1353" d="M140 456v178q0 108 27 185t79 128.5t128 79t175 34.5q-15 21 -23.5 45t-8.5 52q0 35 13 65t35.5 52.5t54 35.5t68.5 13q35 0 66 -13t54.5 -35.5t36.5 -53.5t13 -64q0 -26 -8 -50q-9 -25 -21 -42h62q55 0 97.5 13t71.5 36.5t47 57.5q17 33 23 77h82q-6 -50 -24.5 -96.5 t-55.5 -83t-96 -57.5q-61 -22 -145 -22h-243q-111 0 -191 -19.5t-132 -63.5t-76 -112q-24 -69 -24 -165v-175q0 -84 23.5 -153t70 -119.5t113.5 -79t155 -28.5h197q-82 55 -116 121t-34 142q0 25 7 57.5t30.5 64.5t66 59.5t112.5 40.5v-76q-44 -12 -72 -29.5t-42.5 -36.5 t-19.5 -40q-5 -23 -5 -40q0 -41 14 -76t37 -64.5t51 -52t56.5 -38t54 -24t43.5 -8.5h246v-76h-626q-88 0 -155.5 20.5t-117.5 55t-82.5 79.5t-53 95.5t-29.5 103.5q-9 52 -9 102zM596 1158q0 -21 6.5 -37.5t19 -28.5t29 -19t37 -7t37.5 7t29 19t19.5 29.5t7.5 36.5 q0 17 -7.5 34t-19.5 29.5t-29.5 19.5t-36.5 7q-21 0 -37.5 -7t-29 -19.5t-19 -29.5t-6.5 -34z" />
<glyph unicode="&#xe56;" horiz-adv-x="1350" d="M53 1226l67 37l172 -304q47 27 94.5 49.5t99 38.5t112 24.5t135.5 8.5q96 0 170.5 -19t128.5 -53t92 -81.5t60.5 -103t32 -119t9.5 -129.5v-82q0 -64 -14.5 -126.5t-42 -119.5t-70.5 -104.5t-101.5 -82t-133 -55t-165.5 -20.5q-105 0 -186.5 26.5t-139.5 71t-88.5 105 t-30.5 130.5q0 66 22 118t63 88.5t100.5 55.5t134.5 19v-79q-64 -2 -109.5 -17t-74 -41.5t-42.5 -63t-14 -80.5q0 -52 25.5 -99t73 -82t115.5 -55.5t151 -20.5q88 0 169 28t141.5 82.5t96.5 133.5t36 180v84q0 114 -26.5 197.5t-79 136t-128.5 77t-175 24.5 q-63 -1 -121.5 -10.5t-115.5 -27.5t-113 -46.5t-114 -66.5z" />
<glyph unicode="&#xe57;" horiz-adv-x="1566" d="M140 429v140q0 123 23.5 213.5t67 150.5t109.5 94t151 45l140 -162q38 40 78 82q39 42 76 80q97 -16 161 -56.5t101.5 -104.5t52.5 -149t15 -187v-117q0 -52 -2 -104t-7 -101t-15.5 -92.5t-27.5 -75.5q73 23 122 61.5t80 84.5t49 94.5t25 90.5t8.5 74.5t1.5 43.5v409 q0 73 11 124t31.5 86t50.5 55.5t68 32.5l26 -70q-22 -9 -41.5 -22t-34.5 -38t-23.5 -66t-8.5 -102v-409q0 -89 -20.5 -175.5t-70 -161t-130 -128.5t-200.5 -76l-48 42q25 50 39.5 97.5t22 97.5t9.5 105.5t2 122.5v117q0 97 -13 167t-40 118t-68 78.5t-96 49.5 q-44 -46 -92 -98t-92 -97l-170 197q-43 -13 -85.5 -38.5t-76 -74t-54 -123t-20.5 -185.5v-137q0 -35 3 -76.5t13 -83t29 -80.5t49.5 -69t74.5 -47.5t105 -17.5v-70q-77 -3 -134 14.5t-97 50t-65 77t-38 94.5t-19 103t-6 102z" />
<glyph unicode="&#xe58;" horiz-adv-x="1321" d="M143 371v266q0 216 115.5 322.5t351.5 106.5h307q60 0 101.5 13t66.5 36.5t39.5 57t20.5 77.5h78q-5 -50 -21 -97.5t-51.5 -83t-92 -57.5t-141.5 -22h-307q-105 0 -177 -22t-118 -67t-66.5 -111t-20.5 -153v-266q0 -64 17.5 -117t47.5 -92t70 -64t87 -31q51 47 105 97.5 t105 96.5l225 -194q44 3 82.5 19t67 49.5t44.5 87.5t16 133q0 40 -7.5 78.5t-26.5 69t-54 50.5t-92 21v73q56 0 97.5 -13t71 -35t47 -51t27.5 -61t13 -66t3 -66q0 -172 -76 -265.5t-240 -102.5l-197 170q-43 -41 -92 -86q-46 -43 -90 -84q-82 8 -144.5 40.5t-105 84 t-64.5 117.5t-22 141z" />
<glyph unicode="&#xe59;" horiz-adv-x="1335" d="M143 444v131q0 126 17.5 219.5t57.5 156t106.5 94.5t163.5 32q55 0 96.5 -10t74.5 -30.5t60 -50.5q26 -31 52 -69q38 35 74.5 68.5t74.5 68.5q14 12 30.5 17.5t27.5 5.5h89q50 0 78.5 10.5t43 31t20.5 51t10 74.5h80q-5 -32 -9 -62t-12 -57t-21 -49t-36.5 -38t-61.5 -25 t-92 -9h-68q-11 0 -21 -5.5t-20 -14.5q-38 -35 -75 -69q-39 -35 -77 -70q93 -207 189.5 -422.5t190.5 -422.5h-92l-351 791q-23 51 -47 91.5t-54 67.5t-67.5 40.5t-86.5 13.5q-62 0 -110 -17.5t-81.5 -65.5t-51.5 -132q-17 -82 -17 -214v-131q0 -83 12.5 -151t45 -116.5 t86.5 -74.5t139 -26v-82q-79 0 -136 17.5t-97.5 47.5t-67 71.5t-41 92t-20.5 106.5t-6 115z" />
<glyph unicode="&#xe5a;" horiz-adv-x="1533" d="M102 917q0 60 14.5 106t41 80t60 57.5t73 38t80.5 21t80 6.5h114v-76h-114q-52 0 -99.5 -11.5t-85 -39t-60 -73t-22.5 -112.5q0 -61 19.5 -116t63 -96.5t112.5 -66.5t169 -25q81 0 156.5 23t132.5 67.5t90.5 110t33.5 153.5v262h81v-1226h-81v724q-41 -61 -94.5 -98.5 t-109.5 -57t-110 -27t-99 -7.5q-111 0 -194.5 28t-139.5 78.5t-84 121t-28 155.5zM1301 0v1226h83v-1226h-83z" />
<glyph unicode="&#xe5b;" horiz-adv-x="2591" d="M102 616q0 76 14.5 147.5t42.5 136t69 117.5t95.5 92t121.5 60q69 21 148 21q99 0 171.5 -30t121 -79.5t76.5 -115.5t34 -139h-82q-6 68 -32 120.5t-68 90.5t-98 58t-123 20q-88 0 -161.5 -35t-127.5 -99t-85 -157t-31 -208q0 -66 16 -128t46 -117.5t74 -100.5 t99.5 -78.5t121 -51t140.5 -17.5q103 0 185 26t145.5 76.5t108.5 120.5t75 156t44 186q13 100 16 210l70 35q52 -67 112.5 -145t125.5 -178q43 70 95 133t102 130l176 -242q30 38 60 79q31 40 59 78h373l44 -81h-379q-41 -50 -79 -103q-35 -52 -73 -111q-44 62 -92 125 q-48 62 -92 124q-53 -66 -101 -137t-92 -154q-29 47 -56 90t-55 84t-56.5 80.5t-60.5 81.5q-11 -193 -64.5 -334.5t-140.5 -234t-202 -137.5t-254 -45q-94 0 -172 23.5t-142 64.5t-114 96.5t-82.5 119.5t-49.5 135t-17 141z" />
<glyph unicode="&#x2000;" horiz-adv-x="1153" />
<glyph unicode="&#x2001;" horiz-adv-x="2307" />
<glyph unicode="&#x2002;" horiz-adv-x="1153" />
<glyph unicode="&#x2003;" horiz-adv-x="2307" />
<glyph unicode="&#x2004;" horiz-adv-x="769" />
<glyph unicode="&#x2005;" horiz-adv-x="576" />
<glyph unicode="&#x2006;" horiz-adv-x="384" />
<glyph unicode="&#x2007;" horiz-adv-x="384" />
<glyph unicode="&#x2008;" horiz-adv-x="288" />
<glyph unicode="&#x2009;" horiz-adv-x="461" />
<glyph unicode="&#x200a;" horiz-adv-x="128" />
<glyph unicode="&#x200b;" />
<glyph unicode="&#x2010;" horiz-adv-x="756" d="M105 476v82h546v-82h-546z" />
<glyph unicode="&#x2011;" horiz-adv-x="756" d="M105 476v82h546v-82h-546z" />
<glyph unicode="&#x2012;" horiz-adv-x="756" d="M105 476v82h546v-82h-546z" />
<glyph unicode="&#x2013;" horiz-adv-x="1092" d="M0 520v90h1092v-90h-1092z" />
<glyph unicode="&#x2014;" horiz-adv-x="1363" d="M0 520v90h1364v-90h-1364z" />
<glyph unicode="&#x2018;" horiz-adv-x="567" d="M207 1010v140q0 52 6 97t22 82.5t44 65t71 47.5v-86q-26 -14 -39 -35.5t-20.5 -46t-9 -54t-1.5 -61.5h70v-149h-143z" />
<glyph unicode="&#x2019;" horiz-adv-x="567" d="M216 996v86q25 14 40.5 35.5t22 46t8.5 54t2 61.5h-73v149h146v-140q0 -53 -6.5 -97.5t-23.5 -81.5t-44 -66q-28 -30 -72 -47z" />
<glyph unicode="&#x201c;" horiz-adv-x="756" d="M155 1010v140q0 52 5.5 97t22 82.5t44 65t71.5 47.5v-86q-26 -14 -39.5 -35.5t-20.5 -46t-8.5 -54t-1.5 -61.5h70v-149h-143zM458 1010v140q0 52 6 97t23 82.5t44.5 65t71.5 47.5v-86q-26 -14 -40 -35.5t-21.5 -46t-9 -54t-1.5 -61.5h72v-149h-145z" />
<glyph unicode="&#x201d;" horiz-adv-x="756" d="M153 999v84q25 15 39.5 35.5t22 46.5t9 55.5t1.5 58.5h-72v149h145v-140q0 -53 -6 -96.5t-22.5 -81t-44.5 -66t-72 -45.5zM458 999v84q25 15 39 35.5t21.5 46.5t9 55.5t1.5 58.5h-71v149h144v-140q0 -53 -6 -96.5t-22 -81t-44 -66t-72 -45.5z" />
<glyph unicode="&#x2022;" horiz-adv-x="705" d="M76 602q0 58 21 107.5t58.5 87.5t88.5 60t109 22q59 0 108.5 -22t87.5 -60t60 -88q22 -49 22 -107q0 -59 -22 -110t-60 -88.5t-88 -58.5q-49 -21 -108 -21q-58 0 -109 21t-88.5 58.5t-58.5 88.5t-21 110z" />
<glyph unicode="&#x202f;" horiz-adv-x="461" />
<glyph unicode="&#x205f;" horiz-adv-x="576" />
<glyph unicode="&#x20ac;" horiz-adv-x="1509" d="M29 559v76h155q-3 42 -3 84.5t6 89.5h-158v76h168q21 119 69.5 224.5t129 182.5t191.5 122t254 45q93 0 182.5 -27t163.5 -82t128 -136t75 -189h-88q-24 86 -69.5 152.5t-106 111t-133.5 67t-152 22.5q-126 0 -220.5 -39.5t-162 -106.5t-108.5 -157q-43 -91 -61 -190h569 v-76h-579q-6 -41 -6 -83.5t3 -90.5h582v-76h-572q18 -101 61.5 -193t111.5 -162.5t163.5 -112t218.5 -41.5q102 0 185.5 35t144.5 97t99 148t53 188h90q-17 -133 -64.5 -235t-121.5 -172t-171.5 -106.5t-214.5 -36.5q-145 0 -258 46.5t-193 127t-130 188t-67 229.5h-164z " />
<glyph unicode="&#x2122;" horiz-adv-x="2020" d="M182 1352v76h624v-76h-272v-714h-76v714h-276zM987 638v790h90l336 -675l333 675h94v-790h-79v650l-321 -650h-50l-326 650v-650h-77z" />
<glyph unicode="&#x25cc;" horiz-adv-x="1363" d="M305 593l134 67q-4 -32 -5.5 -65.5t5.5 -71.5zM403 330l61 140q18 -29 41.5 -54t53.5 -45zM431 856l137 -49q-66 -30 -101 -92zM610 825l72 142l66 -132q-33 6 -69.5 4t-68.5 -14zM616 345q32 -9 61.5 -9t67.5 11l-63 -134zM799 810l162 46l-65 -144q-17 33 -43.5 55.5 t-53.5 42.5zM802 368q29 20 51 43q23 24 43 50l40 -135zM921 526q13 33 14.5 66t-5.5 65l128 -67z" />
<glyph unicode="&#x25fc;" horiz-adv-x="1065" d="M0 0v1066h1066v-1066h-1066z" />
<glyph unicode="&#xf700;" horiz-adv-x="1106" d="M121 964q21 61 58 115t94 92t131.5 60t166.5 22q47 0 87 -6t76 -18q41 3 74 16.5t58.5 33.5t41 43.5t21.5 49.5h90q-3 -20 -14 -46.5t-31.5 -54t-53 -52.5t-80.5 -41q40 -26 68.5 -62t47.5 -78t28 -89.5t9 -98.5q0 -70 -28 -164.5t-74.5 -204.5t-108 -232.5 t-125.5 -248.5h-82l-233 596h-157v76h214l223 -567q35 70 70 142.5t67 141.5t60 135t48.5 124.5t31.5 108.5q12 52 12 90q0 73 -22 133t-64 104.5t-105 68.5t-149 24q-61 0 -118 -13.5t-104.5 -39.5t-83.5 -66q-36 -42 -55 -94h-89z" />
<glyph unicode="&#xf701;" d="M-1267 1466l38 77h813v-77h-851z" />
<glyph unicode="&#xf702;" d="M-1267 1466l38 77h730v189h83v-266h-851z" />
<glyph unicode="&#xf703;" d="M-1267 1466l38 77h531q-10 15 -16.5 29t-9.5 27t-5 24q-1 9 -1 18q0 37 14 69.5t38 56t54.5 37.5t67.5 14q38 0 70 -14t55.5 -37.5t37 -55.5t13.5 -70q0 -36 -13.5 -67.5t-37 -55.5t-55.5 -38t-70 -14h-711zM-651 1641q0 -44 26 -70t69 -26q20 0 37.5 7t31 20.5t20.5 31 t7 37.5t-7 38t-20.5 31t-31 20t-38 7t-38.5 -7t-30.5 -20t-19 -31t-6.5 -38z" />
<glyph unicode="&#xf704;" d="M-1267 1466l38 77h476v189h83v-189h171v189h83v-266h-851z" />
<glyph unicode="&#xf705;" d="M-616 1469v337h83v-337h-83z" />
<glyph unicode="&#xf706;" d="M-1045 1647v73h184v-178h51q83 0 141.5 17.5t98.5 42t62.5 57t33.5 61.5h77q-15 -48 -45 -94t-80 -81t-121.5 -55.5t-169.5 -20.5h-126v178h-106z" />
<glyph unicode="&#xf707;" d="M-1172 1469q3 48 17.5 86.5t37 66.5t50 42.5t57.5 14.5q87 0 133 -82q11 24 26.5 40t33 25.5t35.5 13t34 3.5q24 0 47.5 -7.5t43.5 -24t36.5 -43.5t21.5 -67q34 3 66 21.5t57 44.5t40.5 57t17.5 60h73q-7 -56 -32.5 -102.5t-62 -79.5t-81 -51t-89.5 -18h-50q-3 26 -9 51 t-16 44t-26 30.5t-39 11.5q-21 0 -37 -11.5t-27.5 -30.5t-17.5 -44t-9 -51h-70q-3 26 -11 51t-20.5 44t-28.5 30.5t-33 11.5q-21 0 -37.5 -11.5t-28.5 -30.5t-18.5 -44t-6.5 -51h-77z" />
<glyph unicode="&#xf708;" d="M-876 1624v74h182v153h81v-153h188v-74h-188v-155h-81v155h-182z" />
<glyph unicode="&#xf709;" d="M-780 1469q30 111 116 170.5t227 74.5v-73q-49 -6 -92 -19t-76.5 -33.5t-56.5 -49.5t-33 -70h-85z" />
<glyph unicode="&#xf70a;" d="M-251 1469v337h83v-337h-83z" />
<glyph unicode="&#xf70b;" d="M-721 1647v73h184v-178h52q83 0 141.5 17.5t99 42t62 57t33.5 61.5h76q-15 -48 -44 -94t-80 -81t-122.5 -55.5t-168.5 -20.5h-125v178h-108z" />
<glyph unicode="&#xf70c;" d="M-923 1469q3 48 17.5 86.5t36.5 66.5t50 42.5t57 14.5q87 0 134 -82q12 24 26.5 40t32 25.5t36.5 13t34 3.5q23 0 47 -7.5t44.5 -24t36 -43.5t22.5 -67q34 3 66 21.5t57 44.5t40 57q14 31 17 60h73q-9 -56 -34 -102.5t-61.5 -79.5t-80 -51t-90.5 -18h-48q-3 26 -9.5 51 t-17 44t-26.5 30.5t-39 11.5q-21 0 -37 -11.5t-27.5 -30.5t-17.5 -44t-9 -51h-68q-3 26 -11 51t-21.5 44t-29.5 30.5t-33 11.5q-21 0 -37.5 -11.5t-27.5 -30.5t-18.5 -44t-7.5 -51h-76z" />
<glyph unicode="&#xf70d;" d="M-429 1624v74h181v153h80v-153h188v-74h-188v-155h-80v155h-181z" />
<glyph unicode="&#xf70e;" d="M-347 1469q29 111 116 171q88 59 228 74v-73q-50 -6 -93 -19t-75.5 -33.5t-56 -49.5t-33.5 -70h-86z" />
<glyph unicode="&#xf70f;" horiz-adv-x="1940" d="M76 888q20 65 59.5 130t101 115.5t146 82t195.5 31.5q99 0 172 -19t126 -54t87 -82t54 -104t27 -119.5t7 -126.5v-333q0 -85 28 -150.5t71.5 -109.5t101.5 -67.5t117 -23.5q71 0 129 24.5t100.5 69t67.5 107t25 138.5v829h81v-832q0 -99 -32.5 -176.5t-88 -130 t-128.5 -79t-154 -26.5q-87 0 -161.5 32.5t-127 89.5t-82 134t-29.5 168v347q0 50 -7 100.5t-24 96.5t-45.5 86t-72 70t-103.5 48q-60 17 -139 20q-90 -2 -160.5 -27.5t-121.5 -63.5t-82 -85q-33 -49 -48 -93q27 -19 46 -46t30.5 -60.5t17.5 -70t6 -74.5v-582h143v-72h-227 v654q0 38 -5 71.5t-16.5 61.5t-32.5 52.5t-52 48.5z" />
<glyph unicode="&#xf710;" d="M-853 1466v229h85v-152h834v-77h-919z" />
<glyph unicode="&#xf711;" d="M-785 1629q0 35 11.5 66t33.5 53.5t52.5 35t68.5 12.5q35 0 65.5 -12.5t53.5 -35t35 -53.5t12 -66q0 -38 -12 -68.5t-35 -52.5t-53.5 -33.5t-65.5 -11.5q-38 0 -68.5 11.5t-52.5 33.5t-33.5 52.5t-11.5 68.5zM-715 1629q0 -43 26 -69.5t70 -26.5q20 0 37.5 7.5t31 19.5 t20.5 30.5t7 39t-7 38t-20.5 30.5t-31 20.5t-37.5 7.5t-38.5 -7.5t-31 -20.5t-19.5 -30.5t-7 -38.5z" />
<glyph unicode="&#xf712;" d="M-1206 1675q0 58 22 99.5t58.5 68.5t84.5 39.5t104 12.5h569v-71h-569q-53 0 -88 -11t-58.5 -31.5t-33.5 -47.5t-10 -59q0 -28 8.5 -54.5t25 -47t41 -33.5t59.5 -13q24 0 48 10.5t44.5 27t35.5 40.5t21 51h69q6 -25 18 -48.5t31 -41t44 -28.5t51 -11q25 0 46 10.5t36 27 t23 40.5q9 21 11 51h77q-3 -43 -17 -78.5t-38.5 -62t-59 -41.5t-76.5 -15q-29 0 -55.5 8t-50.5 21.5t-43 33.5t-32 43q-15 -23 -34.5 -43t-44.5 -33.5t-52.5 -21.5t-57.5 -8q-51 0 -89.5 18t-65 48.5t-39.5 69.5t-13 80z" />
<glyph unicode="&#xf713;" d="M-496 1926v263h80v-263h-80z" />
<glyph unicode="&#xf714;" d="M-870 2105v70h185v-175h51q84 0 143 16t98.5 42.5t62.5 57t32 59.5h79q-15 -48 -45.5 -92.5t-81 -79.5t-122.5 -56t-169 -21h-125v179h-108z" />
<glyph unicode="&#xf715;" d="M-981 1926q3 48 17.5 87.5t37 67t51 42t56.5 14.5q88 0 133 -83q11 24 27.5 40t34 25.5t35 13.5t33.5 4q23 0 47 -7t44.5 -24.5t35 -44t23.5 -67.5q34 3 65 22t56 45.5t41 57t18 56.5h73q-9 -55 -34.5 -101t-62 -79t-80.5 -51t-88 -18h-49q-3 26 -9.5 51t-17.5 44.5 t-27 31t-38 11.5q-21 0 -37.5 -11.5t-27 -30.5t-17.5 -44t-9 -52h-68q-3 26 -12 51.5t-21.5 44.5t-27.5 30.5t-34 11.5q-21 0 -37.5 -11.5t-28.5 -30.5t-17.5 -44t-7.5 -52h-77z" />
<glyph unicode="&#xf716;" d="M-680 2064v73h182v152h80v-152h189v-73h-189v-156h-80v156h-182z" />
<glyph unicode="&#xf717;" d="M-499 1777q29 111 115 171t229 74v-74q-49 -6 -93 -18t-77.5 -32t-55.5 -51t-34 -70h-84z" />
<glyph unicode="&#xf718;" d="M-359 -511h191v-342h-83v260h-108v82z" />
<glyph unicode="&#xf719;" d="M-819 -511h194v-131q0 -44 13 -76t38 -52.5t61 -29.5t79 -9t78 9t58.5 30t36.5 54t13 79v126h83v-126q0 -49 -14 -94.5t-46 -78t-83 -52.5t-126 -20q-64 0 -114.5 14.5t-85.5 45.5t-53 75q-18 46 -18 105v54h-114v77z" />
<glyph unicode="&#xf71a;" d="M-331 -602q0 18 7 35.5t19.5 30.5t29.5 20.5t36 7.5t35.5 -7.5t28 -20.5t19.5 -30q7 -18 7 -36t-7.5 -34.5t-19 -28.5t-28 -19t-35.5 -7t-36 7t-29.5 19t-19.5 28.5t-7 34.5z" />
<glyph unicode="&#xf71d;" horiz-adv-x="1503" d="M77 1226h87l271 -1068l286 893h73l288 -895l184 694q6 27 12.5 63t6.5 71q0 32 -7.5 62.5t-28 55.5t-55.5 39.5t-87 14.5v70q60 0 110 19t88 50t63 71.5t35 84.5h83q-10 -42 -29.5 -83.5t-46.5 -77.5t-62 -64q-34 -29 -72 -43q39 -24 65 -75t26 -130q0 -28 -4.5 -59 t-12.5 -66q-2 -8 -7.5 -30.5t-14 -54.5t-20.5 -74.5t-24 -90t-26 -98.5t-29 -102q-49 -181 -108 -403h-73l-289 912l-290 -912h-73z" />
<glyph d="M-837 1469q6 41 16.5 80t31 73t54.5 57t88 35q6 37 25.5 69.5t52 57.5t74.5 39.5t93 14.5v-79q-39 0 -69.5 -13t-52.5 -35t-35 -53.5t-16 -69.5q-47 -3 -78.5 -16t-49.5 -35.5t-28.5 -54.5t-16.5 -70h-89z" />
<glyph horiz-adv-x="1016" d="M-785 1629q0 35 11.5 66t33.5 53.5t52.5 35t68.5 12.5q35 0 65.5 -12.5t53.5 -35t35 -53.5t12 -66q0 -38 -12 -68.5t-35 -52.5t-53.5 -33.5t-65.5 -11.5q-38 0 -68.5 11.5t-52.5 33.5t-33.5 52.5t-11.5 68.5zM-715 1629q0 -43 26 -69.5t70 -26.5q20 0 37.5 7.5t31 19.5 t20.5 30.5t7 39t-7 38t-20.5 30.5t-31 20.5t-37.5 7.5t-38.5 -7.5t-31 -20.5t-19.5 -30.5t-7 -38.5zM83 958q15 70 53 124t90.5 89t115.5 52q64 18 128 18q82 0 150.5 -23.5t119.5 -70t80.5 -119t29.5 -170.5v-858h-85v864q0 76 -22 133t-62 94.5t-94 55.5q-53 18 -117 18 q-52 0 -102 -12.5t-90.5 -38t-70 -65t-39.5 -91.5h-85z" />
<glyph horiz-adv-x="1016" d="M-785 1629q0 35 11.5 66t33.5 53.5t52.5 35t68.5 12.5q35 0 65.5 -12.5t53.5 -35t35 -53.5t12 -66q0 -38 -12 -68.5t-35 -52.5t-53.5 -33.5t-65.5 -11.5q-38 0 -68.5 11.5t-52.5 33.5t-33.5 52.5t-11.5 68.5zM-715 1629q0 -43 26 -69.5t70 -26.5q20 0 37.5 7.5t31 19.5 t20.5 30.5t7 39t-7 38t-20.5 30.5t-31 20.5t-37.5 7.5t-38.5 -7.5t-31 -20.5t-19.5 -30.5t-7 -38.5zM83 958q15 70 53 124t90.5 89t115.5 52q64 18 128 18q82 0 150.5 -23.5t119.5 -70t80.5 -119t29.5 -170.5v-858h-85v864q0 76 -22 133t-62 94.5t-94 55.5q-53 18 -117 18 q-52 0 -102 -12.5t-90.5 -38t-70 -65t-39.5 -91.5h-85z" />
<glyph d="M-920 1466l38 77h714v-77h-752z" />
<glyph d="M-920 1466l38 77h631v189h83v-266h-752z" />
<glyph d="M-920 1466l38 77h421q-11 15 -16 29t-8 27t-4 24q-2 9 -2 18q0 37 14 69.5t38 56t55 37.5t67 14q38 0 70 -14t55.5 -37.5t37.5 -55.5t14 -70q0 -36 -14 -67.5t-37.5 -55.5t-55.5 -38t-70 -14h-603zM-413 1641q0 -44 27 -70t69 -26q21 0 38.5 7t29.5 20.5t19.5 31 t7.5 37.5t-7.5 38t-19.5 31t-29.5 20t-38 7t-39 -7t-31.5 -20t-19.5 -31t-6.5 -38z" />
<glyph d="M-920 1466l38 77h377v189h83v-189h171v189h83v-266h-752z" />
<glyph d="M-1447 1466l38 77h1053v-77h-1091z" />
<glyph d="M-1447 1466l38 77h970v189h83v-266h-1091z" />
<glyph d="M-1447 1466l38 77h802q-11 15 -17.5 29t-9.5 27t-4 24q-1 9 -1 18q0 37 13 69.5t37 56t55.5 37.5t66.5 14q38 0 70 -14t55.5 -37.5t37 -55.5t13.5 -70q0 -36 -13.5 -67.5t-37 -55.5t-55.5 -38t-70 -14h-980zM-564 1641q0 -44 27 -70q26 -26 70 -26q20 0 37.5 7t31 20.5 t20.5 31t7 37.5t-7 38t-20.5 31t-31 20t-38 7t-38 -7t-30.5 -20t-20.5 -31t-7.5 -38z" />
<glyph d="M-1447 1466l38 77h715v189h84v-189h171v189h83v-266h-1091z" />
<glyph d="M-437 1926v263h81v-263h-81z" />
<glyph d="M-856 2105v70h186v-175h51q83 0 142 16t98.5 42.5t63 57t32.5 59.5h79q-15 -48 -45.5 -92.5t-80.5 -79.5t-123 -56t-169 -21h-126v179h-108z" />
<glyph d="M-1010 1926q3 48 17.5 87.5t36.5 67t50 42.5q27 14 56 14q88 0 135 -83q11 24 26.5 40t33 25.5t35.5 13.5t33 4q23 0 47.5 -7t45 -24.5t35.5 -44t24 -67.5q33 3 64.5 22t56.5 45.5t40 56.5q14 31 17 57h73q-9 -55 -33.5 -101t-61 -79t-80.5 -51t-89 -18h-50 q-3 26 -9.5 51t-16.5 44.5t-26 31t-40 11.5q-20 0 -36 -11.5t-27 -30.5t-17.5 -44t-9.5 -52h-69q-3 26 -11 51.5t-21 44.5t-29 31q-16 11 -34 11q-20 0 -36 -11.5t-28 -30.5t-18 -44q-8 -25 -8 -52h-76z" />
<glyph d="M-619 2064v73h182v152h81v-152h188v-73h-188v-156h-81v156h-182z" />
<glyph d="M-1369 1466l37 77h1164v-77h-1201z" />
<glyph d="M-1369 1466l37 77h1081v189h83v-266h-1201z" />
<glyph d="M-1369 1466l37 77h871q-11 15 -16 29t-8 27t-4 24q-2 9 -2 18q0 37 14 69.5t38 56t55 37.5t67 14q38 0 70 -14t55.5 -37.5t37.5 -55.5t14 -70q0 -36 -14 -67.5t-37.5 -55.5t-55.5 -38t-70 -14h-1052zM-413 1641q0 -44 27 -70t69 -26q21 0 38.5 7t29.5 20.5t19.5 31 t7.5 37.5t-7.5 38t-19.5 31t-29.5 20t-38 7t-39 -7t-31.5 -20t-19.5 -31t-6.5 -38z" />
<glyph d="M-1369 1466l37 77h827v189h83v-189h171v189h83v-266h-1201z" />
<glyph d="M-248 1777v261h80v-261h-80z" />
<glyph d="M-648 1956v70h184v-175h52q84 0 142 16t98.5 42.5t62 57t33.5 59.5h76q-15 -48 -44 -92.5t-80 -79.5t-122.5 -56t-168.5 -21h-125v179h-108z" />
<glyph d="M-762 1777q3 48 17.5 86.5t36.5 66.5t50 43q27 16 56 16q88 0 135 -85q11 23 26.5 39t33 26.5t36 15t32.5 4.5q24 0 48 -7.5t44.5 -25t35.5 -44.5t24 -67q34 3 65 22t56 45.5t40 57.5q14 30 17 56h73q-9 -55 -33.5 -101t-61 -79t-80.5 -51t-89 -18h-50q-3 26 -9.5 50 t-16.5 44t-26 31.5t-40 11.5q-20 0 -36 -11t-27 -30t-17.5 -43.5t-9.5 -52.5h-69q-3 26 -11 51.5t-21 44.5t-28 30q-17 11 -35 11q-20 0 -36 -11t-28 -30t-18 -44q-8 -24 -8 -52h-76z" />
<glyph d="M-432 1932v74h184v152h79v-152h188v-74h-188v-155h-79v155h-184z" />
<glyph d="M-493 1777v261h80v-261h-80z" />
<glyph d="M-914 1956v70h184v-175h51q83 0 142.5 16t98.5 42.5t62 57t33 59.5h77q-14 -48 -44 -92.5t-80.5 -79.5t-122 -56t-169.5 -21h-124v179h-108z" />
<glyph d="M-1072 1777q3 48 17.5 86.5t38 66.5t51.5 43.5t57 15.5q87 0 131 -85q12 23 28 39t33.5 26.5t35 15t35.5 4.5q23 0 46.5 -7.5t44 -25t35.5 -44.5q14 -27 23 -67q33 3 64.5 22t56.5 45.5t41 57t19 56.5h73q-9 -55 -34 -101t-62 -79t-81.5 -51t-88.5 -18h-50q-3 26 -8.5 50 t-16.5 44t-27 31q-15 12 -38 12q-21 0 -37.5 -11t-27.5 -30t-18 -44q-5 -24 -8 -52h-70q-3 26 -11.5 51.5t-20.5 44.5t-28 30t-33 11q-21 0 -38.5 -11t-28.5 -30t-17.5 -43.5t-6.5 -52.5h-79z" />
<glyph d="M-680 1932v74h181v152h80v-152h188v-74h-188v-155h-80v155h-181z" />
<glyph d="M-580 -190h189v-339h-85v260h-104v79z" />
<glyph d="M-864 -190h194v-130q0 -44 14 -75t38.5 -51.5t59.5 -30t79 -9.5q42 0 76.5 9.5t59.5 30t38 53t13 79.5v124h82v-124q0 -50 -13.5 -94.5t-45.5 -78t-83 -52.5t-127 -19q-64 0 -114.5 14.5t-85.5 44.5t-53 74.5t-18 104.5v54h-114v76z" />
<glyph d="M-549 -261q0 17 7.5 34t19 29.5t28.5 19.5t36 7q17 0 34.5 -7t29 -19.5t19 -28.5t7.5 -35t-7.5 -35t-19 -29.5t-29 -20.5t-34.5 -7q-19 0 -36 7t-28.5 20.5t-19 29.5t-7.5 35z" />
<glyph d="M-552 -190h187v-339h-83v260h-104v79z" />
<glyph d="M-999 -190h195v-130q0 -44 13.5 -75t38.5 -51.5t60 -30t79 -9.5q42 0 76.5 9.5t59 30t38 53t13.5 79.5v124h81v-124q0 -50 -13.5 -94.5t-45 -78t-83.5 -52.5t-126 -19q-64 0 -114.5 14.5t-85.5 44.5t-53.5 74.5t-18.5 104.5v54h-114v76z" />
<glyph d="M-531 -261q0 17 7 34t19 29.5t28.5 19.5t35.5 7q18 0 35.5 -7t29 -19.5t19 -28.5t7.5 -35t-7.5 -35t-19 -29.5t-29 -20.5t-35.5 -7q-19 0 -35.5 7t-28.5 20.5t-19 29.5t-7 35z" />
<glyph d="M-822 1466v229h83v-152h940v-77h-1023z" />
<glyph d="M-493 1926v263h80v-263h-80z" />
<glyph d="M-908 2105v70h184v-175h51q83 0 143 16t99.5 42.5t62 57t32.5 59.5h78q-15 -48 -45 -92.5t-81 -79.5t-122.5 -56t-169.5 -21h-124v179h-108z" />
<glyph d="M-1072 1926q3 48 17.5 87.5t38 67t51.5 42t57 14.5q87 0 131 -83q12 24 28 40t33.5 25.5t35 13.5t35.5 4q23 0 46.5 -7t44 -24.5t35.5 -43.5q14 -27 23 -68q33 3 64.5 22t56.5 45.5t41 57t19 56.5h73q-9 -55 -34.5 -101t-62 -79t-81 -51t-88.5 -18h-50q-3 26 -8.5 51 t-16.5 44.5t-27 31.5q-15 11 -38 11q-21 0 -37.5 -11.5t-27.5 -30.5t-18 -44q-5 -25 -8 -52h-70q-3 26 -11.5 51.5t-20.5 44.5t-28 30.5t-33 11.5q-21 0 -38.5 -11.5t-28.5 -30.5t-17.5 -44t-6.5 -52h-79z" />
<glyph d="M-680 2064v73h181v152h80v-152h188v-73h-188v-156h-80v156h-181z" />
<glyph d="M-648 1926v263h79v-263h-79z" />
<glyph d="M-832 2064v73h181v152h80v-152h188v-73h-188v-156h-80v156h-181z" />
<glyph d="M-622 -190h191v-339h-83v260h-108v79z" />
<glyph d="M-931 -190h192v-130q0 -44 14 -75t39.5 -51.5t60.5 -29.5t79 -9q42 0 76.5 9t59.5 29.5t38 53t13 79.5v124h82v-124q0 -50 -14 -94.5t-45.5 -78t-83.5 -52.5t-126 -19q-64 0 -114.5 14.5t-85.5 44.5t-53.5 74.5t-18.5 104.5v54h-113v76z" />
<glyph d="M-613 -261q0 17 7 34t19.5 29.5t29.5 19.5t34.5 7t35 -7t29 -19.5t19 -28.5t7.5 -35t-7.5 -35t-19 -29.5t-28.5 -20.5q-18 -7 -36 -7q-19 0 -35 7t-28.5 20.5t-19.5 29.5t-7 35z" />
</font>
</defs>
</svg>
