<?xml version="1.0" standalone="no"?>
<!DOCTYPE svg PUBLIC "-//W3C//DTD SVG 1.1//EN" "http://www.w3.org/Graphics/SVG/1.1/DTD/svg11.dtd" >
<svg xmlns="http://www.w3.org/2000/svg" xmlns:xlink="http://www.w3.org/1999/xlink" version="1.1">
<metadata></metadata>
<defs>
<font id="db_heaventregular" horiz-adv-x="0" >
<font-face units-per-em="2048" ascent="1638" descent="-410" />
<missing-glyph horiz-adv-x="508" />
<glyph unicode="&#x2b;&#x2d;" horiz-adv-x="1216" d="M91 0v152h1033v-152h-1033zM91 651v159h440v443h158v-443h437v-159h-437v-441h-158v441h-440z" />
<glyph unicode="&#x2e;&#x2e;&#x2e;" horiz-adv-x="2026" d="M222 0v239h234v-239h-234zM894 0v239h236v-239h-236zM1570 0v239h236v-239h-236z" />
<glyph unicode="&#x3c;&#x3d;" horiz-adv-x="1201" d="M85 0v152h1045v-152h-1045zM85 736v146l1045 470v-159l-853 -386l853 -382v-156z" />
<glyph unicode="&#x3e;&#x3d;" horiz-adv-x="1227" d="M85 0v152h1045v-152h-1045zM85 269v156l851 382l-851 386v159l1045 -470v-146z" />
<glyph unicode="&#xe4f;&#x22;" horiz-adv-x="1480" d="M91 610q0 89 22.5 171.5t64.5 153.5t101.5 130t131.5 100t154.5 64.5t173.5 23.5q87 0 169 -23.5t153.5 -64.5t130 -100t99.5 -130t64 -153.5t23 -171.5t-23 -171.5t-64 -154t-99.5 -130t-130 -100t-153.5 -64t-169 -22.5q-91 0 -173.5 22.5t-154.5 64t-131.5 100 t-101.5 130t-64.5 154t-22.5 171.5zM257 616q0 -66 17.5 -127t48 -114.5t74.5 -98t97.5 -76t115.5 -49t129 -17.5q64 0 125.5 17.5t114 49t96 76t74.5 98t48.5 114.5t17.5 127t-17.5 126.5t-48.5 113t-74.5 96.5t-96 74.5t-114 48t-125.5 17.5q-67 0 -129 -17.5t-115.5 -48 t-97.5 -74.5t-74.5 -96.5t-48 -113t-17.5 -126.5zM394 616q0 69 28 130t74.5 107t109.5 74t133 28q68 0 129 -28t106 -74t72 -107t27 -130q0 -70 -27 -133t-72 -109t-106 -73t-129 -27q-70 0 -133 27t-109.5 73t-74.5 109t-28 133zM499 1764h177l-25 -335h-131zM540 616 q0 -41 15.5 -77.5t41.5 -62.5t62 -42t80 -16q39 0 73.5 16t60 42t40 62.5t14.5 77.5q0 40 -14.5 74t-40 60.5t-60 41.5t-73.5 15q-44 0 -80 -15t-62 -41.5t-41.5 -60.5t-15.5 -74zM804 1764h180l-20 -335h-135z" />
<glyph unicode="&#xe0e;&#xe3a;" horiz-adv-x="1309" d="M72 0v152h119v511q0 29 -3.5 58t-15 56t-30.5 51.5t-49 41.5q15 70 53.5 138.5t105 123t163 88t227.5 33.5q104 0 185 -20t141.5 -54t102.5 -82.5t68 -105.5t37 -120.5t11 -128.5v-1116h-200q-25 35 -58 62t-70.5 44.5t-81 25.5t-86.5 8q-50 0 -98 -10t-92.5 -29 t-82.5 -49.5t-68 -68.5v181q35 32 74.5 57t83.5 41t90.5 23t92.5 7q78 0 154 -23t142 -69v939q0 57 -17.5 113t-57 101.5t-105.5 73.5q-68 27 -165 30q-57 0 -103.5 -10t-83.5 -27.5t-65.5 -41t-47.5 -47t-30 -46.5t-13 -41q21 -12 37.5 -33t28.5 -48t18 -60q5 -34 5 -69 v-660h-316zM939 -613q0 29 11.5 55.5t31.5 46t46 30.5t58 11q29 0 55 -11t45.5 -30.5t31 -46t11.5 -55.5t-11.5 -56t-31 -47t-45.5 -31.5t-55 -11.5q-30 0 -57 11.5t-47 31.5t-31.5 47t-11.5 56z" />
<glyph unicode="&#xe0f;&#xe3a;" horiz-adv-x="1309" d="M72 0v152h119v511q0 29 -3.5 58t-15 56t-30.5 51.5t-49 41.5q15 70 53.5 138.5t105 123t163 88t227.5 33.5q104 0 185 -20t141.5 -54t102.5 -82.5t68 -105.5t37 -120.5t11 -128.5v-1116h-200q-4 21 -15 45.5t-30 45t-45.5 33.5t-61.5 13t-62.5 -13t-45 -33.5t-27 -43.5 t-9.5 -47h-160q0 15 -5.5 39.5t-20 46.5t-41 38t-67.5 16q-33 0 -56 -12t-37.5 -32.5t-22 -45.5t-7.5 -50h-181q0 76 23 131.5t61.5 92t91 55t111.5 18.5q78 0 133.5 -34.5t88.5 -101.5q17 32 40.5 57t51 39.5t57 21.5t53.5 7q38 0 66.5 -8.5t51.5 -21.5t39 -28t26 -28v939 q0 57 -17.5 113t-57 101.5t-105.5 73.5q-68 27 -165 30q-57 0 -103.5 -10t-83.5 -27.5t-65.5 -41t-47.5 -47t-30 -46.5t-13 -41q21 -12 37.5 -33t28.5 -48t18 -60q5 -34 5 -69v-660h-316zM939 -613q0 29 11.5 55.5t31.5 46t46 30.5t58 11q29 0 55 -11t45.5 -30.5t31 -46 t11.5 -55.5t-11.5 -56t-31 -47t-45.5 -31.5t-55 -11.5q-30 0 -57 11.5t-47 31.5t-31.5 47t-11.5 56z" />
<glyph unicode="&#xe0e;&#xe38;" horiz-adv-x="1309" d="M72 0v152h119v511q0 29 -3.5 58t-15 56t-30.5 51.5t-49 41.5q15 70 53.5 138.5t105 123t163 88t227.5 33.5q104 0 185 -20t141.5 -54t102.5 -82.5t68 -105.5t37 -120.5t11 -128.5v-1116h-200q-25 35 -58 62t-70.5 44.5t-81 25.5t-86.5 8q-50 0 -98 -10t-92.5 -29 t-82.5 -49.5t-68 -68.5v181q35 32 74.5 57t83.5 41t90.5 23t92.5 7q78 0 154 -23t142 -69v939q0 57 -17.5 113t-57 101.5t-105.5 73.5q-68 27 -165 30q-57 0 -103.5 -10t-83.5 -27.5t-65.5 -41t-47.5 -47t-30 -46.5t-13 -41q21 -12 37.5 -33t28.5 -48t18 -60q5 -34 5 -69 v-660h-316zM894 -482h296v-435h-188v289h-108v146z" />
<glyph unicode="&#xe0f;&#xe38;" horiz-adv-x="1309" d="M72 0v152h119v511q0 29 -3.5 58t-15 56t-30.5 51.5t-49 41.5q15 70 53.5 138.5t105 123t163 88t227.5 33.5q104 0 185 -20t141.5 -54t102.5 -82.5t68 -105.5t37 -120.5t11 -128.5v-1116h-200q-4 21 -15 45.5t-30 45t-45.5 33.5t-61.5 13t-62.5 -13t-45 -33.5t-27 -43.5 t-9.5 -47h-160q0 15 -5.5 39.5t-20 46.5t-41 38t-67.5 16q-33 0 -56 -12t-37.5 -32.5t-22 -45.5t-7.5 -50h-181q0 76 23 131.5t61.5 92t91 55t111.5 18.5q78 0 133.5 -34.5t88.5 -101.5q17 32 40.5 57t51 39.5t57 21.5t53.5 7q38 0 66.5 -8.5t51.5 -21.5t39 -28t26 -28v939 q0 57 -17.5 113t-57 101.5t-105.5 73.5q-68 27 -165 30q-57 0 -103.5 -10t-83.5 -27.5t-65.5 -41t-47.5 -47t-30 -46.5t-13 -41q21 -12 37.5 -33t28.5 -48t18 -60q5 -34 5 -69v-660h-316zM894 -482h296v-435h-188v289h-108v146z" />
<glyph unicode="&#xe0e;&#xe39;" horiz-adv-x="1309" d="M72 0v152h119v511q0 29 -3.5 58t-15 56t-30.5 51.5t-49 41.5q15 70 53.5 138.5t105 123t163 88t227.5 33.5q104 0 185 -20t141.5 -54t102.5 -82.5t68 -105.5t37 -120.5t11 -128.5v-1116h-200q-25 35 -58 62t-70.5 44.5t-81 25.5t-86.5 8q-50 0 -98 -10t-92.5 -29 t-82.5 -49.5t-68 -68.5v181q35 32 74.5 57t83.5 41t90.5 23t92.5 7q78 0 154 -23t142 -69v939q0 57 -17.5 113t-57 101.5t-105.5 73.5q-68 27 -165 30q-57 0 -103.5 -10t-83.5 -27.5t-65.5 -41t-47.5 -47t-30 -46.5t-13 -41q21 -12 37.5 -33t28.5 -48t18 -60q5 -34 5 -69 v-660h-316zM458 -482h298v-146q0 -70 30 -105t93 -35q123 0 123 140v146h188v-146q0 -58 -16 -111.5t-53.5 -93t-96.5 -62t-145 -22.5q-85 0 -144.5 20.5t-97.5 58.5t-55 92t-17 118h-107v146z" />
<glyph unicode="&#xe0f;&#xe39;" horiz-adv-x="1309" d="M72 0v152h119v511q0 29 -3.5 58t-15 56t-30.5 51.5t-49 41.5q15 70 53.5 138.5t105 123t163 88t227.5 33.5q104 0 185 -20t141.5 -54t102.5 -82.5t68 -105.5t37 -120.5t11 -128.5v-1116h-200q-4 21 -15 45.5t-30 45t-45.5 33.5t-61.5 13t-62.5 -13t-45 -33.5t-27 -43.5 t-9.5 -47h-160q0 15 -5.5 39.5t-20 46.5t-41 38t-67.5 16q-33 0 -56 -12t-37.5 -32.5t-22 -45.5t-7.5 -50h-181q0 76 23 131.5t61.5 92t91 55t111.5 18.5q78 0 133.5 -34.5t88.5 -101.5q17 32 40.5 57t51 39.5t57 21.5t53.5 7q38 0 66.5 -8.5t51.5 -21.5t39 -28t26 -28v939 q0 57 -17.5 113t-57 101.5t-105.5 73.5q-68 27 -165 30q-57 0 -103.5 -10t-83.5 -27.5t-65.5 -41t-47.5 -47t-30 -46.5t-13 -41q21 -12 37.5 -33t28.5 -48t18 -60q5 -34 5 -69v-660h-316zM458 -482h298v-146q0 -70 30 -105t93 -35q123 0 123 140v146h188v-146 q0 -58 -16 -111.5t-53.5 -93t-96.5 -62t-145 -22.5q-85 0 -144.5 20.5t-97.5 58.5t-55 92t-17 118h-107v146z" />
<glyph unicode=" "  horiz-adv-x="508" />
<glyph unicode="&#x09;" horiz-adv-x="508" />
<glyph unicode="&#xa0;" horiz-adv-x="508" />
<glyph unicode="!" horiz-adv-x="645" d="M204 0v234h235v-234h-235zM219 1026v402h209v-402l-44 -664h-121z" />
<glyph unicode="&#x22;" horiz-adv-x="864" d="M216 911v517h152v-517h-152zM499 911v517h152v-517h-152z" />
<glyph unicode="#" horiz-adv-x="1127" d="M63 418v150h217l40 293h-203v146h225l58 419h150l-59 -419h242l55 419h154l-57 -419h179v-146h-197l-42 -293h179v-150h-202l-57 -418h-155l58 418h-236l-59 -418h-153l57 418h-194zM431 568h242l39 293h-236z" />
<glyph unicode="$" horiz-adv-x="1127" d="M53 415h184q0 -65 23 -114.5t59.5 -85t85 -55.5t100.5 -23v511q-99 28 -176.5 61t-132 77.5t-83 105t-28.5 146.5q0 91 32.5 166t89.5 129.5t134 88.5q77 35 164 41v131h123v-131q82 -12 144.5 -41t109.5 -77.5t79 -117.5t49 -161h-184q-14 52 -31.5 91.5t-41 66 t-54 41.5t-71.5 21v-480l117 -32q26 -8 59.5 -21.5t70 -34t71 -48.5t61.5 -67t43 -88q17 -51 17 -112q0 -93 -32.5 -170.5t-91 -134.5t-139.5 -90t-176 -37v-167h-123v167q-102 9 -185 42.5t-143 89.5t-92 134t-32 178zM280 1058.5q0 -52.5 17.5 -87t47.5 -58.5t71 -40.5 t89 -30.5v447q-47 -6 -87.5 -22.5t-71.5 -44.5t-48.5 -69.5t-17.5 -94zM628 131q51 3 95.5 20t78 48.5t52.5 76.5t19 107q0 55 -18 93t-51 65t-77.5 45t-98.5 33v-488z" />
<glyph unicode="%" horiz-adv-x="2026" d="M182 1023q0 81 16.5 154t55 130t102.5 90q62 34 158 34t160.5 -32t102.5 -87.5t54 -128.5t16 -157q0 -78 -19 -150.5t-58.5 -128.5t-102.5 -90.5t-153 -34.5q-92 0 -155.5 31.5t-102 85.5t-56.5 127t-18 157zM345 1026.5q0 -29.5 1 -62.5t8.5 -63.5t18.5 -59.5t29 -51 t45 -35t64 -13q55 0 89 27.5t51.5 70t24 92t6.5 94.5q0 30 -2.5 61t-8 63.5t-16.5 61.5t-29.5 51t-46 35t-65.5 13q-35 0 -61.5 -13t-45.5 -35t-32 -51t-19.5 -61.5t-8.5 -63.5t-2 -60.5zM470 -29l902 1486h189l-900 -1486h-191zM1181 385.5q0 81.5 17 156t55.5 130 t102.5 89.5q63 33 159.5 33t161.5 -32t102 -87t53 -128.5t16 -155.5q0 -79 -19 -152t-58 -128.5t-102 -89t-154 -33.5t-155 31.5t-103 85.5t-57.5 126.5t-18.5 154zM1346 388q0 -27 1.5 -58.5t8 -62t18.5 -60t30 -51.5t44.5 -35t61.5 -13q55 0 89.5 28t52.5 68.5t25 91.5 q6 49 6 95q0 29 -2 61.5t-8.5 64t-17.5 59.5t-30 50t-45.5 35.5t-64.5 13.5q-36 0 -63 -13.5t-46 -35.5t-30.5 -51t-18.5 -60.5t-9 -64t-2 -62.5z" />
<glyph unicode="&#x26;" horiz-adv-x="1276" d="M69 371q0 87 27 151.5t72 115.5t107 92q61 41 131 80q-32 41 -63 80t-54 79t-37 84q-14 42 -14 95q0 58 19.5 112t59 95t99.5 65.5t137 26.5q69 3 132 -13t111 -50.5t77 -89.5q29 -53 29 -129q2 -58 -18 -113.5t-55 -105.5t-83 -93q-48 -41 -101 -76l269 -324 q12 23 19 50.5t11.5 54t7.5 50t4 37.5h165q-6 -58 -14 -102.5t-19 -81t-25.5 -69.5t-34.5 -66l282 -326h-227l-153 180q-38 -53 -84 -91t-98.5 -63.5t-110.5 -37.5q-59 -11 -117 -11q-100 0 -171.5 20.5t-121 55.5t-81 78t-48 87.5t-23 84t-6.5 68.5zM251 374 q0 -56 23.5 -101t61.5 -77t87.5 -50t102.5 -18q99 0 175 46t131 128l-333 397q-49 -29 -94.5 -59.5t-79 -68t-54 -85.5t-20.5 -112zM412 1142q0 -32 13 -64.5t33.5 -63t46 -62t50.5 -60.5q30 20 63 46t59.5 57t42.5 69q16 40 16 86q0 33 -11 60t-32 46.5t-52.5 30.5 t-74.5 11q-32 0 -61 -10t-49.5 -30t-32 -49t-11.5 -67z" />
<glyph unicode="'" horiz-adv-x="562" d="M204 911v517h152v-517h-152z" />
<glyph unicode="(" horiz-adv-x="525" d="M88 550q0 123 19.5 246.5t59.5 243t101 235.5q59 115 141 220h147q-73 -120 -125.5 -235t-85.5 -232t-49 -235t-16 -243t16 -243.5t49 -234.5t85 -232.5t126 -236.5h-147q-72 111 -131 223.5t-101.5 229t-65.5 240t-23 254.5z" />
<glyph unicode=")" horiz-adv-x="525" d="M-32 1495h146q76 -114 134.5 -228t100 -230.5t63.5 -240.5t22 -256q0 -121 -20 -243t-59.5 -241.5t-98.5 -234.5q-60 -113 -142 -218h-140q73 114 124 228t83 230.5t46.5 236.5t14.5 242q0 126 -14.5 245.5t-48 236.5t-85.5 234q-50 118 -126 239z" />
<glyph unicode="*" horiz-adv-x="711" d="M44 1174l38 111l214 -79v225h119v-225l213 79l38 -108l-210 -78l131 -185l-96 -66l-135 192l-128 -192l-105 66l131 185z" />
<glyph unicode="+" horiz-adv-x="1216" d="M91 470v158h440v442h158v-442h437v-158h-437v-444h-158v444h-440z" />
<glyph unicode="," horiz-adv-x="562" d="M161 0v239h239v-213q0 -60 -13 -114.5t-42.5 -101.5t-74.5 -80.5t-109 -50.5v127q35 9 58 32t38 51t20.5 58t5.5 53h-122z" />
<glyph unicode="-" horiz-adv-x="938" d="M96 461v174h748v-174h-748z" />
<glyph unicode="." horiz-adv-x="562" d="M161 0v239h239v-239h-239z" />
<glyph unicode="/" horiz-adv-x="675" d="M-41 -29l583 1488h165l-590 -1488h-158z" />
<glyph unicode="0" horiz-adv-x="1135" d="M83 715q0 82 5 168t22.5 168t50.5 154.5t87 127t132 86.5t188 32q108 0 187 -32t133 -86.5t86.5 -127t50 -154.5t23.5 -168q5 -86 5 -168q0 -81 -5.5 -167.5t-23 -168t-50 -154.5t-86.5 -128t-133 -86t-187 -31q-82 0 -146 17.5t-114 51t-85.5 78t-60.5 97.5t-41 114.5 t-24 124.5t-11 127t-3 125zM277 715q0 -52 2.5 -115t10.5 -125.5t26 -122.5t50.5 -105.5t82 -73t119.5 -27.5t119.5 27.5t82 73t50.5 105.5t26 122.5t10 125.5t2 115q0 53 -2 115t-10 125.5t-26 122t-50.5 104.5t-81.5 73t-120 27q-70 0 -119.5 -27t-82 -73t-50.5 -104.5 t-26 -122t-10.5 -125.5t-2.5 -115z" />
<glyph unicode="1" horiz-adv-x="1135" d="M169 978v167q78 4 144.5 15t118 40t87.5 81.5t53 144.5h158v-1426h-181v1064q-35 -24 -76 -40.5t-87.5 -26.5t-100.5 -14.5t-116 -4.5z" />
<glyph unicode="2" horiz-adv-x="1135" d="M67 0q6 82 25 149t48 122.5t68.5 102t83.5 86t92 74.5t98 68q61 40 111.5 74.5t89 66t66.5 63t45.5 64t26 70.5t8.5 85q0 58 -20.5 105t-55.5 79t-83 49.5t-104 17.5q-73 0 -126 -30t-87.5 -80.5t-49.5 -113.5q-14 -64 -11 -131h-190q-9 111 21 206.5t92 166t154 110.5 t206 40q94 0 177 -28.5t144.5 -82t98 -131.5t36.5 -180q0 -66 -16 -121.5t-41.5 -103t-61 -86.5t-75.5 -73t-82.5 -63t-81.5 -52q-61 -38 -123 -77.5t-116 -83.5t-92 -92t-53 -104h730v-166h-952z" />
<glyph unicode="3" horiz-adv-x="1135" d="M64 445h192q0 -68 19.5 -126t56 -99.5t89.5 -64.5q55 -24 125 -24q67 0 122.5 19t95 54t61.5 85t22 114q0 67 -22 116.5t-61.5 83.5t-93.5 50.5t-118 16.5q-23 0 -43.5 -1.5t-39.5 -2.5v153h60q52 0 99 14.5t83.5 43t58 71t21.5 99.5t-19 100.5t-51.5 73t-78.5 44 t-99 14.5q-69 0 -117.5 -26.5t-79.5 -70t-45.5 -102t-14.5 -119.5h-193q3 105 34 192.5t87 152.5t138.5 101.5t190.5 36.5q95 0 176 -25t139.5 -74.5t92 -124.5t33.5 -176q0 -47 -13 -90t-38 -79.5t-58.5 -65.5t-74.5 -53q63 -14 109 -46.5t76.5 -77.5t45 -102t14.5 -124 q0 -69 -17.5 -128t-48 -107t-73 -86t-91.5 -65q-28 -14 -60 -23t-66.5 -14.5t-71 -7t-71.5 -1.5q-109 0 -199 30.5t-153 90.5t-96.5 148t-33.5 202z" />
<glyph unicode="4" horiz-adv-x="1135" d="M67 326v176l657 939h156v-948h195v-167h-195v-326h-182v326h-631zM242 493h456v643z" />
<glyph unicode="5" horiz-adv-x="1135" d="M82 403h190q5 -56 27 -103t58.5 -81.5t87.5 -55t116 -20.5q61 0 115 21t94 63t63 104.5t23 147.5q0 70 -22 128.5t-63.5 100.5t-99.5 66.5t-128 24.5q-87 0 -150 -34.5t-107 -95.5l-168 1l127 758h724v-165h-581l-61 -393q57 50 122 70.5t135 20.5q99 0 185.5 -31.5 t149 -93.5t99.5 -155q36 -91 36 -217q0 -61 -14 -121.5t-42.5 -114t-70.5 -98.5t-98.5 -78t-127 -51.5t-155.5 -18.5q-93 0 -176.5 27t-146 80.5t-100.5 132.5t-41 181z" />
<glyph unicode="6" horiz-adv-x="1135" d="M76 673q0 99 10 196.5t34.5 183.5t63.5 159t98.5 125.5t138 83t183.5 30.5q85 0 158 -24.5t128.5 -73.5t90.5 -120t44 -163h-185q-6 50 -29 89.5t-56.5 66.5t-75.5 41.5t-86 14.5q-69 0 -119.5 -22.5t-87 -61.5t-58 -90.5t-35.5 -109.5t-20.5 -117.5t-8.5 -115.5 q29 41 68 73t83.5 54t95 34.5t104.5 12.5q106 0 189.5 -37.5t140.5 -101t86 -149.5q29 -85 29 -184q0 -55 -10 -112t-33.5 -112.5t-60 -103.5t-90.5 -84.5t-125.5 -57t-165.5 -20.5q-108 0 -186.5 30.5t-134 82.5t-91 121t-54 146.5t-26 158.5t-7.5 157zM292 456 q0 -68 19 -126t57 -100t93 -66q53 -24 123 -24q67 0 121 25t90 67t55 99t19 120q0 67 -17.5 125t-53.5 101.5t-89 68.5t-125 25q-70 0 -125 -25t-92 -67t-56 -100.5t-19 -122.5z" />
<glyph unicode="7" horiz-adv-x="1135" d="M99 1250v176h943v-156q-75 -76 -145.5 -165t-131 -188t-111 -207t-85.5 -224.5t-54.5 -238t-19.5 -247.5h-209q0 155 39.5 315.5t112 320.5t172.5 314.5t222 299.5h-733z" />
<glyph unicode="8" horiz-adv-x="1135" d="M72 418q0 131 63.5 223t179.5 136q-43 20 -75.5 52t-55.5 71.5t-35 85t-12 91.5q0 90 34.5 159t92 116.5t133.5 73t161 25.5q117 0 200 -33.5t135.5 -86t76 -119.5t23.5 -135q0 -97 -46 -174t-132 -123q57 -24 103.5 -59t79.5 -80t51 -100.5t18 -122.5q0 -107 -40 -189.5 t-107 -138t-156 -84.5t-189 -29q-105 0 -196 27.5t-160 83t-108 139t-39 191.5zM266 412q0 -65 23 -115t65.5 -84.5t99 -53.5t121.5 -19q64 0 118.5 20.5t93.5 57t61 86.5q22 49 22 111q0 58 -24 107.5t-65.5 84.5t-95.5 55t-113 20q-61 0 -116.5 -17.5t-98 -52t-67 -85 t-24.5 -115.5zM328 1067q0 -55 20 -96.5t53.5 -69.5t79 -42.5t95 -14.5t90.5 14.5t70 43.5t46 71t17 94q0 51 -17 91.5t-46 67.5t-71.5 41.5t-95.5 14.5q-46 0 -90 -13t-77.5 -41t-53.5 -68t-20 -93z" />
<glyph unicode="9" horiz-adv-x="1135" d="M64 961q0 55 10.5 112t33.5 111t59.5 102t90.5 84.5t126 58.5t165 22q108 0 187 -30.5t134.5 -83t90.5 -122t54 -147.5t26 -158.5t7 -156.5q0 -99 -10 -195.5t-34 -183t-63.5 -159.5t-98.5 -126.5t-138 -82.5t-184 -29q-85 0 -158 24.5t-128.5 73t-90.5 119t-44 162.5 h186q6 -49 28.5 -88.5t56 -67.5t76 -42.5t85.5 -14.5q69 0 119.5 23.5t87 63t58.5 90.5t35.5 108t20 116.5t8.5 115.5q-29 -41 -68 -72.5t-83.5 -54t-94.5 -34t-104 -11.5q-107 0 -190 36.5t-140 100.5t-86.5 150t-29.5 186zM256 975q0 -67 17.5 -125.5t53 -101.5t89 -68.5 t124.5 -25.5q70 0 125 25t92 68t56 100.5t19 125t-19 124t-57 99t-92 65.5q-54 24 -124 24q-67 0 -121 -24t-90 -66.5t-54.5 -98.5t-18.5 -121z" />
<glyph unicode=":" horiz-adv-x="562" d="M161 0v239h239v-239h-239zM161 822v239h239v-239h-239z" />
<glyph unicode=";" horiz-adv-x="562" d="M161 0v239h239v-213q0 -60 -13 -114.5t-42.5 -101.5t-74.5 -80.5t-109 -50.5v127q35 9 58 32t38 51t20.5 58t5.5 53h-122zM161 822v239h239v-239h-239z" />
<glyph unicode="&#x3c;" horiz-adv-x="1216" d="M85 482v146l1045 470v-159l-853 -386l853 -384v-154z" />
<glyph unicode="=" horiz-adv-x="1216" d="M91 269v153h1033v-153h-1033zM91 676v153h1033v-153h-1033z" />
<glyph unicode="&#x3e;" horiz-adv-x="1216" d="M85 15v154l851 384l-851 386v159l1045 -470v-146z" />
<glyph unicode="?" horiz-adv-x="1127" d="M111 967q-3 108 27.5 200t90.5 157.5t145.5 102t190.5 36.5q96 0 176 -28t136.5 -79.5t89 -127t32.5 -170.5q0 -62 -22 -114.5t-54 -95t-70 -77t-68 -60.5q-32 -29 -56 -58.5t-41.5 -62t-27 -72t-9.5 -92.5v-96h-184v114q3 60 17.5 110t39.5 91t55.5 74.5t62.5 63.5 q27 23 57 52t55.5 65.5t40 80.5t12.5 95q-4 53 -20 95t-46 72t-73 46t-103 16q-73 0 -123.5 -24.5t-82.5 -70t-46.5 -107t-14.5 -136.5h-187zM437 0v234h236v-234h-236z" />
<glyph unicode="@" horiz-adv-x="1620" d="M77 720q0 103 27 198t77.5 178.5t120 150.5t154 115t181 74.5t201.5 26.5q93 0 181.5 -21t166 -60t141 -93.5t110 -123.5t71.5 -150t25 -170q0 -84 -22 -161t-59 -142t-86 -116.5t-103 -87.5t-109.5 -55.5t-103.5 -19.5q-27 0 -47 8t-34 24.5t-22 44.5t-8 69 q-24 -24 -52.5 -51.5t-65 -49.5t-81 -36.5t-95.5 -14.5q-58 0 -108.5 27.5t-87.5 74.5t-59 108.5t-22 128.5q0 70 16 138t45 129t71.5 113.5t96.5 91.5t118.5 60.5t137.5 21.5q35 0 68.5 -10t64 -30.5t55.5 -52t41 -74.5l36 128h143l-172 -577q-3 -8 -8.5 -22t-10 -31 t-6 -33t1.5 -30.5t11.5 -22.5t26.5 -8q29 0 61 18t64 51t60 76t49 93t34 103q12 52 12 104q0 79 -20.5 147.5t-58.5 125.5t-89 101t-111 73t-128 45q-66 16 -136 16q-88 0 -166.5 -23t-146.5 -64t-123 -99t-94 -128.5t-59.5 -151t-20.5 -167.5q0 -88 21.5 -167t62 -147.5 t96.5 -125.5t125.5 -96.5t148.5 -60.5q80 -22 165 -22q144 0 263 52.5t204 152.5h146q-47 -75 -112 -134.5t-143.5 -101.5t-170 -64t-190.5 -22q-108 0 -207.5 26t-184 73t-154.5 115t-120 151t-77 180t-27 204zM534 590q0 -40 12 -73.5t34 -57.5t53 -39q33 -14 71 -14 q41 0 80 19.5t73 52.5t61.5 75.5t47.5 89t30.5 93.5t10.5 86q0 35 -13 68t-34 57.5t-49 40t-58 15.5q-49 0 -91 -18t-77 -50.5t-63 -73t-47.5 -86.5t-30 -93.5t-10.5 -91.5z" />
<glyph unicode="A" horiz-adv-x="1327" d="M-9 0l558 1428h228l557 -1428h-213l-157 412h-602l-158 -412h-213zM423 578h479l-238 638z" />
<glyph unicode="B" horiz-adv-x="1388" d="M166 0v1428h529q64 0 127 -6.5t120 -22.5t106.5 -43t85 -69.5t57 -101t21.5 -137.5q0 -46 -14 -92t-41 -86.5t-66.5 -72.5t-93.5 -51q82 -20 137.5 -53t90.5 -76t50.5 -96.5t15.5 -116.5q0 -80 -25 -153t-82 -128.5t-150.5 -89t-231.5 -33.5h-636zM369 169h414 q70 0 127 15t96 44t59.5 73t20.5 103q0 119 -90.5 177t-265.5 58h-361v-470zM369 804h330q97 0 157.5 22t95 56.5t46.5 78t12 87.5q0 57 -18 96.5t-55.5 63.5t-94.5 35t-135 11h-338v-450z" />
<glyph unicode="C" horiz-adv-x="1464" d="M93 707q0 99 20 194.5t58 179.5t95 154t132 120.5t168.5 79t204.5 28.5q89 0 167 -22t142.5 -58.5t114 -86t83 -106.5t52 -120t18.5 -122h-209q0 38 -11 78t-33.5 78t-55 72t-73 59.5t-90.5 41t-108 15.5q-83 0 -149.5 -22t-119 -60.5t-90.5 -92.5t-63 -117t-36.5 -133.5 t-11.5 -143.5q0 -120 29 -226t89 -186t149 -127t206 -47q82 0 150.5 32t118 86.5t80 123t35.5 144.5h200q0 -63 -18.5 -128t-53.5 -126.5t-86 -115.5t-115 -94.5t-141 -64t-161 -23.5q-170 0 -298.5 55.5t-214.5 154.5t-130 233.5t-44 292.5z" />
<glyph unicode="D" horiz-adv-x="1429" d="M166 0v1428h481q168 0 296.5 -42.5t214.5 -127t130 -211.5t44 -298q0 -180 -38 -320t-121.5 -235t-215 -144.5t-315.5 -49.5h-476zM369 169h270q24 0 59 1.5t73.5 9t80.5 22t82.5 42.5t75.5 69.5t63 102t44 143t16 190.5q0 126 -25.5 220t-81 157.5t-142.5 95.5t-212 32 h-303v-1085z" />
<glyph unicode="E" horiz-adv-x="1238" d="M158 0v1428h1001v-174h-797v-428h713v-172h-713v-485h800v-169h-1004z" />
<glyph unicode="F" horiz-adv-x="1162" d="M158 0v1428h944v-174h-740v-428h637v-172h-637v-654h-204z" />
<glyph unicode="G" horiz-adv-x="1524" d="M93 707q0 99 20.5 194.5t59.5 179.5t96.5 154t133.5 120.5t170 78.5q96 29 207 29q89 0 167.5 -20.5t145 -57t119 -84t89 -103t56.5 -114.5t20 -117h-209q0 35 -13 72t-37 73t-60 68.5t-79 57.5t-95 39.5t-107 14.5q-83 0 -151 -22t-121.5 -60.5t-92 -92.5t-65 -117 t-38 -133.5t-11.5 -143.5q0 -120 29 -226t89 -186t148.5 -127t206.5 -47q55 0 106.5 17.5t95 47t79.5 71t61.5 91t40 106t14.5 114.5h-388v174h589v-758h-113l-62 199q-20 -30 -55 -69t-86 -74.5t-120 -60t-153 -24.5q-170 0 -298.5 55.5t-214.5 154.5t-130 233.5t-44 292.5 z" />
<glyph unicode="H" horiz-adv-x="1464" d="M158 0v1428h204v-602h742v602h203v-1428h-203v654h-742v-654h-204z" />
<glyph unicode="I" horiz-adv-x="562" d="M177 0v1428h208v-1428h-208z" />
<glyph unicode="J" horiz-adv-x="1052" d="M50 391v53h208v-50q0 -64 15.5 -111.5t43.5 -80.5t67 -49t89 -16q56 0 96.5 17.5t67.5 50t40.5 79t13.5 101.5v1043h203v-1043q0 -54 -9 -105.5t-28 -97.5t-52 -85t-80.5 -66.5t-111.5 -43.5t-146 -16q-98 0 -176 24.5t-131 76.5t-81.5 131.5t-28.5 187.5z" />
<glyph unicode="K" horiz-adv-x="1350" d="M158 0v1428h204v-685l718 685h260l-592 -551l616 -877h-260l-500 745l-242 -228v-517h-204z" />
<glyph unicode="L" horiz-adv-x="1086" d="M158 0v1428h204v-1259h702v-169h-906z" />
<glyph unicode="M" horiz-adv-x="1757" d="M158 0v1428h254l467 -1171l467 1171h253v-1428h-203v1127l-450 -1127h-136l-448 1127v-1127h-204z" />
<glyph unicode="N" horiz-adv-x="1470" d="M158 0v1428h219l733 -1162v1162h203v-1428h-230l-721 1152v-1152h-204z" />
<glyph unicode="O" horiz-adv-x="1543" d="M85 712q0 98 19 192.5t58 177.5t96 153t133 120.5t171 79t206 28.5q114 0 209 -28.5t171.5 -79t134 -120.5t97 -153t58.5 -176.5t19 -193.5q0 -97 -19 -190t-58.5 -175.5t-97 -151.5t-134 -119t-171.5 -77.5t-209 -27.5q-112 0 -206.5 27.5t-170.5 77.5t-133 119 t-96 151.5t-58 175.5t-19 190zM289 712q0 -70 11.5 -140t36.5 -134t64.5 -119t92 -95t121 -63.5t153.5 -23.5q86 0 156 23.5t124 63.5t93 95t64.5 119t38 134t12.5 140q0 71 -12.5 142.5t-38 135.5t-64.5 119.5t-93 96.5t-123 63.5t-157 22.5q-85 0 -153.5 -22.5t-121 -63.5 t-92 -96.5t-64.5 -119.5t-36.5 -135.5t-11.5 -142.5z" />
<glyph unicode="P" horiz-adv-x="1315" d="M158 0v1428h627q113 0 197 -32t141 -88.5t84.5 -134.5t27.5 -170t-27.5 -169.5t-84.5 -134.5t-140.5 -87.5t-197.5 -30.5h-423v-581h-204zM362 752h374h16q72 0 122 16q56 18 92 52t52 80t16 103q0 55 -16 101t-52.5 80t-93.5 52q-54 18 -136 18h-374v-502z" />
<glyph unicode="Q" horiz-adv-x="1543" d="M85 712q0 98 19 192.5t58 177.5t96 153t133 120.5t171 79t206 28.5q114 0 209 -28.5t171.5 -79t134 -120.5t97 -153t58.5 -176.5t19 -193.5q0 -90 -16 -176t-49.5 -165t-84 -146t-116.5 -117l211 -245h-240l-133 153q-58 -22 -123 -33.5t-138 -11.5q-112 0 -206.5 27.5 t-170.5 77.5t-133 119t-96 151.5t-58 175.5t-19 190zM289 712q0 -70 11.5 -140t36.5 -134t64.5 -119t92 -95t121 -63.5t153.5 -23.5q79 0 140 19l-216 253h239l142 -164q47 41 81 94.5t57 114t34 126.5q11 65 11 132q0 71 -12.5 142.5t-38 135.5t-64.5 119.5t-93 96.5 t-123 63.5t-157 22.5q-85 0 -153.5 -22.5t-121 -63.5t-92 -96.5t-64.5 -119.5t-36 -135q-12 -72 -12 -143z" />
<glyph unicode="R" horiz-adv-x="1389" d="M158 0v1428h677q105 0 187.5 -26.5t140.5 -74.5t87 -118t29 -159q0 -64 -18.5 -123.5t-54 -109t-86.5 -85.5t-117 -53q42 -16 73 -45.5t51.5 -62t32.5 -65.5q14 -33 20 -56l58 -213q12 -38 20.5 -71t20.5 -61.5t26 -54.5q15 -27 35 -50h-222q-10 12 -19.5 35t-19 51 t-19 58.5t-18.5 62.5l-61 213q-12 38 -26.5 71t-42 58.5t-71.5 40t-112 14.5h-367v-604h-204zM362 771h386q64 0 123 11.5t105 41t73.5 77.5t27.5 122q0 52 -15 94t-46.5 73t-79.5 47.5t-114 16.5h-460v-483z" />
<glyph unicode="S" horiz-adv-x="1315" d="M77 488h192q0 -91 33.5 -157.5t89 -109.5t130 -63.5t157.5 -20.5q44 0 87 4.5t82.5 16t74.5 30t59.5 47t39.5 66.5t15 87q0 66 -28 107.5t-79 68t-122 44t-154 36.5q-61 14 -124 29.5t-121.5 36.5t-108 49.5t-86.5 67.5t-58.5 91.5t-21.5 122.5q0 73 20.5 132t56.5 106 t85.5 82t108 57t123.5 33.5t132 11.5q111 0 206 -29t163.5 -89t109.5 -149t47 -208h-195q-16 155 -103.5 229.5t-236.5 74.5q-58 0 -114.5 -11.5t-101 -39.5t-71.5 -73t-27 -112q0 -56 30 -94.5t81 -65.5t118.5 -45.5t141.5 -32.5q64 -14 128.5 -28.5t123.5 -35t110 -49 t87.5 -71.5t58.5 -101q22 -60 22 -139q0 -77 -23.5 -138.5t-63.5 -109t-94.5 -81t-117.5 -54t-131 -30.5t-135 -10q-123 0 -231.5 30t-189.5 93.5t-128 160.5q-47 98 -47 233z" />
<glyph unicode="T" horiz-adv-x="1121" d="M6 1254v174h1109v-174h-455v-1254h-204v1254h-450z" />
<glyph unicode="U" horiz-adv-x="1483" d="M158 517v911h204v-911q0 -97 26.5 -167t76 -117.5t119.5 -71.5t156 -24t156.5 24t120.5 71.5t77 118.5q27 69 27 166v911h205v-911q0 -143 -42.5 -245.5t-120 -169.5t-185.5 -99t-238 -32q-131 0 -237.5 32t-183.5 99t-119 170q-42 102 -42 245z" />
<glyph unicode="V" horiz-adv-x="1238" d="M-3 1428h222l406 -1209l406 1209h216l-514 -1428h-228z" />
<glyph unicode="W" horiz-adv-x="1877" d="M23 1428h211l292 -1151l303 1151h208l303 -1151l292 1151h209l-381 -1428h-209l-318 1162l-320 -1162h-207z" />
<glyph unicode="X" horiz-adv-x="1238" d="M-6 0l499 733l-473 695h246l353 -551l368 551h222l-478 -695l509 -733h-244l-380 575l-391 -575h-231z" />
<glyph unicode="Y" horiz-adv-x="1303" d="M0 1428h235l416 -689l418 689h236l-549 -844l-1 -584h-206v584z" />
<glyph unicode="Z" horiz-adv-x="1238" d="M41 0v159l886 1095h-813v174h1058v-164l-876 -1095h895v-169h-1150z" />
<glyph unicode="[" horiz-adv-x="531" d="M137 -397v1892h394v-149h-214v-1594h214v-149h-394z" />
<glyph unicode="\" horiz-adv-x="675" d="M-31 1457h159l593 -1486h-165z" />
<glyph unicode="]" horiz-adv-x="531" d="M0 -248h216v1594h-216v149h388v-1892h-388v149z" />
<glyph unicode="^" horiz-adv-x="1216" d="M82 537l455 891h139h-1l455 -891h-161l-362 720l-363 -720h-162z" />
<glyph unicode="_" horiz-adv-x="1024" d="M0 -137h1025v-117h-1025v117z" />
<glyph unicode="`" horiz-adv-x="448" d="M-41 1470h234l181 -302h-143z" />
<glyph unicode="a" horiz-adv-x="1087" d="M72 280q0 78 25.5 135.5t67 98.5t96 67t114.5 42t121 23q60 6 114 8q18 0 34 1q33 0 60 -2q41 -2 64 -2v88q0 39 -11.5 67.5t-30.5 49t-44 33.5t-52 20.5t-54 9.5t-47 2q-47 0 -90 -8t-77 -28.5t-55 -54.5q-21 -33 -27 -85h-187q8 93 46.5 158t100 105t139.5 59t164 19 q44 0 91.5 -5t93.5 -19t87 -37t71.5 -61t49.5 -93.5t19 -128.5v-526q0 -28 3 -59t9.5 -60.5t14.5 -54t17 -42.5h-196q-10 29 -15 61t-8 79q-31 -41 -70.5 -71.5t-86 -51t-98 -30.5t-103.5 -10q-73 0 -136.5 17.5t-111 55.5t-75 94.5t-27.5 135.5zM263 286q0 -41 16 -68.5 t43.5 -45t63.5 -25t75 -7.5q84 0 141.5 23.5t94.5 57t54 74.5t17 76v143q-29 2 -78 4q-12 0 -25 1q-38 1 -80 -3q-56 -4 -113 -17.5t-104 -40t-76 -67.5q-29 -44 -29 -105z" />
<glyph unicode="b" horiz-adv-x="1201" d="M128 0v1460h186v-534q54 81 138 120q82 39 187 39q81 0 149 -21.5t122 -59t94.5 -89t68.5 -114t41 -131t13 -141.5q0 -114 -30.5 -215t-90.5 -177t-150.5 -119t-210.5 -43q-38 0 -82.5 6.5t-89 24t-86.5 47t-73 75.5v-128h-186zM305 531q0 -75 17 -145.5t55.5 -125 t100.5 -87.5t150 -33q86 0 143.5 34.5t92.5 90.5t50.5 127.5t15.5 147.5q0 70 -17.5 139t-55.5 123t-97 86.5t-144 32.5t-144.5 -34t-96 -89.5t-53.5 -125.5t-17 -141z" />
<glyph unicode="c" horiz-adv-x="1087" d="M72 517q0 117 29.5 221t91 181t155 122t220.5 45q96 0 180 -24.5t144.5 -71.5t95 -117t34.5 -161h-187q0 33 -16 69.5t-46.5 67.5t-78.5 52q-46 20 -110 20q-92 0 -154 -33.5t-98.5 -89.5t-52.5 -129t-16 -152q0 -48 7 -94t22.5 -88.5t39.5 -77.5t57 -61.5t76 -41 t97 -14.5q69 0 120 17.5t86 48.5t52.5 71.5t20.5 87.5h190q-9 -91 -44 -162.5t-95 -122.5t-143 -77t-187 -26q-123 0 -214 40t-152.5 112t-92.5 171.5t-31 216.5z" />
<glyph unicode="d" horiz-adv-x="1198" d="M72 529q0 73 13.5 142t40.5 131t68 114t95 89t121 59q66 22 148 22q105 0 189 -39.5t138 -119.5v533h185v-1460h-185v128q-32 -45 -73 -74t-86.5 -46.5t-90.5 -24t-83 -6.5q-120 0 -209.5 43t-150.5 118t-90.5 176t-29.5 215zM269 540q0 -51 5.5 -100t20.5 -93.5 t38 -81.5t56.5 -65t79 -44t102.5 -16q87 0 149.5 33t100 87.5t55.5 125t18 145.5q0 71 -16.5 141t-54.5 125.5t-96 89.5t-144 34q-85 0 -144 -32.5t-97 -86.5t-55.5 -123t-17.5 -139z" />
<glyph unicode="e" horiz-adv-x="1087" d="M72 534q0 120 35.5 221t101 174t156.5 115t200 42q96 0 168.5 -27.5t126.5 -75t90.5 -109t57 -129.5t28.5 -138q8 -63 8 -118v-13h-781q0 -69 19 -129.5t59 -106.5t100.5 -73t142.5 -27q50 0 92 13t75.5 38t58.5 58.5t38 77.5h181q-14 -79 -54.5 -144t-98.5 -111 t-134 -70.5t-164 -24.5q-127 0 -222.5 40.5t-158.5 115t-94 177.5q-31 102 -31 224zM263 628h587q-3 61 -26.5 115t-63 93.5t-91 62t-113.5 22.5q-64 0 -117.5 -22.5t-91 -63.5t-59.5 -93.5t-25 -113.5z" />
<glyph unicode="f" horiz-adv-x="654" d="M23 894v167h174v127q0 65 17 116.5t52 87.5t88 55.5t125 19.5q13 0 34 -1.5t44 -5t45 -9.5q21 -6 37 -17v-158q-14 7 -31.5 12.5t-35 8t-34.5 4.5q-15 1 -30 1q-67 0 -96 -29t-29 -92v-120h233v-167h-233v-894h-186v894h-174z" />
<glyph unicode="g" horiz-adv-x="1165" d="M72 526q0 65 10.5 132.5t35 129.5t63 116t93 95t127 64t164.5 23q39 0 82.5 -11.5t85 -32t78 -51t61.5 -70.5v140h165v-965q0 -134 -36.5 -233.5t-101.5 -163.5t-156.5 -95.5t-199.5 -31.5q-47 0 -97 9t-97.5 27t-90 44.5t-74.5 62t-51 81.5q-19 43 -22 99h185 q3 -47 28.5 -79t64.5 -52.5t83.5 -29t86.5 -8.5q75 0 132 27.5t95.5 79.5t58 125.5t19.5 164.5v55q-23 -44 -56.5 -76.5t-73 -55.5t-85 -34.5t-94.5 -11.5q-117 0 -207.5 41.5t-152 113t-92.5 167.5t-31 204zM263 543q0 -47 7 -92t22.5 -88t39.5 -79.5t57.5 -63.5t77 -43 t98.5 -16q85 0 144 35t95.5 90.5t52.5 125.5t16 140q0 67 -17.5 133.5t-54 118.5t-93.5 84.5t-136 32.5q-84 0 -142.5 -30.5t-96 -82.5t-54 -120.5t-16.5 -144.5z" />
<glyph unicode="h" horiz-adv-x="1130" d="M128 0v1460h186v-543q23 38 62 68.5t83.5 52.5t92 35t87.5 13q107 0 177 -29t111.5 -81.5t58 -124t16.5 -155.5v-696h-186v715q0 97 -52 151.5t-151 54.5q-76 0 -131.5 -25.5t-93.5 -68.5t-56 -101q-18 -57 -18 -124v-602h-186z" />
<glyph unicode="i" horiz-adv-x="465" d="M140 1235v225h186v-225h-186zM143 0v1061h187v-1061h-187z" />
<glyph unicode="j" horiz-adv-x="465" d="M-23 -234q20 -3 36 -3h38q26 0 43.5 7.5t28.5 23t15.5 42.5t4.5 65v1160h185v-1187q0 -71 -18 -123t-51.5 -84.5t-82 -48t-107.5 -15.5q-27 0 -49.5 1.5t-42.5 4.5v157zM143 1235v225h185v-225h-185z" />
<glyph unicode="k" horiz-adv-x="1062" d="M128 0v1460h183v-850l469 451h242l-415 -384l453 -677h-220l-364 555l-165 -152v-403h-183z" />
<glyph unicode="l" horiz-adv-x="462" d="M140 0v1460h183v-1460h-183z" />
<glyph unicode="m" horiz-adv-x="1727" d="M128 0v1061h177v-153q59 91 140 134.5t192 43.5q46 0 90 -12.5t82 -36.5t67 -59t47 -82q58 94 140 142t184 48q82 0 146 -22t111 -64t71.5 -105t24.5 -145v-750h-182v672q0 46 -7.5 93t-28.5 82.5t-60 58.5q-37 23 -101 23q-62 0 -111.5 -23.5t-83 -63t-51.5 -92.5 q-17 -52 -17 -113v-637h-187v672q0 48 -6.5 94t-26.5 82.5t-56.5 58.5t-94.5 22q-51 0 -91 -16.5t-71 -42.5t-51.5 -58t-33.5 -64.5t-19.5 -61.5t-6.5 -49v-637h-186z" />
<glyph unicode="n" horiz-adv-x="1130" d="M128 0v1061h177l2 -173q52 92 135.5 145t196.5 53q107 0 177 -32t111.5 -86t58 -128.5t16.5 -157.5v-682h-183v701q0 48 -12.5 89.5t-38.5 72.5t-64 48.5t-91 17.5q-70 0 -125.5 -29.5t-93.5 -76t-59 -108.5q-21 -61 -21 -128v-587h-186z" />
<glyph unicode="o" horiz-adv-x="1162" d="M72 529q0 116 29.5 220t93 179.5t160.5 119.5q98 44 229 44t227 -44t159.5 -119.5t93.5 -178.5q31 -105 31 -221t-30.5 -217.5t-94 -178t-160.5 -121.5q-95 -44 -226 -44t-228.5 44.5t-161 121t-93 178t-29.5 217.5zM263 529q0 -97 22.5 -170.5t64 -124t101.5 -77 t133 -26.5q70 0 127 26.5t99.5 77t65.5 124t23 170.5q0 93 -23 167.5t-65.5 127t-100.5 80.5q-56 27 -126 27q-73 0 -133 -27.5t-101.5 -80t-64 -127t-22.5 -167.5z" />
<glyph unicode="p" horiz-adv-x="1201" d="M128 -397v1458h179v-138q24 39 60 69t80 51t92 32t100 11q81 0 149 -22t122 -59t94.5 -89t68.5 -114t41 -131t13 -142q0 -114 -30.5 -215t-90.5 -176t-150.5 -118t-210.5 -43q-38 0 -82.5 6.5t-89 24t-86.5 46.5t-73 74v-525h-186zM305 531q0 -75 17 -145.5t55.5 -125 t100.5 -87.5t150 -33q86 0 143.5 34.5t92.5 90.5t50.5 127.5t15.5 147.5q0 70 -17.5 139t-55.5 123t-97 86.5t-144 32.5t-144.5 -34t-96 -89.5t-53.5 -125.5t-17 -141z" />
<glyph unicode="q" horiz-adv-x="1195" d="M72 534q0 113 29.5 213t89.5 176t149 119.5t210 43.5q44 0 91 -7t91.5 -25.5t86 -50t73.5 -80.5v138h175v-1458h-182l-3 525q-25 -35 -60 -64t-77.5 -48t-90 -29t-98.5 -10q-82 0 -149.5 20.5t-121.5 57t-93.5 87.5t-66.5 113.5t-40 132.5t-13 146zM263 520 q0 -72 19 -140t57 -121t97.5 -86t144.5 -33q58 0 103 16t79 43t59 64.5t40 80.5t22 90.5t7 94.5q0 51 -7.5 99.5t-23.5 92.5t-42.5 80.5t-61.5 63t-81.5 41.5t-103.5 15q-86 0 -145.5 -33.5t-95 -89.5t-51.5 -128.5t-16 -149.5z" />
<glyph unicode="r" horiz-adv-x="692" d="M128 0v1061h174v-224q21 61 58 107.5t86.5 78t112.5 47.5t133 16v-195q-99 0 -171.5 -28t-118.5 -78.5t-68.5 -119.5t-22.5 -151v-514h-183z" />
<glyph unicode="s" horiz-adv-x="1013" d="M60 342h185q0 -59 23 -97.5t60.5 -61t86.5 -33t102 -10.5q39 0 82 6t78 22t58.5 45t23.5 76q0 44 -20.5 73t-57 48t-84.5 32q-48 14 -104 25q-46 10 -93 21t-91.5 28t-83 39.5t-68 54t-45.5 73t-16 97.5q0 81 35 139t92 95t128 54.5t142 17.5q87 0 163.5 -19t135 -59.5 t92 -105.5t33.5 -157h-186q0 43 -19.5 77t-51.5 55.5t-72 32.5q-42 11 -83 11q-35 0 -73 -5.5t-70 -20.5t-51.5 -40.5t-19.5 -63.5q0 -35 21.5 -61t58 -44.5t84 -32.5t100.5 -24q95 -20 168.5 -45t124.5 -60.5t79 -87t28 -122.5q0 -66 -19 -117t-49.5 -87.5t-74.5 -63 t-93 -41.5t-103 -21.5t-108 -6.5q-90 0 -172 20.5t-143.5 64t-97 112t-35.5 168.5z" />
<glyph unicode="t" horiz-adv-x="639" d="M18 894v167h173v273h186v-273h204v-167h-204v-615q0 -35 4 -59t16 -39t29.5 -20.5t42.5 -5.5h26.5h30t29 0.5t26.5 2.5v-159q-10 -2 -27 -2.5t-35 -1.5t-36.5 -1.5t-31.5 -0.5q-58 0 -107 11t-82.5 39.5t-52 75.5t-18.5 119v656h-173z" />
<glyph unicode="u" horiz-adv-x="1135" d="M128 371v690h192v-699q0 -58 15 -100.5t41.5 -69.5t63 -39.5t80.5 -12.5q79 0 135 29.5t92.5 73t54 96t17.5 98.5v624h188v-1061h-173l-2 168q-26 -44 -61 -78.5t-77.5 -60.5t-92 -39t-105.5 -13q-102 0 -172 28.5t-114 80t-63 124.5t-19 161z" />
<glyph unicode="v" horiz-adv-x="1008" d="M20 1061h211l277 -833l277 833h202l-388 -1061h-187z" />
<glyph unicode="w" horiz-adv-x="1530" d="M26 1061h203l229 -845l222 845h171l221 -845l230 845h202l-330 -1061h-197l-212 781l-210 -781h-197z" />
<glyph unicode="x" horiz-adv-x="1052" d="M12 0l391 556l-368 505h222l263 -381l263 381h221l-367 -505l392 -556h-206l-303 444l-301 -444h-207z" />
<glyph unicode="y" horiz-adv-x="1013" d="M12 1061h207l295 -830l293 830h195l-454 -1198q-30 -76 -61 -128.5t-67.5 -87t-80.5 -50t-100 -15.5q-36 0 -69 4.5t-59 16.5v169q29 -11 57 -17t51 -6q47 0 83.5 22t53.5 68l69 176z" />
<glyph unicode="z" horiz-adv-x="973" d="M48 0v140l622 762h-579v159h820v-128l-631 -772h622v-161h-854z" />
<glyph unicode="{" horiz-adv-x="675" d="M91 473v146q35 0 64.5 18.5t52.5 49.5t36 73.5t13 92.5v370q0 65 21 116t54 85.5t74 52.5t79 18h149v-134h-108q-27 0 -45 -14.5t-29 -38t-16 -54.5t-5 -64v-368q0 -58 -17 -104t-41 -81t-51 -58.5t-48 -35.5q21 -9 48 -25t51 -48t41 -81q17 -50 17 -120v-368 q0 -31 5 -59.5t16 -52t29 -38t45 -14.5h108v-134h-149q-38 0 -79 16t-74 49.5t-54 84.5t-21 119v367q0 53 -13 97t-36 73.5t-52.5 46.5t-64.5 17z" />
<glyph unicode="|" horiz-adv-x="448" d="M149 -431v2037h150v-2037h-150z" />
<glyph unicode="}" horiz-adv-x="675" d="M41 -263h108q26 0 45 13t29.5 36.5t14.5 53t4 61.5v368q0 62 17 109.5t41 81t52 55.5t48 33q-23 7 -49.5 26.5t-51.5 52.5t-41 81t-16 114v365q0 35 -4 66.5t-14.5 55t-28.5 37.5q-20 15 -46 15h-108v134h150q38 0 78.5 -18t72.5 -52.5t52.5 -85.5t20.5 -116v-370 q0 -53 14.5 -95.5t38 -73t52.5 -47.5q32 -18 64 -18v-146q-32 0 -62.5 -17.5t-54 -48t-38 -73.5t-14.5 -95v-367q0 -68 -20.5 -119t-52.5 -84.5t-72.5 -49.5t-78.5 -16h-150v134z" />
<glyph unicode="~" horiz-adv-x="1216" d="M134 423q8 82 33.5 135.5t61 85t78.5 43t87 11.5q41 0 77.5 -11t72.5 -28t70 -36t69 -35t70 -27t75 -11q9 0 27 3t37 15.5t33 39t14 71.5h140q-7 -82 -30.5 -135t-58.5 -84t-79 -44t-89 -13q-38 0 -76.5 11.5t-75 27.5t-72.5 35t-71.5 35.5t-70 28t-69.5 11.5 q-12 0 -31 -3t-37 -16t-31.5 -38t-13.5 -72h-140z" />
<glyph unicode="&#xa2;" horiz-adv-x="1127" d="M108 531.5q0 116.5 30 217.5t90.5 175.5t152.5 117.5t215 43q87 0 164.5 -21.5t136.5 -65t97 -110.5t47 -158h-175q-21 98 -86 151t-170 53q-92 0 -154 -33.5t-99 -89t-52.5 -128.5t-15.5 -152q0 -70 16 -138.5t52.5 -121t93.5 -85.5t139 -33q61 0 110 17.5t85 50.5 t57.5 79.5t30.5 105.5h175q-14 -94 -50.5 -169.5t-94.5 -127t-136 -79t-174 -27.5q-119 0 -210 39.5t-151.5 109.5t-92 166.5t-31.5 213zM526 -219v1510h131v-1510h-131z" />
<glyph unicode="&#xa3;" horiz-adv-x="1127" d="M85 -23v140q35 20 74.5 56.5t73 84t56 102.5t22.5 110q0 21 -5 44t-12.5 46.5t-16 45.5t-17.5 39h-172v107h112q-18 31 -34.5 63.5t-28 70t-19.5 78.5q-7 43 -7 90q0 95 39.5 170t104.5 128.5t150.5 82t178.5 28.5q110 0 198 -31.5t151.5 -93.5t99.5 -154t39 -215h-187 q-6 79 -26.5 142t-57 105.5t-87.5 65.5t-118 23q-62 0 -114.5 -20.5t-91 -55.5t-60.5 -82.5t-22 -102.5q0 -44 9 -82.5t22.5 -74.5t32.5 -69t37 -66h324v-107h-272q13 -26 24 -64t11 -76q0 -61 -16 -110.5t-40.5 -92t-58.5 -76t-67 -57.5q48 16 93 23q46 7 95 7q38 0 85 -12 t95 -25t92 -24.5t76 -11.5q23 0 48 1t52.5 5.5t57.5 14.5q32 11 61 28v-155q-38 -19 -93.5 -28.5t-125.5 -9.5q-54 0 -104.5 10.5t-103 22t-107.5 21t-116 9.5q-20 0 -48.5 -2t-61 -6.5t-65 -10.5t-62.5 -13t-56.5 -16.5t-40.5 -19.5z" />
<glyph unicode="&#xa5;" horiz-adv-x="1127" d="M-12 1428h240l346 -695l334 695h231l-365 -686h187v-129h-257l-38 -64v-88h295v-131h-295v-330h-199v330h-287v131h287v88l-36 64h-251v129h179z" />
<glyph unicode="&#xa9;" horiz-adv-x="1584" d="M48 704q0 103 27 199t76 177.5t117.5 148.5t151 115.5t177.5 74t197 25.5t195.5 -25.5t177 -74t151.5 -115.5t116.5 -148.5t75 -176.5t26.5 -200q0 -107 -26.5 -202.5t-75 -179t-116.5 -149t-151.5 -112t-177.5 -71.5q-93 -25 -195 -25t-197 25t-177.5 71.5t-151 112 t-117.5 149t-76 179t-27 202.5zM206 704q0 -88 19.5 -167t56 -147.5t89 -123t118.5 -93.5t142 -59q79 -21 163 -21q82 0 158 20.5t141.5 59.5t118 93.5t90.5 123t58.5 147.5t20.5 167q0 87 -20.5 166.5t-58.5 147t-90.5 121.5t-118 92t-141.5 58.5t-158 20.5 q-128 0 -236 -45.5t-186.5 -126t-122 -192t-43.5 -242.5zM391 692q0 96 25 181t74.5 147.5t126.5 99.5q78 36 180 36q79 0 146 -20.5t117 -58t79 -94.5t29 -133h-155q0 26 -13 56.5t-38 55.5t-63.5 42.5t-89.5 17.5q-76 0 -125.5 -27.5t-80.5 -73t-43 -105.5t-12 -124 q0 -58 13.5 -113.5t43 -98t76 -69t110.5 -26.5q56 0 98 15t70 39.5t42.5 58t17.5 71.5h155q-6 -73 -35 -132.5t-78 -100.5t-117 -63t-153 -22q-99 0 -173.5 33t-125 92t-76 139.5t-25.5 176.5z" />
<glyph unicode="&#xab;" horiz-adv-x="944" d="M79 489v159l336 263v-187l-205 -159l205 -150v-190zM491 489v159l335 263v-187l-204 -159l204 -150v-190z" />
<glyph unicode="&#xad;" horiz-adv-x="938" d="M96 461v174h748v-174h-748z" />
<glyph unicode="&#xae;" horiz-adv-x="1617" d="M48 721q0 105 28 203t78 181t119.5 152t154 118t182 76t200.5 27q104 0 200.5 -27t181 -76t154.5 -118t119.5 -152t77 -181t27.5 -203q0 -108 -27.5 -207t-77 -183t-119.5 -152t-154.5 -116t-181 -73t-200.5 -25q-103 0 -200.5 25t-182 73t-154 116t-119.5 152t-78 182.5 t-28 207.5zM210 721q0 -134 44 -249.5t124 -198.5t190.5 -130t241.5 -47q85 0 162.5 21.5t144 61t121 95.5t93 125.5t59 150.5t20.5 171q0 91 -20.5 171t-59 149t-93 124.5t-121 94t-144 59.5t-162.5 21q-87 0 -165.5 -21t-145.5 -59.5t-121 -94t-91 -124.5t-57 -149 t-20 -171zM493 292v858h371q65 0 115 -16t85 -46.5t53.5 -73t18.5 -97.5q0 -35 -10.5 -69.5t-29.5 -64.5t-46.5 -51.5t-62.5 -33.5q23 -15 39 -31t26.5 -33.5t16.5 -33.5t8 -28l34 -128q6 -22 11 -40.5t14 -36t21 -34.5q11 -18 31 -41h-166q-7 9 -14.5 23.5t-14 32t-12.5 35 t-12 35.5l-35 128q-5 20 -12.5 38t-22 31t-38 21t-58.5 8h-161v-352h-149zM642 769h171q35 0 66.5 7t56.5 21.5t40 39t15 64.5q0 55 -32.5 87.5t-100.5 32.5h-216v-252z" />
<glyph unicode="&#xbb;" horiz-adv-x="944" d="M118 225v190l205 150l-205 159v187l336 -263v-159zM529 225v190l204 150l-204 159v187l335 -263v-159z" />
<glyph unicode="&#xbc;" horiz-adv-x="1703" d="M99 1127v129q44 3 85 11.5t73 27.5t55.5 50.5t34.5 80.5h120v-867h-137v628q-45 -29 -102 -43q-56 -14 -129 -17zM356 0l834 1460h144l-835 -1460h-143zM946 191v123l423 553h110v-553h120v-123h-120v-191h-137v191h-396zM1082 314h260v340z" />
<glyph unicode="&#xbd;" horiz-adv-x="1703" d="M99 1127v129q44 3 85 11.5t73 27.5t55.5 50.5t34.5 80.5h120v-867h-137v628q-45 -29 -102 -43q-56 -14 -129 -17zM323 0l833 1460h145l-834 -1460h-144zM1004 0q0 47 12 86.5t32.5 74.5t46.5 64t55.5 54t59.5 45q31 21 57 38q54 32 94.5 59t66.5 55t39 59t13 75 q0 63 -37.5 100.5t-105.5 37.5q-43 0 -74 -18t-49 -47t-26 -64t-8 -69h-149q0 65 20.5 122.5t59.5 101.5t96 68.5t130 24.5q62 0 114.5 -17.5t92 -50.5t62.5 -80t23 -109q0 -68 -26 -118t-67.5 -89t-95 -72t-108.5 -65q-24 -15 -47.5 -31t-44.5 -33.5t-37.5 -38t-27.5 -43.5 h443v-120h-614z" />
<glyph unicode="&#xbe;" horiz-adv-x="1703" d="M117 838h152q3 -85 43.5 -130t129.5 -45q35 0 65 11.5t52 31.5t34.5 45.5t12.5 52.5q0 41 -14 69t-37.5 45.5t-54.5 25.5t-66 8h-49v109h33q30 0 58 7t49 22t32.5 37.5t11.5 56.5q0 31 -10 53t-29 37t-44.5 22.5t-54.5 7.5q-44 0 -72.5 -13t-46 -36.5t-25 -55t-7.5 -69.5 h-150q4 67 26 122t60 93.5t92 59.5t123 21q62 0 114 -15t89.5 -46t57.5 -76t20 -105q0 -26 -8.5 -50t-24.5 -46t-39 -40q-21 -17 -50 -32q44 -13 74.5 -33.5t51 -47.5t30 -58.5t9.5 -66.5q0 -55 -25.5 -104t-68 -85t-99.5 -57t-120 -21q-67 0 -126 19t-104.5 55.5 t-69.5 91.5q-25 56 -25 129zM508 0l835 1460h143l-835 -1460h-143zM1007 191v123l422 553h110v-553h120v-123h-120v-191h-137v191h-395zM1142 314h260v340z" />
<glyph unicode="&#xd7;" horiz-adv-x="1046" d="M44 149l374 399l-374 400l114 108l368 -396l370 396l114 -108l-376 -400l376 -399l-114 -108l-370 393l-368 -393z" />
<glyph unicode="&#xf7;" horiz-adv-x="1216" d="M91 470v158h1033v-158h-1033zM473 128q0 30 10 54.5t29 44.5t44 31t51 11q30 0 54 -11t43 -31t30 -44.5t11 -54.5q0 -24 -11 -47t-29.5 -41t-43 -29t-51.5 -11q-26 0 -51 10t-44.5 27.5t-30.5 41t-11 49.5zM473 967q0 27 10 52t29 43t44 30t51 12q30 0 54 -12t43 -30 t30 -43.5t11 -52t-11 -51t-29.5 -43.5t-43 -29.5t-51.5 -10.5q-26 0 -51 10.5t-44.5 29.5t-30.5 43.5t-11 51.5z" />
<glyph unicode="&#xe01;" horiz-adv-x="1255" d="M41 870q16 70 54.5 138.5t106 123t163.5 88t228 33.5q103 0 183.5 -20t141 -54t102 -82.5t67.5 -105.5t37.5 -120.5t11.5 -128.5v-742h-200v765q0 57 -17 113t-57.5 101.5t-106.5 74t-162 29.5q-57 0 -104.5 -10t-85 -27.5t-65.5 -41t-47 -47t-29.5 -46.5t-13.5 -41 q21 -12 38.5 -33t28.5 -48t17 -60q7 -34 7 -69v-660h-199v663q0 29 -3.5 58t-14.5 56t-30 51.5t-51 41.5z" />
<glyph unicode="&#xe02;" horiz-adv-x="1052" d="M26 1077v149h330l225 -1071l223 1071h203l-274 -1226h-308l-243 1077h-156z" />
<glyph unicode="&#xe03;" horiz-adv-x="1130" d="M51 1226h186q0 -24 6.5 -47t20 -40.5t33.5 -27.5q21 -10 47.5 -10t47 8.5t34 26t21.5 40.5q9 24 9 50h189v-239q0 -41 -13 -73t-36.5 -60.5t-52.5 -56.5t-61 -61q-29 -32 -51 -58.5t-36.5 -54t-22 -57t-7.5 -67.5v-81q0 -65 16 -114.5t46.5 -84.5t72.5 -53q43 -17 93 -17 q46 0 86.5 13t70.5 43t46 78q17 47 17 117v826h197v-846q0 -106 -34 -183t-92 -127.5t-133.5 -74.5t-157.5 -24q-85 0 -164 26t-138 77.5t-94.5 128t-35.5 177.5v59q0 50 2.5 88t8.5 68t17 55t28 48t41 45t56 48q17 15 44 34t50.5 46.5t38.5 63.5q17 34 11 81h-10 q-6 -14 -20.5 -26t-34 -22t-42.5 -16.5t-46 -6.5q-20 0 -45.5 3.5t-54 14.5t-56.5 30.5t-49 50.5t-35 76t-14 106z" />
<glyph unicode="&#xe04;" horiz-adv-x="1267" d="M120 0v733q0 66 9.5 129.5t32 121.5t61 107t95.5 85t135 56.5t180.5 20.5t180 -20.5t134 -56.5t95.5 -85t62.5 -107t33 -121.5t9.5 -129.5v-733h-200v759q0 38 -7 76t-21.5 74.5t-39 68t-60 55t-81 37t-105.5 13.5t-107 -13.5t-82 -37t-59 -55t-40 -68t-22.5 -74.5 t-6.5 -76v-274q33 64 73.5 110t89.5 74.5t107 41.5t131 13v-168q-108 0 -184 -30t-124 -85.5t-70.5 -136.5t-22.5 -181v-123h-197z" />
<glyph unicode="&#xe05;" horiz-adv-x="1278" d="M120 0v742q0 57 6.5 112.5t22.5 107t43 97t66.5 82t95 61t128.5 36.5l157 -168l149 168q75 -12 132 -36.5t98.5 -59.5t68.5 -81t44 -98t22.5 -107.5t5.5 -113.5v-742h-198v765q0 38 -6 82.5t-21.5 84.5t-41 72.5t-63.5 45.5l-166 -171l-10 -8t-13.5 -4t-15 4t-11.5 8 l-168 171q-38 -15 -62 -47t-38.5 -72t-21 -84t-6.5 -82v-280q33 64 73.5 110t89.5 74.5t107 41.5t131 13v-168q-108 0 -184 -30t-124 -85.5t-70.5 -136.5t-22.5 -181v-123h-197z" />
<glyph unicode="&#xe06;" horiz-adv-x="1264" d="M51 1226h186q0 -24 6.5 -47t20 -40.5t33.5 -27.5q21 -10 47.5 -10t47 8.5t34 26t21.5 40.5q9 24 9 50h189v-239q0 -54 -17.5 -95t-43.5 -72.5t-55 -55.5q-27 -25 -50 -46q-32 -29 -54 -52.5t-35 -48t-19 -59.5q-6 -32 -6 -85q0 -61 23.5 -119.5t68.5 -104t108 -73 t142 -27.5q52 0 96 18t76 51t49 78.5t17 100.5v829h200v-804q0 -99 -20 -183t-67.5 -143.5t-126 -92t-198.5 -32.5q-131 0 -223 55.5t-154 170.5l-6 -197h-189v431q0 46 1.5 82t5 65t11.5 52.5t24 47t40 47.5q24 23 59 52q38 32 66 54t47.5 46t28.5 56q9 31 7 83h-3 q-6 -14 -20.5 -26t-34 -22t-42.5 -16.5t-46 -6.5q-20 0 -45.5 3.5t-54 14.5t-56.5 30.5t-49 50.5t-35 76t-14 106z" />
<glyph unicode="&#xe07;" horiz-adv-x="930" d="M48 718h203l183 -514q13 -32 36 -48t50 -16q44 0 68 26q25 27 25 62v845h-171v153h368v-960q0 -79 -22.5 -134.5t-62 -92t-93.5 -52.5t-115 -16t-107 15t-80.5 45t-58 72t-40.5 94z" />
<glyph unicode="&#xe08;" horiz-adv-x="1147" d="M72 870q13 85 53.5 154.5t105 119.5t153.5 78t200 28q54 0 109 -8t106.5 -27t97 -50.5t78 -78t51.5 -110.5t18 -147q0 -48 -14 -111.5t-36 -135t-49.5 -149t-58 -153.5t-61.5 -147.5t-60 -132.5h-274l-195 565h-159v153h314l180 -541q19 43 41 96t43.5 109t43 113.5 t37.5 113t25 106.5q11 51 11 95q3 136 -65.5 204.5t-207.5 68.5q-111 0 -177.5 -54.5t-89.5 -158.5h-220z" />
<glyph unicode="&#xe09;" horiz-adv-x="1255" d="M93 879q9 74 41 142t94.5 119t157 82t227.5 31q105 0 184 -20t137.5 -54t97 -82.5t62 -105.5t33 -120.5t9.5 -128.5v-742h-188l-6 197q-62 -115 -162 -170.5t-240 -55.5q-122 0 -202.5 32.5t-128.5 92t-68.5 142.5t-20.5 184v263h197v-288q0 -55 18 -100.5t50.5 -78.5 t79.5 -51t106 -18q92 0 160.5 29t114 81t68 123t22.5 152v231q0 57 -15.5 114t-52 102t-99 73.5t-156.5 28.5q-84 0 -142 -19t-93.5 -48t-53 -65.5t-25.5 -71.5h-206z" />
<glyph unicode="&#xe0a;" horiz-adv-x="1118" d="M57 1050v146q32 11 62.5 20.5t58.5 15.5t50.5 9t37.5 3q64 0 116 -15.5t87 -47t51 -77.5q14 -47 9 -111q-6 -44 -20 -78.5t-35 -67t-46.5 -67.5t-53.5 -76q-21 -32 -31 -57t-15 -50t-6 -52.5t-2 -62.5v-64q0 -65 19.5 -114.5t53 -84.5t77.5 -52.5t95 -17.5q48 0 90.5 13 t74.5 43t50 78q19 47 19 117v82q0 55 -8 93t-24.5 63t-38 38t-49.5 19.5t-61 8.5q-34 3 -70 3v160q75 0 128 22t85.5 66t46.5 111t14 160h200q0 -73 -10 -146t-41 -131t-86.5 -99t-145.5 -54v-8q58 -5 100.5 -22.5t71 -43.5t45 -56.5t25.5 -63.5t12 -63.5t3 -56.5v-102 q0 -106 -36.5 -183t-96.5 -127.5t-137.5 -74.5t-160.5 -24q-85 0 -164.5 26t-141.5 77.5t-99 128t-37 177.5v102q0 48 2.5 83t8 62t14 49t21.5 43t30 43.5t40 50.5q19 25 34.5 45.5t26.5 39.5t18 38q9 19 12 39q9 56 -17.5 86.5t-78.5 30.5q-30 0 -56 -5t-48 -11.5t-40 -14 t-33 -11.5z" />
<glyph unicode="&#xe0b;" horiz-adv-x="1147" d="M26 1226h187q0 -24 6.5 -47t20.5 -40.5t34.5 -27.5t45.5 -10q26 0 46.5 8.5t34.5 26t22 40.5q8 24 8 50h191v-239q0 -41 -13 -73t-36.5 -60.5t-52.5 -56.5t-62 -61q-30 -32 -49 -70t-29.5 -80.5t-14 -85.5t-3.5 -82q0 -65 19 -114.5t52.5 -84.5t77.5 -52.5t93 -17.5 t91 13t73.5 43t50.5 78q19 47 19 117v82q0 76 -16 119.5t-44 66.5t-68 29.5t-88 9.5v160q67 5 112.5 29t74.5 67.5t42 109.5t13 153h197q0 -73 -10.5 -146t-41.5 -131t-86.5 -99t-145.5 -54v-8q58 -5 101 -22.5t71.5 -43.5t46 -56.5t26.5 -63.5t12 -63.5t3 -56.5v-102 q0 -70 -16.5 -128t-46 -104t-70.5 -79.5t-89.5 -55.5t-101.5 -32t-109 -10q-84 0 -164.5 26t-141.5 77.5t-99 128t-38 177.5q0 74 2.5 133t14.5 108t38 90.5t76 79.5q12 9 28 21.5t32.5 27t33 33t28.5 40t18 48t2 55.5h-9q-6 -14 -20 -26t-33 -22t-42 -16.5t-50 -6.5 q-20 0 -45.5 3.5t-54 14.5t-56.5 30.5t-49 50.5t-35 76t-14 106z" />
<glyph unicode="&#xe0c;" horiz-adv-x="1898" d="M41 870q16 70 54.5 138.5t103 123t156.5 88t213 33.5q99 0 176 -20t133.5 -54t97 -82.5t64.5 -105.5t35.5 -120.5t11.5 -128.5v-208q0 -83 19 -153t57 -122t94.5 -81t127.5 -29q44 0 80.5 13t62 42.5t39.5 76.5q14 46 14 116v829h198v-804q0 -108 -17.5 -192 t-59.5 -141.5t-114 -87.5t-177 -30q-58 0 -107.5 18t-92 49.5t-74.5 72.5t-56 86l-7 -197h-188v765q0 57 -16 113t-52.5 101.5t-98 73t-150.5 30.5q-76 0 -133.5 -19t-97 -51t-61.5 -70t-28 -73q21 -12 38.5 -33t28.5 -48t17 -60q7 -34 7 -69v-508h131v-152h-330v663 q0 29 -3.5 58t-14.5 56t-30 51.5t-51 41.5z" />
<glyph unicode="&#xe0d;" horiz-adv-x="1898" d="M41 870q16 70 54.5 138.5t103 123t156.5 88t213 33.5q99 0 176 -20t133.5 -54t97 -82.5t64.5 -105.5t35.5 -120.5t11.5 -128.5v-240q0 -70 13.5 -116.5t38 -76t61 -42.5t80.5 -13q71 0 127.5 29t94.5 82t58.5 123t20.5 151v587h198v-972q0 -85 -8 -149t-22 -113t-31 -84 q-18 -34 -37 -60q-35 -52 -79.5 -88t-95.5 -58.5t-107 -32.5q-58 -11 -116 -11q-82 0 -156.5 20.5t-134.5 63t-97.5 106.5t-46.5 152h184q6 -47 32 -82t61 -58.5t76 -35.5t79 -12q58 0 103.5 13.5t79.5 37t57.5 55.5t38 68.5t21.5 76t7 77.5v162q-24 -45 -57.5 -86 t-75 -71.5t-92 -49t-108.5 -18.5q-105 0 -176 30t-114 87t-61 141q-17 83 -17 191v239q0 57 -16 113t-52.5 101.5t-98 73t-150.5 30.5q-76 0 -133.5 -19t-98 -49.5t-62 -68.5t-26.5 -76q21 -12 38.5 -33t28.5 -48t17 -60q7 -34 7 -69v-508h131v-152h-330v663q0 29 -3.5 58 t-14.5 56t-30 51.5t-51 41.5z" />
<glyph unicode="&#xe0e;" horiz-adv-x="1306" d="M72 0v152h119v511q0 29 -3.5 58t-15 56t-30.5 51.5t-49 41.5q15 70 53.5 138.5t105 123t163 88t227.5 33.5q104 0 185 -20t141.5 -54t102.5 -82.5t68 -105.5t37 -120.5t11 -128.5v-1139h-200q-25 35 -58 61t-70.5 44t-81 26.5t-86.5 8.5q-50 0 -98 -10t-92.5 -30 t-82.5 -50t-68 -68v181q70 65 159.5 97t181.5 32q78 0 154 -23.5t142 -68.5v962q0 57 -17.5 113t-57 101.5t-105.5 73.5q-68 27 -165 30q-57 0 -103.5 -10t-83.5 -27.5t-65.5 -41t-47.5 -47t-30 -46.5t-13 -41q21 -12 37.5 -33t28.5 -48t18 -60q5 -34 5 -69v-660h-316z" />
<glyph unicode="&#xe0f;" horiz-adv-x="1306" d="M72 0v152h119v511q0 29 -3.5 58t-15 56t-30.5 51.5t-49 41.5q15 70 53.5 138.5t105 123t163 88t227.5 33.5q104 0 185 -20t141.5 -54t102.5 -82.5t68 -105.5t37 -120.5t11 -128.5v-1139h-200q-4 20 -15 45t-30 45.5t-45.5 33.5t-61.5 13t-62.5 -13t-45 -33.5t-27.5 -44.5 q-9 -23 -9 -46h-160q0 16 -5.5 39.5t-20 46t-41 38.5t-67.5 16q-33 0 -56 -13t-37.5 -33.5t-22 -45.5t-7.5 -48h-181q0 76 23 131.5t61.5 92t91 54t111.5 17.5q78 0 133.5 -34.5t88.5 -100.5q17 33 40.5 57t51 39t57 22.5t53.5 7.5q38 0 66.5 -8.5t51.5 -22.5t39 -29.5 t26 -25.5v962q0 57 -17.5 113t-57 101.5t-105.5 73.5q-68 27 -165 30q-57 0 -103.5 -10t-83.5 -27.5t-65.5 -41t-47.5 -47t-30 -46.5t-13 -41q21 -12 37.5 -33t28.5 -48t18 -60q5 -34 5 -69v-660h-316z" />
<glyph unicode="&#xe10;" horiz-adv-x="1141" d="M72 870q13 85 53.5 154.5t105 119.5t153.5 78t200 28q50 0 99.5 -7.5t99.5 -21.5q35 2 59 14t39 30t23 40q7 24 7 44h216q-1 -32 -10.5 -66.5t-31.5 -65.5t-56.5 -57t-83.5 -39q23 -25 42 -54.5t32 -66t19 -79t6 -92.5q0 -48 -14 -111.5t-36 -135t-49.5 -149t-58 -153.5 t-61.5 -147.5t-60 -132.5h-274l-195 565h-159v153h314l180 -541q19 43 41 96t43.5 109t43 113.5t37.5 113t25 106.5q11 51 11 95q3 136 -65.5 204.5t-207.5 68.5q-111 0 -177.5 -54.5t-89.5 -158.5h-220zM111 -406q-4 76 16 124t52.5 77.5t68 41t63.5 11.5t50 -6.5t40 -16.5 t32 -24t25 -29q14 24 32 38.5t38.5 23t38 11.5t29.5 3q23 0 42 -6t36.5 -13t30.5 -17.5t22 -21.5h6v93h200v-289h-200q-6 21 -14 39t-20.5 32.5t-29 23.5t-41.5 9t-42.5 -8t-28.5 -22t-17 -32.5t-6 -41.5h-112q-6 13 -12.5 31.5t-16.5 34.5t-25 27t-38 11q-20 0 -35.5 -9 t-26 -23.5t-15.5 -32.5t-5 -39h-137z" />
<glyph unicode="&#xe11;" horiz-adv-x="1264" d="M51 1226h186q0 -24 6.5 -47t20 -40.5t33.5 -27.5q21 -10 47.5 -10t47 8.5t34 26t21.5 40.5q9 24 9 50h189v-119q50 42 98 70.5t90.5 46t79 25t65.5 7.5q53 0 85 -18.5t51 -52t25 -81t6 -105.5v-999h-200v921q0 28 -1 53.5t-5.5 45.5t-14.5 30.5t-30 10.5q-25 0 -61 -19.5 t-81 -54.5t-95.5 -86t-103.5 -116q-38 -46 -67.5 -79.5t-51 -61.5t-35.5 -51.5t-22.5 -49.5t-11.5 -56.5t-3 -74.5v-412h-201v388q0 47 1.5 82t5.5 63.5t13 52.5t23 49t35 51t50 62q34 37 66.5 69.5t56 63t35 62.5t4.5 73h-3q-6 -14 -20.5 -26t-34 -22t-42.5 -16.5t-46 -6.5 q-20 0 -45.5 3.5t-54 14.5t-56.5 30.5t-49 50.5t-35 76t-14 106z" />
<glyph unicode="&#xe12;" horiz-adv-x="1949" d="M120 0v762q0 85 13.5 163.5t52.5 143t107 108.5q69 44 177 61l158 -168l149 168q112 -16 183 -60t109.5 -107.5t52.5 -143t14 -165.5v-228q0 -83 19.5 -153t58.5 -122t94.5 -81t126.5 -29q47 0 82.5 13t60.5 42.5t38 76.5q13 46 13 116v829h202v-804q0 -108 -18.5 -192 t-61.5 -141.5t-113 -87.5t-175 -30q-58 0 -109.5 18t-92 49.5t-74.5 72.5t-57 86l-6 -197h-188v785q0 38 -3.5 79t-16 77.5t-36 66t-61.5 42.5l-168 -171q-3 -4 -8.5 -8t-14.5 -4t-16.5 4t-9.5 8l-168 171q-38 -15 -61 -44t-35 -65.5t-16.5 -77t-4.5 -78.5v-531l251 320 h-101v153h298v-153l-448 -574h-197z" />
<glyph unicode="&#xe13;" horiz-adv-x="1898" d="M41 870q16 70 54.5 138.5t103 123t156.5 88t213 33.5q99 0 176 -20t133.5 -54t97 -82.5t64.5 -105.5t35.5 -120.5t11.5 -128.5v-345q0 -70 13.5 -116.5t38 -76t61 -42.5t80.5 -13q71 0 127.5 29t94.5 81t58.5 123t20.5 152v692h198v-1226h-187l-5 197q-24 -45 -57.5 -86 t-75 -72.5t-92 -49.5t-108.5 -18q-105 0 -176 30t-114 87.5t-60.5 141.5t-17.5 192v343q0 57 -16 113t-52.5 101.5t-98 73t-150.5 30.5q-76 0 -133.5 -19t-98 -49.5t-62 -68.5t-26.5 -76q21 -12 38.5 -33t28.5 -48t17 -60q7 -34 7 -69v-508h131v-152h-330v663q0 29 -3.5 58 t-14.5 56t-30 51.5t-51 41.5z" />
<glyph unicode="&#xe14;" horiz-adv-x="1278" d="M120 0v736q0 66 9.5 129.5t32.5 121t62 106.5t96.5 84t136.5 55q77 21 182 21q103 0 181.5 -20.5t136.5 -55.5t96.5 -84t62 -106.5t33.5 -121t10 -129.5v-736h-198v762q0 38 -6 76t-20 74t-38 67t-59 54t-84 36q-50 14 -115 14t-114 -13.5t-85.5 -36.5t-60 -54t-38 -67 t-19.5 -74t-5 -76v-508l279 320h-114v153h309v-153l-474 -574h-197z" />
<glyph unicode="&#xe15;" horiz-adv-x="1287" d="M120 0v742q0 57 7 112.5t23 107t44 97t69 82t95.5 61t126.5 36.5l160 -168l151 168q111 -16 184 -63.5t114.5 -114.5t58 -149.5t16.5 -168.5v-742h-197v765q0 38 -7 82.5t-23 84.5t-42.5 72.5t-64.5 45.5l-165 -171l-12 -8q-7 -4 -13 -4q-8 0 -15 4t-11 8l-168 171 q-38 -15 -63.5 -47t-41 -72t-22.5 -84t-7 -82v-511l279 320h-114v153h314v-153l-479 -574h-197z" />
<glyph unicode="&#xe16;" horiz-adv-x="1232" d="M41 870q10 47 30 93.5t50.5 89t73.5 79t99 63.5t127.5 42.5t159.5 15.5q104 0 183.5 -20t138.5 -54t99 -82.5t65 -105.5t35.5 -120.5t10.5 -128.5v-742h-199v765q0 57 -15.5 113t-54 101.5t-103 73t-160.5 30.5q-60 0 -107.5 -10t-84 -28.5t-62.5 -41t-43.5 -47.5 t-25.5 -46.5t-10 -39.5q21 -12 38.5 -33t28.5 -48t17 -60q7 -34 7 -69v-508h131v-152h-330v663q0 29 -3.5 58t-14.5 56t-30 51.5t-51 41.5z" />
<glyph unicode="&#xe17;" horiz-adv-x="1255" d="M120 0v1226h188v-195h3q127 225 401 225q123 0 205 -34t130 -92t68.5 -141.5t20.5 -181.5v-807h-200v829q0 57 -17.5 103t-50.5 78t-79 49.5t-104 17.5q-92 0 -160.5 -29t-115.5 -81t-69.5 -122t-22.5 -151v-694h-197z" />
<glyph unicode="&#xe18;" horiz-adv-x="1189" d="M119.5 943.5q1.5 52.5 21.5 97t52 78.5t74.5 59t90.5 41t97.5 23.5t97.5 7.5q105 0 193.5 -20.5t154.5 -66t102.5 -116t36.5 -171.5h-205q-1 57 -21 95.5t-55 63.5t-83 35t-105 13q-50 0 -96 -7t-81 -23t-56 -40q-21 -26 -21 -58q0 -41 30 -69t78 -47.5t106 -34.5 q59 -16 117 -30q110 -29 191 -61.5t134 -79t80 -115t27 -168.5q0 -67 -19 -121t-51.5 -95.5t-78 -71.5t-99.5 -49t-114.5 -27.5t-121.5 -8.5q-65 0 -124.5 8.5t-112 27.5t-96.5 49.5t-76 71.5t-49.5 95t-17.5 121v257h197v-257q0 -58 25.5 -97.5t65 -64t89 -35t99.5 -10.5 q43 0 92 9t91 31.5t69.5 62.5t27.5 104q0 35 -3.5 61.5t-16 48.5t-36 39.5t-62 35t-95 36.5t-136.5 39q-53 15 -103 30.5t-95.5 34.5t-85 43t-67 56t-43 74.5t-14 95z" />
<glyph unicode="&#xe19;" horiz-adv-x="1255" d="M120 422v804h197v-829q0 -55 18 -100.5t50.5 -78.5t79.5 -51t106 -18q92 0 160.5 29t114 81t68 123t22.5 152v692h200v-1226h-188l-6 197q-62 -115 -162 -170.5t-240 -55.5q-122 0 -202.5 32.5t-128.5 92t-68.5 142.5t-20.5 184z" />
<glyph unicode="&#xe1a;" horiz-adv-x="1255" d="M120 493v733h197v-756q0 -38 6.5 -77.5t21 -76t38 -67.5t58.5 -54.5t81 -37.5t106 -14t106 14t80 37.5t57.5 54.5t37.5 67.5t20.5 76t6.5 77.5v756h200v-733q0 -65 -9.5 -129.5t-32 -122t-60.5 -107t-93.5 -85.5t-133 -55.5t-179.5 -19.5t-179.5 19.5t-134.5 55.5 t-94.5 85.5t-60 107t-31 122t-8.5 129.5z" />
<glyph unicode="&#xe1b;" horiz-adv-x="1255" d="M120 493v733h197v-756q0 -38 6.5 -77.5t21 -76t38 -67.5t58.5 -54.5t81 -37.5t106 -14t106 14t80 37.5t57.5 54.5t37.5 67.5t20.5 76t6.5 77.5v1291h200v-1268q0 -65 -9.5 -129.5t-32 -122t-60.5 -107t-93.5 -85.5t-133 -55.5t-179.5 -19.5t-179.5 19.5t-134.5 55.5 t-94.5 85.5t-60 107t-31 122t-8.5 129.5z" />
<glyph unicode="&#xe1c;" horiz-adv-x="1347" d="M120 339v887h359v-153h-162v-685q0 -128 33 -186.5t95 -58.5q48 0 74.5 23.5t38 63.5t14 94t2.5 115v177h200v-177q0 -61 3 -115t16.5 -94t40.5 -63.5t77 -23.5q61 0 90.5 58.5t29.5 186.5v838h198v-887q0 -94 -20.5 -162.5t-58 -113t-90.5 -65.5t-118 -21 q-97 0 -167.5 46.5t-104.5 134.5q-28 -88 -91 -135q-65 -46 -164 -46q-68 0 -122 21t-92.5 65.5t-59.5 113t-21 162.5z" />
<glyph unicode="&#xe1d;" horiz-adv-x="1347" d="M120 336v890h359v-153h-162v-688q0 -128 33 -186.5t95 -58.5q48 0 74.5 23.5t38 63.5t14 94t2.5 116v176h200v-176q0 -62 3 -116t16.5 -94t40.5 -63.5t77 -23.5q61 0 90.5 58.5t29.5 186.5v1376h198v-1425q0 -94 -20.5 -162.5t-58 -113t-90.5 -65.5t-118 -21 q-97 0 -167.5 46.5t-104.5 134.5q-28 -88 -91 -135q-65 -46 -164 -46q-68 0 -122 21t-92.5 65.5t-59.5 113t-21 162.5z" />
<glyph unicode="&#xe1e;" horiz-adv-x="1587" d="M44 1226h219l204 -995h3l215 995h217l216 -995h3l205 995h217l-311 -1226h-219l-214 975h-11l-214 -975h-218z" />
<glyph unicode="&#xe1f;" horiz-adv-x="1587" d="M44 1226h219l204 -995h3l215 995h217l216 -995h3l289 1530h219l-397 -1761h-219l-214 975h-11l-214 -975h-218z" />
<glyph unicode="&#xe20;" horiz-adv-x="1306" d="M72 0v152h119v511q0 29 -3.5 58t-15 56t-30.5 51.5t-49 41.5q15 70 53.5 138.5t105 123t163 88t227.5 33.5q104 0 185 -20t141.5 -54t102.5 -82.5t68 -105.5t37 -120.5t11 -128.5v-742h-200v765q0 57 -17.5 113t-57 101.5t-105.5 73.5q-68 27 -165 30q-57 0 -103.5 -10 t-83.5 -27.5t-65.5 -41t-47.5 -47t-30 -46.5t-13 -41q21 -12 37.5 -33t28.5 -48t18 -60q5 -34 5 -69v-660h-316z" />
<glyph unicode="&#xe21;" horiz-adv-x="1255" d="M120 0v1226h197v-692q0 -83 22.5 -153t69.5 -122t115.5 -81t160.5 -29q58 0 104 18t79 51t50.5 78.5t17.5 100.5v829h200v-804q0 -99 -20.5 -183t-68.5 -143.5t-130 -92t-205 -32.5q-137 0 -237.5 55.5t-163.5 170.5v-197h-191z" />
<glyph unicode="&#xe22;" horiz-adv-x="1222" d="M99 377q0 52 8 96.5t28 82t52 65t79 45.5q-54 20 -86.5 52t-50 68.5t-22.5 75.5t-5 74q0 58 14.5 101t39.5 75.5t57 54t68.5 35t74.5 19t72 5.5h162v-168h-111q-19 0 -48 -2t-56.5 -15t-47 -39.5t-19.5 -74.5q0 -54 14 -87.5t38.5 -52.5t59 -26.5t73.5 -10.5h97v-163h-97 q-40 -3 -75 -10.5t-58.5 -27.5t-37.5 -58t-14 -106q0 -61 25 -107t66.5 -76.5t95.5 -46t112 -15.5q65 0 120.5 17.5t94.5 56.5t61 101t22 152v759h199v-801q0 -111 -39.5 -196.5t-107.5 -142.5t-157.5 -86t-192.5 -29q-64 0 -126.5 10t-118 32t-104.5 55.5t-84 79t-55 102.5 t-20 127z" />
<glyph unicode="&#xe23;" horiz-adv-x="1052" d="M64 394h202q0 -67 22 -113.5t57.5 -77.5t83.5 -45q47 -13 102 -13q41 0 85 9.5t80.5 32t60 59.5t23.5 90q0 49 -21.5 85t-58.5 60t-86.5 41.5t-106.5 30.5q-47 12 -96 27.5t-93.5 36t-84 46.5t-69.5 62.5t-46 82t-16 102.5q0 58 16 107t45.5 87t68 65.5t84 45t94 26.5 t97.5 9q89 0 169 -21.5t140 -68.5t95 -121.5t37 -180.5h-200q0 52 -16.5 94t-47 72t-73 47.5t-91.5 17.5q-46 0 -86 -11.5t-70 -33.5t-46.5 -55t-16.5 -77q0 -45 22 -75.5t58.5 -52.5t86 -36.5t101.5 -29.5q97 -23 174.5 -51t129 -67t78.5 -96t27 -139q0 -76 -18 -134.5 t-50.5 -101.5t-77 -73t-94.5 -47.5t-106.5 -25.5t-111.5 -8q-62 0 -118.5 10.5t-108 32t-93.5 55.5t-73 80.5t-47 106.5q-16 58 -16 134z" />
<glyph unicode="&#xe24;" horiz-adv-x="1232" d="M41 870q10 47 30 93.5t50.5 89t73.5 79t99 63.5t127.5 42.5t159.5 15.5q104 0 183.5 -20t138.5 -54t99 -82.5t65 -105.5t35.5 -120.5t10.5 -128.5v-1139h-199v1162q0 57 -15.5 113t-54 101.5t-103 73t-160.5 30.5q-90 0 -152.5 -20.5t-101 -51.5t-57.5 -69t-22 -72 q21 -12 38.5 -33t28.5 -48t17 -60q7 -34 7 -69v-508h131v-152h-330v663q0 29 -3.5 58t-14.5 56t-30 51.5t-51 41.5z" />
<glyph unicode="&#xe25;" horiz-adv-x="1224" d="M85 314q0 90 30 158t81 116.5t119 78t141.5 46.5t150 24.5t146.5 7.5q44 0 83.5 -1.5t71.5 -3.5v111q0 73 -24 118.5t-62.5 71t-87.5 34t-97 8.5q-65 0 -119 -11.5t-93.5 -39.5t-62.5 -74.5t-26 -113.5h-205q3 76 23.5 136t55.5 105t82 75.5t104.5 51t122.5 29.5t132 9 q50 0 103 -6.5t103.5 -23.5t96 -44.5t79 -71.5t54 -105.5t20.5 -141.5v-857h-199v574q-17 3 -60 5q-45 2 -103 1q-47 -3 -99 -8.5t-102.5 -16t-97 -29t-82.5 -45.5t-57 -64t-21 -87q0 -57 22 -94t58 -59t80.5 -31t87.5 -9q35 0 64.5 4.5t55.5 10.5v-155q-41 -12 -80.5 -17.5 t-85.5 -5.5q-82 0 -155 17.5t-128.5 58.5t-87.5 105.5t-32 158.5z" />
<glyph unicode="&#xe26;" horiz-adv-x="1306" d="M72 0v152h119v511q0 29 -3.5 58t-15 56t-30.5 51.5t-49 41.5q15 70 53.5 138.5t105 123t163 88t227.5 33.5q104 0 185 -20t141.5 -54t102.5 -82.5t68 -105.5t37 -120.5t11 -128.5v-1139h-200v1162q0 57 -17.5 113t-57 101.5t-105.5 73.5q-68 27 -165 30q-57 0 -103.5 -10 t-83.5 -27.5t-65.5 -41t-47.5 -47t-30 -46.5t-13 -41q21 -12 37.5 -33t28.5 -48t18 -60q5 -34 5 -69v-660h-316z" />
<glyph unicode="&#xe27;" horiz-adv-x="1112" d="M82 418h201q5 -71 26 -122t54.5 -86t78.5 -52q43 -18 95 -18q67 0 120 28t89.5 86t56 147.5t19.5 212t-19.5 211.5t-56 147.5t-89.5 87.5t-120 29q-52 0 -96 -17.5t-77.5 -52.5t-54 -87.5t-26.5 -121.5h-201q3 97 36.5 179.5t93.5 140.5t143 92t182 34q127 0 220 -47 t154 -131t90.5 -202t29.5 -263q0 -144 -29.5 -262.5t-90.5 -202.5t-153 -129t-221 -45q-100 0 -182.5 32t-142.5 92t-93.5 141.5t-36.5 178.5z" />
<glyph unicode="&#xe28;" horiz-adv-x="1267" d="M120 0v733q0 67 8.5 131.5t30.5 121t60 106.5t95 85t136 55.5t184 20.5q73 0 131 -10q58 -8 108 -22q34 0 58.5 11.5t41.5 29.5t25 41t9 46h216q-1 -32 -12 -67t-33 -67t-57 -59q-38 -26 -87 -38q32 -33 54 -77.5t35 -95t19 -105.5t6 -107v-733h-200v759q0 38 -5.5 76 t-18.5 74.5t-35 68t-57 55t-84 37t-114 13.5q-66 0 -115 -13.5t-84 -37t-58.5 -55t-36.5 -68t-18 -74.5t-5 -76v-274q33 64 73.5 110t89.5 74.5t107 41.5t131 13v-168q-108 0 -184 -30t-124 -85.5t-70.5 -136.5t-22.5 -181v-123h-197z" />
<glyph unicode="&#xe29;" horiz-adv-x="1255" d="M120 493v733h197v-756q0 -38 5 -77.5t18 -76t35 -67.5t57 -54.5t83.5 -37.5t112.5 -14t112 14t83 37.5t57 54.5t34 67.5t17 76t5 77.5v126h-355v245h196v-91h159v476h200v-476h111v-154h-111v-103q0 -65 -9 -129.5t-30 -122t-58 -107t-93.5 -85.5t-134.5 -55.5 t-183 -19.5t-184 19.5t-135 55.5t-93.5 85.5t-58 107t-29 122t-8.5 129.5z" />
<glyph unicode="&#xe2a;" horiz-adv-x="1224" d="M85 314q0 90 30 158t81 116.5t119 78t141.5 46.5t150 24.5t146.5 7.5q44 0 83.5 -1.5t71.5 -3.5v111q0 73 -24 118.5t-62.5 71t-87.5 34t-97 8.5q-65 0 -119 -11.5t-93.5 -39.5t-62.5 -74.5t-26 -113.5h-205q3 76 23.5 136t55.5 105t82 75.5t104.5 51t122.5 29.5t132 9 q22 0 48.5 -2.5t53.5 -7.5t54.5 -11.5t50.5 -15.5q33 0 60 14t45 33t28.5 42.5t12.5 46.5h215q0 -32 -12.5 -68t-38.5 -68.5t-65.5 -60.5t-92.5 -39q21 -21 38.5 -47t30.5 -60t20.5 -71t7.5 -78v-857h-199v574q-17 3 -60 5q-45 2 -103 1q-47 -3 -99 -8.5t-102.5 -16t-97 -29 t-82.5 -45.5t-57 -64t-21 -87q0 -57 22 -94t58 -59t80.5 -31t87.5 -9q35 0 64.5 4.5t55.5 10.5v-155q-41 -12 -80.5 -17.5t-85.5 -5.5q-82 0 -155 17.5t-128.5 58.5t-87.5 105.5t-32 158.5z" />
<glyph unicode="&#xe2b;" horiz-adv-x="1227" d="M120 0v1226h197v-478l553 478h292l-283 -239q70 -20 114.5 -61t70 -96t36 -123.5t10.5 -147.5v-559h-199v584q0 50 -10 96t-33.5 81.5t-58.5 60.5t-82 34l-410 -354v-502h-197z" />
<glyph unicode="&#xe2c;" horiz-adv-x="1566" d="M35 1226h225l165 -1004h6l232 788h219l233 -788h6l117 588q12 69 15 123t-10.5 92t-47 58.5t-91.5 20.5v125q57 3 103 13.5t81 33.5t55.5 58t25.5 87h234q-9 -63 -34.5 -109t-62.5 -77.5t-84 -49.5q-47 -20 -93 -26q38 -11 66.5 -36t44.5 -64.5t16.5 -92t-15.5 -116.5 l-209 -850h-219l-236 788h-9l-237 -788h-220z" />
<glyph unicode="&#xe2d;" horiz-adv-x="1210" d="M77 610v69h530v-153h-324q0 -87 23.5 -157.5t66.5 -121.5t102 -79t132 -28q76 0 137.5 32t104 92t65 147t22.5 199q0 114 -21 202.5t-62 148.5t-104 91t-145 31q-62 0 -117 -17.5t-96 -48t-67 -74.5t-35 -96h-207q17 90 58 165.5t105.5 129.5t153.5 84t205 30 q146 0 248.5 -50t166.5 -136.5t92 -204t28 -255.5q0 -84 -12.5 -164.5t-39.5 -152t-69.5 -130t-101.5 -101t-135.5 -65.5t-173 -23t-174 23t-136.5 65t-100.5 101t-68 129t-39 151t-12.5 167z" />
<glyph unicode="&#xe2e;" horiz-adv-x="1207" d="M77 610v69h530v-153h-324q0 -87 23.5 -157.5t66.5 -121.5t102 -79t132 -28q76 0 137.5 32t104 92t65 147t22.5 199q0 114 -21 202.5t-62 148.5t-104 91t-145 31q-62 0 -114 -16.5t-92 -47.5t-67 -74t-42 -98h-207q17 90 58 165.5t105.5 129.5t153.5 84t205 30 q123 0 212 -35q31 2 53 14t38 29.5t23 39.5t9 45h217q-1 -32 -11.5 -66.5t-32 -65.5t-56 -57t-81.5 -39q44 -44 74.5 -99t51 -120t29.5 -139t9 -153q0 -84 -12.5 -164.5t-39.5 -152t-69.5 -130t-101.5 -101t-135.5 -65.5t-173 -23t-174 23t-136.5 65t-100.5 101t-68 129 t-39 151t-12.5 167z" />
<glyph unicode="&#xe2f;" horiz-adv-x="1232" d="M93 885q0 64 16.5 114.5t44.5 88.5t67 64t81.5 43t89 24t90.5 7h172v-168h-172q-95 0 -139 -43t-44 -133q0 -41 12.5 -82t43 -73t82 -52.5t131.5 -20.5q85 0 149 16t108.5 49.5t66.5 85t22 122.5v299h199v-1226h-199v628q-26 -32 -61 -58.5t-79 -44t-93.5 -26 t-102.5 -8.5q-120 0 -211 27.5t-151.5 79.5t-91.5 124t-31 163z" />
<glyph unicode="&#xe30;" horiz-adv-x="702" d="M120 210v241h191v-89h293v-152h-484zM120 816v245h191v-89h293v-156h-484z" />
<glyph unicode="&#xe31;" d="M-736 1432v257h193v-103h587v-154h-780z" />
<glyph unicode="&#xe32;" horiz-adv-x="1007" d="M38 870q0 61 17.5 114t46.5 95t70 74.5t89.5 53.5t101 32t107.5 11q91 0 166.5 -25t132 -74.5t88 -125.5t31.5 -178v-847h-197v804q0 146 -56.5 212.5t-164.5 66.5q-96 0 -156 -54t-66 -159h-210z" />
<glyph unicode="&#xe33;" horiz-adv-x="1007" d="M-429 1624q0 42 16 80t43.5 65.5t65.5 44.5t81 17q41 0 78.5 -17t66 -44.5t44.5 -65.5t16 -80q0 -44 -16 -80.5t-44.5 -65t-65.5 -44.5t-79 -16q-44 0 -81.5 16t-65 44.5t-43.5 65t-16 80.5zM-307 1624q0 -18 7 -32.5t17.5 -26.5t27 -19t32.5 -7q17 0 32.5 7t26.5 19 t17.5 26.5t6.5 32.5q0 17 -6.5 31.5t-17.5 26.5t-27 19t-32 7q-18 0 -33.5 -7t-26 -19t-17.5 -26.5t-7 -31.5zM38 870q0 61 17.5 114t46.5 95t70 74.5t89.5 53.5t101 32t107.5 11q91 0 166.5 -25t132 -74.5t88 -125.5t31.5 -178v-847h-197v804q0 146 -56.5 212.5 t-164.5 66.5q-96 0 -156 -54t-66 -159h-210z" />
<glyph unicode="&#xe34;" d="M-1136 1432l78 154h938v-154h-1016z" />
<glyph unicode="&#xe35;" d="M-1136 1432l78 154h747v186h191v-340h-1016z" />
<glyph unicode="&#xe36;" d="M-1136 1432l78 154h582q-3 11 -3 21.5v18.5q0 41 15.5 76t41.5 61.5t62 42t77 15.5t76 -15.5t61 -42t40.5 -61.5t14.5 -76q0 -40 -14.5 -75.5t-40.5 -61.5t-62 -41q-34 -16 -75 -16h-853zM-362 1626q0 -14 6 -28.5t17.5 -24t25.5 -15.5q15 -6 30 -6q14 0 29 6t25 15.5 t16 24t6 28.5q0 18 -6 32t-16 25t-25 16.5t-29 5.5q-15 0 -29.5 -5.5t-26 -16.5t-17.5 -25t-6 -32z" />
<glyph unicode="&#xe37;" d="M-1136 1432l78 154h430v186h189v-186h131v186h188v-340h-1016z" />
<glyph unicode="&#xe38;" d="M-415 -161h295v-438h-188v291h-107v147z" />
<glyph unicode="&#xe39;" d="M-853 -161h300v-147q0 -70 30 -105t92 -35q123 0 123 140v147h188v-147q0 -58 -16 -111.5t-52.5 -93t-96.5 -63t-146 -23.5q-84 0 -144 21.5t-97.5 60t-55 91t-17.5 118.5h-108v147z" />
<glyph unicode="&#xe3a;" d="M-368 -254q0 29 11.5 56t31.5 47t47 31.5t56 11.5t55.5 -11.5t46 -31.5t31.5 -47t12 -56t-12 -55.5t-31.5 -46t-46 -30.5t-55.5 -11q-31 0 -57 11t-46 30.5t-31.5 46t-11.5 55.5z" />
<glyph unicode="&#xe3e;" />
<glyph unicode="&#xe3f;" horiz-adv-x="1389" d="M152 0v1428h407v140h180v-140h44q38 0 79.5 -3t80 -10.5t70.5 -16.5q32 -8 54 -23q35 -20 67.5 -50.5t55.5 -67t37 -82.5t14 -99q0 -114 -49 -194t-148 -124q64 -18 112 -49.5t81 -76.5t50 -100.5t17 -119.5q0 -76 -29.5 -150.5t-85.5 -132t-139 -93.5t-192 -36h-119 v-149h-180v149h-407zM356 169h203v476h-203v-476zM356 819h203v435h-203v-435zM739 169h93q64 0 114 17.5t85 50t52.5 79t17.5 104.5q0 68 -28 111.5t-71.5 69t-98.5 35.5q-56 9 -112 9h-52v-476zM739 1254l3 -435q79 0 135.5 13t93 40t53 69t16.5 97q0 73 -24.5 116t-66 65 t-95.5 28.5t-115 6.5z" />
<glyph unicode="&#xe40;" horiz-adv-x="499" d="M149 0v1226h201v-1226h-201z" />
<glyph unicode="&#xe41;" horiz-adv-x="851" d="M120 0v1226h197v-1226h-197zM534 0v1226h199v-1226h-199z" />
<glyph unicode="&#xe42;" horiz-adv-x="585" d="M0 1615l41 157h563l90 -157h-395q19 -15 33.5 -37t25 -46.5t16.5 -52.5t6 -53v-1274h128v-152h-326v1421q0 48 -14.5 84.5t-40 60.5t-57.5 36.5t-70 12.5z" />
<glyph unicode="&#xe43;" horiz-adv-x="585" d="M-63 1498q0 85 27 147.5t72.5 103.5t104 61.5t122.5 20.5q57 0 110 -13t94 -41t65 -73t24 -107q0 -32 -9.5 -57t-25.5 -47.5t-40 -46.5t-53 -59q-18 -20 -28 -46.5t-14.5 -55t-5 -56t-0.5 -51.5v-1026h128v-152h-326v1178q0 50 4 87t14 68.5t30.5 61.5t55.5 65 q13 13 30 28.5t31 32t23.5 33.5t9.5 32q0 17 -4.5 34t-17.5 30.5t-36.5 21.5t-58.5 8q-70 0 -103.5 -48.5t-33.5 -133.5h-189z" />
<glyph unicode="&#xe44;" horiz-adv-x="585" d="M-131 1615l90 157h561l42 -157q-38 0 -71 -12.5t-57.5 -36.5t-39 -60.5t-14.5 -84.5v-1269h128v-152h-326v1426q0 27 5.5 54t15.5 51.5t25.5 46.5t34.5 37h-394z" />
<glyph unicode="&#xe45;" horiz-adv-x="1007" d="M38 870q0 61 17.5 114t46.5 95t70 74.5t89.5 53.5t101 32t107.5 11q91 0 166.5 -25t132 -74.5t88 -125.5t31.5 -178v-1244h-197v1201q0 146 -56.5 212.5t-164.5 66.5q-96 0 -156 -54t-66 -159h-210z" />
<glyph unicode="&#xe46;" horiz-adv-x="1159" d="M82 796q0 84 13 158t51 131t106.5 96.5t175.5 56.5l137 -143l126 143q77 -6 132.5 -28.5t94 -57t61.5 -78t35 -94.5t16 -106.5t4 -114.5v-1153h-199v1177q0 38 -3 82.5t-12.5 83t-30.5 67t-59 34.5l-140 -148q-5 -4 -11.5 -7.5t-13.5 -3.5q-9 0 -15.5 4t-12.5 7l-143 148 q-38 -15 -61 -40.5t-36.5 -57.5t-18 -71.5t-1.5 -81.5q0 -33 7.5 -62.5t23.5 -54.5t44.5 -39.5t72.5 -14.5h26v-167h-26q-70 0 -132 19t-109 60t-74.5 104t-27.5 152z" />
<glyph unicode="&#xe47;" d="M-975 1683q0 70 26 118.5t68.5 78.5t98.5 44q58 13 116 13h578v-140h-557q-50 0 -80 -11.5t-44.5 -28.5t-18 -36.5t-3.5 -37.5q0 -11 3 -26t11.5 -28.5t26 -22.5t46.5 -9q24 0 42 8t30.5 23.5t17.5 36t4 46.5h131q-1 -25 4 -46t16.5 -36.5t29 -23.5t41.5 -8q26 0 42 9 t25 24t11 36.5t-1 44.5h150q9 -70 -4 -119.5t-42.5 -81.5t-70 -47.5t-84.5 -15.5q-38 0 -68.5 12.5t-54 33t-38 43.5t-17.5 47q-3 -24 -20 -47t-43 -43.5t-60.5 -33t-69.5 -12.5q-67 0 -114 23.5t-75 59t-40.5 76.5t-12.5 77z" />
<glyph unicode="&#xe48;" d="M-311 1910v324h191v-324h-191z" />
<glyph unicode="&#xe49;" d="M-645 2097v146h271v-183q67 0 119 14t88 38.5t55 58.5t19 72h184q0 -65 -29.5 -124t-88 -105t-146 -73.5t-207.5 -27.5h-160v184h-105z" />
<glyph unicode="&#xe4a;" d="M-691 1910q-4 73 9 127t39.5 90.5t61.5 54t73 17.5q45 0 82.5 -22.5t54.5 -59.5q18 34 56 58t87 24q28 0 53.5 -10.5t46.5 -29.5t36 -46t20 -62q15 12 29 34t25.5 48t19 54t7.5 53h165q0 -50 -19 -105t-50.5 -101.5t-74.5 -81t-90 -42.5h-137q0 13 -3.5 35.5t-10.5 43 t-17 35t-23 14.5t-23.5 -12.5t-17 -32t-10 -41.5t-3.5 -42h-129q0 19 -3.5 41.5t-9.5 42t-16 32t-22 12.5q-13 0 -23 -14.5t-16.5 -35t-9.5 -42.5t-3 -36h-154z" />
<glyph unicode="&#xe4b;" d="M-485 2070v139h178v156h184v-156h176v-139h-176v-160h-184v160h-178z" />
<glyph unicode="&#xe4c;" d="M-473 1791q0 76 29 135.5t81.5 101.5t129.5 65t173 24v-149q-111 0 -168.5 -42.5t-57.5 -134.5h-187z" />
<glyph unicode="&#xe4d;" d="M-429 1624q0 42 16 80t43.5 65.5t65.5 44.5t81 17q41 0 78.5 -17t66 -44.5t44.5 -65.5t16 -80q0 -44 -16 -80.5t-44.5 -65t-65.5 -44.5t-79 -16q-44 0 -81.5 16t-65 44.5t-43.5 65t-16 80.5zM-307 1624q0 -18 7 -32.5t17.5 -26.5t27 -19t32.5 -7q17 0 32.5 7t26.5 19 t17.5 26.5t6.5 32.5q0 17 -6.5 31.5t-17.5 26.5t-27 19t-32 7q-18 0 -33.5 -7t-26 -19t-17.5 -26.5t-7 -31.5z" />
<glyph unicode="&#xe4e;" d="M-529 1432q0 54 12.5 102.5t39.5 87.5t70 66q42 29 102 41q9 42 30.5 76.5t60.5 59t96 39t133 16.5v-153q-50 0 -82 -7.5t-50.5 -23.5t-25 -42.5t-6.5 -64.5v-32h-42q-46 0 -75 -11.5t-46.5 -33.5t-25 -52t-7.5 -68h-184z" />
<glyph unicode="&#xe4f;" horiz-adv-x="1480" d="M91 610q0 89 22.5 171.5t64.5 153.5t101.5 130t131.5 100t154.5 64.5t173.5 23.5q87 0 169 -23.5t153.5 -64.5t130 -100t99.5 -130t64 -153.5t23 -171.5t-23 -171.5t-64 -154t-99.5 -130t-130 -100t-153.5 -64t-169 -22.5q-91 0 -173.5 22.5t-154.5 64t-131.5 100 t-101.5 130t-64.5 154t-22.5 171.5zM257 616q0 -66 17.5 -127t48 -114.5t74.5 -98t97.5 -76t115.5 -49t129 -17.5q64 0 125.5 17.5t114 49t96 76t74.5 98t48.5 114.5t17.5 127t-17.5 126.5t-48.5 113t-74.5 96.5t-96 74.5t-114 48t-125.5 17.5q-67 0 -129 -17.5t-115.5 -48 t-97.5 -74.5t-74.5 -96.5t-48 -113t-17.5 -126.5zM394 616q0 69 28 130t74.5 107t109.5 74t133 28q68 0 129 -28t106 -74t72 -107t27 -130q0 -70 -27 -133t-72 -109t-106 -73t-129 -27q-70 0 -133 27t-109.5 73t-74.5 109t-28 133zM540 616q0 -41 15.5 -77.5t41.5 -62.5 t62 -42t80 -16q39 0 73.5 16t60 42t40 62.5t14.5 77.5q0 40 -14.5 74t-40 60.5t-60 41.5t-73.5 15q-44 0 -80 -15t-62 -41.5t-41.5 -60.5t-15.5 -74z" />
<glyph unicode="&#xe50;" horiz-adv-x="1295" d="M93 565q0 115 38 210t109.5 162t175.5 105t232.5 38t232 -38t175 -105t109.5 -162t38 -210q0 -111 -20.5 -198t-56 -152.5t-86 -110t-112 -73t-133 -40t-147.5 -11.5t-146.5 12t-132.5 40.5t-113.5 74t-87 110.5t-55.5 151t-20 197zM283 523q0 -84 26.5 -153t74.5 -119.5 t115 -79t149 -28.5t149 28.5t114 79t73 119.5t26 153q0 106 -29 181.5t-78.5 122t-115.5 67t-139 20.5t-138.5 -20.5t-116 -67t-80.5 -121t-30 -182.5z" />
<glyph unicode="&#xe51;" horiz-adv-x="1284" d="M26 146l156 131q36 -40 79.5 -68t92.5 -44t103.5 -23.5t113.5 -7.5q92 0 168 28t130.5 83.5t84.5 135.5t30 184q0 82 -20.5 148.5t-63 114t-108 73.5t-155.5 26q-73 0 -133 -19.5t-102.5 -51t-65 -72.5t-22.5 -85q0 -41 15.5 -79.5t50.5 -67t94 -41t148 -0.5v-137 q-38 -9 -70 -12t-59 -3q-81 0 -152 23.5t-124 66t-84 101.5t-31 132q0 71 20.5 129t58.5 102.5t87.5 76.5t109 52.5t124 30.5t129.5 10q117 0 220.5 -28.5t179.5 -90.5t120.5 -159.5t44.5 -236.5q0 -131 -42.5 -238.5t-122 -185t-194 -120t-259.5 -42.5q-67 0 -138.5 4.5 t-141.5 20.5t-138.5 50t-133.5 89z" />
<glyph unicode="&#xe52;" horiz-adv-x="1458" d="M6 1064l29 168q58 0 108 -19t85 -57t54.5 -96t19.5 -139v-460q0 -64 28.5 -119.5t85.5 -97t143 -65.5t200 -24q108 0 185 22.5t124 59.5t69 85.5t22 99.5v311q0 41 -10 70t-28.5 51t-42.5 33.5t-53 17.5l-155 -140l-155 131q-19 0 -40 -8.5t-38.5 -28t-27.5 -49 t-10 -68.5v-94q-2 -35 -1 -70.5t10.5 -64t30.5 -47t60 -18.5h75v-149h-95q-64 0 -110 17.5t-77 46t-48.5 65t-27 74.5t-12.5 75q-4 36 -4 65v82q0 67 25 127t70 107.5t108.5 79t141.5 42.5l125 -111l117 111q77 -4 143.5 -30.5t116 -69.5t79 -100t29.5 -124v-298 q0 -81 -20.5 -148.5t-55.5 -120t-84.5 -91t-109 -64t-127 -37.5t-139.5 -12h-104q-144 0 -257 35t-191.5 101t-118.5 157q-40 93 -40 204v400q0 49 -6 84.5t-19 57t-32 31t-45 9.5z" />
<glyph unicode="&#xe53;" horiz-adv-x="1318" d="M102 482v86q0 126 27 217t79 153t128 96.5t172 45.5l149 -138q41 32 83.5 69t81.5 69q102 -5 176.5 -41t123.5 -90.5t72.5 -125t23.5 -147.5v-676h-199v676q0 44 -14.5 84t-39.5 69t-57 47t-64 15q-21 -18 -45.5 -38.5t-48 -41t-47.5 -39.5q-26 -19 -46 -36l-172 155 q-29 -3 -61.5 -18t-60 -51.5t-46 -97.5t-18.5 -153v-86q0 -38 1 -76t4.5 -74.5t12.5 -68t25.5 -55t42 -37t63.5 -13.5q21 0 59.5 2.5t82.5 10.5v-168q-15 -5 -41 -8.5t-55.5 -5.5t-58.5 -3t-52 2q-71 9 -119 36.5t-79.5 68t-48 89.5t-24 100t-9 102t-1.5 95z" />
<glyph unicode="&#xe54;" horiz-adv-x="1309" d="M93 464v123q0 121 39.5 209.5t112.5 147t176 86.5q102 28 230 28h207q49 0 79.5 12t48.5 34t24 53t6 69h205q0 -39 -6 -80t-20.5 -78t-41 -70t-65 -57t-93.5 -38.5t-128 -14.5h-236q-79 0 -142 -17.5t-107.5 -52t-68.5 -85t-24 -114.5v-146q0 -64 18.5 -121t55.5 -98 t95.5 -64.5t140.5 -23.5h49q-17 15 -33 36t-28 46.5t-20 58t-8 67.5q0 16 2.5 40t12.5 51.5t29 54t55 48.5t89 35t129 13v-165q-47 0 -73 -11t-38 -27t-15 -33q-2 -15 -2 -27q0 -25 9 -49t24.5 -44.5t34.5 -37t38 -29t36.5 -20t30.5 -7.5h300v-166h-650q-95 0 -167.5 20.5 t-125.5 55.5t-88 81t-57 98t-31 105q-9 55 -9 104z" />
<glyph unicode="&#xe55;" horiz-adv-x="1318" d="M93 464v123q0 107 28 185t79 132t122 87q72 34 157 53q-5 9 -8 25q-4 17 -4 32q0 42 15.5 79.5t42.5 65t63.5 44.5t77.5 17q44 0 82.5 -17t66 -44.5t43 -65t15.5 -79.5q0 -6 -0.5 -15t-2.5 -14q-1 -8 -3 -14q47 3 76 15.5t45 34.5t22 52q6 31 6 66h205q0 -39 -6 -80 t-20.5 -78t-41 -70t-65 -57t-93.5 -38.5t-128 -14.5h-225q-78 0 -142.5 -15t-111 -47t-73 -83t-26.5 -124v-146q0 -64 18.5 -121t55.5 -98t95.5 -64.5t140.5 -23.5h49q-17 15 -33 36t-28 46.5t-20 58t-8 67.5q0 16 2.5 40t12.5 51.5t29 54t55 48.5t89 35t129 13v-165 q-47 0 -73 -11t-38 -27t-15 -33q-2 -15 -2 -27q0 -25 9 -49t24.5 -44.5t34.5 -37t38 -29t36.5 -20t30.5 -7.5h300v-166h-650q-95 0 -167.5 20.5t-125.5 55.5t-88 81t-57 98t-31 105q-9 55 -9 104zM587 1107q0 -35 20 -57q18 -22 50 -22q37 0 58 22t21 57t-20.5 56t-58.5 21 q-32 0 -51 -21t-19 -56z" />
<glyph unicode="&#xe56;" horiz-adv-x="1324" d="M54 1080l153 92l119 -197q35 18 73.5 35.5t86.5 31.5t105 23.5t130 11.5q102 3 182.5 -15t139.5 -52.5t99.5 -82.5t66 -105.5t36.5 -122.5t11 -131v-77q0 -103 -36 -197t-107.5 -164t-179 -109.5t-248.5 -35.5q-105 3 -191.5 29.5t-148.5 72.5t-95 110q-34 66 -34 145 q0 73 25 127t70 88t108.5 51t142.5 17h77v-149h-68q-48 0 -79 -11t-48.5 -30t-24.5 -45q-7 -25 -7 -57q0 -38 20.5 -70t58.5 -57t90 -39q53 -15 115 -15q70 -2 135 19.5t115 63.5t80 105.5t30 147.5v74q0 91 -23 156t-65 107t-102 62q-60 18 -136 18q-61 -1 -119.5 -10.5 t-117 -29.5t-117 -50.5t-119.5 -72.5z" />
<glyph unicode="&#xe57;" horiz-adv-x="1554" d="M120 476v83q0 120 27 210.5t78.5 154t126 101.5t171.5 48l119 -131l126 128q111 -13 184 -56t116 -109.5t60 -152.5t17 -184v-86q-2 -35 -4 -79t-7 -85.5t-16 -78.5q-8 -38 -26 -59q44 13 76 47t52.5 81.5t29.5 102.5q9 53 9 109v401q0 79 18.5 138t54 97t85 57t107.5 19 l31 -168q-26 0 -46 -9.5t-31.5 -31t-17.5 -57t-6 -84.5v-342q0 -111 -27.5 -206t-84 -167t-143 -118t-206.5 -61l-155 114q44 44 67.5 88t35 89t14.5 93t3 104v92q0 77 -13.5 134t-36 95t-51.5 58.5t-61 26.5l-154 -155l-146 158q-27 -2 -58.5 -20t-58.5 -56t-44.5 -99.5 t-17.5 -147.5v-80q0 -26 0.5 -60.5t5 -69.5t14.5 -68t28 -59t44 -42.5t64 -16.5q9 0 20.5 1.5t26 2.5t30.5 3t28 4l3 -165q-15 -3 -35 -7.5t-43.5 -7.5t-50 -3.5t-49.5 3.5q-67 15 -114 44t-79 68.5t-49.5 85.5t-27 94t-11.5 95.5t-2 91.5z" />
<glyph unicode="&#xe58;" horiz-adv-x="1315" d="M117 391v199q0 109 32 196t96.5 148.5t160 94t222.5 32.5h271q47 0 77.5 11t49.5 33t25.5 52.5t6.5 68.5h201q0 -39 -6 -80.5t-20.5 -79t-39.5 -70t-64.5 -57.5t-93.5 -39.5t-127 -14.5h-301q-77 0 -133 -22t-91.5 -58.5t-52 -84.5t-16.5 -98v-231q0 -44 15.5 -81.5 t41 -67t56 -48.5t61.5 -20q42 38 90 79q47 42 88 80l192 -159q34 0 62.5 11t50.5 34t33.5 62.5t11.5 98.5q0 26 -3.5 52t-14.5 48t-33 38t-57 22q-9 3 -25 3h-33v148h64q66 -3 114 -18.5t81 -38t53.5 -52.5t30.5 -63t14.5 -68.5t4.5 -70.5q0 -97 -22 -170t-68.5 -122.5 t-119.5 -74.5t-173 -25l-163 135l-149 -135q-99 6 -173.5 41t-125 89t-76 124t-25.5 149z" />
<glyph unicode="&#xe59;" horiz-adv-x="1290" d="M99 473v89q0 127 19 223.5t64.5 160.5t118.5 97.5t181 33.5q20 0 43.5 -0.5t47.5 -2.5t46 -7q20 -4 38 -11q32 -16 55.5 -39.5t46.5 -58.5l102 100q5 5 15 12q9 7 23 7h73q47 0 75 9t42.5 27.5t19 46.5t4.5 66h197q0 -39 -5.5 -78.5t-17.5 -75t-35 -66.5t-60 -53 t-90.5 -35t-123.5 -13h-17q-12 0 -21.5 -5.5t-18.5 -14.5l-68 -72l385 -813h-210l-343 736q-41 83 -90 126t-116 43q-40 0 -73.5 -15t-57.5 -54t-38 -103t-14 -162v-115q0 -30 4 -63.5t10.5 -65.5t19 -62t31.5 -52.5t45 -35.5t64 -13q15 0 37 2.5t46 7.5l28 -165 q-15 -3 -35 -6.5t-44.5 -6t-50 -4t-51.5 1.5q-70 9 -119 34t-82.5 61.5t-53 83t-30 97t-13.5 102t-3 101.5z" />
<glyph unicode="&#xe5a;" horiz-adv-x="1646" d="M93 885q0 64 16.5 114.5t44.5 88.5t67 64t81.5 43t89 24t90.5 7h172v-168h-172q-95 0 -139 -43t-44 -133q0 -41 12.5 -82t43 -73t82 -52.5t131.5 -20.5q85 0 149 16t108.5 49.5t66.5 85t22 122.5v299h199v-1226h-199v628q-26 -32 -61 -58.5t-79 -44t-93.5 -26 t-102.5 -8.5q-120 0 -211 27.5t-151.5 79.5t-91.5 124t-31 163zM1332 0v1226h195v-1226h-195z" />
<glyph unicode="&#xe5b;" horiz-adv-x="2591" d="M108 634q0 67 15.5 136.5t45.5 134t75 121.5t102.5 99.5t128.5 67.5t156 25q79 0 142.5 -19t112 -50.5t85 -75.5t60 -95t35 -107t11.5 -115l-186 -3q0 130 -61.5 198t-175.5 74q-82 0 -145.5 -32t-108 -87t-67 -128.5t-22.5 -158.5q0 -82 30 -156.5t83 -131.5 t128.5 -90.5t168.5 -33.5q89 0 158.5 26.5t123 75.5t90.5 115.5t60.5 145t34.5 167.5t11 180l138 76q34 -35 65.5 -76t60 -80.5t52.5 -77.5t40 -68q17 29 40 63t46 70t49 72q26 38 50 71q24 -34 48 -71.5t46.5 -74t41.5 -70t34 -60.5l111 150h376l126 -196h-444l-13 -20 q-34 -47 -76 -111t-83 -146q-41 83 -83.5 161t-83.5 137q-20 -28 -45 -66t-49.5 -84t-49 -100t-44.5 -114q-44 120 -95.5 217t-98.5 166q-6 -97 -32.5 -184.5t-68.5 -162.5t-99 -135.5t-127 -104t-150.5 -66.5t-168.5 -23q-96 0 -179 24.5t-150.5 69t-118.5 104.5t-86 129.5 t-52.5 145.5t-17.5 152z" />
<glyph unicode="&#x2000;" horiz-adv-x="1182" />
<glyph unicode="&#x2001;" horiz-adv-x="2365" />
<glyph unicode="&#x2002;" horiz-adv-x="1182" />
<glyph unicode="&#x2003;" horiz-adv-x="2365" />
<glyph unicode="&#x2004;" horiz-adv-x="788" />
<glyph unicode="&#x2005;" horiz-adv-x="591" />
<glyph unicode="&#x2006;" horiz-adv-x="394" />
<glyph unicode="&#x2007;" horiz-adv-x="394" />
<glyph unicode="&#x2008;" horiz-adv-x="295" />
<glyph unicode="&#x2009;" horiz-adv-x="473" />
<glyph unicode="&#x200a;" horiz-adv-x="131" />
<glyph unicode="&#x200b;" />
<glyph unicode="&#x2010;" horiz-adv-x="938" d="M96 461v174h748v-174h-748z" />
<glyph unicode="&#x2011;" horiz-adv-x="938" d="M96 461v174h748v-174h-748z" />
<glyph unicode="&#x2012;" horiz-adv-x="938" d="M96 461v174h748v-174h-748z" />
<glyph unicode="&#x2013;" horiz-adv-x="1153" d="M0 482v175h1153v-175h-1153z" />
<glyph unicode="&#x2014;" horiz-adv-x="1439" d="M1 482v175h1440v-175h-1440z" />
<glyph unicode="&#x2018;" horiz-adv-x="562" d="M161 927v212q0 60 13.5 119.5t42 108t74.5 79.5q45 32 109 34v-115q-35 -3 -58.5 -25.5t-38 -53t-20.5 -63t-6 -56.5h123v-240h-239z" />
<glyph unicode="&#x2019;" horiz-adv-x="562" d="M161 905v117q35 3 59.5 25t38 52.5t18.5 63.5q6 34 6 58h-122v239h239v-213q0 -60 -13 -119t-42.5 -107.5t-74.5 -80.5t-109 -35z" />
<glyph unicode="&#x201c;" horiz-adv-x="864" d="M127 927v212q0 60 14 119.5t42.5 108t74.5 80t108 33.5v-115q-35 -3 -59 -25.5t-37.5 -53t-19.5 -63t-6 -56.5h122v-240h-239zM498 927v212q0 60 14 119.5t42.5 108t74.5 80t108 33.5v-115q-35 -3 -59 -25.5t-38 -53t-19.5 -63t-5.5 -56.5h122v-240h-239z" />
<glyph unicode="&#x201d;" horiz-adv-x="864" d="M127 905v117q35 3 59 25t38 52.5t20 63.5q6 34 6 58h-123v239h239v-213q0 -60 -13.5 -119t-42 -107.5t-74.5 -80.5t-109 -35zM498 905v117q35 3 59 25t38 52.5t20 63.5q5 34 5 58h-122v239h239v-213q0 -60 -13.5 -119t-42 -107.5t-74.5 -80.5t-109 -35z" />
<glyph unicode="&#x2022;" horiz-adv-x="735" d="M54 628q0 58 24 112t66.5 95t99.5 65t121 24t122.5 -24t101 -65t68 -95t25.5 -112q0 -63 -25.5 -117.5t-68 -95.5t-101 -65t-122.5 -24t-121 24t-99.5 65t-66.5 95.5t-24 117.5z" />
<glyph unicode="&#x202f;" horiz-adv-x="473" />
<glyph unicode="&#x205f;" horiz-adv-x="591" />
<glyph unicode="&#x20ac;" horiz-adv-x="1569" d="M54 537v132h150v18.5v19.5v37t3 37h-153v131h171q25 117 79 217t136.5 174.5t192.5 117.5q112 42 249 42q89 0 166.5 -22t141 -58.5t113 -86t84.5 -106.5t52.5 -120t17.5 -122h-207q0 38 -12 78t-33.5 78t-54.5 72t-74.5 59.5t-91.5 41t-105 15.5q-96 0 -172 -30 t-131.5 -81t-92 -119.5t-55.5 -149.5h463v-131h-482q-3 -29 -3 -58v-27.5t3 -26.5h482v-132h-465q19 -87 56.5 -159.5t94.5 -125.5t132.5 -84t172.5 -31q82 0 149 32t118 86.5t80.5 123t34.5 144.5h202q0 -63 -19 -128t-54 -126.5t-86 -115.5t-115.5 -94.5t-140.5 -64 t-163 -23.5q-146 0 -260 41.5t-198.5 116.5t-138.5 179t-75 229h-162z" />
<glyph unicode="&#x2122;" horiz-adv-x="1995" d="M123 1334v126h646v-126h-249v-724h-149v724h-248zM929 610v850h220l231 -622l223 622h225v-850h-152l-1 669l-247 -669h-99l-252 672v-672h-148z" />
<glyph unicode="&#x25cc;" horiz-adv-x="1363" d="M317 590l117 55q-5 -26 -6.5 -55t6.5 -59zM415 333l49 115q16 -25 34.5 -45t41.5 -35zM437 847l119 -43q-32 -16 -54 -34q-20 -17 -35 -40zM622 835l60 117l54 -114q-29 6 -60 4.5t-54 -7.5zM628 333q26 -7 49 -7q24 1 56 10l-51 -114zM816 807l132 40l-52 -120 q-16 25 -37 44.5t-43 35.5zM819 365q25 15 44 34t33 40l34 -109zM933 534q9 25 9.5 52t-6.5 56l111 -55z" />
<glyph unicode="&#x25fc;" horiz-adv-x="1061" d="M0 0v1063h1063v-1063h-1063z" />
<glyph unicode="&#xf700;" horiz-adv-x="1141" d="M72 870q13 85 53.5 154.5t105 119.5t153.5 78t200 28q50 0 99.5 -7.5t99.5 -21.5q35 2 59 14t39 30t23 40q7 24 7 44h216q-1 -32 -10.5 -66.5t-31.5 -65.5t-56.5 -57t-83.5 -39q23 -25 42 -54.5t32 -66t19 -79t6 -92.5q0 -48 -14 -111.5t-36 -135t-49.5 -149t-58 -153.5 t-61.5 -147.5t-60 -132.5h-274l-195 565h-159v153h314l180 -541q19 43 41 96t43.5 109t43 113.5t37.5 113t25 106.5q11 51 11 95q3 136 -65.5 204.5t-207.5 68.5q-111 0 -177.5 -54.5t-89.5 -158.5h-220z" />
<glyph unicode="&#xf701;" d="M-1291 1432l73 154h727v-154h-800z" />
<glyph unicode="&#xf702;" d="M-1291 1432l73 154h536v186h191v-340h-800z" />
<glyph unicode="&#xf703;" d="M-1301 1432l78 154h367q-2 11 -2 21.5v18.5q0 41 15 76t41.5 61.5t62 42t76.5 15.5t75.5 -15.5t60 -42t40 -61.5t14.5 -76q0 -40 -14.5 -75.5t-40 -61.5t-60.5 -41q-34 -16 -75 -16h-638zM-742 1626q0 -32 22 -53t57 -21q32 0 52.5 21t20.5 53q0 35 -21 57q-20 22 -52 22 q-35 0 -57 -22t-22 -57z" />
<glyph unicode="&#xf704;" d="M-1304 1432l75 154h230v186h189v-186h131v186h188v-340h-813z" />
<glyph unicode="&#xf705;" d="M-682 1432v371h191v-371h-191z" />
<glyph unicode="&#xf706;" d="M-1113 1615v146h272v-181q67 0 119.5 13.5t89 38t56.5 58t20 71.5h182q0 -64 -29 -123.5t-87.5 -105.5t-147.5 -73t-209 -27h-160v183h-106z" />
<glyph unicode="&#xf707;" d="M-1178 1432q-3 73 11 126.5t39.5 90t59.5 54t69 17.5q47 0 84 -23q36 -24 54 -59q16 34 53 58t87 24q27 0 53 -10.5t47 -28t35.5 -45t20.5 -64.5q15 12 24.5 34.5t15 48t8.5 54t3 52.5h161q0 -34 -6 -69.5t-18.5 -70t-30 -66t-40 -57t-50.5 -43t-58 -23.5h-132 q0 13 -3.5 35t-10 42.5t-17 36t-23.5 15.5q-14 0 -24.5 -12.5t-17 -32.5t-9.5 -42.5t-3 -41.5h-125q0 19 -4 41.5t-9.5 42.5t-15.5 32q-11 13 -22 13q-15 0 -25 -15.5t-16 -36t-9 -42.5t-3 -35h-153z" />
<glyph unicode="&#xf708;" d="M-999 1588v146h170v152h192v-152h176v-146h-176v-156h-192v156h-170z" />
<glyph unicode="&#xf709;" d="M-902 1432q0 76 27.5 135t81 101.5t130 65t172.5 24.5v-149q-109 0 -168 -42.5t-59 -134.5h-184z" />
<glyph unicode="&#xf70a;" d="M-311 1429v377h191v-377h-191z" />
<glyph unicode="&#xf70b;" d="M-777 1618v146h272v-181q66 0 117.5 13.5t88 38t55.5 58t19 71.5h184q0 -65 -29 -124t-87.5 -105t-146 -73t-207.5 -27h-162v183h-104z" />
<glyph unicode="&#xf70c;" d="M-908 1432q-3 73 11 126.5t39.5 90t60.5 54t71 17.5q24 0 46.5 -6t42 -17t35 -26t24.5 -33q17 34 55 58t88 24q29 0 56 -10.5t49.5 -28t39 -45t21.5 -64.5q15 12 25 34.5t16 48t8 54t2 52.5h165q0 -50 -14.5 -104t-40.5 -101.5t-65 -81t-87 -42.5h-134q0 13 -4.5 35 t-12 42.5t-17.5 36t-24.5 15.5t-26.5 -12.5t-19 -32.5t-10 -42.5t-3 -41.5h-128q0 19 -4.5 41.5t-12 42.5t-17.5 32.5t-22 12.5q-15 0 -25.5 -15.5t-18 -36t-11 -42.5t-3.5 -35h-155z" />
<glyph unicode="&#xf70d;" d="M-488 1586v146h177v151h191v-151h177v-146h-177v-157h-191v157h-177z" />
<glyph unicode="&#xf70e;" d="M-473 1432q0 76 29 135t81.5 101.5t129.5 65t173 24.5v-149q-111 0 -168.5 -42.5t-57.5 -134.5h-187z" />
<glyph unicode="&#xf70f;" horiz-adv-x="1898" d="M41 870q16 70 54.5 138.5t103 123t156.5 88t213 33.5q99 0 176 -20t133.5 -54t97 -82.5t64.5 -105.5t35.5 -120.5t11.5 -128.5v-342q0 -64 20.5 -113.5t55.5 -83.5t80.5 -51.5t94.5 -17.5t92 16t76.5 48.5t53.5 82.5q21 49 21 119v826h198v-846q0 -106 -36.5 -183 t-98.5 -127.5t-141.5 -74.5t-164.5 -24q-89 0 -170.5 26t-144.5 77.5t-100 128t-37 177.5v385q0 57 -16 113t-52.5 101.5t-98 73t-150.5 30.5q-76 0 -133.5 -19t-98 -49.5t-62 -68.5t-26.5 -76q21 -12 38.5 -33t28.5 -48t17 -60q7 -34 7 -69v-508h131v-152h-330v663 q0 29 -3.5 58t-14.5 56t-30 51.5t-51 41.5z" />
<glyph unicode="&#xf710;" d="M-864 1432v257h191v-103h793v-154h-984z" />
<glyph unicode="&#xf711;" d="M-888 1624q0 42 16 80t44 65.5t66 44.5t80 17q41 0 79 -17t66.5 -44.5t44.5 -65.5t16 -80q0 -44 -16 -80.5t-44.5 -65t-65.5 -44.5t-80 -16q-44 0 -81 16t-65 44.5t-44 65t-16 80.5zM-765 1624q0 -18 6.5 -32.5t17.5 -26.5t27 -19t32 -7q18 0 33 7t26 19t17.5 26.5 t6.5 32.5q0 17 -6.5 31.5t-17.5 26.5t-27 19t-32 7q-17 0 -32.5 -7t-26.5 -19t-17.5 -26.5t-6.5 -31.5z" />
<glyph unicode="&#xf712;" d="M-1209 1683q0 70 26.5 118.5t68.5 78.5t99 44q57 13 116 13h569v-140h-549q-50 0 -79.5 -11.5t-44.5 -28.5t-18.5 -36.5t-3.5 -37.5q0 -11 3 -26t11.5 -28.5t27 -22.5t47.5 -9q24 0 42 8t29.5 23.5t16.5 35.5q4 21 4 47h132q-2 -25 3 -46t17 -36.5t29.5 -23.5t40.5 -8 q26 0 42 9t25.5 24t12 36.5t-0.5 44.5h149q9 -70 -4.5 -119.5t-42.5 -81.5t-69 -48q-42 -15 -86 -15q-38 0 -68.5 12.5t-54 33t-38 43.5t-17.5 47q-3 -24 -19.5 -47t-43 -43.5t-59.5 -33.5q-35 -12 -71 -12q-68 0 -114 23.5t-74.5 59t-41 76.5t-12.5 77z" />
<glyph unicode="&#xf713;" d="M-682 1910v324h191v-324h-191z" />
<glyph unicode="&#xf714;" d="M-999 2097v146h272v-183q66 0 118.5 14t88 38.5t55.5 58.5t20 72h182q0 -65 -29 -124t-87.5 -105t-146 -73.5t-207.5 -27.5h-161v184h-105z" />
<glyph unicode="&#xf715;" d="M-1037 1910q-4 73 10 127t39.5 90.5t60.5 53.5q33 18 71 18q47 0 83.5 -22.5t57.5 -59.5q16 34 53 58t88 24q29 0 55 -10.5t47 -29.5t35 -46t19 -62q15 12 28 34t22.5 48t15 54t5.5 53h167q0 -50 -17.5 -105t-47 -101.5t-72 -81t-89.5 -42.5h-134q0 13 -4 35.5t-10.5 43 t-16.5 35t-24.5 14.5t-25 -12.5t-17.5 -32t-10 -41.5t-3 -42h-126q0 19 -3.5 41.5t-10 42t-16.5 32.5q-11 12 -22 12q-15 0 -25 -14.5t-16 -35t-9 -42.5t-3 -36h-155z" />
<glyph unicode="&#xf716;" d="M-856 2070v139h179v156h184v-156h175v-139h-175v-160h-184v160h-179z" />
<glyph unicode="&#xf717;" d="M-651 1791q0 76 27.5 135.5t81 101.5t130 65t173.5 24v-149q-110 0 -169 -42.5t-59 -134.5h-184z" />
<glyph unicode="&#xf718;" d="M-415 -499h295v-437h-188v291h-107v146z" />
<glyph unicode="&#xf719;" d="M-853 -499h300v-146q0 -70 30 -105t92 -35q123 0 123 140v146h188v-146q0 -59 -16 -113t-52.5 -93.5t-96.5 -62t-146 -22.5q-84 0 -144 21t-97.5 59t-54.5 92q-18 54 -18 119h-108v146z" />
<glyph unicode="&#xf71a;" d="M-368 -625q0 31 11.5 57t31.5 46t47 30t56 10t55.5 -10t46 -30t31.5 -46t12 -57t-12 -57t-31.5 -46t-46 -30t-55.5 -10q-31 0 -57 10t-46 30t-31.5 46t-11.5 57z" />
<glyph unicode="&#xf71d;" horiz-adv-x="1566" d="M35 1226h225l165 -1004h6l232 788h219l233 -788h6l117 588q12 69 15 123t-10.5 92t-47 58.5t-91.5 20.5v125q57 3 103 13.5t81 33.5t55.5 58t25.5 87h234q-9 -63 -34.5 -109t-62.5 -77.5t-84 -49.5q-47 -20 -93 -26q38 -11 66.5 -36t44.5 -64.5t16.5 -92t-15.5 -116.5 l-209 -850h-219l-236 788h-9l-237 -788h-220z" />
<glyph d="M-911 1432q0 54 12.5 102.5t39.5 87.5t69 66q42 29 102 41q9 42 31 76.5t60.5 59t95.5 39t133 16.5v-153q-50 0 -82 -7.5t-50 -23.5t-24.5 -42.5t-6.5 -64.5v-32h-43q-45 0 -74 -11.5t-46.5 -33.5t-25 -52t-7.5 -68h-184z" />
<glyph horiz-adv-x="1007" d="M-888 1624q0 42 16 80t44 65.5t66 44.5t80 17q41 0 79 -17t66.5 -44.5t44.5 -65.5t16 -80q0 -44 -16 -80.5t-44.5 -65t-65.5 -44.5t-80 -16q-44 0 -81 16t-65 44.5t-44 65t-16 80.5zM-765 1624q0 -18 6.5 -32.5t17.5 -26.5t27 -19t32 -7q18 0 33 7t26 19t17.5 26.5 t6.5 32.5q0 17 -6.5 31.5t-17.5 26.5t-27 19t-32 7q-17 0 -32.5 -7t-26.5 -19t-17.5 -26.5t-6.5 -31.5zM38 870q0 61 17.5 114t46.5 95t70 74.5t89.5 53.5t101 32t107.5 11q91 0 166.5 -25t132 -74.5t88 -125.5t31.5 -178v-847h-197v804q0 146 -56.5 212.5t-164.5 66.5 q-96 0 -156 -54t-66 -159h-210z" />
<glyph horiz-adv-x="1007" d="M-888 1624q0 42 16 80t44 65.5t66 44.5t80 17q41 0 79 -17t66.5 -44.5t44.5 -65.5t16 -80q0 -44 -16 -80.5t-44.5 -65t-65.5 -44.5t-80 -16q-44 0 -81 16t-65 44.5t-44 65t-16 80.5zM-765 1624q0 -18 6.5 -32.5t17.5 -26.5t27 -19t32 -7q18 0 33 7t26 19t17.5 26.5 t6.5 32.5q0 17 -6.5 31.5t-17.5 26.5t-27 19t-32 7q-17 0 -32.5 -7t-26.5 -19t-17.5 -26.5t-6.5 -31.5zM38 870q0 61 17.5 114t46.5 95t70 74.5t89.5 53.5t101 32t107.5 11q91 0 166.5 -25t132 -74.5t88 -125.5t31.5 -178v-847h-197v804q0 146 -56.5 212.5t-164.5 66.5 q-96 0 -156 -54t-66 -159h-210z" />
<glyph d="M-958 1432l79 154h759v-154h-838z" />
<glyph d="M-958 1432l79 154h568v186h191v-340h-838z" />
<glyph d="M-958 1432l79 154h403q-3 11 -3 21.5v18.5q0 41 15.5 76t41.5 61.5t62 42t77 15.5t76 -15.5t61 -42t40.5 -61.5t14.5 -76q0 -40 -14.5 -75.5t-40.5 -61.5t-62 -41q-34 -16 -75 -16h-675zM-362 1626q0 -14 6 -28.5t17.5 -24t25.5 -15.5q15 -6 30 -6q14 0 29 6t25 15.5 t16 24t6 28.5q0 18 -6 32t-16 25t-25 16.5t-29 5.5q-15 0 -29.5 -5.5t-26 -16.5t-17.5 -25t-6 -32z" />
<glyph d="M-958 1432l79 154h251v186h189v-186h131v186h188v-340h-838z" />
<glyph d="M-1539 1432l73 154h1035v-154h-1108z" />
<glyph d="M-1539 1432l73 154h844v186h191v-340h-1108z" />
<glyph d="M-1548 1432l76 154h707q-3 11 -3 21.5v18.5q0 41 14.5 76t41 61.5t62 42t76.5 15.5t75.5 -15.5t60.5 -42t40.5 -61.5t14.5 -76q0 -40 -14.5 -75.5t-40.5 -61.5t-61 -41.5t-75 -15.5h-974zM-651 1626q0 -32 22 -53t55 -21q32 0 53.5 21t21.5 53q0 35 -22 57t-53 22 q-35 0 -56 -22t-21 -57z" />
<glyph d="M-1551 1432l73 154h539v186h189v-186h131v186h188v-340h-1120z" />
<glyph d="M-622 1910v324h191v-324h-191z" />
<glyph d="M-908 2097v146h271v-183q66 0 118 14t88.5 38.5t55.5 58.5t19 72h182q0 -65 -28.5 -124t-86.5 -105t-147 -74q-87 -27 -206 -27h-162v184h-104z" />
<glyph d="M-1037 1910q-4 73 10 127t39.5 90.5t60.5 53.5q33 18 71 18q47 0 83.5 -22.5t57.5 -59.5q16 34 53 58t88 24q29 0 55 -10.5t47 -29.5t35 -46t19 -62q15 12 28 34t22.5 48t15 54t5.5 53h167q0 -50 -17.5 -105t-47 -101.5t-72 -81t-89.5 -42.5h-134q0 13 -4 35.5t-10.5 43 t-16.5 35t-24.5 14.5t-25 -12.5t-17.5 -32t-10 -41.5t-3 -42h-126q0 19 -3.5 41.5t-10 42t-16.5 32.5q-11 12 -22 12q-15 0 -25 -14.5t-16 -35t-9 -42.5t-3 -36h-155z" />
<glyph d="M-794 2070v139h175v156h184v-156h178v-139h-178v-160h-184v160h-175z" />
<glyph d="M-1489 1432l79 154h1290v-154h-1369z" />
<glyph d="M-1489 1432l79 154h1099v186h191v-340h-1369z" />
<glyph d="M-1489 1432l79 154h934q-3 11 -3 21.5v18.5q0 41 15.5 76t41.5 61.5t62 42t77 15.5t76 -15.5t61 -42t40.5 -61.5t14.5 -76q0 -40 -14.5 -75.5t-40.5 -61.5t-62 -41q-34 -16 -75 -16h-1206zM-362 1626q0 -14 6 -28.5t17.5 -24t25.5 -15.5q15 -6 30 -6q14 0 29 6t25 15.5 t16 24t6 28.5q0 18 -6 32t-16 25t-25 16.5t-29 5.5q-15 0 -29.5 -5.5t-26 -16.5t-17.5 -25t-6 -32z" />
<glyph d="M-1489 1432l79 154h782v186h189v-186h131v186h188v-340h-1369z" />
<glyph d="M-311 1791v323h191v-323h-191z" />
<glyph d="M-645 1977v146h271v-183q67 0 119 14t88 39t55 58.5t19 71.5h184q0 -64 -29.5 -123.5t-88 -105.5t-146 -73t-207.5 -27h-160v183h-105z" />
<glyph d="M-780 1791q-4 73 10 126.5t38.5 90t59.5 54t73 17.5q46 0 83 -22.5t55 -59.5q17 35 56 58.5t88 23.5q28 0 53.5 -10t46.5 -29t36 -46t20 -62q15 11 29 33t25.5 48.5t18 54t6.5 52.5h167q0 -50 -19 -104.5t-51.5 -101.5t-74.5 -80.5t-89 -42.5h-137q0 14 -3.5 35.5 t-10.5 42t-17 36t-25 15.5q-13 0 -22.5 -13t-16.5 -33t-10 -42t-3 -41h-129q0 19 -3.5 41t-10 42t-15.5 33t-22 13q-14 0 -23.5 -15.5t-17 -36t-10.5 -42t-3 -35.5h-152z" />
<glyph d="M-485 1951v140h178v154h184v-154h176v-140h-176v-160h-184v160h-178z" />
<glyph d="M-682 1791v323h191v-323h-191z" />
<glyph d="M-969 1974v146h273v-183q65 0 117.5 14t88.5 39t55.5 58.5t19.5 71.5h181q0 -64 -28.5 -123.5t-86.5 -105.5t-146.5 -73t-208.5 -27h-160v183h-105z" />
<glyph d="M-1098 1791q-4 73 9.5 126.5t40 90t61.5 54t73 17.5q47 0 83.5 -22.5t56.5 -59.5q16 35 53.5 58.5t86.5 23.5q30 0 56 -10t46.5 -29t35 -46t17.5 -62q15 11 28.5 33t23 48.5t15.5 54t6 52.5h167q0 -50 -17.5 -104.5t-48.5 -101.5t-72 -80.5t-90 -42.5h-135 q0 14 -2.5 35.5t-10 42t-17.5 36t-22 15.5q-15 0 -26 -13t-18 -33t-10.5 -42t-3.5 -41h-126q0 19 -3 41t-9.5 42t-16 33t-21.5 13q-14 0 -24.5 -15.5t-17 -36t-9.5 -42t-3 -35.5h-156z" />
<glyph d="M-856 1951v138h179v156h184v-156h175v-138h-175v-161h-184v161h-179z" />
<glyph d="M-616 -161h296v-438h-188v291h-108v147z" />
<glyph d="M-894 -161h298v-147q0 -70 30 -105q29 -35 93 -35q61 0 92 35t31 105v147h189v-147q0 -58 -16.5 -111.5t-53 -93t-95.5 -63t-147 -23.5q-85 0 -144.5 21.5t-97 60t-54 91t-16.5 118.5h-109v147z" />
<glyph d="M-613 -254q0 29 11.5 56t31.5 47t47 31.5t56 11.5t55.5 -11.5t46.5 -31.5t31 -47t11 -56t-11 -55.5t-31 -46t-46.5 -30.5t-55.5 -11q-31 0 -57 11t-46 30.5t-31.5 46t-11.5 55.5z" />
<glyph d="M-596 -161h297v-438h-189v291h-108v147z" />
<glyph d="M-1061 -161h299v-147q0 -70 29 -105t94 -35q122 0 122 140v147h187v-147q0 -58 -16 -111.5t-52.5 -93t-96.5 -63t-144.5 -23.5t-144.5 21.5t-98 60t-55.5 91t-17.5 118.5h-106v147z" />
<glyph d="M-602 -254q0 29 12 56t32.5 47t46.5 31.5t55.5 11.5t55.5 -11.5t46.5 -31.5t31.5 -47t11 -56t-11 -55.5t-31.5 -46t-46.5 -30.5t-55.5 -11t-55.5 11t-46.5 30.5t-32.5 46t-12 55.5z" />
<glyph d="M-894 1432v257h190v-103h943v-154h-1133z" />
<glyph d="M-651 1910v324h190v-324h-190z" />
<glyph d="M-930 2097v146h273v-183q67 0 118 14t87.5 38.5t55.5 58.5t19 72h183q0 -65 -28.5 -124t-87 -105t-146.5 -74q-87 -27 -207 -27h-162v184h-105z" />
<glyph d="M-948 1910q-4 73 10 127t39.5 90.5t60.5 54t73 17.5q47 0 83.5 -22.5t56.5 -59.5q16 34 53.5 58t86.5 24q29 0 55.5 -10.5t47 -29.5t35 -46t17.5 -62q16 12 30 34t22.5 48t14.5 54t6 53h166q0 -50 -17.5 -105t-47 -101.5t-71.5 -81t-90 -42.5h-134q0 13 -3.5 35.5 t-10.5 43t-17 35t-23 14.5q-15 0 -25 -12.5t-17.5 -32t-11 -41.5t-3.5 -42h-126q0 19 -3.5 41.5t-9.5 42t-16 32t-22 12.5q-14 0 -24.5 -14.5t-16 -35t-8.5 -42.5t-3 -36h-157z" />
<glyph d="M-825 2070v139h177v156h184v-156h176v-139h-176v-160h-184v160h-177z" />
<glyph d="M-769 1910v324h191v-324h-191z" />
<glyph d="M-943 2070v139h178v156h184v-156h175v-139h-175v-160h-184v160h-178z" />
<glyph d="M-642 -161h296v-438h-188v291h-108v147z" />
<glyph d="M-926 -161h300v-147q0 -70 30 -105t92 -35q123 0 123 140v147h188v-147q0 -58 -16 -111.5t-52.5 -93t-96.5 -63t-146 -23.5q-84 0 -144 21.5t-97.5 60t-55 91t-17.5 118.5h-108v147z" />
<glyph d="M-660 -254q0 29 11.5 56t31.5 47t47 31.5t56 11.5t55.5 -11.5t46 -31.5t31.5 -47t12 -56t-12 -55.5t-31.5 -46t-46 -30.5t-55.5 -11q-31 0 -57 11t-46 30.5t-31.5 46t-11.5 55.5z" />
</font>
</defs>
</svg>
